<?xml version="1.0" encoding="UTF-8"?>
<svg xmlns="http://www.w3.org/2000/svg" viewBox="0 0 721.07 345.17">
  <defs>
    <style>
      .cls-1 {
        fill: #000;
      }

      .cls-1, .cls-2 {
        stroke-width: 0px;
      }

      .cls-3 {
        stroke: #ffb000;
      }

      .cls-3, .cls-4, .cls-5, .cls-6 {
        stroke-miterlimit: 10;
      }

      .cls-3, .cls-5 {
        stroke-width: 3px;
      }

      .cls-3, .cls-5, .cls-6, .cls-7 {
        fill: none;
      }

      .cls-4 {
        fill: #fff;
      }

      .cls-4, .cls-6 {
        stroke: #231815;
        stroke-width: 2px;
      }

      .cls-5 {
        stroke: #f200ff;
      }

      .cls-2 {
        fill: #231815;
      }

      .cls-7 {
        stroke: #000;
        stroke-linecap: round;
        stroke-linejoin: round;
      }
    </style>
  </defs>
  <g id="Make2D::可见线::正切线">
    <line class="cls-7" x1="629.56" y1="29.12" x2="629.56" y2="59.26"/>
    <path class="cls-7" d="M629.56,29.12c2.52,0,5.21.53,7.47,1.73,2.16,1.15,4.34,3.19,4.34,5.96"/>
    <line class="cls-7" x1="397.97" y1="29.12" x2="397.97" y2="59.26"/>
    <path class="cls-7" d="M397.97,29.12c-2.52,0-5.21.53-7.48,1.73-2.16,1.15-4.34,3.19-4.34,5.96"/>
    <path class="cls-7" d="M306.98,71.07s.02,0,.04,0h4.78"/>
    <path class="cls-7" d="M311.8,101.79h-4.67s-.1-.03-.15,0"/>
    <line class="cls-7" x1="311.8" y1="101.79" x2="311.8" y2="71.07"/>
    <line class="cls-7" x1="705.19" y1="71.07" x2="715.73" y2="71.07"/>
    <path class="cls-7" d="M706.32,59.26c2.92,0,5.4,1.67,7.01,3.94,1.62,2.28,2.4,5.12,2.4,7.88"/>
    <path class="cls-7" d="M705.19,71.07c0-2.76-.77-5.6-2.4-7.88-1.61-2.27-4.09-3.94-7.01-3.94"/>
    <path class="cls-7" d="M720.54,71.07s-.02,0-.04,0h-4.78"/>
    <path class="cls-7" d="M321.21,59.26c-2.92,0-5.4,1.67-7.01,3.94-1.62,2.28-2.4,5.12-2.4,7.88"/>
    <line class="cls-7" x1="311.8" y1="71.07" x2="322.34" y2="71.07"/>
    <path class="cls-7" d="M331.75,59.26c-2.92,0-5.4,1.67-7.01,3.94-1.62,2.28-2.4,5.12-2.4,7.88"/>
    <line class="cls-7" x1="715.73" y1="71.07" x2="715.73" y2="101.79"/>
    <path class="cls-7" d="M622.47,22.03c2.06.02,3.79.79,5.17,2.31.6.66,1.07,1.42,1.42,2.28.32.8.49,1.64.5,2.5"/>
    <line class="cls-7" x1="565.05" y1="22.03" x2="622.47" y2="22.03"/>
    <line class="cls-7" x1="489.42" y1="22.03" x2="538.1" y2="22.03"/>
    <line class="cls-7" x1="405.05" y1="22.03" x2="462.48" y2="22.03"/>
    <path class="cls-7" d="M397.97,29.12c0-.86.17-1.69.5-2.5.35-.87.82-1.63,1.42-2.28,1.38-1.52,3.11-2.29,5.17-2.31"/>
    <line class="cls-7" x1="322.34" y1="71.07" x2="322.34" y2="101.79"/>
    <path class="cls-7" d="M341.15,71.07h-18.81"/>
    <path class="cls-7" d="M341.15,59.26c.02-.05,0,.06,0,.09v11.73"/>
    <line class="cls-7" x1="705.19" y1="101.79" x2="705.19" y2="71.07"/>
    <path class="cls-7" d="M686.37,71.07v-11.47c0-.12.01-.23,0-.35"/>
    <path class="cls-7" d="M705.19,71.07h-18.81"/>
    <path class="cls-7" d="M341.15,101.79v4.69s.02.04,0,.03"/>
    <path class="cls-7" d="M322.34,101.79h18.81"/>
    <path class="cls-7" d="M686.37,101.79h18.81"/>
    <path class="cls-7" d="M686.37,106.52s0-.02,0-.03v-4.69"/>
    <path class="cls-7" d="M715.73,289.67c0-1.19-.26-2.17-.96-3.15-.65-.91-1.64-1.58-2.81-1.58"/>
    <path class="cls-7" d="M720.54,289.67c.1,0-.1,0-.15,0h-4.67"/>
    <path class="cls-7" d="M715.73,320.39h3.61c.4,0,.8.05,1.2,0"/>
    <line class="cls-7" x1="715.73" y1="320.39" x2="715.73" y2="289.67"/>
    <line class="cls-7" x1="715.73" y1="289.67" x2="705.19" y2="289.67"/>
    <path class="cls-7" d="M705.19,289.67c0-1.19-.26-2.17-.96-3.15-.65-.91-1.64-1.58-2.81-1.58"/>
    <path class="cls-7" d="M686.37,289.67v-4.69s-.02-.03,0-.03"/>
    <path class="cls-7" d="M705.19,289.67h-18.81"/>
    <line class="cls-7" x1="341.15" y1="101.79" x2="341.15" y2="71.07"/>
    <line class="cls-7" x1="686.37" y1="71.07" x2="686.37" y2="101.79"/>
    <path class="cls-7" d="M306.98,320.39c.05-.02.1,0,.15,0h4.67"/>
    <line class="cls-7" x1="311.8" y1="289.67" x2="311.8" y2="320.39"/>
    <path class="cls-7" d="M306.98,289.67s.02,0,.04,0h4.78"/>
    <path class="cls-7" d="M315.56,284.94c-1.17,0-2.16.67-2.81,1.58-.7.98-.96,1.96-.96,3.15"/>
    <path class="cls-7" d="M341.15,289.67v-4.69s.02-.02,0-.03"/>
    <path class="cls-7" d="M322.34,289.67c0-1.19.26-2.17.96-3.15.64-.91,1.64-1.58,2.81-1.58"/>
    <path class="cls-7" d="M341.15,289.67h-18.81"/>
    <line class="cls-7" x1="322.34" y1="289.67" x2="311.8" y2="289.67"/>
    <line class="cls-7" x1="705.19" y1="320.39" x2="705.19" y2="289.67"/>
    <line class="cls-7" x1="715.73" y1="320.39" x2="705.19" y2="320.39"/>
    <path class="cls-7" d="M705.19,320.39h-18.81"/>
    <line class="cls-7" x1="686.37" y1="289.67" x2="686.37" y2="320.39"/>
    <line class="cls-7" x1="341.15" y1="320.39" x2="341.15" y2="289.67"/>
    <path class="cls-7" d="M341.15,320.39h-18.81"/>
    <line class="cls-7" x1="322.34" y1="320.39" x2="322.34" y2="289.67"/>
    <line class="cls-7" x1="322.34" y1="320.39" x2="311.8" y2="320.39"/>
    <path class="cls-7" d="M706.32,332.21c2.92,0,5.4-1.67,7.01-3.94,1.62-2.28,2.4-5.12,2.4-7.88"/>
    <path class="cls-7" d="M695.78,332.21c2.92,0,5.4-1.67,7.01-3.94,1.62-2.28,2.4-5.12,2.4-7.88"/>
    <path class="cls-7" d="M686.37,332.21c-.02-.12,0-.23,0-.35v-11.47"/>
    <path class="cls-7" d="M341.15,332.21c-.04.23,0-.23,0-.35v-11.47"/>
    <path class="cls-7" d="M331.75,332.21c-2.92,0-5.4-1.67-7.01-3.94-1.62-2.28-2.4-5.12-2.4-7.88"/>
    <path class="cls-7" d="M321.21,332.21c-2.92,0-5.4-1.67-7.01-3.94-1.62-2.28-2.4-5.12-2.4-7.88"/>
    <line class="cls-7" x1="369.61" y1="289.67" x2="369.61" y2="101.79"/>
    <line class="cls-7" x1="657.92" y1="101.79" x2="657.92" y2="289.67"/>
    <line class="cls-7" x1="369.61" y1="101.79" x2="341.15" y2="101.79"/>
    <line class="cls-7" x1="341.15" y1="71.07" x2="686.37" y2="71.07"/>
    <line class="cls-7" x1="686.37" y1="101.79" x2="657.92" y2="101.79"/>
    <line class="cls-7" x1="657.92" y1="289.67" x2="686.37" y2="289.67"/>
    <line class="cls-7" x1="341.15" y1="289.67" x2="369.61" y2="289.67"/>
    <path class="cls-7" d="M405.05,17.9c.05.04,0,.08,0,.13v4"/>
    <line class="cls-7" x1="686.37" y1="320.39" x2="341.15" y2="320.39"/>
    <path class="cls-7" d="M622.47,22.03v-3.61c0-.17.04-.34,0-.51"/>
    <line class="cls-7" x1="677.4" y1="141.36" x2="677.4" y2="250.1"/>
    <line class="cls-7" x1="350.12" y1="250.1" x2="350.12" y2="141.36"/>
  </g>
  <g id="Make2D::可见线::曲线">
    <line class="cls-7" x1="393.8" y1="21.63" x2="382.61" y2="21.63"/>
    <line class="cls-7" x1="644.92" y1="21.63" x2="633.74" y2="21.63"/>
    <line class="cls-7" x1="644.92" y1="54.65" x2="644.92" y2="13.29"/>
    <line class="cls-7" x1="704" y1="259.54" x2="704" y2="131.93"/>
    <line class="cls-7" x1="323.52" y1="131.93" x2="323.52" y2="259.54"/>
    <line class="cls-7" x1="382.6" y1="13.29" x2="382.6" y2="54.65"/>
    <line class="cls-7" x1="354.8" y1="250.09" x2="354.8" y2="141.38"/>
    <line class="cls-7" x1="672.72" y1="141.38" x2="672.72" y2="250.09"/>
    <line class="cls-7" x1="324.12" y1="250.93" x2="324.12" y2="140.53"/>
    <line class="cls-7" x1="703.41" y1="140.53" x2="703.41" y2="250.93"/>
    <path class="cls-7" d="M633.5,21.46c.83.59,1.61,1.25,2.34,1.97.92.93,1.74,1.95,2.45,3.04"/>
    <line class="cls-7" x1="565.05" y1="59.26" x2="565.05" y2="22.03"/>
    <line class="cls-7" x1="538.1" y1="59.26" x2="538.1" y2="22.03"/>
    <line class="cls-7" x1="489.42" y1="59.26" x2="489.42" y2="22.03"/>
    <line class="cls-7" x1="462.48" y1="22.03" x2="462.48" y2="59.26"/>
    <line class="cls-7" x1="439.91" y1="263.08" x2="439.91" y2="225.27"/>
    <line class="cls-7" x1="483.63" y1="225.27" x2="483.63" y2="263.08"/>
    <line class="cls-7" x1="595.88" y1="263.08" x2="595.88" y2="225.27"/>
    <line class="cls-7" x1="639.6" y1="225.27" x2="639.6" y2="263.08"/>
    <line class="cls-7" x1="387.92" y1="263.08" x2="387.92" y2="225.27"/>
    <line class="cls-7" x1="431.64" y1="225.27" x2="431.64" y2="263.08"/>
    <line class="cls-7" x1="535.62" y1="263.08" x2="535.62" y2="225.27"/>
    <line class="cls-7" x1="491.9" y1="263.08" x2="491.9" y2="225.27"/>
    <line class="cls-7" x1="543.89" y1="263.08" x2="543.89" y2="225.27"/>
    <line class="cls-7" x1="587.61" y1="263.08" x2="587.61" y2="225.27"/>
    <line class="cls-7" x1="355.43" y1="123.08" x2="355.43" y2="263.28"/>
    <line class="cls-7" x1="672.1" y1="263.28" x2="672.1" y2="123.08"/>
    <line class="cls-7" x1="686.37" y1="59.26" x2="341.15" y2="59.26"/>
    <path class="cls-7" d="M565.05,22.03v-4.1s-.02-.04,0-.03"/>
    <path class="cls-7" d="M538.1,22.03v-3.61c0-.17.04-.34,0-.51"/>
    <path class="cls-7" d="M489.42,22.03v-4s-.05-.08,0-.13"/>
    <path class="cls-7" d="M462.48,22.03v-4s.04-.11,0-.13"/>
    <line class="cls-7" x1="561.62" y1="272.54" x2="517.9" y2="272.54"/>
    <line class="cls-7" x1="517.9" y1="310.35" x2="561.62" y2="310.35"/>
    <line class="cls-7" x1="483.63" y1="225.27" x2="439.91" y2="225.27"/>
    <line class="cls-7" x1="439.91" y1="263.08" x2="483.63" y2="263.08"/>
    <line class="cls-7" x1="431.64" y1="83.48" x2="387.92" y2="83.48"/>
    <line class="cls-7" x1="387.92" y1="121.29" x2="431.64" y2="121.29"/>
    <line class="cls-7" x1="439.91" y1="121.29" x2="483.63" y2="121.29"/>
    <line class="cls-7" x1="483.63" y1="83.48" x2="439.91" y2="83.48"/>
    <line class="cls-7" x1="587.61" y1="83.48" x2="543.89" y2="83.48"/>
    <line class="cls-7" x1="543.89" y1="121.29" x2="587.61" y2="121.29"/>
    <line class="cls-7" x1="595.88" y1="121.29" x2="639.6" y2="121.29"/>
    <line class="cls-7" x1="639.6" y1="83.48" x2="595.88" y2="83.48"/>
    <line class="cls-7" x1="491.9" y1="121.29" x2="535.62" y2="121.29"/>
    <line class="cls-7" x1="535.62" y1="83.48" x2="491.9" y2="83.48"/>
    <line class="cls-7" x1="431.64" y1="130.74" x2="387.92" y2="130.74"/>
    <line class="cls-7" x1="387.92" y1="168.55" x2="431.64" y2="168.55"/>
    <line class="cls-7" x1="543.89" y1="215.82" x2="587.61" y2="215.82"/>
    <line class="cls-7" x1="587.61" y1="178.01" x2="543.89" y2="178.01"/>
    <line class="cls-7" x1="351.88" y1="106.52" x2="351.88" y2="131.93"/>
    <line class="cls-7" x1="388.5" y1="332.21" x2="391.47" y2="337.05"/>
    <line class="cls-7" x1="668.03" y1="284.94" x2="675.64" y2="272.54"/>
    <line class="cls-7" x1="675.64" y1="59.26" x2="675.64" y2="54.65"/>
    <line class="cls-7" x1="535.62" y1="178.01" x2="491.9" y2="178.01"/>
    <line class="cls-7" x1="491.9" y1="215.82" x2="535.62" y2="215.82"/>
    <line class="cls-7" x1="483.63" y1="178.01" x2="439.91" y2="178.01"/>
    <line class="cls-7" x1="439.91" y1="215.82" x2="483.63" y2="215.82"/>
    <line class="cls-7" x1="569.89" y1="310.35" x2="613.61" y2="310.35"/>
    <line class="cls-7" x1="613.61" y1="272.54" x2="569.89" y2="272.54"/>
    <line class="cls-7" x1="639.6" y1="225.27" x2="595.88" y2="225.27"/>
    <line class="cls-7" x1="595.88" y1="263.08" x2="639.6" y2="263.08"/>
    <line class="cls-7" x1="413.92" y1="310.35" x2="457.64" y2="310.35"/>
    <line class="cls-7" x1="457.64" y1="272.54" x2="413.92" y2="272.54"/>
    <line class="cls-7" x1="595.88" y1="168.55" x2="639.6" y2="168.55"/>
    <line class="cls-7" x1="639.6" y1="130.74" x2="595.88" y2="130.74"/>
    <line class="cls-7" x1="483.63" y1="130.74" x2="439.91" y2="130.74"/>
    <line class="cls-7" x1="439.91" y1="168.55" x2="483.63" y2="168.55"/>
    <line class="cls-7" x1="431.64" y1="225.27" x2="387.92" y2="225.27"/>
    <line class="cls-7" x1="387.92" y1="263.08" x2="431.64" y2="263.08"/>
    <line class="cls-7" x1="491.9" y1="263.08" x2="535.62" y2="263.08"/>
    <line class="cls-7" x1="535.62" y1="225.27" x2="491.9" y2="225.27"/>
    <line class="cls-7" x1="387.92" y1="215.82" x2="431.64" y2="215.82"/>
    <line class="cls-7" x1="431.64" y1="178.01" x2="387.92" y2="178.01"/>
    <line class="cls-7" x1="509.63" y1="272.54" x2="465.91" y2="272.54"/>
    <line class="cls-7" x1="465.91" y1="310.35" x2="509.63" y2="310.35"/>
    <line class="cls-7" x1="491.9" y1="168.55" x2="535.62" y2="168.55"/>
    <line class="cls-7" x1="535.62" y1="130.74" x2="491.9" y2="130.74"/>
    <line class="cls-7" x1="543.89" y1="168.55" x2="587.61" y2="168.55"/>
    <line class="cls-7" x1="587.61" y1="130.74" x2="543.89" y2="130.74"/>
    <line class="cls-7" x1="587.61" y1="225.27" x2="543.89" y2="225.27"/>
    <line class="cls-7" x1="543.89" y1="263.08" x2="587.61" y2="263.08"/>
    <line class="cls-7" x1="595.88" y1="215.82" x2="639.6" y2="215.82"/>
    <line class="cls-7" x1="639.6" y1="178.01" x2="595.88" y2="178.01"/>
    <line class="cls-7" x1="364.88" y1="106.52" x2="341.15" y2="106.52"/>
    <line class="cls-7" x1="662.65" y1="106.52" x2="686.37" y2="106.52"/>
    <line class="cls-7" x1="662.65" y1="106.52" x2="662.65" y2="284.94"/>
    <line class="cls-7" x1="364.88" y1="284.94" x2="364.88" y2="106.52"/>
    <line class="cls-7" x1="686.37" y1="332.21" x2="341.15" y2="332.21"/>
    <path class="cls-7" d="M386.78,32.04c.85-3.23,2.55-6.24,4.91-8.6,3.5-3.5,8.42-5.54,13.37-5.54"/>
    <path class="cls-7" d="M638.31,26.48c1.13,1.74,1.93,3.55,2.46,5.55"/>
    <path class="cls-7" d="M627.74,18.65c2.11.61,3.98,1.52,5.76,2.81"/>
    <line class="cls-7" x1="364.88" y1="284.95" x2="364.88" y2="284.99"/>
    <path class="cls-7" d="M639.28,28.2s.01.02.02.03"/>
    <path class="cls-7" d="M640.75,32.04c.41,1.56.63,3.16.63,4.77"/>
    <path class="cls-7" d="M318.8,332.21c-6.53,0-11.82-5.29-11.82-11.81"/>
    <path class="cls-7" d="M321.21,332.21h-2.41"/>
    <line class="cls-7" x1="331.75" y1="332.21" x2="321.21" y2="332.21"/>
    <path class="cls-7" d="M341.15,332.21h-9.41"/>
    <path class="cls-7" d="M695.78,332.21h-9.41"/>
    <line class="cls-7" x1="706.32" y1="332.21" x2="695.78" y2="332.21"/>
    <path class="cls-7" d="M708.73,332.21h-2.41"/>
    <path class="cls-7" d="M708.73,332.21c6.53,0,11.82-5.29,11.82-11.81"/>
    <line class="cls-7" x1="326.1" y1="284.94" x2="315.56" y2="284.94"/>
    <path class="cls-7" d="M341.15,284.94h-15.05"/>
    <path class="cls-7" d="M306.98,289.67c0-2.61,2.12-4.73,4.73-4.73"/>
    <path class="cls-7" d="M315.56,284.94h-3.86"/>
    <line class="cls-7" x1="306.98" y1="289.67" x2="306.98" y2="320.39"/>
    <path class="cls-7" d="M369.61,289.67c-1.58-1.58-3.15-3.15-4.73-4.73"/>
    <path class="cls-7" d="M662.65,284.94c-1.58,1.58-3.15,3.15-4.73,4.73"/>
    <path class="cls-7" d="M662.65,106.52c-1.58-1.58-3.15-3.15-4.73-4.73"/>
    <path class="cls-7" d="M369.61,101.79c-1.58,1.58-3.15,3.15-4.73,4.73"/>
    <path class="cls-7" d="M686.37,284.94h15.05"/>
    <line class="cls-7" x1="701.42" y1="284.94" x2="711.96" y2="284.94"/>
    <line class="cls-7" x1="720.54" y1="289.67" x2="720.54" y2="320.39"/>
    <path class="cls-7" d="M715.82,284.94c2.61,0,4.73,2.12,4.73,4.73"/>
    <path class="cls-7" d="M711.96,284.94h3.86"/>
    <line class="cls-7" x1="462.48" y1="17.9" x2="405.05" y2="17.9"/>
    <line class="cls-7" x1="489.42" y1="17.9" x2="462.48" y2="17.9"/>
    <line class="cls-7" x1="462.48" y1="39.17" x2="489.42" y2="39.17"/>
    <line class="cls-7" x1="538.1" y1="17.9" x2="489.42" y2="17.9"/>
    <line class="cls-7" x1="565.05" y1="17.9" x2="538.1" y2="17.9"/>
    <line class="cls-7" x1="538.1" y1="39.17" x2="565.05" y2="39.17"/>
    <line class="cls-7" x1="622.47" y1="17.9" x2="565.05" y2="17.9"/>
    <path class="cls-7" d="M705.19,101.79c0,1.19-.26,2.17-.96,3.15-.65.91-1.64,1.58-2.81,1.58"/>
    <path class="cls-7" d="M686.37,106.52h15.05"/>
    <path class="cls-7" d="M672.1,263.28c0,4.5-1.29,8.91-3.71,12.71"/>
    <path class="cls-7" d="M671.83,119.52c.18,1.18.27,2.36.27,3.56"/>
    <line class="cls-7" x1="669.85" y1="106.52" x2="671.83" y2="119.52"/>
    <line class="cls-7" x1="662.65" y1="284.99" x2="662.65" y2="284.94"/>
    <line class="cls-7" x1="355.7" y1="119.52" x2="357.68" y2="106.52"/>
    <path class="cls-7" d="M355.43,123.08c0-1.2.09-2.38.27-3.56"/>
    <path class="cls-7" d="M359.14,275.99c-2.42-3.8-3.71-8.21-3.71-12.71"/>
    <path class="cls-7" d="M341.15,106.52h-15.05"/>
    <path class="cls-7" d="M311.71,106.52c-2.61,0-4.73-2.11-4.73-4.73"/>
    <path class="cls-7" d="M315.56,106.52h-3.86"/>
    <path class="cls-7" d="M322.34,101.79c0,1.19.26,2.17.96,3.15.64.91,1.64,1.58,2.81,1.58"/>
    <path class="cls-7" d="M315.56,106.52c-1.17,0-2.16-.67-2.81-1.58-.7-.98-.96-1.96-.96-3.15"/>
    <path class="cls-7" d="M686.37,59.26h9.41"/>
    <line class="cls-7" x1="715.73" y1="101.79" x2="705.19" y2="101.79"/>
    <path class="cls-7" d="M331.75,59.26h9.41"/>
    <line class="cls-7" x1="322.34" y1="101.79" x2="311.8" y2="101.79"/>
    <line class="cls-7" x1="639.6" y1="215.82" x2="639.6" y2="178.01"/>
    <line class="cls-7" x1="595.88" y1="215.82" x2="595.88" y2="178.01"/>
    <line class="cls-7" x1="587.61" y1="130.74" x2="587.61" y2="168.55"/>
    <line class="cls-7" x1="543.89" y1="168.55" x2="543.89" y2="130.74"/>
    <line class="cls-7" x1="491.9" y1="168.55" x2="491.9" y2="130.74"/>
    <line class="cls-7" x1="535.62" y1="130.74" x2="535.62" y2="168.55"/>
    <line class="cls-7" x1="509.63" y1="310.35" x2="509.63" y2="272.54"/>
    <line class="cls-7" x1="465.91" y1="310.35" x2="465.91" y2="272.54"/>
    <line class="cls-7" x1="431.64" y1="178.01" x2="431.64" y2="215.82"/>
    <line class="cls-7" x1="387.92" y1="215.82" x2="387.92" y2="178.01"/>
    <line class="cls-7" x1="483.63" y1="130.74" x2="483.63" y2="168.55"/>
    <line class="cls-7" x1="439.91" y1="168.55" x2="439.91" y2="130.74"/>
    <line class="cls-7" x1="639.6" y1="130.74" x2="639.6" y2="168.55"/>
    <line class="cls-7" x1="595.88" y1="168.55" x2="595.88" y2="130.74"/>
    <line class="cls-7" x1="457.64" y1="272.54" x2="457.64" y2="310.35"/>
    <line class="cls-7" x1="413.92" y1="310.35" x2="413.92" y2="272.54"/>
    <line class="cls-7" x1="613.61" y1="272.54" x2="613.61" y2="310.35"/>
    <line class="cls-7" x1="569.89" y1="310.35" x2="569.89" y2="272.54"/>
    <line class="cls-7" x1="439.91" y1="215.82" x2="439.91" y2="178.01"/>
    <line class="cls-7" x1="483.63" y1="178.01" x2="483.63" y2="215.82"/>
    <line class="cls-7" x1="491.9" y1="215.82" x2="491.9" y2="178.01"/>
    <line class="cls-7" x1="535.62" y1="178.01" x2="535.62" y2="215.82"/>
    <line class="cls-7" x1="587.61" y1="215.82" x2="587.61" y2="178.01"/>
    <line class="cls-7" x1="543.89" y1="215.82" x2="543.89" y2="178.01"/>
    <line class="cls-7" x1="431.64" y1="130.74" x2="431.64" y2="168.55"/>
    <line class="cls-7" x1="387.92" y1="168.55" x2="387.92" y2="130.74"/>
    <line class="cls-7" x1="535.62" y1="83.48" x2="535.62" y2="121.29"/>
    <line class="cls-7" x1="491.9" y1="121.29" x2="491.9" y2="83.48"/>
    <line class="cls-7" x1="639.6" y1="121.29" x2="639.6" y2="83.48"/>
    <line class="cls-7" x1="595.88" y1="121.29" x2="595.88" y2="83.48"/>
    <line class="cls-7" x1="587.61" y1="121.29" x2="587.61" y2="83.48"/>
    <line class="cls-7" x1="543.89" y1="121.29" x2="543.89" y2="83.48"/>
    <line class="cls-7" x1="483.63" y1="83.48" x2="483.63" y2="121.29"/>
    <line class="cls-7" x1="439.91" y1="121.29" x2="439.91" y2="83.48"/>
    <line class="cls-7" x1="431.64" y1="121.29" x2="431.64" y2="83.48"/>
    <line class="cls-7" x1="387.92" y1="121.29" x2="387.92" y2="83.48"/>
    <line class="cls-7" x1="561.62" y1="310.35" x2="561.62" y2="272.54"/>
    <line class="cls-7" x1="517.9" y1="310.35" x2="517.9" y2="272.54"/>
    <path class="cls-7" d="M386.15,36.81c0-1.61.22-3.21.63-4.77"/>
    <line class="cls-7" x1="462.48" y1="42.71" x2="489.42" y2="42.71"/>
    <line class="cls-7" x1="565.05" y1="42.71" x2="538.1" y2="42.71"/>
    <path class="cls-7" d="M622.47,17.9c1.78,0,3.55.26,5.26.76"/>
    <line class="cls-7" x1="720.54" y1="101.79" x2="720.54" y2="71.07"/>
    <path class="cls-7" d="M720.54,101.79c.08-.06-.1,0-.15,0h-4.67"/>
    <line class="cls-7" x1="321.21" y1="59.26" x2="331.75" y2="59.26"/>
    <path class="cls-7" d="M318.8,59.26h2.41"/>
    <path class="cls-7" d="M318.8,59.26c-6.53,0-11.82,5.29-11.82,11.82"/>
    <path class="cls-7" d="M708.73,59.26c6.53,0,11.82,5.29,11.82,11.82"/>
    <path class="cls-7" d="M706.32,59.26h2.41"/>
    <line class="cls-7" x1="695.78" y1="59.26" x2="706.32" y2="59.26"/>
    <line class="cls-7" x1="677.4" y1="250.1" x2="703.41" y2="250.93"/>
    <line class="cls-7" x1="703.41" y1="140.53" x2="677.4" y2="141.36"/>
    <line class="cls-7" x1="350.12" y1="141.36" x2="324.12" y2="140.53"/>
    <line class="cls-7" x1="324.12" y1="250.93" x2="350.12" y2="250.1"/>
    <line class="cls-7" x1="306.98" y1="101.79" x2="306.98" y2="71.07"/>
    <line class="cls-7" x1="386.15" y1="36.81" x2="386.15" y2="59.24"/>
    <line class="cls-7" x1="641.38" y1="59.26" x2="641.38" y2="36.81"/>
    <path class="cls-7" d="M672.72,141.38c1.56,0,3.12.03,4.68-.02"/>
    <path class="cls-7" d="M677.4,250.1c-1.56-.05-3.12-.02-4.68-.02"/>
    <path class="cls-7" d="M354.8,250.09c-1.56,0-3.12-.03-4.68.02"/>
    <path class="cls-7" d="M350.12,141.36c1.56.05,3.12.02,4.68.02"/>
    <line class="cls-7" x1="364.88" y1="284.99" x2="359.14" y2="275.99"/>
    <line class="cls-7" x1="668.39" y1="275.99" x2="662.65" y2="284.99"/>
    <line class="cls-7" x1="662.65" y1="284.94" x2="686.37" y2="284.94"/>
    <line class="cls-7" x1="364.88" y1="284.94" x2="341.15" y2="284.94"/>
    <line class="cls-7" x1="382.6" y1="54.65" x2="351.88" y2="54.65"/>
    <line class="cls-7" x1="351.88" y1="54.65" x2="351.88" y2="59.26"/>
    <line class="cls-7" x1="351.88" y1="131.93" x2="323.52" y2="131.93"/>
    <line class="cls-7" x1="323.52" y1="259.54" x2="351.88" y2="259.54"/>
    <line class="cls-7" x1="351.88" y1="259.54" x2="351.88" y2="272.54"/>
    <line class="cls-7" x1="351.88" y1="272.54" x2="359.5" y2="284.95"/>
    <line class="cls-7" x1="391.47" y1="337.05" x2="636.06" y2="337.05"/>
    <line class="cls-7" x1="636.06" y1="337.05" x2="639.03" y2="332.21"/>
    <line class="cls-7" x1="675.64" y1="272.54" x2="675.64" y2="259.54"/>
    <line class="cls-7" x1="675.64" y1="259.54" x2="704" y2="259.54"/>
    <line class="cls-7" x1="704" y1="131.93" x2="675.64" y2="131.93"/>
    <line class="cls-7" x1="675.64" y1="131.93" x2="675.64" y2="106.52"/>
    <line class="cls-7" x1="675.64" y1="54.65" x2="644.92" y2="54.65"/>
    <line class="cls-7" x1="644.92" y1="13.29" x2="382.6" y2="13.29"/>
  </g>
  <g id="_图层_3" data-name="图层 3">
    <path class="cls-1" d="M415.68,116.23h-4.94v-18.62c-1.8,1.69-3.93,2.94-6.38,3.74v-4.48c1.29-.42,2.69-1.22,4.2-2.4s2.55-2.55,3.11-4.12h4.01v25.88Z"/>
    <path class="cls-1" d="M470.56,111.64v4.59h-17.31c.19-1.73.75-3.38,1.69-4.93s2.79-3.61,5.55-6.18c2.23-2.07,3.59-3.48,4.1-4.22.68-1.02,1.02-2.03,1.02-3.02,0-1.1-.3-1.95-.89-2.54s-1.41-.89-2.45-.89-1.85.31-2.46.93-.96,1.65-1.05,3.09l-4.92-.49c.29-2.72,1.21-4.67,2.76-5.85s3.48-1.78,5.8-1.78c2.54,0,4.54.69,5.99,2.06s2.18,3.08,2.18,5.12c0,1.16-.21,2.26-.62,3.31s-1.08,2.15-1.98,3.3c-.6.76-1.68,1.86-3.23,3.29s-2.55,2.38-2.96,2.85-.75.93-1.01,1.37h9.81Z"/>
    <path class="cls-1" d="M504.04,109.39l4.78-.58c.15,1.22.56,2.15,1.23,2.79s1.48.97,2.43.97c1.02,0,1.88-.39,2.58-1.16s1.05-1.82,1.05-3.13c0-1.24-.33-2.23-1-2.95s-1.48-1.09-2.44-1.09c-.63,0-1.39.12-2.27.37l.54-4.03c1.34.04,2.36-.25,3.06-.87s1.05-1.43,1.05-2.45c0-.87-.26-1.56-.77-2.07s-1.2-.77-2.06-.77-1.56.29-2.16.88-.96,1.44-1.09,2.57l-4.55-.77c.32-1.56.79-2.8,1.43-3.74s1.53-1.66,2.67-2.2,2.42-.8,3.84-.8c2.43,0,4.37.77,5.84,2.32,1.21,1.27,1.81,2.7,1.81,4.29,0,2.26-1.24,4.07-3.71,5.41,1.48.32,2.66,1.03,3.54,2.13s1.33,2.43,1.33,3.99c0,2.26-.83,4.19-2.48,5.78s-3.71,2.39-6.17,2.39c-2.33,0-4.27-.67-5.8-2.01s-2.43-3.1-2.67-5.26Z"/>
    <path class="cls-1" d="M567.04,116.23v-5.19h-10.55v-4.32l11.18-16.37h4.15v16.35h3.2v4.34h-3.2v5.19h-4.78ZM567.04,106.7v-8.81l-5.92,8.81h5.92Z"/>
    <path class="cls-1" d="M608.55,109.6l4.92-.51c.14,1.11.56,2,1.25,2.65s1.49.98,2.39.98c1.03,0,1.9-.42,2.62-1.26s1.07-2.1,1.07-3.79c0-1.58-.35-2.77-1.06-3.56s-1.63-1.19-2.77-1.19c-1.42,0-2.69.63-3.81,1.88l-4.01-.58,2.53-13.41h13.06v4.62h-9.32l-.77,4.38c1.1-.55,2.23-.83,3.38-.83,2.19,0,4.05.8,5.57,2.39s2.29,3.66,2.29,6.21c0,2.12-.62,4.01-1.85,5.68-1.68,2.27-4,3.41-6.98,3.41-2.38,0-4.32-.64-5.82-1.92s-2.4-2.99-2.69-5.15Z"/>
    <path class="cls-1" d="M419.6,143.66l-4.78.53c-.12-.98-.42-1.71-.91-2.18s-1.13-.7-1.92-.7c-1.04,0-1.92.47-2.65,1.41s-1.17,2.89-1.36,5.85c1.23-1.45,2.76-2.18,4.59-2.18,2.06,0,3.83.79,5.3,2.36s2.21,3.6,2.21,6.08c0,2.64-.77,4.75-2.32,6.35s-3.53,2.39-5.96,2.39c-2.6,0-4.74-1.01-6.42-3.03s-2.51-5.33-2.51-9.94.87-8.13,2.62-10.21,4.01-3.13,6.8-3.13c1.96,0,3.58.55,4.86,1.64s2.1,2.69,2.45,4.77ZM408.41,154.44c0,1.61.37,2.84,1.11,3.72s1.58,1.31,2.53,1.31,1.68-.36,2.29-1.07.91-1.89.91-3.52-.33-2.9-.98-3.68-1.48-1.17-2.46-1.17-1.75.37-2.41,1.12-.98,1.84-.98,3.3Z"/>
    <path class="cls-1" d="M453.71,142.29v-4.59h16.89v3.59c-1.39,1.37-2.81,3.34-4.25,5.91s-2.54,5.29-3.3,8.18-1.13,5.47-1.12,7.74h-4.76c.08-3.56.82-7.2,2.21-10.9s3.24-7.01,5.56-9.93h-11.23Z"/>
    <path class="cls-1" d="M508.29,149.22c-1.28-.54-2.21-1.28-2.79-2.22s-.87-1.98-.87-3.1c0-1.92.67-3.51,2.01-4.76s3.25-1.88,5.72-1.88,4.35.63,5.7,1.88,2.03,2.84,2.03,4.76c0,1.2-.31,2.26-.93,3.19s-1.49,1.64-2.62,2.14c1.43.57,2.52,1.41,3.26,2.51s1.12,2.37,1.12,3.81c0,2.38-.76,4.31-2.28,5.8s-3.54,2.23-6.06,2.23c-2.34,0-4.29-.62-5.85-1.85-1.84-1.45-2.76-3.45-2.76-5.98,0-1.39.35-2.67,1.04-3.84s1.78-2.07,3.27-2.7ZM508.85,155.28c0,1.36.35,2.42,1.05,3.18s1.57,1.14,2.61,1.14,1.86-.37,2.53-1.1,1-1.79,1-3.17c0-1.21-.34-2.18-1.02-2.91s-1.54-1.1-2.58-1.1c-1.21,0-2.11.42-2.7,1.25s-.89,1.73-.89,2.71ZM509.31,144.24c0,.98.28,1.75.83,2.3s1.3.83,2.22.83,1.69-.28,2.25-.83.84-1.33.84-2.31c0-.93-.28-1.67-.83-2.22s-1.29-.83-2.21-.83-1.71.28-2.27.84-.84,1.31-.84,2.23Z"/>
    <path class="cls-1" d="M557.29,157.16l4.78-.53c.12.97.42,1.69.91,2.16s1.14.7,1.95.7c1.02,0,1.89-.47,2.6-1.41s1.17-2.88,1.37-5.84c-1.24,1.44-2.79,2.16-4.66,2.16-2.03,0-3.78-.78-5.25-2.35s-2.21-3.6-2.21-6.11.78-4.72,2.33-6.32,3.53-2.4,5.93-2.4c2.61,0,4.76,1.01,6.43,3.03s2.51,5.35,2.51,9.98-.87,8.11-2.62,10.2-4.02,3.13-6.82,3.13c-2.02,0-3.64-.54-4.89-1.61s-2.04-2.67-2.39-4.81ZM568.47,146.37c0-1.59-.37-2.83-1.1-3.71s-1.58-1.32-2.54-1.32-1.67.36-2.28,1.08-.91,1.9-.91,3.54.33,2.89.98,3.67,1.48,1.17,2.46,1.17,1.75-.38,2.4-1.12.98-1.85.98-3.3Z"/>
    <g>
      <path class="cls-1" d="M610.95,163.12h-4.94v-18.62c-1.8,1.69-3.93,2.94-6.38,3.74v-4.48c1.29-.42,2.69-1.22,4.2-2.4s2.55-2.55,3.11-4.12h4.01v25.88Z"/>
      <path class="cls-1" d="M626.68,137.25c2.5,0,4.45.89,5.85,2.67,1.68,2.11,2.51,5.61,2.51,10.49s-.84,8.38-2.53,10.51c-1.39,1.76-3.34,2.64-5.84,2.64s-4.53-.96-6.06-2.89-2.3-5.36-2.3-10.31.84-8.34,2.53-10.48c1.39-1.76,3.34-2.64,5.84-2.64ZM626.68,141.34c-.6,0-1.13.19-1.6.57s-.83,1.06-1.09,2.05c-.34,1.28-.51,3.43-.51,6.45s.15,5.1.46,6.23.69,1.88,1.15,2.26.99.56,1.59.56,1.13-.19,1.6-.57.83-1.06,1.09-2.05c.34-1.27.51-3.41.51-6.43s-.15-5.1-.46-6.23-.69-1.89-1.15-2.27-.99-.57-1.59-.57Z"/>
    </g>
    <g>
      <path class="cls-1" d="M405.87,210.26h-4.94v-18.62c-1.8,1.69-3.93,2.94-6.38,3.74v-4.48c1.29-.42,2.69-1.22,4.2-2.4s2.55-2.55,3.11-4.12h4.01v25.88Z"/>
      <path class="cls-1" d="M423.9,210.26h-4.94v-18.62c-1.8,1.69-3.93,2.94-6.38,3.74v-4.48c1.29-.42,2.69-1.22,4.2-2.4s2.55-2.55,3.11-4.12h4.01v25.88Z"/>
    </g>
    <g>
      <path class="cls-1" d="M455.71,210.26h-4.94v-18.62c-1.8,1.69-3.93,2.94-6.38,3.74v-4.48c1.29-.42,2.69-1.22,4.2-2.4s2.55-2.55,3.11-4.12h4.01v25.88Z"/>
      <path class="cls-1" d="M479.77,205.68v4.59h-17.31c.19-1.73.75-3.38,1.69-4.93s2.79-3.61,5.55-6.18c2.23-2.07,3.59-3.48,4.1-4.22.68-1.02,1.02-2.03,1.02-3.02,0-1.1-.3-1.95-.89-2.54s-1.41-.89-2.45-.89-1.85.31-2.46.93-.96,1.65-1.05,3.09l-4.92-.49c.29-2.72,1.21-4.67,2.76-5.85s3.48-1.78,5.8-1.78c2.54,0,4.54.69,5.99,2.06s2.18,3.08,2.18,5.12c0,1.16-.21,2.26-.62,3.31s-1.08,2.15-1.98,3.3c-.6.76-1.68,1.86-3.23,3.29s-2.55,2.38-2.96,2.85-.75.93-1.01,1.37h9.81Z"/>
    </g>
    <g>
      <path class="cls-1" d="M507.05,210.26h-4.94v-18.62c-1.8,1.69-3.93,2.94-6.38,3.74v-4.48c1.29-.42,2.69-1.22,4.2-2.4s2.55-2.55,3.11-4.12h4.01v25.88Z"/>
      <path class="cls-1" d="M514.26,203.43l4.78-.58c.15,1.22.56,2.15,1.23,2.79s1.48.97,2.43.97c1.02,0,1.88-.39,2.58-1.16s1.05-1.82,1.05-3.13c0-1.24-.33-2.23-1-2.95s-1.48-1.09-2.44-1.09c-.63,0-1.39.12-2.27.37l.54-4.03c1.34.04,2.36-.25,3.06-.87s1.05-1.43,1.05-2.45c0-.87-.26-1.56-.77-2.07s-1.2-.77-2.06-.77-1.56.29-2.16.88-.96,1.44-1.09,2.57l-4.55-.77c.32-1.56.79-2.8,1.43-3.74s1.53-1.66,2.67-2.2,2.42-.8,3.84-.8c2.43,0,4.37.77,5.84,2.32,1.21,1.27,1.81,2.7,1.81,4.29,0,2.26-1.24,4.07-3.71,5.41,1.48.32,2.66,1.03,3.54,2.13s1.33,2.43,1.33,3.99c0,2.26-.83,4.19-2.48,5.78s-3.71,2.39-6.17,2.39c-2.33,0-4.27-.67-5.8-2.01s-2.43-3.1-2.67-5.26Z"/>
    </g>
    <g>
      <path class="cls-1" d="M559.19,210.26h-4.94v-18.62c-1.8,1.69-3.93,2.94-6.38,3.74v-4.48c1.29-.42,2.69-1.22,4.2-2.4s2.55-2.55,3.11-4.12h4.01v25.88Z"/>
      <path class="cls-1" d="M576.25,210.26v-5.19h-10.55v-4.32l11.18-16.37h4.15v16.35h3.2v4.34h-3.2v5.19h-4.78ZM576.25,200.74v-8.81l-5.92,8.81h5.92Z"/>
    </g>
    <g>
      <path class="cls-1" d="M610.31,210.26h-4.94v-18.62c-1.8,1.69-3.93,2.94-6.38,3.74v-4.48c1.29-.42,2.69-1.22,4.2-2.4s2.55-2.55,3.11-4.12h4.01v25.88Z"/>
      <path class="cls-1" d="M617.76,203.64l4.92-.51c.14,1.11.56,2,1.25,2.65s1.49.98,2.39.98c1.03,0,1.9-.42,2.62-1.26s1.07-2.1,1.07-3.79c0-1.58-.35-2.77-1.06-3.56s-1.63-1.19-2.77-1.19c-1.42,0-2.69.63-3.81,1.88l-4.01-.58,2.53-13.41h13.06v4.62h-9.32l-.77,4.38c1.1-.55,2.23-.83,3.38-.83,2.19,0,4.05.8,5.57,2.39s2.29,3.66,2.29,6.21c0,2.12-.62,4.01-1.85,5.68-1.68,2.27-4,3.41-6.98,3.41-2.38,0-4.32-.64-5.82-1.92s-2.4-2.99-2.69-5.15Z"/>
    </g>
    <g>
      <path class="cls-1" d="M403.87,257.26h-4.94v-18.62c-1.8,1.69-3.93,2.94-6.38,3.74v-4.48c1.29-.42,2.69-1.22,4.2-2.4s2.55-2.55,3.11-4.12h4.01v25.88Z"/>
      <path class="cls-1" d="M427.99,237.81l-4.78.53c-.12-.98-.42-1.71-.91-2.18s-1.13-.7-1.92-.7c-1.04,0-1.92.47-2.65,1.41s-1.17,2.89-1.36,5.85c1.23-1.45,2.76-2.18,4.59-2.18,2.06,0,3.83.79,5.3,2.36s2.21,3.6,2.21,6.08c0,2.64-.77,4.75-2.32,6.35s-3.53,2.39-5.96,2.39c-2.6,0-4.74-1.01-6.42-3.03s-2.51-5.33-2.51-9.94.87-8.13,2.62-10.21,4.01-3.13,6.8-3.13c1.96,0,3.58.55,4.86,1.64s2.1,2.69,2.45,4.77ZM416.79,248.58c0,1.61.37,2.84,1.11,3.72s1.58,1.31,2.53,1.31,1.68-.36,2.29-1.07.91-1.89.91-3.52-.33-2.9-.98-3.68-1.48-1.17-2.46-1.17-1.75.37-2.41,1.12-.98,1.84-.98,3.3Z"/>
    </g>
    <g>
      <path class="cls-1" d="M454.71,257.26h-4.94v-18.62c-1.8,1.69-3.93,2.94-6.38,3.74v-4.48c1.29-.42,2.69-1.22,4.2-2.4s2.55-2.55,3.11-4.12h4.01v25.88Z"/>
      <path class="cls-1" d="M462.09,236.43v-4.59h16.89v3.59c-1.39,1.37-2.81,3.34-4.25,5.91s-2.54,5.29-3.3,8.18-1.13,5.47-1.12,7.74h-4.76c.08-3.56.82-7.2,2.21-10.9s3.24-7.01,5.56-9.93h-11.23Z"/>
    </g>
    <g>
      <path class="cls-1" d="M507.05,257.26h-4.94v-18.62c-1.8,1.69-3.93,2.94-6.38,3.74v-4.48c1.29-.42,2.69-1.22,4.2-2.4s2.55-2.55,3.11-4.12h4.01v25.88Z"/>
      <path class="cls-1" d="M518.67,243.36c-1.28-.54-2.21-1.28-2.79-2.22s-.87-1.98-.87-3.1c0-1.92.67-3.51,2.01-4.76s3.25-1.88,5.72-1.88,4.35.63,5.7,1.88,2.03,2.84,2.03,4.76c0,1.2-.31,2.26-.93,3.19s-1.49,1.64-2.62,2.14c1.43.57,2.52,1.41,3.26,2.51s1.12,2.37,1.12,3.81c0,2.38-.76,4.31-2.28,5.8s-3.54,2.23-6.06,2.23c-2.34,0-4.29-.62-5.85-1.85-1.84-1.45-2.76-3.45-2.76-5.98,0-1.39.35-2.67,1.04-3.84s1.78-2.07,3.27-2.7ZM519.23,249.43c0,1.36.35,2.42,1.05,3.18s1.57,1.14,2.61,1.14,1.86-.37,2.53-1.1,1-1.79,1-3.17c0-1.21-.34-2.18-1.02-2.91s-1.54-1.1-2.58-1.1c-1.21,0-2.11.42-2.7,1.25s-.89,1.73-.89,2.71ZM519.69,238.39c0,.98.28,1.75.83,2.3s1.3.83,2.22.83,1.69-.28,2.25-.83.84-1.33.84-2.31c0-.93-.28-1.67-.83-2.22s-1.29-.83-2.21-.83-1.71.28-2.27.84-.84,1.31-.84,2.23Z"/>
    </g>
    <g>
      <path class="cls-1" d="M559.19,257.26h-4.94v-18.62c-1.8,1.69-3.93,2.94-6.38,3.74v-4.48c1.29-.42,2.69-1.22,4.2-2.4s2.55-2.55,3.11-4.12h4.01v25.88Z"/>
      <path class="cls-1" d="M566.67,251.31l4.78-.53c.12.97.42,1.69.91,2.16s1.14.7,1.95.7c1.02,0,1.89-.47,2.6-1.41s1.17-2.88,1.37-5.84c-1.24,1.44-2.79,2.16-4.66,2.16-2.03,0-3.78-.78-5.25-2.35s-2.21-3.6-2.21-6.11.78-4.72,2.33-6.32,3.53-2.4,5.93-2.4c2.61,0,4.76,1.01,6.43,3.03s2.51,5.35,2.51,9.98-.87,8.11-2.62,10.2-4.02,3.13-6.82,3.13c-2.02,0-3.64-.54-4.89-1.61s-2.04-2.67-2.39-4.81ZM577.85,240.51c0-1.59-.37-2.83-1.1-3.71s-1.58-1.32-2.54-1.32-1.67.36-2.28,1.08-.91,1.9-.91,3.54.33,2.89.98,3.67,1.48,1.17,2.46,1.17,1.75-.38,2.4-1.12.98-1.85.98-3.3Z"/>
    </g>
    <g>
      <path class="cls-1" d="M616.35,252.68v4.59h-17.31c.19-1.73.75-3.38,1.69-4.93s2.79-3.61,5.55-6.18c2.23-2.07,3.59-3.48,4.1-4.22.68-1.02,1.02-2.03,1.02-3.02,0-1.1-.3-1.95-.89-2.54s-1.41-.89-2.45-.89-1.85.31-2.46.93-.96,1.65-1.05,3.09l-4.92-.49c.29-2.72,1.21-4.67,2.76-5.85s3.48-1.78,5.8-1.78c2.54,0,4.54.69,5.99,2.06s2.18,3.08,2.18,5.12c0,1.16-.21,2.26-.62,3.31s-1.08,2.15-1.98,3.3c-.6.76-1.68,1.86-3.23,3.29s-2.55,2.38-2.96,2.85-.75.93-1.01,1.37h9.81Z"/>
      <path class="cls-1" d="M628.04,231.39c2.5,0,4.45.89,5.85,2.67,1.68,2.11,2.51,5.61,2.51,10.49s-.84,8.38-2.53,10.51c-1.39,1.76-3.34,2.64-5.84,2.64s-4.53-.96-6.06-2.89-2.3-5.36-2.3-10.31.84-8.34,2.53-10.48c1.39-1.76,3.34-2.64,5.84-2.64ZM628.04,235.49c-.6,0-1.13.19-1.6.57s-.83,1.06-1.09,2.05c-.34,1.28-.51,3.43-.51,6.45s.15,5.1.46,6.23.69,1.88,1.15,2.26.99.56,1.59.56,1.13-.19,1.6-.57.83-1.06,1.09-2.05c.34-1.27.51-3.41.51-6.43s-.15-5.1-.46-6.23-.69-1.89-1.15-2.27-.99-.57-1.59-.57Z"/>
    </g>
    <g>
      <path class="cls-1" d="M435.13,300.91v4.59h-17.31c.19-1.73.75-3.38,1.69-4.93s2.79-3.61,5.55-6.18c2.23-2.07,3.59-3.48,4.1-4.22.68-1.02,1.02-2.03,1.02-3.02,0-1.1-.3-1.95-.89-2.54s-1.41-.89-2.45-.89-1.85.31-2.46.93-.96,1.65-1.05,3.09l-4.92-.49c.29-2.72,1.21-4.67,2.76-5.85s3.48-1.78,5.8-1.78c2.54,0,4.54.69,5.99,2.06s2.18,3.08,2.18,5.12c0,1.16-.21,2.26-.62,3.31s-1.08,2.15-1.98,3.3c-.6.76-1.68,1.86-3.23,3.29s-2.55,2.38-2.96,2.85-.75.93-1.01,1.37h9.81Z"/>
      <path class="cls-1" d="M451.11,305.5h-4.94v-18.62c-1.8,1.69-3.93,2.94-6.38,3.74v-4.48c1.29-.42,2.69-1.22,4.2-2.4s2.55-2.55,3.11-4.12h4.01v25.88Z"/>
    </g>
    <g>
      <path class="cls-1" d="M486.47,300.91v4.59h-17.31c.19-1.73.75-3.38,1.69-4.93s2.79-3.61,5.55-6.18c2.23-2.07,3.59-3.48,4.1-4.22.68-1.02,1.02-2.03,1.02-3.02,0-1.1-.3-1.95-.89-2.54s-1.41-.89-2.45-.89-1.85.31-2.46.93-.96,1.65-1.05,3.09l-4.92-.49c.29-2.72,1.21-4.67,2.76-5.85s3.48-1.78,5.8-1.78c2.54,0,4.54.69,5.99,2.06s2.18,3.08,2.18,5.12c0,1.16-.21,2.26-.62,3.31s-1.08,2.15-1.98,3.3c-.6.76-1.68,1.86-3.23,3.29s-2.55,2.38-2.96,2.85-.75.93-1.01,1.37h9.81Z"/>
      <path class="cls-1" d="M506.49,300.91v4.59h-17.31c.19-1.73.75-3.38,1.69-4.93s2.79-3.61,5.55-6.18c2.23-2.07,3.59-3.48,4.1-4.22.68-1.02,1.02-2.03,1.02-3.02,0-1.1-.3-1.95-.89-2.54s-1.41-.89-2.45-.89-1.85.31-2.46.93-.96,1.65-1.05,3.09l-4.92-.49c.29-2.72,1.21-4.67,2.76-5.85s3.48-1.78,5.8-1.78c2.54,0,4.54.69,5.99,2.06s2.18,3.08,2.18,5.12c0,1.16-.21,2.26-.62,3.31s-1.08,2.15-1.98,3.3c-.6.76-1.68,1.86-3.23,3.29s-2.55,2.38-2.96,2.85-.75.93-1.01,1.37h9.81Z"/>
    </g>
    <g>
      <path class="cls-1" d="M538.61,300.91v4.59h-17.31c.19-1.73.75-3.38,1.69-4.93s2.79-3.61,5.55-6.18c2.23-2.07,3.59-3.48,4.1-4.22.68-1.02,1.02-2.03,1.02-3.02,0-1.1-.3-1.95-.89-2.54s-1.41-.89-2.45-.89-1.85.31-2.46.93-.96,1.65-1.05,3.09l-4.92-.49c.29-2.72,1.21-4.67,2.76-5.85s3.48-1.78,5.8-1.78c2.54,0,4.54.69,5.99,2.06s2.18,3.08,2.18,5.12c0,1.16-.21,2.26-.62,3.31s-1.08,2.15-1.98,3.3c-.6.76-1.68,1.86-3.23,3.29s-2.55,2.38-2.96,2.85-.75.93-1.01,1.37h9.81Z"/>
      <path class="cls-1" d="M541.77,298.66l4.78-.58c.15,1.22.56,2.15,1.23,2.79s1.48.97,2.43.97c1.02,0,1.88-.39,2.58-1.16s1.05-1.82,1.05-3.13c0-1.24-.33-2.23-1-2.95s-1.48-1.09-2.44-1.09c-.63,0-1.39.12-2.27.37l.54-4.03c1.34.04,2.36-.25,3.06-.87s1.05-1.43,1.05-2.45c0-.87-.26-1.56-.77-2.07s-1.2-.77-2.06-.77-1.56.29-2.16.88-.96,1.44-1.09,2.57l-4.55-.77c.32-1.56.79-2.8,1.43-3.74s1.53-1.66,2.67-2.2,2.42-.8,3.84-.8c2.43,0,4.37.77,5.84,2.32,1.21,1.27,1.81,2.7,1.81,4.29,0,2.26-1.24,4.07-3.71,5.41,1.48.32,2.66,1.03,3.54,2.13s1.33,2.43,1.33,3.99c0,2.26-.83,4.19-2.48,5.78s-3.71,2.39-6.17,2.39c-2.33,0-4.27-.67-5.8-2.01s-2.43-3.1-2.67-5.26Z"/>
    </g>
    <g>
      <path class="cls-1" d="M589.73,300.91v4.59h-17.31c.19-1.73.75-3.38,1.69-4.93s2.79-3.61,5.55-6.18c2.23-2.07,3.59-3.48,4.1-4.22.68-1.02,1.02-2.03,1.02-3.02,0-1.1-.3-1.95-.89-2.54s-1.41-.89-2.45-.89-1.85.31-2.46.93-.96,1.65-1.05,3.09l-4.92-.49c.29-2.72,1.21-4.67,2.76-5.85s3.48-1.78,5.8-1.78c2.54,0,4.54.69,5.99,2.06s2.18,3.08,2.18,5.12c0,1.16-.21,2.26-.62,3.31s-1.08,2.15-1.98,3.3c-.6.76-1.68,1.86-3.23,3.29s-2.55,2.38-2.96,2.85-.75.93-1.01,1.37h9.81Z"/>
      <path class="cls-1" d="M602.75,305.5v-5.19h-10.55v-4.32l11.18-16.37h4.15v16.35h3.2v4.34h-3.2v5.19h-4.78ZM602.75,295.97v-8.81l-5.92,8.81h5.92Z"/>
    </g>
  </g>
  <g id="_图层_4" data-name="图层 4">
    <rect class="cls-6" x="1" y="1" width="204.04" height="343.17"/>
    <rect class="cls-6" x="26.18" y="36.83" width="44.94" height="268.66"/>
    <line class="cls-6" x1="71.12" y1="59.88" x2="206.38" y2="59.88"/>
    <line class="cls-6" x1="152.95" y1="155.5" x2="206.38" y2="155.5"/>
    <line class="cls-6" x1="71.12" y1="282.76" x2="206.38" y2="282.76"/>
    <circle class="cls-4" cx="205.04" cy="59.88" r="8.32"/>
    <circle class="cls-4" cx="204.75" cy="155.5" r="8.32"/>
    <circle class="cls-4" cx="204.75" cy="282.76" r="8.32"/>
    <g>
      <path class="cls-2" d="M165.56,30.82c1.69,0,3.02.6,3.97,1.81,1.14,1.43,1.7,3.8,1.7,7.11s-.57,5.68-1.72,7.13c-.95,1.19-2.26,1.79-3.96,1.79s-3.07-.65-4.11-1.96c-1.04-1.31-1.56-3.64-1.56-6.99s.57-5.66,1.72-7.1c.95-1.19,2.26-1.79,3.96-1.79ZM165.56,33.59c-.4,0-.77.13-1.08.39s-.56.72-.74,1.39c-.23.87-.35,2.32-.35,4.37s.1,3.46.31,4.22c.21.77.47,1.28.78,1.53.31.25.67.38,1.08.38s.77-.13,1.08-.39c.32-.26.56-.72.74-1.39.23-.86.35-2.31.35-4.36s-.1-3.46-.31-4.22c-.21-.77-.47-1.28-.78-1.54-.31-.26-.67-.39-1.08-.39Z"/>
      <path class="cls-2" d="M178.67,48.36l-6.24-17.47h3.83l4.42,12.93,4.28-12.93h3.74l-6.26,17.47h-3.76Z"/>
    </g>
    <g>
      <path class="cls-2" d="M139.81,139.74c0-1.78.27-3.27.8-4.48.4-.89.94-1.69,1.63-2.4s1.44-1.23,2.26-1.57c1.09-.46,2.34-.69,3.77-.69,2.57,0,4.63.8,6.18,2.4s2.32,3.82,2.32,6.66-.77,5.03-2.3,6.62-3.58,2.39-6.15,2.39-4.66-.79-6.2-2.38c-1.53-1.58-2.3-3.77-2.3-6.55ZM143.45,139.62c0,1.98.46,3.48,1.37,4.5.91,1.02,2.07,1.53,3.48,1.53s2.56-.51,3.46-1.52c.9-1.01,1.35-2.53,1.35-4.56s-.44-3.5-1.32-4.48c-.88-.98-2.04-1.48-3.5-1.48s-2.63.5-3.52,1.5-1.33,2.5-1.33,4.51Z"/>
      <path class="cls-2" d="M159.49,130.89h3.53v9.46c0,1.5.04,2.47.13,2.92.15.71.51,1.29,1.08,1.72.57.43,1.34.65,2.33.65s1.76-.2,2.26-.61c.51-.41.81-.91.92-1.51.1-.6.16-1.58.16-2.97v-9.66h3.53v9.18c0,2.1-.1,3.58-.29,4.44-.19.87-.54,1.6-1.05,2.19s-1.2,1.07-2.06,1.42c-.86.35-1.98.53-3.36.53-1.67,0-2.93-.19-3.79-.58-.86-.39-1.54-.89-2.04-1.5-.5-.62-.83-1.26-.99-1.94-.23-1-.35-2.48-.35-4.43v-9.32Z"/>
      <path class="cls-2" d="M181.07,148.36v-14.51h-5.18v-2.96h13.88v2.96h-5.17v14.51h-3.53Z"/>
    </g>
    <g>
      <path class="cls-2" d="M170.8,314.87l-6.24-17.47h3.83l4.42,12.93,4.28-12.93h3.74l-6.26,17.47h-3.76Z"/>
      <path class="cls-2" d="M186.44,312.36v-4.54h-4.58v-3.13h4.58v-4.54h3.05v4.54h4.59v3.13h-4.59v4.54h-3.05Z"/>
    </g>
    <line class="cls-6" x1="121.01" y1="213.55" x2="71.12" y2="213.55"/>
    <polyline class="cls-6" points="152.95 154.3 152.95 187.62 120.25 206.02"/>
    <g>
      <polyline class="cls-6" points="152.95 281.23 152.95 251.03 130.2 230.38"/>
      <polygon class="cls-2" points="134.98 229.23 121.01 222.04 129.52 235.25 134.98 229.23"/>
    </g>
    <line class="cls-6" x1="118.6" y1="187.65" x2="118.6" y2="232.92"/>
  </g>
  <g id="_图层_5" data-name="图层 5">
    <path class="cls-3" d="M213.07,282.76c12.05,12.84,37.79,36.52,77.69,47.67,73.4,20.5,134.33-18.3,144.37-24.93"/>
    <path class="cls-5" d="M213.35,59.88c14.04-4.57,194.45-60.2,322.27,50.67,47,40.76,70.21,89.57,81.85,122.32"/>
    <path class="cls-3" d="M212.53,152.58c31.95,5.49,82.81,10.1,142.9-2.54,45.62-9.6,81.55-25.98,106.34-39.77"/>
  </g>
</svg>