<?xml version="1.0" encoding="UTF-8"?>
<svg xmlns="http://www.w3.org/2000/svg" viewBox="0 0 729.43 466.02">
  <defs>
    <style>
      .cls-1 {
        fill: #000;
        stroke-width: 0px;
      }

      .cls-2 {
        fill: #fff;
        stroke: #040000;
        stroke-width: 2px;
      }

      .cls-2, .cls-3 {
        stroke-miterlimit: 10;
      }

      .cls-3 {
        stroke: #fa0;
        stroke-width: 4px;
      }

      .cls-3, .cls-4 {
        fill: none;
      }

      .cls-4 {
        stroke: #000;
        stroke-linecap: round;
        stroke-linejoin: round;
      }
    </style>
  </defs>
  <g id="Make2D::可见线::正切线">
    <line class="cls-4" x1="637.92" y1="107.19" x2="637.92" y2="137.33"/>
    <path class="cls-4" d="M637.92,107.19c2.52,0,5.21.53,7.47,1.73,2.16,1.15,4.34,3.19,4.34,5.96"/>
    <line class="cls-4" x1="406.32" y1="107.19" x2="406.32" y2="137.33"/>
    <path class="cls-4" d="M406.32,107.19c-2.52,0-5.21.53-7.48,1.73-2.16,1.15-4.34,3.19-4.34,5.96"/>
    <path class="cls-4" d="M315.34,149.15s.02,0,.04,0h4.78"/>
    <path class="cls-4" d="M320.16,179.87h-4.67s-.1-.03-.15,0"/>
    <line class="cls-4" x1="320.16" y1="179.87" x2="320.16" y2="149.15"/>
    <line class="cls-4" x1="713.54" y1="149.15" x2="724.08" y2="149.15"/>
    <path class="cls-4" d="M714.68,137.33c2.92,0,5.4,1.67,7.01,3.94,1.62,2.28,2.4,5.12,2.4,7.88"/>
    <path class="cls-4" d="M713.54,149.15c0-2.76-.77-5.6-2.4-7.88-1.61-2.27-4.09-3.94-7.01-3.94"/>
    <path class="cls-4" d="M728.9,149.15s-.02,0-.04,0h-4.78"/>
    <path class="cls-4" d="M329.56,137.33c-2.92,0-5.4,1.67-7.01,3.94-1.62,2.28-2.4,5.12-2.4,7.88"/>
    <line class="cls-4" x1="320.16" y1="149.15" x2="330.7" y2="149.15"/>
    <path class="cls-4" d="M340.1,137.33c-2.92,0-5.4,1.67-7.01,3.94-1.62,2.28-2.4,5.12-2.4,7.88"/>
    <line class="cls-4" x1="724.08" y1="149.15" x2="724.08" y2="179.87"/>
    <path class="cls-4" d="M630.83,100.1c2.06.02,3.79.79,5.17,2.31.6.66,1.07,1.42,1.42,2.28.32.8.49,1.64.5,2.5"/>
    <line class="cls-4" x1="573.4" y1="100.1" x2="630.83" y2="100.1"/>
    <line class="cls-4" x1="497.78" y1="100.1" x2="546.46" y2="100.1"/>
    <line class="cls-4" x1="413.41" y1="100.1" x2="470.84" y2="100.1"/>
    <path class="cls-4" d="M406.32,107.19c0-.86.17-1.69.5-2.5.35-.87.82-1.63,1.42-2.28,1.38-1.52,3.11-2.29,5.17-2.31"/>
    <line class="cls-4" x1="330.7" y1="149.15" x2="330.7" y2="179.87"/>
    <path class="cls-4" d="M349.51,149.15h-18.81"/>
    <path class="cls-4" d="M349.51,137.33c.02-.05,0,.06,0,.09v11.73"/>
    <line class="cls-4" x1="713.54" y1="179.87" x2="713.54" y2="149.15"/>
    <path class="cls-4" d="M694.73,149.15v-11.47c0-.12.01-.23,0-.35"/>
    <path class="cls-4" d="M713.54,149.15h-18.81"/>
    <path class="cls-4" d="M349.51,179.87v4.69s.02.04,0,.03"/>
    <path class="cls-4" d="M330.7,179.87h18.81"/>
    <path class="cls-4" d="M694.73,179.87h18.81"/>
    <path class="cls-4" d="M694.73,184.6s0-.02,0-.03v-4.69"/>
    <path class="cls-4" d="M724.08,367.75c0-1.19-.26-2.17-.96-3.15-.65-.91-1.64-1.58-2.81-1.58"/>
    <path class="cls-4" d="M728.9,367.75c.1,0-.1,0-.15,0h-4.67"/>
    <path class="cls-4" d="M724.08,398.47h3.61c.4,0,.8.05,1.2,0"/>
    <line class="cls-4" x1="724.08" y1="398.47" x2="724.08" y2="367.75"/>
    <line class="cls-4" x1="724.08" y1="367.75" x2="713.54" y2="367.75"/>
    <path class="cls-4" d="M713.54,367.75c0-1.19-.26-2.17-.96-3.15-.65-.91-1.64-1.58-2.81-1.58"/>
    <path class="cls-4" d="M694.73,367.75v-4.69s-.02-.03,0-.03"/>
    <path class="cls-4" d="M713.54,367.75h-18.81"/>
    <line class="cls-4" x1="349.51" y1="179.87" x2="349.51" y2="149.15"/>
    <line class="cls-4" x1="694.73" y1="149.15" x2="694.73" y2="179.87"/>
    <path class="cls-4" d="M315.34,398.47c.05-.02.1,0,.15,0h4.67"/>
    <line class="cls-4" x1="320.16" y1="367.75" x2="320.16" y2="398.47"/>
    <path class="cls-4" d="M315.34,367.75s.02,0,.04,0h4.78"/>
    <path class="cls-4" d="M323.92,363.02c-1.17,0-2.16.67-2.81,1.58-.7.98-.96,1.96-.96,3.15"/>
    <path class="cls-4" d="M349.51,367.75v-4.69s.02-.02,0-.03"/>
    <path class="cls-4" d="M330.7,367.75c0-1.19.26-2.17.96-3.15.64-.91,1.64-1.58,2.81-1.58"/>
    <path class="cls-4" d="M349.51,367.75h-18.81"/>
    <line class="cls-4" x1="330.7" y1="367.75" x2="320.16" y2="367.75"/>
    <line class="cls-4" x1="713.54" y1="398.47" x2="713.54" y2="367.75"/>
    <line class="cls-4" x1="724.08" y1="398.47" x2="713.54" y2="398.47"/>
    <path class="cls-4" d="M713.54,398.47h-18.81"/>
    <line class="cls-4" x1="694.73" y1="367.75" x2="694.73" y2="398.47"/>
    <line class="cls-4" x1="349.51" y1="398.47" x2="349.51" y2="367.75"/>
    <path class="cls-4" d="M349.51,398.47h-18.81"/>
    <line class="cls-4" x1="330.7" y1="398.47" x2="330.7" y2="367.75"/>
    <line class="cls-4" x1="330.7" y1="398.47" x2="320.16" y2="398.47"/>
    <path class="cls-4" d="M714.68,410.29c2.92,0,5.4-1.67,7.01-3.94,1.62-2.28,2.4-5.12,2.4-7.88"/>
    <path class="cls-4" d="M704.14,410.29c2.92,0,5.4-1.67,7.01-3.94,1.62-2.28,2.4-5.12,2.4-7.88"/>
    <path class="cls-4" d="M694.73,410.29c-.02-.12,0-.23,0-.35v-11.47"/>
    <path class="cls-4" d="M349.51,410.29c-.04.23,0-.23,0-.35v-11.47"/>
    <path class="cls-4" d="M340.1,410.29c-2.92,0-5.4-1.67-7.01-3.94-1.62-2.28-2.4-5.12-2.4-7.88"/>
    <path class="cls-4" d="M329.56,410.29c-2.92,0-5.4-1.67-7.01-3.94-1.62-2.28-2.4-5.12-2.4-7.88"/>
    <line class="cls-4" x1="377.96" y1="367.75" x2="377.96" y2="179.87"/>
    <line class="cls-4" x1="666.27" y1="179.87" x2="666.27" y2="367.75"/>
    <line class="cls-4" x1="377.96" y1="179.87" x2="349.51" y2="179.87"/>
    <line class="cls-4" x1="349.51" y1="149.15" x2="694.73" y2="149.15"/>
    <line class="cls-4" x1="694.73" y1="179.87" x2="666.27" y2="179.87"/>
    <line class="cls-4" x1="666.27" y1="367.75" x2="694.73" y2="367.75"/>
    <line class="cls-4" x1="349.51" y1="367.75" x2="377.96" y2="367.75"/>
    <path class="cls-4" d="M413.41,95.98c.05.04,0,.08,0,.13v4"/>
    <line class="cls-4" x1="694.73" y1="398.47" x2="349.51" y2="398.47"/>
    <path class="cls-4" d="M630.83,100.1v-3.61c0-.17.04-.34,0-.51"/>
    <line class="cls-4" x1="685.76" y1="219.44" x2="685.76" y2="328.18"/>
    <line class="cls-4" x1="358.48" y1="328.18" x2="358.48" y2="219.44"/>
  </g>
  <g id="Make2D::可见线::曲线">
    <line class="cls-4" x1="402.16" y1="99.71" x2="390.97" y2="99.71"/>
    <line class="cls-4" x1="653.28" y1="99.71" x2="642.09" y2="99.71"/>
    <line class="cls-4" x1="653.28" y1="132.73" x2="653.28" y2="91.37"/>
    <line class="cls-4" x1="712.36" y1="337.62" x2="712.36" y2="210"/>
    <line class="cls-4" x1="331.88" y1="210" x2="331.88" y2="337.62"/>
    <line class="cls-4" x1="390.96" y1="91.37" x2="390.96" y2="132.73"/>
    <line class="cls-4" x1="363.16" y1="328.16" x2="363.16" y2="219.46"/>
    <line class="cls-4" x1="681.08" y1="219.46" x2="681.08" y2="328.16"/>
    <line class="cls-4" x1="332.47" y1="329.01" x2="332.47" y2="218.61"/>
    <line class="cls-4" x1="711.77" y1="218.61" x2="711.77" y2="329.01"/>
    <path class="cls-4" d="M641.86,99.54c.83.59,1.61,1.25,2.34,1.97.92.93,1.74,1.95,2.45,3.04"/>
    <line class="cls-4" x1="573.4" y1="137.33" x2="573.4" y2="100.1"/>
    <line class="cls-4" x1="546.46" y1="137.33" x2="546.46" y2="100.1"/>
    <line class="cls-4" x1="497.78" y1="137.33" x2="497.78" y2="100.1"/>
    <line class="cls-4" x1="470.84" y1="100.1" x2="470.84" y2="137.33"/>
    <line class="cls-4" x1="448.27" y1="341.16" x2="448.27" y2="303.35"/>
    <line class="cls-4" x1="491.99" y1="303.35" x2="491.99" y2="341.16"/>
    <line class="cls-4" x1="604.24" y1="341.16" x2="604.24" y2="303.35"/>
    <line class="cls-4" x1="647.96" y1="303.35" x2="647.96" y2="341.16"/>
    <line class="cls-4" x1="396.28" y1="341.16" x2="396.28" y2="303.35"/>
    <line class="cls-4" x1="440" y1="303.35" x2="440" y2="341.16"/>
    <line class="cls-4" x1="543.98" y1="341.16" x2="543.98" y2="303.35"/>
    <line class="cls-4" x1="500.26" y1="341.16" x2="500.26" y2="303.35"/>
    <line class="cls-4" x1="552.25" y1="341.16" x2="552.25" y2="303.35"/>
    <line class="cls-4" x1="595.97" y1="341.16" x2="595.97" y2="303.35"/>
    <line class="cls-4" x1="363.79" y1="201.16" x2="363.79" y2="341.35"/>
    <line class="cls-4" x1="680.45" y1="341.35" x2="680.45" y2="201.16"/>
    <line class="cls-4" x1="694.73" y1="137.33" x2="349.51" y2="137.33"/>
    <path class="cls-4" d="M573.4,100.1v-4.1s-.02-.04,0-.03"/>
    <path class="cls-4" d="M546.46,100.1v-3.61c0-.17.04-.34,0-.51"/>
    <path class="cls-4" d="M497.78,100.1v-4s-.05-.08,0-.13"/>
    <path class="cls-4" d="M470.84,100.1v-4s.04-.11,0-.13"/>
    <line class="cls-4" x1="569.98" y1="350.62" x2="526.25" y2="350.62"/>
    <line class="cls-4" x1="526.25" y1="388.42" x2="569.98" y2="388.42"/>
    <line class="cls-4" x1="491.99" y1="303.35" x2="448.27" y2="303.35"/>
    <line class="cls-4" x1="448.27" y1="341.16" x2="491.99" y2="341.16"/>
    <line class="cls-4" x1="440" y1="161.56" x2="396.28" y2="161.56"/>
    <line class="cls-4" x1="396.28" y1="199.37" x2="440" y2="199.37"/>
    <line class="cls-4" x1="448.27" y1="199.37" x2="491.99" y2="199.37"/>
    <line class="cls-4" x1="491.99" y1="161.56" x2="448.27" y2="161.56"/>
    <line class="cls-4" x1="595.97" y1="161.56" x2="552.25" y2="161.56"/>
    <line class="cls-4" x1="552.25" y1="199.37" x2="595.97" y2="199.37"/>
    <line class="cls-4" x1="604.24" y1="199.37" x2="647.96" y2="199.37"/>
    <line class="cls-4" x1="647.96" y1="161.56" x2="604.24" y2="161.56"/>
    <line class="cls-4" x1="500.26" y1="199.37" x2="543.98" y2="199.37"/>
    <line class="cls-4" x1="543.98" y1="161.56" x2="500.26" y2="161.56"/>
    <line class="cls-4" x1="440" y1="208.82" x2="396.28" y2="208.82"/>
    <line class="cls-4" x1="396.28" y1="246.63" x2="440" y2="246.63"/>
    <line class="cls-4" x1="552.25" y1="293.9" x2="595.97" y2="293.9"/>
    <line class="cls-4" x1="595.97" y1="256.08" x2="552.25" y2="256.08"/>
    <line class="cls-4" x1="360.24" y1="184.6" x2="360.24" y2="210"/>
    <line class="cls-4" x1="396.85" y1="410.29" x2="399.82" y2="415.13"/>
    <line class="cls-4" x1="676.39" y1="363.02" x2="684" y2="350.62"/>
    <line class="cls-4" x1="684" y1="137.33" x2="684" y2="132.73"/>
    <line class="cls-4" x1="543.98" y1="256.08" x2="500.26" y2="256.08"/>
    <line class="cls-4" x1="500.26" y1="293.9" x2="543.98" y2="293.9"/>
    <line class="cls-4" x1="491.99" y1="256.08" x2="448.27" y2="256.08"/>
    <line class="cls-4" x1="448.27" y1="293.9" x2="491.99" y2="293.9"/>
    <line class="cls-4" x1="578.25" y1="388.42" x2="621.97" y2="388.42"/>
    <line class="cls-4" x1="621.97" y1="350.62" x2="578.25" y2="350.62"/>
    <line class="cls-4" x1="647.96" y1="303.35" x2="604.24" y2="303.35"/>
    <line class="cls-4" x1="604.24" y1="341.16" x2="647.96" y2="341.16"/>
    <line class="cls-4" x1="422.28" y1="388.42" x2="465.99" y2="388.42"/>
    <line class="cls-4" x1="465.99" y1="350.62" x2="422.28" y2="350.62"/>
    <line class="cls-4" x1="604.24" y1="246.63" x2="647.96" y2="246.63"/>
    <line class="cls-4" x1="647.96" y1="208.82" x2="604.24" y2="208.82"/>
    <line class="cls-4" x1="491.99" y1="208.82" x2="448.27" y2="208.82"/>
    <line class="cls-4" x1="448.27" y1="246.63" x2="491.99" y2="246.63"/>
    <line class="cls-4" x1="440" y1="303.35" x2="396.28" y2="303.35"/>
    <line class="cls-4" x1="396.28" y1="341.16" x2="440" y2="341.16"/>
    <line class="cls-4" x1="500.26" y1="341.16" x2="543.98" y2="341.16"/>
    <line class="cls-4" x1="543.98" y1="303.35" x2="500.26" y2="303.35"/>
    <line class="cls-4" x1="396.28" y1="293.9" x2="440" y2="293.9"/>
    <line class="cls-4" x1="440" y1="256.08" x2="396.28" y2="256.08"/>
    <line class="cls-4" x1="517.98" y1="350.62" x2="474.26" y2="350.62"/>
    <line class="cls-4" x1="474.26" y1="388.42" x2="517.98" y2="388.42"/>
    <line class="cls-4" x1="500.26" y1="246.63" x2="543.98" y2="246.63"/>
    <line class="cls-4" x1="543.98" y1="208.82" x2="500.26" y2="208.82"/>
    <line class="cls-4" x1="552.25" y1="246.63" x2="595.97" y2="246.63"/>
    <line class="cls-4" x1="595.97" y1="208.82" x2="552.25" y2="208.82"/>
    <line class="cls-4" x1="595.97" y1="303.35" x2="552.25" y2="303.35"/>
    <line class="cls-4" x1="552.25" y1="341.16" x2="595.97" y2="341.16"/>
    <line class="cls-4" x1="604.24" y1="293.9" x2="647.96" y2="293.9"/>
    <line class="cls-4" x1="647.96" y1="256.08" x2="604.24" y2="256.08"/>
    <line class="cls-4" x1="373.24" y1="184.6" x2="349.51" y2="184.6"/>
    <line class="cls-4" x1="671" y1="184.6" x2="694.73" y2="184.6"/>
    <line class="cls-4" x1="671" y1="184.6" x2="671" y2="363.02"/>
    <line class="cls-4" x1="373.24" y1="363.02" x2="373.24" y2="184.6"/>
    <line class="cls-4" x1="694.73" y1="410.29" x2="349.51" y2="410.29"/>
    <path class="cls-4" d="M395.13,110.11c.85-3.23,2.55-6.24,4.91-8.6,3.5-3.5,8.42-5.54,13.37-5.54"/>
    <path class="cls-4" d="M646.66,104.56c1.13,1.74,1.93,3.55,2.46,5.55"/>
    <path class="cls-4" d="M636.1,96.73c2.11.61,3.98,1.52,5.76,2.81"/>
    <line class="cls-4" x1="373.24" y1="363.03" x2="373.24" y2="363.07"/>
    <path class="cls-4" d="M647.64,106.28s.01.02.02.03"/>
    <path class="cls-4" d="M649.11,110.11c.41,1.56.63,3.16.63,4.77"/>
    <path class="cls-4" d="M327.16,410.29c-6.53,0-11.82-5.29-11.82-11.81"/>
    <path class="cls-4" d="M329.56,410.29h-2.41"/>
    <line class="cls-4" x1="340.1" y1="410.29" x2="329.56" y2="410.29"/>
    <path class="cls-4" d="M349.51,410.29h-9.41"/>
    <path class="cls-4" d="M704.14,410.29h-9.41"/>
    <line class="cls-4" x1="714.68" y1="410.29" x2="704.14" y2="410.29"/>
    <path class="cls-4" d="M717.08,410.29h-2.41"/>
    <path class="cls-4" d="M717.08,410.29c6.53,0,11.82-5.29,11.82-11.81"/>
    <line class="cls-4" x1="334.46" y1="363.02" x2="323.92" y2="363.02"/>
    <path class="cls-4" d="M349.51,363.02h-15.05"/>
    <path class="cls-4" d="M315.34,367.75c0-2.61,2.12-4.73,4.73-4.73"/>
    <path class="cls-4" d="M323.92,363.02h-3.86"/>
    <line class="cls-4" x1="315.34" y1="367.75" x2="315.34" y2="398.47"/>
    <path class="cls-4" d="M377.96,367.75c-1.58-1.58-3.15-3.15-4.73-4.73"/>
    <path class="cls-4" d="M671,363.02c-1.58,1.58-3.15,3.15-4.73,4.73"/>
    <path class="cls-4" d="M671,184.6c-1.58-1.58-3.15-3.15-4.73-4.73"/>
    <path class="cls-4" d="M377.96,179.87c-1.58,1.58-3.15,3.15-4.73,4.73"/>
    <path class="cls-4" d="M694.73,363.02h15.05"/>
    <line class="cls-4" x1="709.78" y1="363.02" x2="720.32" y2="363.02"/>
    <line class="cls-4" x1="728.9" y1="367.75" x2="728.9" y2="398.47"/>
    <path class="cls-4" d="M724.18,363.02c2.61,0,4.73,2.12,4.73,4.73"/>
    <path class="cls-4" d="M720.32,363.02h3.86"/>
    <line class="cls-4" x1="470.84" y1="95.98" x2="413.41" y2="95.98"/>
    <line class="cls-4" x1="497.78" y1="95.98" x2="470.84" y2="95.98"/>
    <line class="cls-4" x1="470.84" y1="117.25" x2="497.78" y2="117.25"/>
    <line class="cls-4" x1="546.46" y1="95.98" x2="497.78" y2="95.98"/>
    <line class="cls-4" x1="573.4" y1="95.98" x2="546.46" y2="95.98"/>
    <line class="cls-4" x1="546.46" y1="117.25" x2="573.4" y2="117.25"/>
    <line class="cls-4" x1="630.83" y1="95.98" x2="573.4" y2="95.98"/>
    <path class="cls-4" d="M713.54,179.87c0,1.19-.26,2.17-.96,3.15-.65.91-1.64,1.58-2.81,1.58"/>
    <path class="cls-4" d="M694.73,184.6h15.05"/>
    <path class="cls-4" d="M680.45,341.35c0,4.5-1.29,8.91-3.71,12.71"/>
    <path class="cls-4" d="M680.18,197.6c.18,1.18.27,2.36.27,3.56"/>
    <line class="cls-4" x1="678.21" y1="184.6" x2="680.18" y2="197.6"/>
    <line class="cls-4" x1="671" y1="363.07" x2="671" y2="363.02"/>
    <line class="cls-4" x1="364.05" y1="197.6" x2="366.03" y2="184.6"/>
    <path class="cls-4" d="M363.79,201.16c0-1.2.09-2.38.27-3.56"/>
    <path class="cls-4" d="M367.49,354.06c-2.42-3.8-3.71-8.21-3.71-12.71"/>
    <path class="cls-4" d="M349.51,184.6h-15.05"/>
    <path class="cls-4" d="M320.06,184.6c-2.61,0-4.73-2.11-4.73-4.73"/>
    <path class="cls-4" d="M323.92,184.6h-3.86"/>
    <path class="cls-4" d="M330.7,179.87c0,1.19.26,2.17.96,3.15.64.91,1.64,1.58,2.81,1.58"/>
    <path class="cls-4" d="M323.92,184.6c-1.17,0-2.16-.67-2.81-1.58-.7-.98-.96-1.96-.96-3.15"/>
    <path class="cls-4" d="M694.73,137.33h9.41"/>
    <line class="cls-4" x1="724.08" y1="179.87" x2="713.54" y2="179.87"/>
    <path class="cls-4" d="M340.1,137.33h9.41"/>
    <line class="cls-4" x1="330.7" y1="179.87" x2="320.16" y2="179.87"/>
    <line class="cls-4" x1="647.96" y1="293.9" x2="647.96" y2="256.08"/>
    <line class="cls-4" x1="604.24" y1="293.9" x2="604.24" y2="256.08"/>
    <line class="cls-4" x1="595.97" y1="208.82" x2="595.97" y2="246.63"/>
    <line class="cls-4" x1="552.25" y1="246.63" x2="552.25" y2="208.82"/>
    <line class="cls-4" x1="500.26" y1="246.63" x2="500.26" y2="208.82"/>
    <line class="cls-4" x1="543.98" y1="208.82" x2="543.98" y2="246.63"/>
    <line class="cls-4" x1="517.98" y1="388.42" x2="517.98" y2="350.62"/>
    <line class="cls-4" x1="474.26" y1="388.42" x2="474.26" y2="350.62"/>
    <line class="cls-4" x1="440" y1="256.08" x2="440" y2="293.9"/>
    <line class="cls-4" x1="396.28" y1="293.9" x2="396.28" y2="256.08"/>
    <line class="cls-4" x1="491.99" y1="208.82" x2="491.99" y2="246.63"/>
    <line class="cls-4" x1="448.27" y1="246.63" x2="448.27" y2="208.82"/>
    <line class="cls-4" x1="647.96" y1="208.82" x2="647.96" y2="246.63"/>
    <line class="cls-4" x1="604.24" y1="246.63" x2="604.24" y2="208.82"/>
    <line class="cls-4" x1="465.99" y1="350.62" x2="465.99" y2="388.42"/>
    <line class="cls-4" x1="422.28" y1="388.42" x2="422.28" y2="350.62"/>
    <line class="cls-4" x1="621.97" y1="350.62" x2="621.97" y2="388.42"/>
    <line class="cls-4" x1="578.25" y1="388.42" x2="578.25" y2="350.62"/>
    <line class="cls-4" x1="448.27" y1="293.9" x2="448.27" y2="256.08"/>
    <line class="cls-4" x1="491.99" y1="256.08" x2="491.99" y2="293.9"/>
    <line class="cls-4" x1="500.26" y1="293.9" x2="500.26" y2="256.08"/>
    <line class="cls-4" x1="543.98" y1="256.08" x2="543.98" y2="293.9"/>
    <line class="cls-4" x1="595.97" y1="293.9" x2="595.97" y2="256.08"/>
    <line class="cls-4" x1="552.25" y1="293.9" x2="552.25" y2="256.08"/>
    <line class="cls-4" x1="440" y1="208.82" x2="440" y2="246.63"/>
    <line class="cls-4" x1="396.28" y1="246.63" x2="396.28" y2="208.82"/>
    <line class="cls-4" x1="543.98" y1="161.56" x2="543.98" y2="199.37"/>
    <line class="cls-4" x1="500.26" y1="199.37" x2="500.26" y2="161.56"/>
    <line class="cls-4" x1="647.96" y1="199.37" x2="647.96" y2="161.56"/>
    <line class="cls-4" x1="604.24" y1="199.37" x2="604.24" y2="161.56"/>
    <line class="cls-4" x1="595.97" y1="199.37" x2="595.97" y2="161.56"/>
    <line class="cls-4" x1="552.25" y1="199.37" x2="552.25" y2="161.56"/>
    <line class="cls-4" x1="491.99" y1="161.56" x2="491.99" y2="199.37"/>
    <line class="cls-4" x1="448.27" y1="199.37" x2="448.27" y2="161.56"/>
    <line class="cls-4" x1="440" y1="199.37" x2="440" y2="161.56"/>
    <line class="cls-4" x1="396.28" y1="199.37" x2="396.28" y2="161.56"/>
    <line class="cls-4" x1="569.98" y1="388.42" x2="569.98" y2="350.62"/>
    <line class="cls-4" x1="526.25" y1="388.42" x2="526.25" y2="350.62"/>
    <path class="cls-4" d="M394.51,114.88c0-1.61.22-3.21.63-4.77"/>
    <line class="cls-4" x1="470.84" y1="120.79" x2="497.78" y2="120.79"/>
    <line class="cls-4" x1="573.4" y1="120.79" x2="546.46" y2="120.79"/>
    <path class="cls-4" d="M630.83,95.98c1.78,0,3.55.26,5.26.76"/>
    <line class="cls-4" x1="728.9" y1="179.87" x2="728.9" y2="149.15"/>
    <path class="cls-4" d="M728.9,179.87c.08-.06-.1,0-.15,0h-4.67"/>
    <line class="cls-4" x1="329.56" y1="137.33" x2="340.1" y2="137.33"/>
    <path class="cls-4" d="M327.16,137.33h2.41"/>
    <path class="cls-4" d="M327.16,137.33c-6.53,0-11.82,5.29-11.82,11.82"/>
    <path class="cls-4" d="M717.08,137.33c6.53,0,11.82,5.29,11.82,11.82"/>
    <path class="cls-4" d="M714.68,137.33h2.41"/>
    <line class="cls-4" x1="704.14" y1="137.33" x2="714.68" y2="137.33"/>
    <line class="cls-4" x1="685.76" y1="328.18" x2="711.77" y2="329.01"/>
    <line class="cls-4" x1="711.77" y1="218.61" x2="685.76" y2="219.44"/>
    <line class="cls-4" x1="358.48" y1="219.44" x2="332.47" y2="218.61"/>
    <line class="cls-4" x1="332.47" y1="329.01" x2="358.48" y2="328.18"/>
    <line class="cls-4" x1="315.34" y1="179.87" x2="315.34" y2="149.15"/>
    <line class="cls-4" x1="394.51" y1="114.88" x2="394.51" y2="137.32"/>
    <line class="cls-4" x1="649.73" y1="137.33" x2="649.73" y2="114.88"/>
    <path class="cls-4" d="M681.08,219.46c1.56,0,3.12.03,4.68-.02"/>
    <path class="cls-4" d="M685.76,328.18c-1.56-.05-3.12-.02-4.68-.02"/>
    <path class="cls-4" d="M363.16,328.16c-1.56,0-3.12-.03-4.68.02"/>
    <path class="cls-4" d="M358.48,219.44c1.56.05,3.12.02,4.68.02"/>
    <line class="cls-4" x1="373.24" y1="363.07" x2="367.49" y2="354.06"/>
    <line class="cls-4" x1="676.75" y1="354.06" x2="671" y2="363.07"/>
    <line class="cls-4" x1="671" y1="363.02" x2="694.73" y2="363.02"/>
    <line class="cls-4" x1="373.24" y1="363.02" x2="349.51" y2="363.02"/>
    <line class="cls-4" x1="390.96" y1="132.73" x2="360.24" y2="132.73"/>
    <line class="cls-4" x1="360.24" y1="132.73" x2="360.24" y2="137.33"/>
    <line class="cls-4" x1="360.24" y1="210" x2="331.88" y2="210"/>
    <line class="cls-4" x1="331.88" y1="337.62" x2="360.24" y2="337.62"/>
    <line class="cls-4" x1="360.24" y1="337.62" x2="360.24" y2="350.62"/>
    <line class="cls-4" x1="360.24" y1="350.62" x2="367.85" y2="363.02"/>
    <line class="cls-4" x1="399.82" y1="415.13" x2="644.42" y2="415.13"/>
    <line class="cls-4" x1="644.42" y1="415.13" x2="647.39" y2="410.29"/>
    <line class="cls-4" x1="684" y1="350.62" x2="684" y2="337.62"/>
    <line class="cls-4" x1="684" y1="337.62" x2="712.36" y2="337.62"/>
    <line class="cls-4" x1="712.36" y1="210" x2="684" y2="210"/>
    <line class="cls-4" x1="684" y1="210" x2="684" y2="184.6"/>
    <line class="cls-4" x1="684" y1="132.73" x2="653.28" y2="132.73"/>
    <line class="cls-4" x1="653.28" y1="91.37" x2="390.96" y2="91.37"/>
  </g>
  <g id="_图层_3" data-name="图层 3">
    <path class="cls-1" d="M424.04,194.3h-4.94v-18.62c-1.8,1.69-3.93,2.94-6.38,3.74v-4.48c1.29-.42,2.69-1.22,4.2-2.4s2.55-2.55,3.11-4.12h4.01v25.88Z"/>
    <path class="cls-1" d="M478.92,189.72v4.59h-17.31c.19-1.73.75-3.38,1.69-4.93s2.79-3.61,5.55-6.18c2.23-2.07,3.59-3.48,4.1-4.22.68-1.02,1.02-2.03,1.02-3.02,0-1.1-.3-1.95-.89-2.54s-1.41-.89-2.45-.89-1.85.31-2.46.93-.96,1.65-1.05,3.09l-4.92-.49c.29-2.72,1.21-4.67,2.76-5.85s3.48-1.78,5.8-1.78c2.54,0,4.54.69,5.99,2.06s2.18,3.08,2.18,5.12c0,1.16-.21,2.26-.62,3.31s-1.08,2.15-1.98,3.3c-.6.76-1.68,1.86-3.23,3.29s-2.55,2.38-2.96,2.85-.75.93-1.01,1.37h9.81Z"/>
    <path class="cls-1" d="M512.4,187.47l4.78-.58c.15,1.22.56,2.15,1.23,2.79s1.48.97,2.43.97c1.02,0,1.88-.39,2.58-1.16s1.05-1.82,1.05-3.13c0-1.24-.33-2.23-1-2.95s-1.48-1.09-2.44-1.09c-.63,0-1.39.12-2.27.37l.54-4.03c1.34.04,2.36-.25,3.06-.87s1.05-1.43,1.05-2.45c0-.87-.26-1.56-.77-2.07s-1.2-.77-2.06-.77-1.56.29-2.16.88-.96,1.44-1.09,2.57l-4.55-.77c.32-1.56.79-2.8,1.43-3.74s1.53-1.66,2.67-2.2,2.42-.8,3.84-.8c2.43,0,4.37.77,5.84,2.32,1.21,1.27,1.81,2.7,1.81,4.29,0,2.26-1.24,4.07-3.71,5.41,1.48.32,2.66,1.03,3.54,2.13s1.33,2.43,1.33,3.99c0,2.26-.83,4.19-2.48,5.78s-3.71,2.39-6.17,2.39c-2.33,0-4.27-.67-5.8-2.01s-2.43-3.1-2.67-5.26Z"/>
    <path class="cls-1" d="M575.4,194.3v-5.19h-10.55v-4.32l11.18-16.37h4.15v16.35h3.2v4.34h-3.2v5.19h-4.78ZM575.4,184.78v-8.81l-5.92,8.81h5.92Z"/>
    <path class="cls-1" d="M616.91,187.68l4.92-.51c.14,1.11.56,2,1.25,2.65s1.49.98,2.39.98c1.03,0,1.9-.42,2.62-1.26s1.07-2.1,1.07-3.79c0-1.58-.35-2.77-1.06-3.56s-1.63-1.19-2.77-1.19c-1.42,0-2.69.63-3.81,1.88l-4.01-.58,2.53-13.41h13.06v4.62h-9.32l-.77,4.38c1.1-.55,2.23-.83,3.38-.83,2.19,0,4.05.8,5.57,2.39s2.29,3.66,2.29,6.21c0,2.12-.62,4.01-1.85,5.68-1.68,2.27-4,3.41-6.98,3.41-2.38,0-4.32-.64-5.82-1.92s-2.4-2.99-2.69-5.15Z"/>
    <path class="cls-1" d="M427.96,221.74l-4.78.53c-.12-.98-.42-1.71-.91-2.18s-1.13-.7-1.92-.7c-1.04,0-1.92.47-2.65,1.41s-1.17,2.89-1.36,5.85c1.23-1.45,2.76-2.18,4.59-2.18,2.06,0,3.83.79,5.3,2.36s2.21,3.6,2.21,6.08c0,2.64-.77,4.75-2.32,6.35s-3.53,2.39-5.96,2.39c-2.6,0-4.74-1.01-6.42-3.03s-2.51-5.33-2.51-9.94.87-8.13,2.62-10.21,4.01-3.13,6.8-3.13c1.96,0,3.58.55,4.86,1.64s2.1,2.69,2.45,4.77ZM416.76,232.52c0,1.61.37,2.84,1.11,3.72s1.58,1.31,2.53,1.31,1.68-.36,2.29-1.07.91-1.89.91-3.52-.33-2.9-.98-3.68-1.48-1.17-2.46-1.17-1.75.37-2.41,1.12-.98,1.84-.98,3.3Z"/>
    <path class="cls-1" d="M462.07,220.37v-4.59h16.89v3.59c-1.39,1.37-2.81,3.34-4.25,5.91s-2.54,5.29-3.3,8.18-1.13,5.47-1.12,7.74h-4.76c.08-3.56.82-7.2,2.21-10.9s3.24-7.01,5.56-9.93h-11.23Z"/>
    <path class="cls-1" d="M516.64,227.3c-1.28-.54-2.21-1.28-2.79-2.22s-.87-1.98-.87-3.1c0-1.92.67-3.51,2.01-4.76s3.25-1.88,5.72-1.88,4.35.63,5.7,1.88,2.03,2.84,2.03,4.76c0,1.2-.31,2.26-.93,3.19s-1.49,1.64-2.62,2.14c1.43.57,2.52,1.41,3.26,2.51s1.12,2.37,1.12,3.81c0,2.38-.76,4.31-2.28,5.8s-3.54,2.23-6.06,2.23c-2.34,0-4.29-.62-5.85-1.85-1.84-1.45-2.76-3.45-2.76-5.98,0-1.39.35-2.67,1.04-3.84s1.78-2.07,3.27-2.7ZM517.21,233.36c0,1.36.35,2.42,1.05,3.18s1.57,1.14,2.61,1.14,1.86-.37,2.53-1.1,1-1.79,1-3.17c0-1.21-.34-2.18-1.02-2.91s-1.54-1.1-2.58-1.1c-1.21,0-2.11.42-2.7,1.25s-.89,1.73-.89,2.71ZM517.66,222.32c0,.98.28,1.75.83,2.3s1.3.83,2.22.83,1.69-.28,2.25-.83.84-1.33.84-2.31c0-.93-.28-1.67-.83-2.22s-1.29-.83-2.21-.83-1.71.28-2.27.84-.84,1.31-.84,2.23Z"/>
    <path class="cls-1" d="M565.65,235.24l4.78-.53c.12.97.42,1.69.91,2.16s1.14.7,1.95.7c1.02,0,1.89-.47,2.6-1.41s1.17-2.88,1.37-5.84c-1.24,1.44-2.79,2.16-4.66,2.16-2.03,0-3.78-.78-5.25-2.35s-2.21-3.6-2.21-6.11.78-4.72,2.33-6.32,3.53-2.4,5.93-2.4c2.61,0,4.76,1.01,6.43,3.03s2.51,5.35,2.51,9.98-.87,8.11-2.62,10.2-4.02,3.13-6.82,3.13c-2.02,0-3.64-.54-4.89-1.61s-2.04-2.67-2.39-4.81ZM576.83,224.45c0-1.59-.37-2.83-1.1-3.71s-1.58-1.32-2.54-1.32-1.67.36-2.28,1.08-.91,1.9-.91,3.54.33,2.89.98,3.67,1.48,1.17,2.46,1.17,1.75-.38,2.4-1.12.98-1.85.98-3.3Z"/>
    <g>
      <path class="cls-1" d="M619.3,241.2h-4.94v-18.62c-1.8,1.69-3.93,2.94-6.38,3.74v-4.48c1.29-.42,2.69-1.22,4.2-2.4s2.55-2.55,3.11-4.12h4.01v25.88Z"/>
      <path class="cls-1" d="M635.04,215.33c2.5,0,4.45.89,5.85,2.67,1.68,2.11,2.51,5.61,2.51,10.49s-.84,8.38-2.53,10.51c-1.39,1.76-3.34,2.64-5.84,2.64s-4.53-.96-6.06-2.89-2.3-5.36-2.3-10.31.84-8.34,2.53-10.48c1.39-1.76,3.34-2.64,5.84-2.64ZM635.04,219.42c-.6,0-1.13.19-1.6.57s-.83,1.06-1.09,2.05c-.34,1.28-.51,3.43-.51,6.45s.15,5.1.46,6.23.69,1.88,1.15,2.26.99.56,1.59.56,1.13-.19,1.6-.57.83-1.06,1.09-2.05c.34-1.27.51-3.41.51-6.43s-.15-5.1-.46-6.23-.69-1.89-1.15-2.27-.99-.57-1.59-.57Z"/>
    </g>
    <g>
      <path class="cls-1" d="M414.23,288.34h-4.94v-18.62c-1.8,1.69-3.93,2.94-6.38,3.74v-4.48c1.29-.42,2.69-1.22,4.2-2.4s2.55-2.55,3.11-4.12h4.01v25.88Z"/>
      <path class="cls-1" d="M432.26,288.34h-4.94v-18.62c-1.8,1.69-3.93,2.94-6.38,3.74v-4.48c1.29-.42,2.69-1.22,4.2-2.4s2.55-2.55,3.11-4.12h4.01v25.88Z"/>
    </g>
    <g>
      <path class="cls-1" d="M464.06,288.34h-4.94v-18.62c-1.8,1.69-3.93,2.94-6.38,3.74v-4.48c1.29-.42,2.69-1.22,4.2-2.4s2.55-2.55,3.11-4.12h4.01v25.88Z"/>
      <path class="cls-1" d="M488.13,283.76v4.59h-17.31c.19-1.73.75-3.38,1.69-4.93s2.79-3.61,5.55-6.18c2.23-2.07,3.59-3.48,4.1-4.22.68-1.02,1.02-2.03,1.02-3.02,0-1.1-.3-1.95-.89-2.54s-1.41-.89-2.45-.89-1.85.31-2.46.93-.96,1.65-1.05,3.09l-4.92-.49c.29-2.72,1.21-4.67,2.76-5.85s3.48-1.78,5.8-1.78c2.54,0,4.54.69,5.99,2.06s2.18,3.08,2.18,5.12c0,1.16-.21,2.26-.62,3.31s-1.08,2.15-1.98,3.3c-.6.76-1.68,1.86-3.23,3.29s-2.55,2.38-2.96,2.85-.75.93-1.01,1.37h9.81Z"/>
    </g>
    <g>
      <path class="cls-1" d="M515.41,288.34h-4.94v-18.62c-1.8,1.69-3.93,2.94-6.38,3.74v-4.48c1.29-.42,2.69-1.22,4.2-2.4s2.55-2.55,3.11-4.12h4.01v25.88Z"/>
      <path class="cls-1" d="M522.61,281.51l4.78-.58c.15,1.22.56,2.15,1.23,2.79s1.48.97,2.43.97c1.02,0,1.88-.39,2.58-1.16s1.05-1.82,1.05-3.13c0-1.24-.33-2.23-1-2.95s-1.48-1.09-2.44-1.09c-.63,0-1.39.12-2.27.37l.54-4.03c1.34.04,2.36-.25,3.06-.87s1.05-1.43,1.05-2.45c0-.87-.26-1.56-.77-2.07s-1.2-.77-2.06-.77-1.56.29-2.16.88-.96,1.44-1.09,2.57l-4.55-.77c.32-1.56.79-2.8,1.43-3.74s1.53-1.66,2.67-2.2,2.42-.8,3.84-.8c2.43,0,4.37.77,5.84,2.32,1.21,1.27,1.81,2.7,1.81,4.29,0,2.26-1.24,4.07-3.71,5.41,1.48.32,2.66,1.03,3.54,2.13s1.33,2.43,1.33,3.99c0,2.26-.83,4.19-2.48,5.78s-3.71,2.39-6.17,2.39c-2.33,0-4.27-.67-5.8-2.01s-2.43-3.1-2.67-5.26Z"/>
    </g>
    <g>
      <path class="cls-1" d="M567.54,288.34h-4.94v-18.62c-1.8,1.69-3.93,2.94-6.38,3.74v-4.48c1.29-.42,2.69-1.22,4.2-2.4s2.55-2.55,3.11-4.12h4.01v25.88Z"/>
      <path class="cls-1" d="M584.61,288.34v-5.19h-10.55v-4.32l11.18-16.37h4.15v16.35h3.2v4.34h-3.2v5.19h-4.78ZM584.61,278.82v-8.81l-5.92,8.81h5.92Z"/>
    </g>
    <g>
      <path class="cls-1" d="M618.66,288.34h-4.94v-18.62c-1.8,1.69-3.93,2.94-6.38,3.74v-4.48c1.29-.42,2.69-1.22,4.2-2.4s2.55-2.55,3.11-4.12h4.01v25.88Z"/>
      <path class="cls-1" d="M626.12,281.72l4.92-.51c.14,1.11.56,2,1.25,2.65s1.49.98,2.39.98c1.03,0,1.9-.42,2.62-1.26s1.07-2.1,1.07-3.79c0-1.58-.35-2.77-1.06-3.56s-1.63-1.19-2.77-1.19c-1.42,0-2.69.63-3.81,1.88l-4.01-.58,2.53-13.41h13.06v4.62h-9.32l-.77,4.38c1.1-.55,2.23-.83,3.38-.83,2.19,0,4.05.8,5.57,2.39s2.29,3.66,2.29,6.21c0,2.12-.62,4.01-1.85,5.68-1.68,2.27-4,3.41-6.98,3.41-2.38,0-4.32-.64-5.82-1.92s-2.4-2.99-2.69-5.15Z"/>
    </g>
    <g>
      <path class="cls-1" d="M412.23,335.34h-4.94v-18.62c-1.8,1.69-3.93,2.94-6.38,3.74v-4.48c1.29-.42,2.69-1.22,4.2-2.4s2.55-2.55,3.11-4.12h4.01v25.88Z"/>
      <path class="cls-1" d="M436.34,315.88l-4.78.53c-.12-.98-.42-1.71-.91-2.18s-1.13-.7-1.92-.7c-1.04,0-1.92.47-2.65,1.41s-1.17,2.89-1.36,5.85c1.23-1.45,2.76-2.18,4.59-2.18,2.06,0,3.83.79,5.3,2.36s2.21,3.6,2.21,6.08c0,2.64-.77,4.75-2.32,6.35s-3.53,2.39-5.96,2.39c-2.6,0-4.74-1.01-6.42-3.03s-2.51-5.33-2.51-9.94.87-8.13,2.62-10.21,4.01-3.13,6.8-3.13c1.96,0,3.58.55,4.86,1.64s2.1,2.69,2.45,4.77ZM425.15,326.66c0,1.61.37,2.84,1.11,3.72s1.58,1.31,2.53,1.31,1.68-.36,2.29-1.07.91-1.89.91-3.52-.33-2.9-.98-3.68-1.48-1.17-2.46-1.17-1.75.37-2.41,1.12-.98,1.84-.98,3.3Z"/>
    </g>
    <g>
      <path class="cls-1" d="M463.06,335.34h-4.94v-18.62c-1.8,1.69-3.93,2.94-6.38,3.74v-4.48c1.29-.42,2.69-1.22,4.2-2.4s2.55-2.55,3.11-4.12h4.01v25.88Z"/>
      <path class="cls-1" d="M470.45,314.51v-4.59h16.89v3.59c-1.39,1.37-2.81,3.34-4.25,5.91s-2.54,5.29-3.3,8.18-1.13,5.47-1.12,7.74h-4.76c.08-3.56.82-7.2,2.21-10.9s3.24-7.01,5.56-9.93h-11.23Z"/>
    </g>
    <g>
      <path class="cls-1" d="M515.41,335.34h-4.94v-18.62c-1.8,1.69-3.93,2.94-6.38,3.74v-4.48c1.29-.42,2.69-1.22,4.2-2.4s2.55-2.55,3.11-4.12h4.01v25.88Z"/>
      <path class="cls-1" d="M527.03,321.44c-1.28-.54-2.21-1.28-2.79-2.22s-.87-1.98-.87-3.1c0-1.92.67-3.51,2.01-4.76s3.25-1.88,5.72-1.88,4.35.63,5.7,1.88,2.03,2.84,2.03,4.76c0,1.2-.31,2.26-.93,3.19s-1.49,1.64-2.62,2.14c1.43.57,2.52,1.41,3.26,2.51s1.12,2.37,1.12,3.81c0,2.38-.76,4.31-2.28,5.8s-3.54,2.23-6.06,2.23c-2.34,0-4.29-.62-5.85-1.85-1.84-1.45-2.76-3.45-2.76-5.98,0-1.39.35-2.67,1.04-3.84s1.78-2.07,3.27-2.7ZM527.59,327.5c0,1.36.35,2.42,1.05,3.18s1.57,1.14,2.61,1.14,1.86-.37,2.53-1.1,1-1.79,1-3.17c0-1.21-.34-2.18-1.02-2.91s-1.54-1.1-2.58-1.1c-1.21,0-2.11.42-2.7,1.25s-.89,1.73-.89,2.71ZM528.04,316.46c0,.98.28,1.75.83,2.3s1.3.83,2.22.83,1.69-.28,2.25-.83.84-1.33.84-2.31c0-.93-.28-1.67-.83-2.22s-1.29-.83-2.21-.83-1.71.28-2.27.84-.84,1.31-.84,2.23Z"/>
    </g>
    <g>
      <path class="cls-1" d="M567.54,335.34h-4.94v-18.62c-1.8,1.69-3.93,2.94-6.38,3.74v-4.48c1.29-.42,2.69-1.22,4.2-2.4s2.55-2.55,3.11-4.12h4.01v25.88Z"/>
      <path class="cls-1" d="M575.03,329.38l4.78-.53c.12.97.42,1.69.91,2.16s1.14.7,1.95.7c1.02,0,1.89-.47,2.6-1.41s1.17-2.88,1.37-5.84c-1.24,1.44-2.79,2.16-4.66,2.16-2.03,0-3.78-.78-5.25-2.35s-2.21-3.6-2.21-6.11.78-4.72,2.33-6.32,3.53-2.4,5.93-2.4c2.61,0,4.76,1.01,6.43,3.03s2.51,5.35,2.51,9.98-.87,8.11-2.62,10.2-4.02,3.13-6.82,3.13c-2.02,0-3.64-.54-4.89-1.61s-2.04-2.67-2.39-4.81ZM586.21,318.59c0-1.59-.37-2.83-1.1-3.71s-1.58-1.32-2.54-1.32-1.67.36-2.28,1.08-.91,1.9-.91,3.54.33,2.89.98,3.67,1.48,1.17,2.46,1.17,1.75-.38,2.4-1.12.98-1.85.98-3.3Z"/>
    </g>
    <g>
      <path class="cls-1" d="M624.71,330.76v4.59h-17.31c.19-1.73.75-3.38,1.69-4.93s2.79-3.61,5.55-6.18c2.23-2.07,3.59-3.48,4.1-4.22.68-1.02,1.02-2.03,1.02-3.02,0-1.1-.3-1.95-.89-2.54s-1.41-.89-2.45-.89-1.85.31-2.46.93-.96,1.65-1.05,3.09l-4.92-.49c.29-2.72,1.21-4.67,2.76-5.85s3.48-1.78,5.8-1.78c2.54,0,4.54.69,5.99,2.06s2.18,3.08,2.18,5.12c0,1.16-.21,2.26-.62,3.31s-1.08,2.15-1.98,3.3c-.6.76-1.68,1.86-3.23,3.29s-2.55,2.38-2.96,2.85-.75.93-1.01,1.37h9.81Z"/>
      <path class="cls-1" d="M636.4,309.47c2.5,0,4.45.89,5.85,2.67,1.68,2.11,2.51,5.61,2.51,10.49s-.84,8.38-2.53,10.51c-1.39,1.76-3.34,2.64-5.84,2.64s-4.53-.96-6.06-2.89-2.3-5.36-2.3-10.31.84-8.34,2.53-10.48c1.39-1.76,3.34-2.64,5.84-2.64ZM636.4,313.56c-.6,0-1.13.19-1.6.57s-.83,1.06-1.09,2.05c-.34,1.28-.51,3.43-.51,6.45s.15,5.1.46,6.23.69,1.88,1.15,2.26.99.56,1.59.56,1.13-.19,1.6-.57.83-1.06,1.09-2.05c.34-1.27.51-3.41.51-6.43s-.15-5.1-.46-6.23-.69-1.89-1.15-2.27-.99-.57-1.59-.57Z"/>
    </g>
    <g>
      <path class="cls-1" d="M443.49,378.99v4.59h-17.31c.19-1.73.75-3.38,1.69-4.93s2.79-3.61,5.55-6.18c2.23-2.07,3.59-3.48,4.1-4.22.68-1.02,1.02-2.03,1.02-3.02,0-1.1-.3-1.95-.89-2.54s-1.41-.89-2.45-.89-1.85.31-2.46.93-.96,1.65-1.05,3.09l-4.92-.49c.29-2.72,1.21-4.67,2.76-5.85s3.48-1.78,5.8-1.78c2.54,0,4.54.69,5.99,2.06s2.18,3.08,2.18,5.12c0,1.16-.21,2.26-.62,3.31s-1.08,2.15-1.98,3.3c-.6.76-1.68,1.86-3.23,3.29s-2.55,2.38-2.96,2.85-.75.93-1.01,1.37h9.81Z"/>
      <path class="cls-1" d="M459.46,383.58h-4.94v-18.62c-1.8,1.69-3.93,2.94-6.38,3.74v-4.48c1.29-.42,2.69-1.22,4.2-2.4s2.55-2.55,3.11-4.12h4.01v25.88Z"/>
    </g>
    <g>
      <path class="cls-1" d="M494.83,378.99v4.59h-17.31c.19-1.73.75-3.38,1.69-4.93s2.79-3.61,5.55-6.18c2.23-2.07,3.59-3.48,4.1-4.22.68-1.02,1.02-2.03,1.02-3.02,0-1.1-.3-1.95-.89-2.54s-1.41-.89-2.45-.89-1.85.31-2.46.93-.96,1.65-1.05,3.09l-4.92-.49c.29-2.72,1.21-4.67,2.76-5.85s3.48-1.78,5.8-1.78c2.54,0,4.54.69,5.99,2.06s2.18,3.08,2.18,5.12c0,1.16-.21,2.26-.62,3.31s-1.08,2.15-1.98,3.3c-.6.76-1.68,1.86-3.23,3.29s-2.55,2.38-2.96,2.85-.75.93-1.01,1.37h9.81Z"/>
      <path class="cls-1" d="M514.85,378.99v4.59h-17.31c.19-1.73.75-3.38,1.69-4.93s2.79-3.61,5.55-6.18c2.23-2.07,3.59-3.48,4.1-4.22.68-1.02,1.02-2.03,1.02-3.02,0-1.1-.3-1.95-.89-2.54s-1.41-.89-2.45-.89-1.85.31-2.46.93-.96,1.65-1.05,3.09l-4.92-.49c.29-2.72,1.21-4.67,2.76-5.85s3.48-1.78,5.8-1.78c2.54,0,4.54.69,5.99,2.06s2.18,3.08,2.18,5.12c0,1.16-.21,2.26-.62,3.31s-1.08,2.15-1.98,3.3c-.6.76-1.68,1.86-3.23,3.29s-2.55,2.38-2.96,2.85-.75.93-1.01,1.37h9.81Z"/>
    </g>
    <g>
      <path class="cls-1" d="M546.96,378.99v4.59h-17.31c.19-1.73.75-3.38,1.69-4.93s2.79-3.61,5.55-6.18c2.23-2.07,3.59-3.48,4.1-4.22.68-1.02,1.02-2.03,1.02-3.02,0-1.1-.3-1.95-.89-2.54s-1.41-.89-2.45-.89-1.85.31-2.46.93-.96,1.65-1.05,3.09l-4.92-.49c.29-2.72,1.21-4.67,2.76-5.85s3.48-1.78,5.8-1.78c2.54,0,4.54.69,5.99,2.06s2.18,3.08,2.18,5.12c0,1.16-.21,2.26-.62,3.31s-1.08,2.15-1.98,3.3c-.6.76-1.68,1.86-3.23,3.29s-2.55,2.38-2.96,2.85-.75.93-1.01,1.37h9.81Z"/>
      <path class="cls-1" d="M550.13,376.74l4.78-.58c.15,1.22.56,2.15,1.23,2.79s1.48.97,2.43.97c1.02,0,1.88-.39,2.58-1.16s1.05-1.82,1.05-3.13c0-1.24-.33-2.23-1-2.95s-1.48-1.09-2.44-1.09c-.63,0-1.39.12-2.27.37l.54-4.03c1.34.04,2.36-.25,3.06-.87s1.05-1.43,1.05-2.45c0-.87-.26-1.56-.77-2.07s-1.2-.77-2.06-.77-1.56.29-2.16.88-.96,1.44-1.09,2.57l-4.55-.77c.32-1.56.79-2.8,1.43-3.74s1.53-1.66,2.67-2.2,2.42-.8,3.84-.8c2.43,0,4.37.77,5.84,2.32,1.21,1.27,1.81,2.7,1.81,4.29,0,2.26-1.24,4.07-3.71,5.41,1.48.32,2.66,1.03,3.54,2.13s1.33,2.43,1.33,3.99c0,2.26-.83,4.19-2.48,5.78s-3.71,2.39-6.17,2.39c-2.33,0-4.27-.67-5.8-2.01s-2.43-3.1-2.67-5.26Z"/>
    </g>
    <g>
      <path class="cls-1" d="M598.08,378.99v4.59h-17.31c.19-1.73.75-3.38,1.69-4.93s2.79-3.61,5.55-6.18c2.23-2.07,3.59-3.48,4.1-4.22.68-1.02,1.02-2.03,1.02-3.02,0-1.1-.3-1.95-.89-2.54s-1.41-.89-2.45-.89-1.85.31-2.46.93-.96,1.65-1.05,3.09l-4.92-.49c.29-2.72,1.21-4.67,2.76-5.85s3.48-1.78,5.8-1.78c2.54,0,4.54.69,5.99,2.06s2.18,3.08,2.18,5.12c0,1.16-.21,2.26-.62,3.31s-1.08,2.15-1.98,3.3c-.6.76-1.68,1.86-3.23,3.29s-2.55,2.38-2.96,2.85-.75.93-1.01,1.37h9.81Z"/>
      <path class="cls-1" d="M611.11,383.58v-5.19h-10.55v-4.32l11.18-16.37h4.15v16.35h3.2v4.34h-3.2v5.19h-4.78ZM611.11,374.05v-8.81l-5.92,8.81h5.92Z"/>
    </g>
  </g>
  <g id="_图层_4" data-name="图层 4">
    <g>
      <rect class="cls-2" x="1" y="74" width="134.74" height="289.28"/>
      <rect class="cls-2" x="53.37" y="39.81" width="35.85" height="32.58"/>
      <path class="cls-2" d="M89.22,397.47c-.66,0-16.51,0-17.17,0-.78,0-17.9,0-18.68,0v-32.58h35.85v32.58Z"/>
      <g>
        <line class="cls-2" x1="71.29" y1="74" x2="71.29" y2="160.28"/>
        <line class="cls-2" x1="75.51" y1="156.4" x2="18.23" y2="156.4"/>
        <g>
          <line class="cls-2" x1="29.41" y1="129.64" x2="71.24" y2="301.93"/>
          <line class="cls-2" x1="71.29" y1="363.28" x2="71.29" y2="300.94"/>
        </g>
      </g>
    </g>
    <path class="cls-3" d="M71.5,37.57c20-15.33,39.64-24.07,57.33-29.06,103.41-29.17,240.06,41.73,348.68,171.33"/>
    <path class="cls-3" d="M69.44,398.31c21.6,20.2,51.43,41.56,90.32,54.32,142.21,46.67,274.95-64.5,287.23-75.1"/>
  </g>
</svg>