<?xml version="1.0" encoding="UTF-8"?>
<svg xmlns="http://www.w3.org/2000/svg" viewBox="0 0 488.24 143.49">
  <defs>
    <style>
      .cls-1 {
        fill: #000;
        stroke-width: 0px;
      }

      .cls-2 {
        stroke-miterlimit: 10;
      }

      .cls-2, .cls-3, .cls-4 {
        fill: none;
        stroke: #000;
      }

      .cls-3 {
        stroke-linecap: round;
        stroke-linejoin: round;
      }
    </style>
  </defs>
  <g>
    <g>
      <path class="cls-1" d="M98.12,140.54v-6.5h2.88c.58,0,1.02.06,1.32.17.3.12.54.32.72.62s.27.62.27.98c0,.46-.15.85-.45,1.17-.3.32-.76.52-1.38.6.23.11.4.22.52.32.25.23.49.52.71.87l1.13,1.77h-1.08l-.86-1.35c-.25-.39-.46-.69-.62-.9s-.31-.35-.44-.43c-.13-.08-.26-.14-.39-.17-.1-.02-.26-.03-.48-.03h-1v2.89h-.86ZM98.98,136.91h1.85c.39,0,.7-.04.92-.12.22-.08.39-.21.51-.39s.17-.37.17-.58c0-.31-.11-.56-.33-.76-.22-.2-.58-.3-1.06-.3h-2.06v2.15Z"/>
      <path class="cls-1" d="M104.37,138.45l.81-.07c.04.33.13.59.27.8.14.21.36.38.65.51.3.13.63.19,1,.19.33,0,.62-.05.87-.15.25-.1.44-.23.56-.4.12-.17.18-.36.18-.56s-.06-.38-.18-.53-.31-.28-.59-.38c-.17-.07-.56-.17-1.16-.32-.6-.14-1.02-.28-1.25-.41-.31-.16-.54-.36-.69-.61s-.23-.51-.23-.81c0-.33.09-.63.28-.92.19-.29.46-.5.82-.65.36-.15.76-.22,1.19-.22.48,0,.91.08,1.28.23s.65.38.85.68c.2.3.3.64.32,1.03l-.82.06c-.04-.41-.19-.72-.45-.93s-.63-.31-1.13-.31-.9.1-1.14.29c-.24.19-.36.42-.36.69,0,.23.08.43.25.58.17.15.6.3,1.3.46.7.16,1.18.3,1.44.42.38.17.66.4.84.66s.27.58.27.92-.1.67-.3.98c-.2.31-.48.54-.85.71s-.79.26-1.25.26c-.59,0-1.08-.09-1.48-.26-.4-.17-.71-.43-.94-.77-.23-.34-.35-.73-.36-1.17Z"/>
      <path class="cls-1" d="M112.96,140.54v-1.56h-2.82v-.73l2.97-4.21h.65v4.21h.88v.73h-.88v1.56h-.8ZM112.96,138.25v-2.93l-2.04,2.93h2.04Z"/>
      <path class="cls-1" d="M116.68,137.01c-.33-.12-.58-.29-.74-.52s-.24-.49-.24-.81c0-.47.17-.87.51-1.19.34-.32.79-.48,1.36-.48s1.02.16,1.37.49c.35.33.52.73.52,1.2,0,.3-.08.56-.24.79-.16.22-.4.4-.72.52.4.13.7.34.91.63.21.29.31.64.31,1.04,0,.56-.2,1.02-.59,1.4-.39.38-.91.57-1.55.57s-1.16-.19-1.55-.57-.59-.85-.59-1.42c0-.42.11-.78.32-1.06.21-.29.52-.48.92-.58ZM116.26,138.66c0,.23.05.45.16.66s.27.38.48.49.44.17.69.17c.38,0,.7-.12.94-.37.25-.25.37-.56.37-.94s-.13-.7-.38-.95c-.26-.25-.58-.38-.96-.38s-.69.12-.93.37c-.25.25-.37.56-.37.93ZM116.52,135.66c0,.31.1.56.3.75.2.2.46.29.77.29s.56-.1.76-.29c.2-.19.29-.43.29-.71s-.1-.54-.3-.74c-.2-.2-.45-.3-.76-.3s-.56.1-.76.29c-.2.2-.3.43-.3.7Z"/>
      <path class="cls-1" d="M120.5,138.84l.84-.07c.06.41.21.71.43.92.23.21.5.31.82.31.38,0,.71-.14.98-.43.27-.29.4-.67.4-1.15s-.13-.81-.38-1.08c-.26-.26-.59-.39-1-.39-.26,0-.49.06-.7.17s-.37.27-.49.45l-.75-.1.63-3.34h3.23v.76h-2.59l-.35,1.75c.39-.27.8-.41,1.23-.41.57,0,1.05.2,1.44.59.39.39.59.9.59,1.52s-.17,1.1-.51,1.53c-.42.53-.99.79-1.71.79-.59,0-1.07-.17-1.45-.5s-.59-.77-.64-1.32Z"/>
      <path class="cls-1" d="M125.16,140.54l2.5-6.5h.93l2.66,6.5h-.98l-.76-1.97h-2.72l-.71,1.97h-.91ZM127.04,137.87h2.2l-.68-1.8c-.21-.55-.36-1-.46-1.35-.08.42-.2.83-.35,1.24l-.71,1.91Z"/>
    </g>
    <g>
      <path class="cls-1" d="M66.23,7.79V1.29h2.88c.58,0,1.02.06,1.32.17.3.12.54.32.72.62.18.3.27.62.27.98,0,.46-.15.85-.45,1.17-.3.32-.76.52-1.38.6.23.11.4.22.52.32.25.23.49.52.71.87l1.13,1.77h-1.08l-.86-1.35c-.25-.39-.46-.69-.62-.9s-.31-.35-.44-.43c-.13-.08-.26-.14-.39-.17-.1-.02-.26-.03-.48-.03h-1v2.89h-.86ZM67.09,4.16h1.85c.39,0,.7-.04.92-.12.22-.08.39-.21.51-.39.12-.18.17-.37.17-.58,0-.31-.11-.56-.33-.76-.22-.2-.58-.3-1.06-.3h-2.06v2.15Z"/>
      <path class="cls-1" d="M72.49,5.71l.81-.07c.04.33.13.59.27.8.14.21.36.38.65.51.3.13.63.19,1,.19.33,0,.62-.05.87-.15.25-.1.44-.23.56-.4.12-.17.18-.36.18-.56s-.06-.38-.18-.53-.31-.28-.59-.38c-.17-.07-.56-.17-1.16-.32-.6-.14-1.02-.28-1.25-.41-.31-.16-.54-.36-.69-.61-.15-.24-.23-.51-.23-.81,0-.33.09-.63.28-.92.19-.29.46-.5.82-.65s.76-.22,1.19-.22c.48,0,.91.08,1.28.23.37.16.65.38.85.69.2.3.3.64.32,1.02l-.82.06c-.04-.41-.19-.72-.45-.93s-.63-.31-1.13-.31-.9.1-1.14.29c-.24.19-.36.42-.36.69,0,.23.08.43.25.58.17.15.6.31,1.3.46.7.16,1.18.3,1.44.42.38.17.66.4.84.66s.27.58.27.92-.1.67-.3.98c-.2.31-.48.54-.85.71s-.79.26-1.25.26c-.59,0-1.08-.09-1.48-.26-.4-.17-.71-.43-.94-.77-.23-.34-.35-.73-.36-1.17Z"/>
      <path class="cls-1" d="M81.07,7.79v-1.56h-2.82v-.73l2.97-4.21h.65v4.21h.88v.73h-.88v1.56h-.8ZM81.07,5.51v-2.93l-2.04,2.93h2.04Z"/>
      <path class="cls-1" d="M84.79,4.27c-.33-.12-.58-.29-.74-.52s-.24-.49-.24-.81c0-.47.17-.87.51-1.19.34-.32.79-.48,1.36-.48s1.02.17,1.37.49c.35.33.52.73.52,1.2,0,.3-.08.56-.24.79-.16.22-.4.4-.72.52.4.13.7.34.91.63s.31.64.31,1.04c0,.56-.2,1.02-.59,1.4-.39.38-.91.57-1.55.57s-1.16-.19-1.55-.57-.59-.85-.59-1.42c0-.42.11-.78.32-1.06s.52-.48.92-.58ZM84.38,5.92c0,.23.05.45.16.66s.27.38.48.49.44.17.69.17c.38,0,.7-.12.94-.37.25-.25.37-.56.37-.94s-.13-.7-.38-.95c-.26-.25-.58-.38-.96-.38s-.69.12-.93.37c-.25.25-.37.56-.37.93ZM84.64,2.92c0,.31.1.56.3.75.2.2.46.29.77.29s.56-.1.76-.29.29-.43.29-.71-.1-.54-.3-.74c-.2-.2-.45-.3-.76-.3s-.56.1-.76.29-.3.43-.3.7Z"/>
      <path class="cls-1" d="M88.62,6.09l.84-.07c.06.41.21.71.43.92.23.21.5.31.82.31.38,0,.71-.14.98-.43.27-.29.4-.67.4-1.15s-.13-.81-.38-1.08c-.26-.26-.59-.4-1-.4-.26,0-.49.06-.7.18-.21.12-.37.27-.49.45l-.75-.1.63-3.34h3.23v.76h-2.59l-.35,1.75c.39-.27.8-.41,1.23-.41.57,0,1.05.2,1.44.59.39.39.59.9.59,1.52s-.17,1.1-.51,1.53c-.42.53-.99.79-1.71.79-.59,0-1.07-.17-1.45-.5s-.59-.77-.64-1.32Z"/>
      <path class="cls-1" d="M93.96,7.79V1.29h2.44c.5,0,.9.07,1.2.2.3.13.54.33.71.61.17.27.25.56.25.86,0,.28-.08.54-.23.79-.15.25-.38.44-.68.59.39.11.7.31.91.59.21.28.32.61.32.99,0,.3-.06.59-.19.85-.13.26-.29.46-.48.6-.19.14-.43.25-.71.32-.29.07-.63.11-1.05.11h-2.48ZM94.82,4.02h1.41c.38,0,.65-.02.82-.08.22-.06.38-.17.49-.32.11-.15.17-.34.17-.57,0-.22-.05-.41-.16-.57s-.25-.28-.44-.34c-.19-.06-.52-.09-.99-.09h-1.3v1.96ZM94.82,7.03h1.62c.28,0,.47,0,.59-.03.2-.04.36-.09.5-.18.13-.08.24-.2.33-.36.09-.16.13-.34.13-.55,0-.24-.06-.45-.19-.63-.12-.18-.3-.3-.52-.38-.22-.07-.54-.11-.95-.11h-1.5v2.24Z"/>
    </g>
    <line class="cls-3" x1="13.61" y1="83.67" x2="13.61" y2="67.14"/>
    <line class="cls-3" x1="59.94" y1="67.14" x2="59.94" y2="83.67"/>
    <path class="cls-3" d="M1.97,87.25H.52s-.01,0-.01,0"/>
    <path class="cls-3" d="M3.11,85.81c-.36,0-.66.2-.85.48-.21.3-.29.6-.29.96"/>
    <path class="cls-3" d="M71.58,87.25c0-.36-.08-.66-.29-.96-.2-.28-.5-.48-.85-.48"/>
    <path class="cls-3" d="M73.05,87.25s0,0-.01,0h-1.45"/>
    <line class="cls-3" x1="5.17" y1="87.25" x2="1.97" y2="87.25"/>
    <path class="cls-3" d="M1.97,90.84h-.73c-.24,0-.49-.01-.73,0"/>
    <line class="cls-3" x1="1.97" y1="87.25" x2="1.97" y2="90.84"/>
    <path class="cls-3" d="M73.05,90.84s0,0-.01,0h-1.45"/>
    <line class="cls-3" x1="71.58" y1="90.84" x2="71.58" y2="87.25"/>
    <line class="cls-3" x1="71.58" y1="87.25" x2="68.38" y2="87.25"/>
    <line class="cls-3" x1="1.97" y1="90.84" x2="5.17" y2="90.84"/>
    <path class="cls-3" d="M4.83,94.43c-.89,0-1.64-.51-2.13-1.2-.49-.69-.73-1.56-.73-2.39"/>
    <path class="cls-3" d="M5.17,90.84c0,.84.24,1.7.73,2.39.49.69,1.24,1.2,2.13,1.2"/>
    <path class="cls-3" d="M68.72,94.43c.89,0,1.64-.51,2.13-1.2.49-.69.73-1.56.73-2.39"/>
    <line class="cls-3" x1="68.38" y1="90.84" x2="71.58" y2="90.84"/>
    <path class="cls-3" d="M65.52,94.43c.89,0,1.64-.51,2.13-1.2.49-.69.73-1.56.73-2.39"/>
    <path class="cls-3" d="M10.89,85.81s0,0,0,.01v1.43"/>
    <line class="cls-3" x1="5.17" y1="87.25" x2="5.17" y2="90.84"/>
    <path class="cls-3" d="M10.89,90.84v3.14c0,.15.01.3,0,.45"/>
    <path class="cls-3" d="M62.66,94.43s0-.02,0-.03v-3.57"/>
    <line class="cls-3" x1="68.38" y1="90.84" x2="68.38" y2="87.25"/>
    <path class="cls-3" d="M62.66,87.25v-1.39s.01-.04,0-.04"/>
    <path class="cls-3" d="M1.97,63.55c0,.36.08.66.29.96.2.28.5.48.85.48"/>
    <path class="cls-3" d="M.51,63.55s.03,0,.05,0h1.42"/>
    <line class="cls-3" x1="5.17" y1="63.55" x2="1.97" y2="63.55"/>
    <path class="cls-3" d="M5.17,63.55h5.72"/>
    <line class="cls-3" x1="54.01" y1="87.25" x2="54.01" y2="63.55"/>
    <line class="cls-3" x1="19.54" y1="63.55" x2="19.54" y2="87.25"/>
    <line class="cls-3" x1="10.89" y1="87.25" x2="10.89" y2="90.84"/>
    <line class="cls-3" x1="62.66" y1="90.84" x2="62.66" y2="87.25"/>
    <path class="cls-3" d="M62.66,63.55h5.72"/>
    <line class="cls-3" x1="71.58" y1="63.55" x2="68.38" y2="63.55"/>
    <path class="cls-3" d="M71.58,63.55c0,.36-.08.66-.29.96-.2.28-.5.48-.85.48"/>
    <path class="cls-3" d="M71.58,63.55h1.42s.04.01.05,0"/>
    <path class="cls-3" d="M.51,59.96s0,0,.01,0h1.45"/>
    <line class="cls-3" x1="1.97" y1="63.55" x2="1.97" y2="59.96"/>
    <line class="cls-3" x1="1.97" y1="59.96" x2="5.17" y2="59.96"/>
    <line class="cls-3" x1="5.17" y1="59.96" x2="5.17" y2="63.55"/>
    <path class="cls-3" d="M5.17,59.96h5.72"/>
    <line class="cls-3" x1="10.89" y1="59.96" x2="10.89" y2="63.55"/>
    <line class="cls-3" x1="62.66" y1="59.96" x2="62.66" y2="63.55"/>
    <path class="cls-3" d="M62.66,59.96h5.72"/>
    <line class="cls-3" x1="68.38" y1="63.55" x2="68.38" y2="59.96"/>
    <line class="cls-3" x1="71.58" y1="59.96" x2="71.58" y2="63.55"/>
    <line class="cls-3" x1="68.38" y1="59.96" x2="71.58" y2="59.96"/>
    <path class="cls-3" d="M71.58,59.96h1.45s.02,0,.01,0"/>
    <path class="cls-3" d="M4.83,56.37c-.89,0-1.64.51-2.13,1.2-.49.69-.73,1.56-.73,2.39"/>
    <path class="cls-3" d="M8.03,56.37c-.89,0-1.64.51-2.13,1.2-.49.69-.73,1.56-.73,2.39"/>
    <path class="cls-3" d="M10.89,56.37v3.59"/>
    <path class="cls-3" d="M62.66,56.37s0,.02,0,.03v3.57"/>
    <path class="cls-3" d="M65.52,56.37c.89,0,1.64.51,2.13,1.2.49.69.73,1.56.73,2.39"/>
    <path class="cls-3" d="M68.72,56.37c.89,0,1.64.51,2.13,1.2.49.69.73,1.56.73,2.39"/>
    <line class="cls-3" x1="19.54" y1="87.25" x2="10.89" y2="87.25"/>
    <line class="cls-3" x1="10.89" y1="90.84" x2="32.83" y2="90.84"/>
    <line class="cls-3" x1="40.73" y1="90.84" x2="62.66" y2="90.84"/>
    <line class="cls-3" x1="62.66" y1="87.25" x2="54.01" y2="87.25"/>
    <path class="cls-3" d="M6.32,85.81c-.36,0-.66.2-.85.48-.21.3-.29.6-.29.96"/>
    <path class="cls-3" d="M68.38,87.25c0-.36-.08-.66-.29-.96-.2-.28-.5-.48-.85-.48"/>
    <path class="cls-3" d="M10.89,87.25h-5.72"/>
    <path class="cls-3" d="M5.17,90.84h5.72"/>
    <path class="cls-3" d="M62.66,90.84h5.72"/>
    <path class="cls-3" d="M68.38,87.25h-5.72"/>
    <path class="cls-3" d="M5.17,63.55c0,.36.08.66.29.96.2.28.5.48.85.48"/>
    <path class="cls-3" d="M10.89,63.55v1.39s.02.03,0,.04"/>
    <line class="cls-3" x1="54.01" y1="63.55" x2="62.66" y2="63.55"/>
    <path class="cls-3" d="M62.66,63.55v1.39s0,.03,0,.04"/>
    <line class="cls-3" x1="10.89" y1="63.55" x2="19.54" y2="63.55"/>
    <path class="cls-3" d="M68.38,63.55c0,.36-.08.66-.29.96-.2.28-.5.48-.85.48"/>
    <line class="cls-3" x1="10.89" y1="59.96" x2="62.66" y2="59.96"/>
    <line class="cls-3" x1="9.85" y1="95.53" x2="63.71" y2="95.53"/>
    <line class="cls-3" x1="63.71" y1="95.87" x2="63.71" y2="94.43"/>
    <line class="cls-3" x1="9.84" y1="94.43" x2="9.84" y2="95.87"/>
    <line class="cls-3" x1="5.53" y1="64.99" x2="5.53" y2="85.81"/>
    <line class="cls-3" x1="68.02" y1="85.81" x2="68.02" y2="64.99"/>
    <line class="cls-3" x1="59.4" y1="56.37" x2="59.4" y2="54.93"/>
    <line class="cls-3" x1="29.91" y1="66.1" x2="24.17" y2="66.1"/>
    <line class="cls-3" x1="58.32" y1="64.99" x2="58.32" y2="85.81"/>
    <line class="cls-3" x1="55.45" y1="64.99" x2="62.66" y2="64.99"/>
    <line class="cls-3" x1="67.23" y1="64.99" x2="70.44" y2="64.99"/>
    <line class="cls-3" x1="55.45" y1="85.81" x2="62.66" y2="85.81"/>
    <line class="cls-3" x1="70.44" y1="85.81" x2="67.23" y2="85.81"/>
    <line class="cls-3" x1="3.11" y1="64.99" x2="6.32" y2="64.99"/>
    <line class="cls-3" x1="10.89" y1="64.99" x2="18.1" y2="64.99"/>
    <line class="cls-3" x1="6.32" y1="85.81" x2="3.11" y2="85.81"/>
    <line class="cls-3" x1="10.89" y1="85.81" x2="18.1" y2="85.81"/>
    <line class="cls-3" x1="45.72" y1="74.5" x2="45.72" y2="63.01"/>
    <line class="cls-3" x1="29.92" y1="74.5" x2="29.92" y2="63.01"/>
    <path class="cls-3" d="M10.89,94.43h-2.86"/>
    <path class="cls-3" d="M65.52,94.43h-2.86"/>
    <line class="cls-3" x1="32.83" y1="90.84" x2="32.83" y2="81.86"/>
    <line class="cls-3" x1="40.73" y1="81.86" x2="40.73" y2="90.84"/>
    <line class="cls-3" x1="38.03" y1="63.01" x2="51.32" y2="63.01"/>
    <line class="cls-3" x1="51.32" y1="74.5" x2="38.03" y2="74.5"/>
    <line class="cls-3" x1="22.23" y1="63.01" x2="35.52" y2="63.01"/>
    <line class="cls-3" x1="35.52" y1="74.5" x2="22.23" y2="74.5"/>
    <line class="cls-3" x1="10.89" y1="56.37" x2="62.66" y2="56.37"/>
    <line class="cls-3" x1="15.23" y1="85.81" x2="15.23" y2="64.99"/>
    <path class="cls-3" d="M69.45,56.37c1.98,0,3.59,1.61,3.59,3.59"/>
    <path class="cls-3" d="M68.72,56.37h.73"/>
    <line class="cls-3" x1="65.52" y1="56.37" x2="68.72" y2="56.37"/>
    <path class="cls-3" d="M62.66,56.37h2.86"/>
    <path class="cls-3" d="M8.03,56.37h2.86"/>
    <line class="cls-3" x1="4.83" y1="56.37" x2="8.03" y2="56.37"/>
    <path class="cls-3" d="M4.1,56.37h.73"/>
    <path class="cls-3" d="M4.1,56.37c-1.98,0-3.59,1.61-3.59,3.59"/>
    <line class="cls-3" x1="73.05" y1="63.55" x2="73.05" y2="59.96"/>
    <line class="cls-3" x1=".51" y1="59.96" x2=".51" y2="63.55"/>
    <path class="cls-3" d="M73.05,63.55c0,.79-.64,1.44-1.44,1.44"/>
    <path class="cls-3" d="M19.54,87.25l-1.44-1.44"/>
    <path class="cls-3" d="M19.54,63.55l-1.44,1.44"/>
    <path class="cls-3" d="M54.01,63.55c.48.48.96.96,1.44,1.44"/>
    <path class="cls-3" d="M55.45,85.81c-.48.48-.96.96-1.44,1.44"/>
    <path class="cls-3" d="M.51,63.55c0,.79.64,1.44,1.44,1.44"/>
    <line class="cls-3" x1="40.73" y1="94.43" x2="62.66" y2="94.43"/>
    <line class="cls-3" x1="10.89" y1="94.43" x2="32.83" y2="94.43"/>
    <path class="cls-3" d="M40.73,90.84v3.48s0,.07,0,.11"/>
    <line class="cls-3" x1="40.73" y1="94.43" x2="32.83" y2="94.43"/>
    <line class="cls-3" x1="32.83" y1="87.97" x2="40.73" y2="87.97"/>
    <path class="cls-3" d="M32.83,94.43s0-.07,0-.11v-3.48"/>
    <line class="cls-3" x1="35.52" y1="63.01" x2="35.52" y2="74.5"/>
    <line class="cls-3" x1="22.23" y1="63.01" x2="22.23" y2="74.5"/>
    <line class="cls-3" x1="38.03" y1="63.01" x2="38.03" y2="74.5"/>
    <line class="cls-3" x1="51.32" y1="63.01" x2="51.32" y2="74.5"/>
    <line class="cls-3" x1="18.1" y1="64.99" x2="18.1" y2="85.81"/>
    <line class="cls-3" x1="55.45" y1="85.81" x2="55.45" y2="64.99"/>
    <line class="cls-3" x1="68.72" y1="94.43" x2="65.52" y2="94.43"/>
    <path class="cls-3" d="M69.45,94.43h-.73"/>
    <path class="cls-3" d="M69.45,94.43c1.98,0,3.59-1.61,3.59-3.59"/>
    <path class="cls-3" d="M4.1,94.43c-1.98,0-3.59-1.61-3.59-3.59"/>
    <path class="cls-3" d="M4.83,94.43h-.73"/>
    <line class="cls-3" x1="8.03" y1="94.43" x2="4.83" y2="94.43"/>
    <line class="cls-3" x1="29.92" y1="71.41" x2="24.17" y2="71.41"/>
    <line class="cls-3" x1="45.72" y1="71.41" x2="39.97" y2="71.41"/>
    <line class="cls-3" x1="45.72" y1="66.1" x2="39.97" y2="66.1"/>
    <line class="cls-3" x1="32.83" y1="81.86" x2="40.73" y2="81.86"/>
    <line class="cls-3" x1="40.73" y1="86.89" x2="32.83" y2="86.89"/>
    <line class="cls-3" x1="22.23" y1="74.5" x2="24.17" y2="71.41"/>
    <line class="cls-3" x1="24.17" y1="66.1" x2="22.23" y2="63.01"/>
    <line class="cls-3" x1="24.17" y1="71.41" x2="24.17" y2="66.1"/>
    <line class="cls-3" x1="39.97" y1="71.41" x2="38.03" y2="74.5"/>
    <line class="cls-3" x1="39.97" y1="66.1" x2="38.03" y2="63.01"/>
    <line class="cls-3" x1="39.97" y1="71.41" x2="39.97" y2="66.1"/>
    <path class="cls-3" d="M6.32,85.81h4.57"/>
    <path class="cls-3" d="M1.94,64.99h1.17"/>
    <path class="cls-3" d="M6.32,64.99h4.57"/>
    <path class="cls-3" d="M62.66,85.81h4.57"/>
    <path class="cls-3" d="M70.44,64.99h1.17"/>
    <path class="cls-3" d="M62.66,64.99h4.57"/>
    <line class="cls-3" x1="59.94" y1="67.14" x2="67.84" y2="66.89"/>
    <line class="cls-3" x1="67.84" y1="83.91" x2="67.84" y2="66.89"/>
    <line class="cls-3" x1="59.94" y1="83.67" x2="67.84" y2="83.91"/>
    <line class="cls-3" x1="13.61" y1="83.67" x2="5.71" y2="83.91"/>
    <line class="cls-3" x1="5.71" y1="66.89" x2="5.71" y2="83.91"/>
    <line class="cls-3" x1="13.61" y1="67.14" x2="5.71" y2="66.89"/>
    <line class="cls-3" x1="73.05" y1="90.84" x2="73.05" y2="87.25"/>
    <line class="cls-3" x1=".51" y1="87.25" x2=".51" y2="90.84"/>
    <path class="cls-3" d="M70.44,85.81h1.17"/>
    <path class="cls-3" d="M1.94,85.81h1.17"/>
    <path class="cls-3" d="M1.94,85.81c-.79,0-1.44.64-1.44,1.44"/>
    <path class="cls-3" d="M73.05,87.25c0-.79-.64-1.44-1.44-1.44"/>
    <path class="cls-3" d="M59.94,83.67c-.47-.02-.95,0-1.42,0"/>
    <path class="cls-3" d="M58.52,67.14c.47,0,.95,0,1.42,0"/>
    <path class="cls-3" d="M13.61,67.14c.47.01.95,0,1.42,0"/>
    <path class="cls-3" d="M15.03,83.66c-.47,0-.95,0-1.42,0"/>
    <line class="cls-3" x1="58.52" y1="83.66" x2="58.52" y2="67.14"/>
    <line class="cls-3" x1="15.03" y1="67.14" x2="15.03" y2="83.66"/>
    <line class="cls-3" x1="14.15" y1="54.93" x2="14.15" y2="56.37"/>
    <line class="cls-3" x1="9.84" y1="95.87" x2="63.71" y2="95.87"/>
    <line class="cls-3" x1="59.4" y1="54.93" x2="14.15" y2="54.93"/>
    <path class="cls-1" d="M172.85,81.86h-2.28v-8.61c-.83.78-1.82,1.36-2.95,1.73v-2.07c.6-.2,1.24-.57,1.94-1.11s1.18-1.18,1.44-1.91h1.85v11.97Z"/>
    <line class="cls-3" x1="254.1" y1="85.24" x2="254.1" y2="68.71"/>
    <line class="cls-3" x1="300.44" y1="68.71" x2="300.44" y2="85.24"/>
    <path class="cls-3" d="M242.47,88.82h-1.45s-.01,0-.01,0"/>
    <path class="cls-3" d="M243.61,87.38c-.36,0-.66.2-.85.48-.21.3-.29.6-.29.96"/>
    <path class="cls-3" d="M312.08,88.82c0-.36-.08-.66-.29-.96-.2-.28-.5-.48-.85-.48"/>
    <path class="cls-3" d="M313.54,88.82s0,0-.01,0h-1.45"/>
    <line class="cls-3" x1="245.67" y1="88.82" x2="242.47" y2="88.82"/>
    <path class="cls-3" d="M242.47,92.41h-.73c-.24,0-.49-.01-.73,0"/>
    <line class="cls-3" x1="242.47" y1="88.82" x2="242.47" y2="92.41"/>
    <path class="cls-3" d="M313.54,92.41s0,0-.01,0h-1.45"/>
    <line class="cls-3" x1="312.08" y1="92.41" x2="312.08" y2="88.82"/>
    <line class="cls-3" x1="312.08" y1="88.82" x2="308.88" y2="88.82"/>
    <line class="cls-3" x1="242.47" y1="92.41" x2="245.67" y2="92.41"/>
    <path class="cls-3" d="M245.33,96c-.89,0-1.64-.51-2.13-1.2-.49-.69-.73-1.56-.73-2.39"/>
    <path class="cls-3" d="M245.67,92.41c0,.84.24,1.7.73,2.39.49.69,1.24,1.2,2.13,1.2"/>
    <path class="cls-3" d="M309.22,96c.89,0,1.64-.51,2.13-1.2.49-.69.73-1.56.73-2.39"/>
    <line class="cls-3" x1="308.88" y1="92.41" x2="312.08" y2="92.41"/>
    <path class="cls-3" d="M306.02,96c.89,0,1.64-.51,2.13-1.2.49-.69.73-1.56.73-2.39"/>
    <path class="cls-3" d="M251.39,87.38s0,0,0,.01v1.43"/>
    <line class="cls-3" x1="245.67" y1="88.82" x2="245.67" y2="92.41"/>
    <path class="cls-3" d="M251.39,92.41v3.14c0,.15.01.3,0,.45"/>
    <path class="cls-3" d="M303.16,96s0-.02,0-.03v-3.57"/>
    <line class="cls-3" x1="308.88" y1="92.41" x2="308.88" y2="88.82"/>
    <path class="cls-3" d="M303.16,88.82v-1.39s.01-.04,0-.04"/>
    <path class="cls-3" d="M242.47,65.12c0,.36.08.66.29.96.2.28.5.48.85.48"/>
    <path class="cls-3" d="M241,65.12s.03,0,.05,0h1.42"/>
    <line class="cls-3" x1="245.67" y1="65.12" x2="242.47" y2="65.12"/>
    <path class="cls-3" d="M245.67,65.12h5.72"/>
    <line class="cls-3" x1="294.51" y1="88.82" x2="294.51" y2="65.12"/>
    <line class="cls-3" x1="260.04" y1="65.12" x2="260.04" y2="88.82"/>
    <line class="cls-3" x1="251.39" y1="88.82" x2="251.39" y2="92.41"/>
    <line class="cls-3" x1="303.16" y1="92.41" x2="303.16" y2="88.82"/>
    <path class="cls-3" d="M303.16,65.12h5.72"/>
    <line class="cls-3" x1="312.08" y1="65.12" x2="308.88" y2="65.12"/>
    <path class="cls-3" d="M312.08,65.12c0,.36-.08.66-.29.96-.2.28-.5.48-.85.48"/>
    <path class="cls-3" d="M312.08,65.12h1.42s.04.01.05,0"/>
    <path class="cls-3" d="M241,61.53s0,0,.01,0h1.45"/>
    <line class="cls-3" x1="242.47" y1="65.12" x2="242.47" y2="61.53"/>
    <line class="cls-3" x1="242.47" y1="61.53" x2="245.67" y2="61.53"/>
    <line class="cls-3" x1="245.67" y1="61.53" x2="245.67" y2="65.12"/>
    <path class="cls-3" d="M245.67,61.53h5.72"/>
    <line class="cls-3" x1="251.39" y1="61.53" x2="251.39" y2="65.12"/>
    <line class="cls-3" x1="303.16" y1="61.53" x2="303.16" y2="65.12"/>
    <path class="cls-3" d="M303.16,61.53h5.72"/>
    <line class="cls-3" x1="308.88" y1="65.12" x2="308.88" y2="61.53"/>
    <line class="cls-3" x1="312.08" y1="61.53" x2="312.08" y2="65.12"/>
    <line class="cls-3" x1="308.88" y1="61.53" x2="312.08" y2="61.53"/>
    <path class="cls-3" d="M312.08,61.53h1.45s.02,0,.01,0"/>
    <path class="cls-3" d="M245.33,57.94c-.89,0-1.64.51-2.13,1.2-.49.69-.73,1.56-.73,2.39"/>
    <path class="cls-3" d="M248.53,57.94c-.89,0-1.64.51-2.13,1.2-.49.69-.73,1.56-.73,2.39"/>
    <path class="cls-3" d="M251.39,57.94v3.59"/>
    <path class="cls-3" d="M303.16,57.94s0,.02,0,.03v3.57"/>
    <path class="cls-3" d="M306.02,57.94c.89,0,1.64.51,2.13,1.2.49.69.73,1.56.73,2.39"/>
    <path class="cls-3" d="M309.22,57.94c.89,0,1.64.51,2.13,1.2.49.69.73,1.56.73,2.39"/>
    <line class="cls-3" x1="260.04" y1="88.82" x2="251.39" y2="88.82"/>
    <line class="cls-3" x1="251.39" y1="92.41" x2="273.32" y2="92.41"/>
    <line class="cls-3" x1="281.22" y1="92.41" x2="303.16" y2="92.41"/>
    <line class="cls-3" x1="303.16" y1="88.82" x2="294.51" y2="88.82"/>
    <path class="cls-3" d="M246.82,87.38c-.36,0-.66.2-.85.48-.21.3-.29.6-.29.96"/>
    <path class="cls-3" d="M308.88,88.82c0-.36-.08-.66-.29-.96-.2-.28-.5-.48-.85-.48"/>
    <path class="cls-3" d="M251.39,88.82h-5.72"/>
    <path class="cls-3" d="M245.67,92.41h5.72"/>
    <path class="cls-3" d="M303.16,92.41h5.72"/>
    <path class="cls-3" d="M308.88,88.82h-5.72"/>
    <path class="cls-3" d="M245.67,65.12c0,.36.08.66.29.96.2.28.5.48.85.48"/>
    <path class="cls-3" d="M251.39,65.12v1.39s.02.03,0,.04"/>
    <line class="cls-3" x1="294.51" y1="65.12" x2="303.16" y2="65.12"/>
    <path class="cls-3" d="M303.16,65.12v1.39s0,.03,0,.04"/>
    <line class="cls-3" x1="251.39" y1="65.12" x2="260.04" y2="65.12"/>
    <path class="cls-3" d="M308.88,65.12c0,.36-.08.66-.29.96-.2.28-.5.48-.85.48"/>
    <line class="cls-3" x1="251.39" y1="61.53" x2="303.16" y2="61.53"/>
    <line class="cls-3" x1="250.34" y1="97.1" x2="304.21" y2="97.1"/>
    <line class="cls-3" x1="304.21" y1="97.44" x2="304.21" y2="96"/>
    <line class="cls-3" x1="250.34" y1="96" x2="250.34" y2="97.44"/>
    <line class="cls-3" x1="246.03" y1="66.56" x2="246.03" y2="87.38"/>
    <line class="cls-3" x1="308.51" y1="87.38" x2="308.51" y2="66.56"/>
    <line class="cls-3" x1="299.9" y1="57.94" x2="299.9" y2="56.5"/>
    <line class="cls-3" x1="270.41" y1="67.67" x2="264.67" y2="67.67"/>
    <line class="cls-3" x1="298.82" y1="66.56" x2="298.82" y2="87.38"/>
    <line class="cls-3" x1="295.95" y1="66.56" x2="303.16" y2="66.56"/>
    <line class="cls-3" x1="307.73" y1="66.56" x2="310.93" y2="66.56"/>
    <line class="cls-3" x1="295.95" y1="87.38" x2="303.16" y2="87.38"/>
    <line class="cls-3" x1="310.93" y1="87.38" x2="307.73" y2="87.38"/>
    <line class="cls-3" x1="243.61" y1="66.56" x2="246.82" y2="66.56"/>
    <line class="cls-3" x1="251.39" y1="66.56" x2="258.6" y2="66.56"/>
    <line class="cls-3" x1="246.82" y1="87.38" x2="243.61" y2="87.38"/>
    <line class="cls-3" x1="251.39" y1="87.38" x2="258.6" y2="87.38"/>
    <line class="cls-3" x1="286.21" y1="76.07" x2="286.21" y2="64.58"/>
    <line class="cls-3" x1="270.41" y1="76.07" x2="270.41" y2="64.58"/>
    <path class="cls-3" d="M251.39,96h-2.86"/>
    <path class="cls-3" d="M306.02,96h-2.86"/>
    <line class="cls-3" x1="273.32" y1="92.41" x2="273.32" y2="83.43"/>
    <line class="cls-3" x1="281.22" y1="83.43" x2="281.22" y2="92.41"/>
    <line class="cls-3" x1="278.53" y1="64.58" x2="291.82" y2="64.58"/>
    <line class="cls-3" x1="291.82" y1="76.07" x2="278.53" y2="76.07"/>
    <line class="cls-3" x1="262.73" y1="64.58" x2="276.02" y2="64.58"/>
    <line class="cls-3" x1="276.02" y1="76.07" x2="262.73" y2="76.07"/>
    <line class="cls-3" x1="251.39" y1="57.94" x2="303.16" y2="57.94"/>
    <line class="cls-3" x1="255.73" y1="87.38" x2="255.73" y2="66.56"/>
    <path class="cls-3" d="M309.95,57.94c1.98,0,3.59,1.61,3.59,3.59"/>
    <path class="cls-3" d="M309.22,57.94h.73"/>
    <line class="cls-3" x1="306.02" y1="57.94" x2="309.22" y2="57.94"/>
    <path class="cls-3" d="M303.16,57.94h2.86"/>
    <path class="cls-3" d="M248.53,57.94h2.86"/>
    <line class="cls-3" x1="245.33" y1="57.94" x2="248.53" y2="57.94"/>
    <path class="cls-3" d="M244.59,57.94h.73"/>
    <path class="cls-3" d="M244.59,57.94c-1.98,0-3.59,1.61-3.59,3.59"/>
    <line class="cls-3" x1="313.54" y1="65.12" x2="313.54" y2="61.53"/>
    <line class="cls-3" x1="241" y1="61.53" x2="241" y2="65.12"/>
    <path class="cls-3" d="M313.54,65.12c0,.79-.64,1.44-1.44,1.44"/>
    <path class="cls-3" d="M260.04,88.82l-1.44-1.44"/>
    <path class="cls-3" d="M260.04,65.12l-1.44,1.44"/>
    <path class="cls-3" d="M294.51,65.12c.48.48.96.96,1.44,1.44"/>
    <path class="cls-3" d="M295.95,87.38c-.48.48-.96.96-1.44,1.44"/>
    <path class="cls-3" d="M241,65.12c0,.79.64,1.44,1.44,1.44"/>
    <line class="cls-3" x1="281.22" y1="96" x2="303.16" y2="96"/>
    <line class="cls-3" x1="251.39" y1="96" x2="273.32" y2="96"/>
    <path class="cls-3" d="M281.22,92.41v3.48s0,.07,0,.11"/>
    <line class="cls-3" x1="281.22" y1="96" x2="273.32" y2="96"/>
    <line class="cls-3" x1="273.32" y1="89.54" x2="281.22" y2="89.54"/>
    <path class="cls-3" d="M273.32,96s0-.07,0-.11v-3.48"/>
    <line class="cls-3" x1="276.02" y1="64.58" x2="276.02" y2="76.07"/>
    <line class="cls-3" x1="262.73" y1="64.58" x2="262.73" y2="76.07"/>
    <line class="cls-3" x1="278.53" y1="64.58" x2="278.53" y2="76.07"/>
    <line class="cls-3" x1="291.82" y1="64.58" x2="291.82" y2="76.07"/>
    <line class="cls-3" x1="258.6" y1="66.56" x2="258.6" y2="87.38"/>
    <line class="cls-3" x1="295.95" y1="87.38" x2="295.95" y2="66.56"/>
    <line class="cls-3" x1="309.22" y1="96" x2="306.02" y2="96"/>
    <path class="cls-3" d="M309.95,96h-.73"/>
    <path class="cls-3" d="M309.95,96c1.98,0,3.59-1.61,3.59-3.59"/>
    <path class="cls-3" d="M244.59,96c-1.98,0-3.59-1.61-3.59-3.59"/>
    <path class="cls-3" d="M245.33,96h-.73"/>
    <line class="cls-3" x1="248.53" y1="96" x2="245.33" y2="96"/>
    <line class="cls-3" x1="270.41" y1="72.98" x2="264.67" y2="72.98"/>
    <line class="cls-3" x1="286.21" y1="72.98" x2="280.47" y2="72.98"/>
    <line class="cls-3" x1="286.21" y1="67.67" x2="280.47" y2="67.67"/>
    <line class="cls-3" x1="273.32" y1="83.43" x2="281.22" y2="83.43"/>
    <line class="cls-3" x1="281.22" y1="88.46" x2="273.32" y2="88.46"/>
    <line class="cls-3" x1="262.73" y1="76.07" x2="264.67" y2="72.98"/>
    <line class="cls-3" x1="264.67" y1="67.67" x2="262.73" y2="64.58"/>
    <line class="cls-3" x1="264.67" y1="72.98" x2="264.67" y2="67.67"/>
    <line class="cls-3" x1="280.47" y1="72.98" x2="278.53" y2="76.07"/>
    <line class="cls-3" x1="280.47" y1="67.67" x2="278.53" y2="64.58"/>
    <line class="cls-3" x1="280.47" y1="72.98" x2="280.47" y2="67.67"/>
    <path class="cls-3" d="M246.82,87.38h4.57"/>
    <path class="cls-3" d="M242.44,66.56h1.17"/>
    <path class="cls-3" d="M246.82,66.56h4.57"/>
    <path class="cls-3" d="M303.16,87.38h4.57"/>
    <path class="cls-3" d="M310.93,66.56h1.17"/>
    <path class="cls-3" d="M303.16,66.56h4.57"/>
    <line class="cls-3" x1="300.44" y1="68.71" x2="308.33" y2="68.46"/>
    <line class="cls-3" x1="308.33" y1="85.48" x2="308.33" y2="68.46"/>
    <line class="cls-3" x1="300.44" y1="85.24" x2="308.33" y2="85.48"/>
    <line class="cls-3" x1="254.1" y1="85.24" x2="246.21" y2="85.48"/>
    <line class="cls-3" x1="246.21" y1="68.46" x2="246.21" y2="85.48"/>
    <line class="cls-3" x1="254.1" y1="68.71" x2="246.21" y2="68.46"/>
    <line class="cls-3" x1="313.54" y1="92.41" x2="313.54" y2="88.82"/>
    <line class="cls-3" x1="241" y1="88.82" x2="241" y2="92.41"/>
    <path class="cls-3" d="M310.93,87.38h1.17"/>
    <path class="cls-3" d="M242.44,87.38h1.17"/>
    <path class="cls-3" d="M242.44,87.38c-.79,0-1.44.64-1.44,1.44"/>
    <path class="cls-3" d="M313.54,88.82c0-.79-.64-1.44-1.44-1.44"/>
    <path class="cls-3" d="M300.44,85.24c-.47-.02-.95,0-1.42,0"/>
    <path class="cls-3" d="M299.02,68.71c.47,0,.95,0,1.42,0"/>
    <path class="cls-3" d="M254.1,68.71c.47.01.95,0,1.42,0"/>
    <path class="cls-3" d="M255.52,85.23c-.47,0-.95,0-1.42,0"/>
    <line class="cls-3" x1="299.02" y1="85.23" x2="299.02" y2="68.71"/>
    <line class="cls-3" x1="255.52" y1="68.71" x2="255.52" y2="85.23"/>
    <line class="cls-3" x1="254.65" y1="56.5" x2="254.65" y2="57.94"/>
    <line class="cls-3" x1="250.34" y1="97.44" x2="304.21" y2="97.44"/>
    <line class="cls-3" x1="299.9" y1="56.5" x2="254.65" y2="56.5"/>
  </g>
  <g id="_图层_2" data-name="图层 2">
    <rect class="cls-3" x="152.38" y="53.09" width="39.15" height="44.62"/>
    <path class="cls-1" d="M387.15,80.08h-2.28v-8.61c-.83.78-1.82,1.36-2.95,1.73v-2.07c.6-.2,1.24-.57,1.94-1.11s1.18-1.18,1.44-1.91h1.85v11.97Z"/>
    <rect class="cls-3" x="366.68" y="53.76" width="39.15" height="44.62"/>
    <path class="cls-1" d="M465.35,77.96v2.12h-8.01c.09-.8.35-1.56.78-2.28.43-.72,1.29-1.67,2.57-2.86,1.03-.96,1.66-1.61,1.89-1.95.31-.47.47-.94.47-1.4,0-.51-.14-.9-.41-1.17-.27-.27-.65-.41-1.13-.41s-.86.14-1.14.43c-.28.29-.44.76-.49,1.43l-2.28-.23c.14-1.26.56-2.16,1.28-2.71.71-.55,1.61-.82,2.68-.82,1.18,0,2.1.32,2.77.95.67.63,1.01,1.42,1.01,2.37,0,.54-.1,1.05-.29,1.53s-.5.99-.92,1.52c-.28.35-.78.86-1.5,1.52-.72.66-1.18,1.1-1.37,1.32s-.35.43-.47.63h4.54Z"/>
    <rect class="cls-3" x="443.01" y="53.76" width="39.15" height="44.62"/>
  </g>
  <g id="_图层_3" data-name="图层 3">
    <path class="cls-3" d="M24.17,66.1c5.03-25.58,17.72-36.77,22.81-40.63,28.37-21.53,81.16-13.33,123.65,27.62"/>
    <path class="cls-3" d="M42.88,71.41c2.31,7.68,7.7,21.65,20.51,33.76,19.44,18.37,50.09,26.9,77.36,16.99,16.92-6.15,27.49-17.56,32.82-24.45"/>
    <path class="cls-4" d="M267.54,67.67c2.85-21.07,8.47-32.19,12.36-38,19.03-28.39,57.74-21.07,93.88,24.09"/>
    <path class="cls-4" d="M373.21,54.14c2.53-4.13,11.59-17.89,27.36-21.72,16.56-4.03,34.08,4.45,45.6,21.72"/>
    <path class="cls-4" d="M283.34,67.91c7.82-18.64,16.62-29.27,22.4-35.07,24.64-24.68,62.07-29.11,83.92,0,5.6,7.47,9.03,15.61,11.01,21.16"/>
    <path class="cls-4" d="M400.32,53.55c1.97-2.91,11.85-16.87,30.47-20.28,18.09-3.31,37.25,4.65,48.77,20.28"/>
  </g>
  <g id="_图层_4" data-name="图层 4">
    <rect class="cls-2" x="128.73" y="58.16" width="15.24" height="32.68"/>
    <g>
      <path class="cls-1" d="M139.33,82.43v.8h-5.09c.18.19.37.44.55.76.18.31.32.59.41.84h-.77c-.21-.45-.46-.84-.76-1.17-.3-.33-.59-.57-.87-.71v-.51h6.53Z"/>
      <path class="cls-1" d="M138.56,76.19h.77v4.3c-.19,0-.38-.02-.55-.09-.29-.11-.58-.28-.87-.53-.28-.24-.61-.59-.98-1.04-.58-.71-1.04-1.18-1.38-1.43-.34-.25-.66-.37-.96-.37-.32,0-.58.11-.8.34-.22.23-.33.52-.33.88,0,.38.12.69.35.92s.55.35.96.35l-.08.82c-.61-.06-1.08-.27-1.4-.63-.32-.37-.48-.86-.48-1.48s.17-1.12.52-1.48c.35-.36.77-.54,1.29-.54.26,0,.52.05.77.16.25.11.52.28.79.53.28.25.66.66,1.14,1.23.4.48.67.79.82.92s.29.25.43.34v-3.19Z"/>
      <path class="cls-1" d="M136.12,75.33c-.77,0-1.39-.08-1.86-.24s-.83-.39-1.08-.71c-.25-.31-.38-.71-.38-1.18,0-.35.07-.66.21-.92.14-.26.34-.48.61-.65.26-.17.59-.31.97-.4s.89-.15,1.54-.15c.76,0,1.38.08,1.85.24.47.16.83.39,1.09.7.26.31.38.71.38,1.18,0,.63-.22,1.12-.67,1.48-.54.43-1.42.64-2.64.64ZM136.12,74.51c1.07,0,1.78-.12,2.13-.38.35-.25.53-.56.53-.92s-.18-.67-.53-.92c-.35-.25-1.06-.38-2.13-.38s-1.78.12-2.13.38c-.35.25-.53.56-.53.93s.15.66.47.88c.4.28,1.13.41,2.2.41Z"/>
      <path class="cls-1" d="M138.56,70.23v-1.42c-.75.9-1.67,1.35-2.75,1.35-.59,0-1.12-.12-1.58-.36-.47-.24-.84-.57-1.11-1s-.41-.95-.41-1.56.12-1.1.37-1.5c.25-.4.6-.73,1.07-.99.46-.26,1.02-.39,1.65-.39,1.08,0,2,.45,2.75,1.35v-1.42h.77v2.53h-.72c-.49-1.05-1.38-1.58-2.67-1.58-.72,0-1.32.19-1.79.56s-.7.85-.7,1.45.24,1.1.71,1.47c.47.37,1.05.55,1.74.55,1.3,0,2.21-.52,2.71-1.57h.72v2.53h-.77Z"/>
    </g>
    <line class="cls-2" x1="135.91" y1="90.84" x2="135.91" y2="123.59"/>
    <line class="cls-2" x1="135.91" y1="28.11" x2="135.91" y2="57.51"/>
    <rect class="cls-2" x="77.46" y="50.09" width="15.24" height="32.68"/>
    <g>
      <path class="cls-1" d="M88.06,74.36v.8h-5.09c.18.19.37.44.55.76.18.31.32.59.41.84h-.77c-.21-.45-.46-.84-.76-1.17-.3-.33-.59-.57-.87-.71v-.51h6.53Z"/>
      <path class="cls-1" d="M87.29,68.12h.77v4.3c-.19,0-.38-.02-.55-.09-.29-.11-.58-.28-.87-.53-.28-.24-.61-.59-.98-1.04-.58-.71-1.04-1.18-1.38-1.43-.34-.25-.66-.37-.96-.37-.32,0-.58.11-.8.34-.22.23-.33.52-.33.88,0,.38.12.69.35.92s.55.35.96.35l-.08.82c-.61-.06-1.08-.27-1.4-.63-.32-.37-.48-.86-.48-1.48s.17-1.12.52-1.48c.35-.36.77-.54,1.29-.54.26,0,.52.05.77.16.25.11.52.28.79.53.28.25.66.66,1.14,1.23.4.48.67.79.82.92s.29.25.43.34v-3.19Z"/>
      <path class="cls-1" d="M84.85,67.26c-.77,0-1.39-.08-1.86-.24s-.83-.39-1.08-.71c-.25-.31-.38-.71-.38-1.18,0-.35.07-.66.21-.92.14-.26.34-.48.61-.65.26-.17.59-.31.97-.4s.89-.15,1.54-.15c.76,0,1.38.08,1.85.24.47.16.83.39,1.09.7.26.31.38.71.38,1.18,0,.63-.22,1.12-.67,1.48-.54.43-1.42.64-2.64.64ZM84.85,66.44c1.07,0,1.78-.12,2.13-.38.35-.25.53-.56.53-.92s-.18-.67-.53-.92c-.35-.25-1.06-.38-2.13-.38s-1.78.12-2.13.38c-.35.25-.53.56-.53.93s.15.66.47.88c.4.28,1.13.41,2.2.41Z"/>
      <path class="cls-1" d="M87.29,62.16v-1.42c-.75.9-1.67,1.35-2.75,1.35-.59,0-1.12-.12-1.58-.36-.47-.24-.84-.57-1.11-1s-.41-.95-.41-1.56.12-1.1.37-1.5c.25-.4.6-.73,1.07-.99.46-.26,1.02-.39,1.65-.39,1.08,0,2,.45,2.75,1.35v-1.42h.77v2.53h-.72c-.49-1.05-1.38-1.58-2.67-1.58-.72,0-1.32.19-1.79.56s-.7.85-.7,1.45.24,1.1.71,1.47c.47.37,1.05.55,1.74.55,1.3,0,2.21-.52,2.71-1.57h.72v2.53h-.77Z"/>
    </g>
    <line class="cls-2" x1="84.64" y1="82.77" x2="84.64" y2="118.63"/>
    <line class="cls-2" x1="84.64" y1="14.64" x2="84.64" y2="49.43"/>
    <path class="cls-1" d="M406.84,52.15l2.5-6.5h.93l2.66,6.5h-.98l-.76-1.97h-2.72l-.71,1.97h-.91ZM408.72,49.48h2.2l-.68-1.8c-.21-.55-.36-1-.46-1.35-.08.42-.2.83-.35,1.24l-.71,1.91Z"/>
    <rect class="cls-2" x="455.05" y="42.65" width="5.57" height="11.95" transform="translate(506.46 -409.21) rotate(90)"/>
    <g>
      <path class="cls-1" d="M454.41,49.76h-.52v-1.96c-.19.18-.41.31-.67.39v-.47c.13-.04.28-.13.44-.25s.27-.27.33-.43h.42v2.72Z"/>
      <path class="cls-1" d="M456.94,49.28v.48h-1.82c.02-.18.08-.36.18-.52s.29-.38.58-.65c.23-.22.38-.37.43-.44.07-.11.11-.21.11-.32,0-.12-.03-.2-.09-.27-.06-.06-.15-.09-.26-.09s-.19.03-.26.1c-.06.07-.1.17-.11.33l-.52-.05c.03-.29.13-.49.29-.62.16-.12.37-.19.61-.19.27,0,.48.07.63.22.15.14.23.32.23.54,0,.12-.02.24-.07.35-.04.11-.11.23-.21.35-.06.08-.18.2-.34.35s-.27.25-.31.3c-.04.05-.08.1-.11.14h1.03Z"/>
      <path class="cls-1" d="M458.17,47.04c.26,0,.47.09.62.28.18.22.26.59.26,1.1s-.09.88-.27,1.1c-.15.19-.35.28-.61.28s-.48-.1-.64-.3c-.16-.2-.24-.56-.24-1.08s.09-.88.27-1.1c.15-.18.35-.28.61-.28ZM458.17,47.47c-.06,0-.12.02-.17.06-.05.04-.09.11-.11.21-.04.13-.05.36-.05.68s.02.54.05.66c.03.12.07.2.12.24.05.04.1.06.17.06s.12-.02.17-.06c.05-.04.09-.11.11-.22.04-.13.05-.36.05-.68s-.02-.54-.05-.66-.07-.2-.12-.24-.1-.06-.17-.06Z"/>
      <path class="cls-1" d="M459.41,49.76v-.46h.53c-.32-.34-.48-.7-.48-1.09,0-.34.12-.63.35-.86.23-.23.55-.35.95-.35s.71.12.94.35c.23.23.35.52.35.86,0,.39-.16.75-.48,1.09h.53v.46h-1.24v-.44c.21-.08.37-.2.47-.38.11-.17.16-.37.16-.6s-.06-.44-.18-.61c-.12-.17-.3-.26-.54-.26s-.42.09-.54.26-.18.38-.18.61.05.43.16.6c.11.17.26.3.47.38v.44h-1.24Z"/>
    </g>
    <line class="cls-2" x1="451.86" y1="48.46" x2="441.86" y2="48.46"/>
    <line class="cls-2" x1="474.81" y1="48.46" x2="464.06" y2="48.46"/>
    <rect class="cls-2" x="279.78" y="46.51" width="3.69" height="7.91" transform="translate(332.09 -231.15) rotate(90)"/>
    <g>
      <path class="cls-1" d="M279.39,51.44h-.34v-1.29c-.13.12-.27.2-.44.26v-.31c.09-.03.19-.08.29-.17s.18-.18.22-.29h.28v1.8Z"/>
      <path class="cls-1" d="M281.06,51.12v.32h-1.2c.01-.12.05-.24.12-.34.07-.11.19-.25.39-.43.15-.14.25-.24.29-.29.05-.07.07-.14.07-.21,0-.08-.02-.14-.06-.18-.04-.04-.1-.06-.17-.06s-.13.02-.17.06c-.04.04-.07.12-.07.22l-.34-.03c.02-.19.08-.33.19-.41.11-.08.24-.12.4-.12.18,0,.32.05.42.14.1.09.15.21.15.36,0,.08-.01.16-.04.23s-.07.15-.14.23c-.04.05-.12.13-.22.23s-.18.17-.21.2c-.03.03-.05.06-.07.09h.68Z"/>
      <path class="cls-1" d="M281.88,49.64c.17,0,.31.06.41.19.12.15.17.39.17.73s-.06.58-.18.73c-.1.12-.23.18-.41.18s-.31-.07-.42-.2c-.11-.13-.16-.37-.16-.72s.06-.58.18-.73c.1-.12.23-.18.41-.18ZM281.88,49.93s-.08.01-.11.04c-.03.03-.06.07-.08.14-.02.09-.04.24-.04.45s.01.35.03.43c.02.08.05.13.08.16.03.03.07.04.11.04s.08-.01.11-.04.06-.07.08-.14c.02-.09.04-.24.04-.45s-.01-.35-.03-.43c-.02-.08-.05-.13-.08-.16-.03-.03-.07-.04-.11-.04Z"/>
      <path class="cls-1" d="M282.7,51.44v-.3h.35c-.21-.22-.32-.46-.32-.72,0-.22.08-.41.23-.57s.36-.23.63-.23.47.08.62.23.23.34.23.57c0,.26-.11.5-.32.72h.35v.3h-.82v-.29c.14-.05.24-.13.31-.25.07-.12.11-.25.11-.4s-.04-.29-.12-.4c-.08-.12-.2-.17-.36-.17s-.28.06-.36.17c-.08.11-.12.25-.12.41s.04.28.11.4c.07.11.17.2.31.25v.29h-.82Z"/>
    </g>
    <line class="cls-2" x1="277.01" y1="50.36" x2="270.97" y2="50.36"/>
    <line class="cls-2" x1="292.19" y1="50.36" x2="285.08" y2="50.36"/>
    <path class="cls-1" d="M360.51,52.15v-6.5h2.44c.5,0,.9.07,1.2.2.3.13.54.33.71.61.17.27.25.56.25.86,0,.28-.08.54-.23.79s-.38.44-.68.59c.39.12.7.31.91.59.21.28.32.61.32.99,0,.3-.06.59-.19.85-.13.26-.29.46-.48.6-.19.14-.43.25-.71.32-.29.07-.63.11-1.05.11h-2.48ZM361.37,48.38h1.41c.38,0,.65-.03.82-.08.22-.06.38-.17.49-.32.11-.15.17-.34.17-.57,0-.22-.05-.41-.16-.57s-.25-.28-.44-.34c-.19-.06-.52-.09-.99-.09h-1.3v1.96ZM361.37,51.38h1.62c.28,0,.47,0,.59-.03.2-.04.36-.09.5-.18.13-.08.24-.2.33-.36.09-.16.13-.34.13-.55,0-.24-.06-.45-.19-.63-.12-.18-.3-.3-.52-.38-.22-.07-.54-.11-.95-.11h-1.5v2.24Z"/>
    <path class="cls-1" d="M482.15,52.23l2.5-6.5h.93l2.66,6.5h-.98l-.76-1.97h-2.72l-.71,1.97h-.91ZM484.03,49.56h2.2l-.68-1.8c-.21-.55-.36-1-.46-1.35-.08.42-.2.83-.35,1.24l-.71,1.91Z"/>
    <path class="cls-1" d="M433.83,52.23v-6.5h2.44c.5,0,.9.07,1.2.2s.54.33.71.61.25.56.25.86c0,.28-.08.54-.23.79-.15.25-.38.44-.68.59.39.12.7.31.91.59.21.28.32.61.32.99,0,.3-.06.59-.19.85-.13.26-.29.46-.48.6-.19.14-.43.25-.71.32s-.63.11-1.05.11h-2.48ZM434.69,48.46h1.41c.38,0,.66-.03.82-.08.22-.06.38-.17.5-.32.11-.15.17-.34.17-.57,0-.22-.05-.41-.16-.57s-.25-.28-.44-.34-.52-.09-.99-.09h-1.3v1.96ZM434.69,51.46h1.62c.28,0,.47,0,.59-.03.2-.04.36-.09.5-.18.13-.08.24-.2.33-.36.09-.16.13-.34.13-.55,0-.24-.06-.45-.19-.63-.12-.18-.3-.3-.52-.38-.22-.07-.54-.11-.95-.11h-1.5v2.24Z"/>
  </g>
</svg>