<?xml version="1.0" encoding="UTF-8"?>
<svg xmlns="http://www.w3.org/2000/svg" viewBox="0 0 280.93 158.96">
  <defs>
    <style>
      .cls-1 {
        fill: #000;
        stroke-width: 0px;
      }

      .cls-2 {
        fill: none;
        stroke: #000;
        stroke-linecap: round;
        stroke-linejoin: round;
      }
    </style>
  </defs>
  <g id="Make2D::可见线::正切线">
    <line class="cls-2" x1="51.08" y1="111.37" x2="51.08" y2="47.59"/>
    <line class="cls-2" x1="229.88" y1="47.59" x2="229.88" y2="111.37"/>
    <path class="cls-2" d="M6.18,125.21H.57s-.05-.03-.04,0"/>
    <path class="cls-2" d="M10.59,119.66c-1.37,0-2.53.78-3.29,1.85-.82,1.16-1.12,2.3-1.12,3.69"/>
    <path class="cls-2" d="M274.78,125.21c0-1.39-.3-2.54-1.12-3.69-.76-1.06-1.92-1.85-3.29-1.85"/>
    <path class="cls-2" d="M280.43,125.21s-.03,0-.05,0h-5.6"/>
    <line class="cls-2" x1="18.54" y1="125.21" x2="6.18" y2="125.21"/>
    <path class="cls-2" d="M6.18,139.06h-2.83c-.94,0-1.88-.05-2.82,0"/>
    <line class="cls-2" x1="6.18" y1="125.21" x2="6.18" y2="139.06"/>
    <path class="cls-2" d="M280.43,139.06s-.03,0-.05,0h-5.6"/>
    <line class="cls-2" x1="274.78" y1="139.06" x2="274.78" y2="125.21"/>
    <line class="cls-2" x1="274.78" y1="125.21" x2="262.42" y2="125.21"/>
    <line class="cls-2" x1="6.18" y1="139.06" x2="18.54" y2="139.06"/>
    <path class="cls-2" d="M17.21,152.92c-3.43,0-6.33-1.96-8.22-4.62-1.9-2.67-2.81-6.01-2.81-9.24"/>
    <path class="cls-2" d="M18.54,139.06c0,3.23.91,6.57,2.81,9.24,1.89,2.66,4.8,4.62,8.22,4.62"/>
    <path class="cls-2" d="M263.75,152.92c3.43,0,6.33-1.96,8.22-4.62,1.9-2.67,2.81-6.01,2.81-9.24"/>
    <line class="cls-2" x1="262.42" y1="139.06" x2="274.78" y2="139.06"/>
    <path class="cls-2" d="M251.39,152.92c3.43,0,6.33-1.96,8.22-4.62,1.9-2.67,2.81-6.01,2.81-9.24"/>
    <path class="cls-2" d="M40.6,119.66s0,.03,0,.04v5.5"/>
    <line class="cls-2" x1="18.54" y1="125.21" x2="18.54" y2="139.06"/>
    <path class="cls-2" d="M40.6,139.06v12.13c0,.58.05,1.15,0,1.73"/>
    <path class="cls-2" d="M240.36,152.92c.06,0,0-.07,0-.1v-13.76"/>
    <line class="cls-2" x1="262.42" y1="139.06" x2="262.42" y2="125.21"/>
    <path class="cls-2" d="M240.36,125.21v-5.38s.04-.14,0-.17"/>
    <path class="cls-2" d="M6.18,33.75c0,1.4.3,2.54,1.12,3.69.76,1.06,1.92,1.85,3.29,1.85"/>
    <path class="cls-2" d="M.53,33.75c-.1.05.12,0,.18,0h5.47"/>
    <line class="cls-2" x1="18.54" y1="33.75" x2="6.18" y2="33.75"/>
    <path class="cls-2" d="M18.54,33.75h22.06"/>
    <line class="cls-2" x1="206.99" y1="125.21" x2="206.99" y2="33.75"/>
    <line class="cls-2" x1="73.97" y1="33.75" x2="73.97" y2="125.21"/>
    <line class="cls-2" x1="40.6" y1="125.21" x2="40.6" y2="139.06"/>
    <line class="cls-2" x1="240.36" y1="139.06" x2="240.36" y2="125.21"/>
    <path class="cls-2" d="M240.36,33.75h22.06"/>
    <line class="cls-2" x1="274.78" y1="33.75" x2="262.42" y2="33.75"/>
    <path class="cls-2" d="M274.78,33.75c0,1.4-.3,2.54-1.12,3.69-.76,1.06-1.92,1.85-3.29,1.85"/>
    <path class="cls-2" d="M274.78,33.75h5.47s.15.04.18,0"/>
    <path class="cls-2" d="M.53,19.9s.03,0,.04,0h5.61"/>
    <line class="cls-2" x1="6.18" y1="33.75" x2="6.18" y2="19.9"/>
    <line class="cls-2" x1="6.18" y1="19.9" x2="18.54" y2="19.9"/>
    <line class="cls-2" x1="18.54" y1="19.9" x2="18.54" y2="33.75"/>
    <path class="cls-2" d="M18.54,19.9h22.06"/>
    <line class="cls-2" x1="40.6" y1="19.9" x2="40.6" y2="33.75"/>
    <line class="cls-2" x1="240.36" y1="19.9" x2="240.36" y2="33.75"/>
    <path class="cls-2" d="M240.36,19.9h22.06"/>
    <line class="cls-2" x1="262.42" y1="33.75" x2="262.42" y2="19.9"/>
    <line class="cls-2" x1="274.78" y1="19.9" x2="274.78" y2="33.75"/>
    <line class="cls-2" x1="262.42" y1="19.9" x2="274.78" y2="19.9"/>
    <path class="cls-2" d="M274.78,19.9h5.6s.06-.02.05,0"/>
    <path class="cls-2" d="M17.21,6.04c-3.43,0-6.33,1.96-8.22,4.62-1.9,2.67-2.81,6.01-2.81,9.24"/>
    <path class="cls-2" d="M29.57,6.04c-3.43,0-6.33,1.96-8.22,4.62-1.9,2.67-2.81,6.01-2.81,9.24"/>
    <path class="cls-2" d="M40.6,6.04v13.85"/>
    <path class="cls-2" d="M240.36,6.04c.06,0,0,.06,0,.1v13.76"/>
    <path class="cls-2" d="M251.39,6.04c3.43,0,6.33,1.96,8.22,4.62,1.9,2.67,2.81,6.01,2.81,9.24"/>
    <path class="cls-2" d="M263.75,6.04c3.43,0,6.33,1.96,8.22,4.62,1.9,2.67,2.81,6.01,2.81,9.24"/>
    <line class="cls-2" x1="73.97" y1="125.21" x2="40.6" y2="125.21"/>
    <line class="cls-2" x1="40.6" y1="139.06" x2="125.24" y2="139.06"/>
    <line class="cls-2" x1="155.72" y1="139.06" x2="240.36" y2="139.06"/>
    <line class="cls-2" x1="240.36" y1="125.21" x2="206.99" y2="125.21"/>
    <path class="cls-2" d="M22.95,119.66c-1.37,0-2.53.78-3.29,1.85-.82,1.16-1.12,2.3-1.12,3.69"/>
    <path class="cls-2" d="M262.42,125.21c0-1.39-.3-2.54-1.12-3.69-.76-1.06-1.92-1.85-3.29-1.85"/>
    <path class="cls-2" d="M40.6,125.21h-22.06"/>
    <path class="cls-2" d="M18.54,139.06h22.06"/>
    <path class="cls-2" d="M240.36,139.06h22.06"/>
    <path class="cls-2" d="M262.42,125.21h-22.06"/>
    <path class="cls-2" d="M18.54,33.75c0,1.4.3,2.54,1.12,3.69.76,1.06,1.92,1.85,3.29,1.85"/>
    <path class="cls-2" d="M40.6,33.75v5.38c0,.05.06.1,0,.16"/>
    <line class="cls-2" x1="206.99" y1="33.75" x2="240.36" y2="33.75"/>
    <path class="cls-2" d="M240.36,33.75v5.38c0,.05.03.1,0,.16"/>
    <line class="cls-2" x1="40.6" y1="33.75" x2="73.97" y2="33.75"/>
    <path class="cls-2" d="M262.42,33.75c0,1.4-.3,2.54-1.12,3.69-.76,1.06-1.92,1.85-3.29,1.85"/>
    <line class="cls-2" x1="40.6" y1="19.9" x2="240.36" y2="19.9"/>
    <line class="cls-2" x1="36.57" y1="157.16" x2="244.41" y2="157.16"/>
  </g>
  <g id="Make2D::可见线::曲线">
    <line class="cls-2" x1="244.4" y1="158.46" x2="244.4" y2="152.92"/>
    <line class="cls-2" x1="36.55" y1="152.92" x2="36.55" y2="158.46"/>
    <line class="cls-2" x1="19.93" y1="39.3" x2="19.93" y2="119.66"/>
    <line class="cls-2" x1="261.03" y1="119.66" x2="261.03" y2="39.3"/>
    <line class="cls-2" x1="227.78" y1="6.04" x2="227.78" y2=".5"/>
    <line class="cls-2" x1="223.62" y1="39.3" x2="223.62" y2="119.66"/>
    <line class="cls-2" x1="212.53" y1="39.3" x2="240.36" y2="39.3"/>
    <line class="cls-2" x1="258.01" y1="39.3" x2="270.37" y2="39.3"/>
    <line class="cls-2" x1="212.53" y1="119.66" x2="240.36" y2="119.66"/>
    <line class="cls-2" x1="270.37" y1="119.66" x2="258.01" y2="119.66"/>
    <line class="cls-2" x1="10.59" y1="39.3" x2="22.95" y2="39.3"/>
    <line class="cls-2" x1="40.6" y1="39.3" x2="68.42" y2="39.3"/>
    <line class="cls-2" x1="22.95" y1="119.66" x2="10.59" y2="119.66"/>
    <line class="cls-2" x1="40.6" y1="119.66" x2="68.42" y2="119.66"/>
    <path class="cls-2" d="M40.6,152.92h-11.03"/>
    <path class="cls-2" d="M251.39,152.92h-11.03"/>
    <line class="cls-2" x1="125.24" y1="139.06" x2="125.24" y2="104.42"/>
    <line class="cls-2" x1="155.72" y1="104.42" x2="155.72" y2="139.06"/>
    <line class="cls-2" x1="145.33" y1="31.68" x2="196.6" y2="31.68"/>
    <line class="cls-2" x1="196.6" y1="76.02" x2="145.33" y2="76.02"/>
    <line class="cls-2" x1="84.36" y1="31.68" x2="135.63" y2="31.68"/>
    <line class="cls-2" x1="135.63" y1="76.02" x2="84.36" y2="76.02"/>
    <line class="cls-2" x1="40.6" y1="6.04" x2="240.36" y2="6.04"/>
    <line class="cls-2" x1="57.34" y1="119.66" x2="57.34" y2="39.3"/>
    <path class="cls-2" d="M266.57,6.04c7.66,0,13.86,6.2,13.86,13.85"/>
    <path class="cls-2" d="M263.75,6.04h2.82"/>
    <line class="cls-2" x1="251.39" y1="6.04" x2="263.75" y2="6.04"/>
    <path class="cls-2" d="M240.36,6.04h11.03"/>
    <path class="cls-2" d="M29.57,6.04h11.03"/>
    <line class="cls-2" x1="17.21" y1="6.04" x2="29.57" y2="6.04"/>
    <path class="cls-2" d="M14.38,6.04h2.83"/>
    <path class="cls-2" d="M14.38,6.04C6.73,6.04.53,12.25.53,19.9"/>
    <line class="cls-2" x1="280.43" y1="33.75" x2="280.43" y2="19.9"/>
    <line class="cls-2" x1=".53" y1="19.9" x2=".53" y2="33.75"/>
    <path class="cls-2" d="M280.43,33.75c0,3.06-2.48,5.54-5.54,5.54"/>
    <path class="cls-2" d="M73.97,125.21c-1.85-1.85-3.69-3.69-5.54-5.54"/>
    <path class="cls-2" d="M73.97,33.75c-1.85,1.85-3.69,3.69-5.54,5.54"/>
    <path class="cls-2" d="M206.99,33.75c1.85,1.85,3.7,3.69,5.55,5.54"/>
    <path class="cls-2" d="M212.53,119.66c-1.85,1.85-3.7,3.69-5.55,5.54"/>
    <path class="cls-2" d="M.53,33.75c0,3.06,2.48,5.54,5.54,5.54"/>
    <line class="cls-2" x1="155.72" y1="152.92" x2="240.36" y2="152.92"/>
    <line class="cls-2" x1="40.6" y1="152.92" x2="125.24" y2="152.92"/>
    <path class="cls-2" d="M155.72,139.06v13.45c0,.14-.02.27,0,.41"/>
    <line class="cls-2" x1="155.72" y1="152.92" x2="125.24" y2="152.92"/>
    <line class="cls-2" x1="125.24" y1="127.98" x2="155.72" y2="127.98"/>
    <path class="cls-2" d="M125.24,152.92c.06-.15,0-.28,0-.41v-13.45"/>
    <line class="cls-2" x1="135.63" y1="31.68" x2="135.63" y2="76.02"/>
    <line class="cls-2" x1="84.36" y1="31.68" x2="84.36" y2="76.02"/>
    <line class="cls-2" x1="145.33" y1="31.68" x2="145.33" y2="76.02"/>
    <line class="cls-2" x1="196.6" y1="31.68" x2="196.6" y2="76.02"/>
    <line class="cls-2" x1="68.42" y1="39.3" x2="68.42" y2="119.66"/>
    <line class="cls-2" x1="212.53" y1="119.66" x2="212.53" y2="39.3"/>
    <line class="cls-2" x1="263.75" y1="152.92" x2="251.39" y2="152.92"/>
    <path class="cls-2" d="M266.57,152.92h-2.82"/>
    <path class="cls-2" d="M266.57,152.92c7.66,0,13.86-6.21,13.86-13.86"/>
    <path class="cls-2" d="M14.38,152.92c-7.65,0-13.85-6.21-13.85-13.86"/>
    <path class="cls-2" d="M17.21,152.92h-2.83"/>
    <line class="cls-2" x1="29.57" y1="152.92" x2="17.21" y2="152.92"/>
    <line class="cls-2" x1="125.24" y1="104.42" x2="155.72" y2="104.42"/>
    <line class="cls-2" x1="155.72" y1="123.82" x2="125.24" y2="123.82"/>
    <path class="cls-2" d="M22.95,119.66h17.65"/>
    <path class="cls-2" d="M6.07,39.3h4.52"/>
    <path class="cls-2" d="M22.95,39.3h17.65"/>
    <path class="cls-2" d="M240.36,119.66h17.65"/>
    <path class="cls-2" d="M270.37,39.3h4.52"/>
    <path class="cls-2" d="M240.36,39.3h17.65"/>
    <line class="cls-2" x1="229.88" y1="47.59" x2="260.34" y2="46.64"/>
    <line class="cls-2" x1="260.34" y1="112.32" x2="260.34" y2="46.64"/>
    <line class="cls-2" x1="229.88" y1="111.37" x2="260.34" y2="112.32"/>
    <line class="cls-2" x1="51.08" y1="111.37" x2="20.62" y2="112.32"/>
    <line class="cls-2" x1="20.62" y1="46.64" x2="20.62" y2="112.32"/>
    <line class="cls-2" x1="51.08" y1="47.59" x2="20.62" y2="46.64"/>
    <line class="cls-2" x1="280.43" y1="139.06" x2="280.43" y2="125.21"/>
    <line class="cls-2" x1=".53" y1="125.21" x2=".53" y2="139.06"/>
    <path class="cls-2" d="M270.37,119.66h4.52"/>
    <path class="cls-2" d="M6.07,119.66h4.52"/>
    <path class="cls-2" d="M6.07,119.66c-3.06,0-5.54,2.48-5.54,5.54"/>
    <path class="cls-2" d="M280.43,125.21c0-3.06-2.48-5.54-5.54-5.54"/>
    <path class="cls-2" d="M229.88,111.37c-1.83-.06-3.65-.02-5.48-.02"/>
    <path class="cls-2" d="M224.4,47.61c1.83,0,3.65.04,5.48-.02"/>
    <path class="cls-2" d="M51.08,47.59c1.83.06,3.66.02,5.48.02"/>
    <path class="cls-2" d="M56.56,111.35c-1.82,0-3.65-.04-5.48.02"/>
    <line class="cls-2" x1="224.4" y1="111.35" x2="224.4" y2="47.61"/>
    <line class="cls-2" x1="56.56" y1="47.61" x2="56.56" y2="111.35"/>
    <line class="cls-2" x1="53.18" y1=".5" x2="53.18" y2="6.04"/>
    <line class="cls-2" x1="36.55" y1="158.46" x2="244.4" y2="158.46"/>
    <line class="cls-2" x1="227.78" y1=".5" x2="53.18" y2=".5"/>
  </g>
  <g id="_图层_3" data-name="图层 3">
    <path class="cls-1" d="M114.71,66.95h-4.94v-18.62c-1.8,1.69-3.93,2.94-6.38,3.74v-4.48c1.29-.42,2.69-1.22,4.2-2.4s2.55-2.55,3.11-4.12h4.01v25.88Z"/>
    <path class="cls-1" d="M178.73,62.36v4.59h-17.31c.19-1.73.75-3.38,1.69-4.93s2.79-3.61,5.55-6.18c2.23-2.07,3.59-3.48,4.1-4.22.68-1.02,1.02-2.03,1.02-3.02,0-1.1-.3-1.95-.89-2.54s-1.41-.89-2.45-.89-1.85.31-2.46.93-.96,1.65-1.05,3.09l-4.92-.49c.29-2.72,1.21-4.67,2.76-5.85s3.48-1.78,5.8-1.78c2.54,0,4.54.69,5.99,2.06s2.18,3.08,2.18,5.12c0,1.16-.21,2.26-.62,3.31s-1.08,2.15-1.98,3.3c-.6.76-1.68,1.86-3.23,3.29s-2.55,2.38-2.96,2.85-.75.93-1.01,1.37h9.81Z"/>
  </g>
</svg>