<?xml version="1.0" encoding="UTF-8"?>
<svg id="_图层_2" data-name="图层 2" xmlns="http://www.w3.org/2000/svg" viewBox="0 0 326.21 269.22">
  <defs>
    <style>
      .cls-1 {
        fill: none;
        stroke: #231815;
        stroke-miterlimit: 10;
        stroke-width: 2px;
      }

      .cls-2 {
        fill: #231815;
        stroke-width: 0px;
      }
    </style>
  </defs>
  <path class="cls-1" d="M283.95,134.61c0,70.29-56.98,127.26-127.26,127.26S29.43,204.9,29.43,134.61c0-64.24,47.61-117.36,109.46-126.02v19.12h35.87V8.63c61.72,8.78,109.19,61.83,109.19,125.98Z"/>
  <polyline class="cls-1" points="174.76 8.63 174.76 27.71 138.89 27.71 138.89 8.59"/>
  <circle class="cls-1" cx="113.6" cy="80.09" r="17.03"/>
  <circle class="cls-1" cx="200.31" cy="80.09" r="17.03"/>
  <circle class="cls-1" cx="157.12" cy="145.04" r="8.65"/>
  <circle class="cls-1" cx="220.44" cy="167.71" r="8.65"/>
  <circle class="cls-1" cx="94.76" cy="167.71" r="8.65"/>
  <circle class="cls-1" cx="157.12" cy="187.84" r="8.65"/>
  <path class="cls-2" d="M201.13,57.83h-2.47v-9.31c-.9.84-1.97,1.47-3.19,1.87v-2.24c.64-.21,1.34-.61,2.1-1.2s1.27-1.28,1.56-2.06h2v12.94Z"/>
  <path class="cls-2" d="M117.73,55.53v2.29h-8.66c.09-.87.38-1.69.84-2.47s1.39-1.81,2.78-3.09c1.11-1.04,1.8-1.74,2.05-2.11.34-.51.51-1.01.51-1.51,0-.55-.15-.97-.44-1.27s-.7-.44-1.23-.44-.93.16-1.23.47-.48.83-.53,1.55l-2.46-.25c.15-1.36.61-2.33,1.38-2.93s1.74-.89,2.9-.89c1.27,0,2.27.34,3,1.03s1.09,1.54,1.09,2.56c0,.58-.1,1.13-.31,1.66s-.54,1.07-.99,1.65c-.3.38-.84.93-1.62,1.64s-1.27,1.19-1.48,1.42-.38.46-.51.69h4.9Z"/>
  <path class="cls-2" d="M216.17,150.27l2.39-.29c.08.61.28,1.08.62,1.4s.74.48,1.21.48c.51,0,.94-.19,1.29-.58s.52-.91.52-1.56c0-.62-.17-1.11-.5-1.48s-.74-.54-1.22-.54c-.32,0-.69.06-1.13.18l.27-2.01c.67.02,1.18-.13,1.53-.44s.53-.72.53-1.23c0-.43-.13-.78-.39-1.04s-.6-.39-1.03-.39-.78.15-1.08.44-.48.72-.54,1.28l-2.28-.39c.16-.78.4-1.4.72-1.87s.76-.83,1.34-1.1,1.21-.4,1.92-.4c1.21,0,2.19.39,2.92,1.16.6.63.91,1.35.91,2.14,0,1.13-.62,2.03-1.85,2.71.74.16,1.33.51,1.77,1.06s.66,1.22.66,2c0,1.13-.41,2.09-1.24,2.89s-1.85,1.2-3.08,1.2c-1.17,0-2.13-.34-2.9-1.01s-1.21-1.55-1.34-2.63Z"/>
  <path class="cls-2" d="M94.5,153.93v-2.59h-5.27v-2.16l5.59-8.18h2.07v8.17h1.6v2.17h-1.6v2.59h-2.39ZM94.5,149.16v-4.4l-2.96,4.4h2.96Z"/>
  <path class="cls-2" d="M153.4,212.63l2.46-.25c.07.56.28,1,.62,1.32s.74.49,1.2.49c.52,0,.95-.21,1.31-.63s.54-1.05.54-1.89c0-.79-.18-1.38-.53-1.78s-.82-.59-1.38-.59c-.71,0-1.34.31-1.91.94l-2-.29,1.27-6.71h6.53v2.31h-4.66l-.39,2.19c.55-.28,1.11-.41,1.69-.41,1.1,0,2.02.4,2.79,1.2s1.14,1.83,1.14,3.1c0,1.06-.31,2.01-.92,2.84-.84,1.14-2,1.71-3.49,1.71-1.19,0-2.16-.32-2.91-.96s-1.2-1.5-1.34-2.58Z"/>
  <path class="cls-2" d="M160.81,121.37l-2.39.26c-.06-.49-.21-.86-.46-1.09s-.57-.35-.96-.35c-.52,0-.96.23-1.32.7s-.59,1.44-.68,2.93c.62-.73,1.38-1.09,2.29-1.09,1.03,0,1.92.39,2.65,1.18s1.1,1.8,1.1,3.04c0,1.32-.39,2.38-1.16,3.17s-1.77,1.2-2.98,1.2c-1.3,0-2.37-.5-3.21-1.52s-1.26-2.67-1.26-4.97.44-4.06,1.31-5.11,2.01-1.56,3.4-1.56c.98,0,1.79.27,2.43.82s1.05,1.34,1.23,2.39ZM155.21,126.75c0,.8.18,1.42.55,1.86s.79.65,1.27.65.84-.18,1.14-.54.46-.94.46-1.76-.16-1.45-.49-1.84-.74-.58-1.23-.58-.88.19-1.2.56-.49.92-.49,1.65Z"/>
</svg>