<?xml version="1.0" encoding="UTF-8"?>
<svg xmlns="http://www.w3.org/2000/svg" viewBox="0 0 459.33 490.55">
  <defs>
    <style>
      .cls-1 {
        fill: #000;
        stroke-width: 0px;
      }

      .cls-2, .cls-3 {
        fill: none;
        stroke: #000;
        stroke-linecap: round;
        stroke-linejoin: round;
      }

      .cls-3 {
        stroke-width: 2px;
      }
    </style>
  </defs>
  <g id="Make2D::可见线::正切线">
    <path class="cls-2" d="M428.27,369.26c9.07,0,16.42,7.36,16.42,16.43s-7.35,16.42-16.42,16.42"/>
    <path class="cls-2" d="M31.05,86.62c9.07,0,16.43,7.36,16.43,16.43s-7.36,16.42-16.43,16.42"/>
    <path class="cls-2" d="M428.27,366.96c10.34,0,18.71,8.38,18.71,18.72s-8.38,18.71-18.71,18.71"/>
    <path class="cls-2" d="M428.27,86.62c9.06,0,16.42,7.36,16.42,16.43s-7.36,16.42-16.42,16.42"/>
    <path class="cls-2" d="M428.27,84.33c10.34,0,18.71,8.38,18.71,18.72s-8.38,18.71-18.71,18.71"/>
    <path class="cls-2" d="M31.05,84.33c10.34,0,18.72,8.38,18.72,18.72s-8.38,18.71-18.72,18.71"/>
    <path class="cls-2" d="M244.94,299.74c7.17,0,12.99,5.82,12.99,12.99s-5.81,12.99-12.99,12.99"/>
    <path class="cls-2" d="M244.94,269.19c7.17,0,12.99,5.82,12.99,12.99s-5.81,12.99-12.99,12.99"/>
    <path class="cls-2" d="M214.38,269.19c7.17,0,12.99,5.82,12.99,12.99s-5.82,12.99-12.99,12.99"/>
    <path class="cls-2" d="M214.38,256.97c2.96,0,5.35-2.39,5.35-5.35s-2.39-5.35-5.35-5.35"/>
    <path class="cls-2" d="M214.38,238.63c7.17,0,12.99,5.82,12.99,12.99s-5.82,12.99-12.99,12.99"/>
    <path class="cls-2" d="M244.94,195.86c2.95,0,5.35-2.39,5.35-5.35s-2.4-5.35-5.35-5.35"/>
    <path class="cls-2" d="M214.38,177.52c7.17,0,12.99,5.82,12.99,12.99s-5.82,12.99-12.99,12.99"/>
    <path class="cls-2" d="M320.05,188.98c.17,1.29.17,2.53,0,3.82"/>
    <path class="cls-2" d="M167.28,188.98c.17,1.29.17,2.53,0,3.82"/>
    <path class="cls-2" d="M155.18,311.84c-.64.09-1.27.13-1.91.13"/>
    <path class="cls-2" d="M167.28,295.93c.17,1.28.17,2.53,0,3.82"/>
    <path class="cls-2" d="M307.96,311.84c-.63.09-1.27.13-1.91.13"/>
    <path class="cls-2" d="M320.05,295.93c.17,1.28.17,2.53,0,3.82"/>
    <path class="cls-2" d="M304.14,283.83c.63-.09,1.27-.13,1.91-.13"/>
    <path class="cls-2" d="M292.05,299.74c-.17-1.28-.17-2.53,0-3.82"/>
    <path class="cls-2" d="M306.05,311.97c-.64,0-1.27-.04-1.91-.13"/>
    <path class="cls-2" d="M151.36,283.83c.63-.09,1.27-.13,1.91-.13"/>
    <path class="cls-2" d="M139.27,299.74c-.17-1.28-.17-2.53,0-3.82"/>
    <path class="cls-2" d="M153.27,311.97c-.64,0-1.27-.04-1.91-.13"/>
    <path class="cls-2" d="M151.36,176.89c.63-.09,1.27-.13,1.91-.13"/>
    <path class="cls-2" d="M139.27,192.8c-.17-1.29-.17-2.53,0-3.82"/>
    <path class="cls-2" d="M304.14,176.89c.63-.09,1.27-.13,1.91-.13"/>
    <path class="cls-2" d="M292.05,192.8c-.17-1.29-.17-2.53,0-3.82"/>
    <path class="cls-2" d="M304.14,311.84v1.92"/>
    <path class="cls-2" d="M292.05,295.93h-1.92"/>
    <path class="cls-2" d="M307.96,283.83v-1.94"/>
    <path class="cls-2" d="M320.05,299.74c.57,0,1.21,0,1.93,0"/>
    <path class="cls-2" d="M151.36,311.84v1.92"/>
    <path class="cls-2" d="M139.27,295.93h-1.92"/>
    <path class="cls-2" d="M155.18,283.83v-1.92"/>
    <path class="cls-2" d="M167.28,299.74c.57,0,1.2,0,1.93,0"/>
    <path class="cls-2" d="M151.36,204.89v1.93"/>
    <path class="cls-2" d="M139.27,188.98h-1.92"/>
    <path class="cls-2" d="M155.18,176.89v-1.93"/>
    <path class="cls-2" d="M167.28,192.8h1.93"/>
    <path class="cls-2" d="M304.14,204.89v1.93"/>
    <path class="cls-2" d="M292.05,188.98h-1.93"/>
    <path class="cls-2" d="M307.96,176.89v-1.93"/>
    <path class="cls-2" d="M320.05,192.8h1.93"/>
    <path class="cls-2" d="M306.05,206.93c8.86,0,16.04-7.18,16.04-16.04s-7.18-16.04-16.04-16.04"/>
    <path class="cls-2" d="M306.05,283.7c.64,0,1.28.04,1.91.13"/>
    <path class="cls-2" d="M153.27,283.7c.64,0,1.28.04,1.91.13"/>
    <path class="cls-2" d="M155.18,204.89c-.64.09-1.27.13-1.91.13"/>
    <path class="cls-2" d="M153.27,205.03c-.64,0-1.27-.05-1.91-.13"/>
    <path class="cls-2" d="M153.27,176.76c.64,0,1.28.05,1.91.13"/>
    <path class="cls-2" d="M307.96,204.89c-.63.09-1.27.13-1.91.13"/>
    <path class="cls-2" d="M306.05,205.03c-.64,0-1.27-.05-1.91-.13"/>
    <path class="cls-2" d="M306.05,176.76c.64,0,1.28.05,1.91.13"/>
    <line class="cls-2" x1="353.2" y1="146.38" x2="396.42" y2="209.4"/>
    <line class="cls-2" x1="106.12" y1="146.38" x2="62.91" y2="209.4"/>
    <line class="cls-2" x1="62.91" y1="279.33" x2="106.12" y2="342.35"/>
    <line class="cls-2" x1="396.42" y1="279.33" x2="353.2" y2="342.35"/>
    <path class="cls-2" d="M306.05,206.93c-8.86,0-16.04-7.18-16.04-16.04s7.18-16.04,16.04-16.04"/>
    <path class="cls-2" d="M138.98,198.18c-5.44-10.67,2.31-23.32,14.29-23.32"/>
    <path class="cls-2" d="M153.27,206.93c-6.02,0-11.53-3.37-14.28-8.73"/>
    <path class="cls-2" d="M138.98,305.12c-5.44-10.67,2.31-23.33,14.29-23.33"/>
    <path class="cls-2" d="M153.27,313.88c-6.02,0-11.54-3.37-14.28-8.73"/>
    <path class="cls-2" d="M291.75,305.12c-5.44-10.67,2.31-23.33,14.29-23.33"/>
    <path class="cls-2" d="M306.05,313.88c-6.02,0-11.54-3.37-14.28-8.73"/>
    <path class="cls-2" d="M169.22,295.93h-1.94"/>
    <path class="cls-2" d="M322,295.93h-1.95"/>
    <path class="cls-2" d="M306.05,313.88c8.86,0,16.04-7.18,16.04-16.04s-7.18-16.04-16.04-16.04"/>
    <path class="cls-2" d="M153.27,313.88c8.86,0,16.04-7.18,16.04-16.04s-7.18-16.04-16.04-16.04"/>
    <path class="cls-2" d="M153.27,206.93c8.86,0,16.04-7.18,16.04-16.04s-7.18-16.04-16.04-16.04"/>
    <path class="cls-2" d="M214.38,203.5c-7.17,0-12.99-5.82-12.99-12.99s5.82-12.99,12.99-12.99"/>
    <path class="cls-2" d="M244.94,203.5c-7.17,0-12.99-5.82-12.99-12.99s5.81-12.99,12.99-12.99"/>
    <path class="cls-2" d="M244.94,256.97c-2.01,0-3.85-1.13-4.76-2.91"/>
    <path class="cls-2" d="M214.38,295.16c-7.17,0-12.99-5.81-12.99-12.99s5.82-12.99,12.99-12.99"/>
    <path class="cls-2" d="M214.38,226.41c-2.01,0-3.85-1.13-4.76-2.92"/>
    <line class="cls-2" x1="276.26" y1="331.83" x2="306.05" y2="331.83"/>
    <path class="cls-2" d="M306.05,331.83c18.77,0,33.99-15.22,33.99-33.99"/>
    <line class="cls-2" x1="340.04" y1="297.83" x2="340.04" y2="258.11"/>
    <line class="cls-2" x1="340.04" y1="258.11" x2="276.26" y2="258.11"/>
    <line class="cls-2" x1="276.26" y1="258.11" x2="276.26" y2="331.83"/>
    <path class="cls-2" d="M306.05,274.16c2.97,0,5.95.57,8.72,1.66"/>
    <path class="cls-2" d="M314.77,275.82c3,1.19,5.75,2.99,8.03,5.27"/>
    <path class="cls-2" d="M322.79,281.09c2.28,2.28,4.09,5.03,5.27,8.03"/>
    <path class="cls-2" d="M328.07,289.12c1.1,2.77,1.66,5.74,1.66,8.72"/>
    <path class="cls-2" d="M329.73,297.83c0,2.98-.57,5.95-1.66,8.72"/>
    <path class="cls-2" d="M328.07,306.55c-1.19,3-2.99,5.75-5.27,8.03"/>
    <path class="cls-2" d="M322.79,314.58c-2.28,2.28-5.03,4.09-8.03,5.27"/>
    <path class="cls-2" d="M314.77,319.85c-2.77,1.1-5.74,1.66-8.72,1.66"/>
    <path class="cls-2" d="M306.05,321.51c-2.97,0-5.95-.57-8.72-1.66"/>
    <path class="cls-2" d="M297.33,319.85c-3-1.19-5.75-2.99-8.03-5.27"/>
    <path class="cls-2" d="M289.3,314.58c-2.28-2.28-4.09-5.03-5.27-8.03"/>
    <path class="cls-2" d="M284.03,306.55c-1.1-2.77-1.66-5.74-1.66-8.72"/>
    <path class="cls-2" d="M282.37,297.83c0-2.97.57-5.95,1.66-8.72"/>
    <path class="cls-2" d="M284.03,289.12c1.19-3,2.99-5.75,5.27-8.03"/>
    <path class="cls-2" d="M289.3,281.09c2.28-2.28,5.03-4.09,8.03-5.27"/>
    <path class="cls-2" d="M297.33,275.82c2.77-1.1,5.74-1.66,8.72-1.66"/>
    <line class="cls-2" x1="183.07" y1="258.11" x2="119.28" y2="258.11"/>
    <line class="cls-2" x1="119.28" y1="258.11" x2="119.28" y2="297.83"/>
    <path class="cls-2" d="M119.28,297.83c0,18.77,15.22,33.99,33.99,33.99"/>
    <line class="cls-2" x1="153.27" y1="331.83" x2="183.07" y2="331.83"/>
    <line class="cls-2" x1="183.07" y1="331.83" x2="183.07" y2="258.11"/>
    <path class="cls-2" d="M153.27,274.16c2.98,0,5.95.57,8.72,1.66"/>
    <path class="cls-2" d="M161.99,275.82c3,1.19,5.75,2.99,8.02,5.27"/>
    <path class="cls-2" d="M170.02,281.09c2.28,2.28,4.09,5.03,5.27,8.03"/>
    <path class="cls-2" d="M175.29,289.12c1.1,2.77,1.67,5.74,1.67,8.72"/>
    <path class="cls-2" d="M176.96,297.83c0,2.98-.57,5.95-1.67,8.72"/>
    <path class="cls-2" d="M175.29,306.55c-1.18,3-2.99,5.75-5.27,8.03"/>
    <path class="cls-2" d="M170.02,314.58c-2.28,2.28-5.03,4.09-8.02,5.27"/>
    <path class="cls-2" d="M161.99,319.85c-2.77,1.1-5.74,1.66-8.72,1.66"/>
    <path class="cls-2" d="M153.27,321.51c-2.97,0-5.95-.57-8.72-1.66"/>
    <path class="cls-2" d="M144.56,319.85c-3-1.19-5.75-2.99-8.02-5.27"/>
    <path class="cls-2" d="M136.53,314.58c-2.28-2.28-4.09-5.03-5.27-8.03"/>
    <path class="cls-2" d="M131.26,306.55c-1.1-2.77-1.67-5.74-1.67-8.72"/>
    <path class="cls-2" d="M129.59,297.83c0-2.97.57-5.95,1.67-8.72"/>
    <path class="cls-2" d="M131.26,289.12c1.18-3,2.99-5.75,5.27-8.03"/>
    <path class="cls-2" d="M136.53,281.09c2.28-2.28,5.03-4.09,8.02-5.27"/>
    <path class="cls-2" d="M144.56,275.82c2.77-1.1,5.74-1.66,8.72-1.66"/>
    <line class="cls-2" x1="183.07" y1="156.9" x2="153.27" y2="156.9"/>
    <path class="cls-2" d="M153.27,156.9c-18.77,0-33.99,15.22-33.99,33.99"/>
    <line class="cls-2" x1="119.28" y1="190.89" x2="119.28" y2="230.61"/>
    <line class="cls-2" x1="119.28" y1="230.61" x2="183.07" y2="230.61"/>
    <line class="cls-2" x1="183.07" y1="230.61" x2="183.07" y2="156.9"/>
    <path class="cls-2" d="M153.27,167.21c2.98,0,5.95.57,8.72,1.66"/>
    <path class="cls-2" d="M161.99,168.87c3,1.19,5.75,3,8.02,5.27"/>
    <path class="cls-2" d="M170.02,174.15c2.28,2.28,4.09,5.03,5.27,8.03"/>
    <path class="cls-2" d="M175.29,182.17c1.1,2.77,1.67,5.74,1.67,8.72"/>
    <path class="cls-2" d="M176.96,190.89c0,2.98-.57,5.95-1.67,8.72"/>
    <path class="cls-2" d="M175.29,199.61c-1.18,3-2.99,5.75-5.27,8.03"/>
    <path class="cls-2" d="M170.02,207.64c-2.28,2.28-5.03,4.09-8.02,5.27"/>
    <path class="cls-2" d="M161.99,212.91c-2.77,1.1-5.74,1.67-8.72,1.67"/>
    <path class="cls-2" d="M153.27,214.57c-2.97,0-5.95-.57-8.72-1.67"/>
    <path class="cls-2" d="M144.56,212.91c-3-1.19-5.75-2.99-8.02-5.27"/>
    <path class="cls-2" d="M136.53,207.64c-2.28-2.28-4.09-5.03-5.27-8.03"/>
    <path class="cls-2" d="M131.26,199.61c-1.1-2.77-1.67-5.74-1.67-8.72"/>
    <path class="cls-2" d="M129.59,190.89c0-2.97.57-5.95,1.67-8.72"/>
    <path class="cls-2" d="M131.26,182.17c1.18-3,2.99-5.75,5.27-8.03"/>
    <path class="cls-2" d="M136.53,174.15c2.28-2.28,5.03-4.09,8.02-5.27"/>
    <path class="cls-2" d="M144.56,168.87c2.77-1.09,5.74-1.66,8.72-1.66"/>
    <line class="cls-2" x1="276.26" y1="230.61" x2="340.04" y2="230.61"/>
    <line class="cls-2" x1="340.04" y1="230.61" x2="340.04" y2="190.89"/>
    <path class="cls-2" d="M340.04,190.89c0-18.77-15.22-33.99-33.99-33.99"/>
    <line class="cls-2" x1="276.26" y1="156.9" x2="276.26" y2="230.61"/>
    <path class="cls-2" d="M306.05,167.21c2.97,0,5.95.57,8.72,1.66"/>
    <path class="cls-2" d="M314.77,168.87c3,1.19,5.75,3,8.03,5.27"/>
    <path class="cls-2" d="M322.79,174.15c2.28,2.28,4.09,5.03,5.27,8.03"/>
    <path class="cls-2" d="M328.07,182.17c1.1,2.77,1.66,5.74,1.66,8.72"/>
    <path class="cls-2" d="M329.73,190.89c0,2.98-.57,5.95-1.66,8.72"/>
    <path class="cls-2" d="M328.07,199.61c-1.19,3-2.99,5.75-5.27,8.03"/>
    <path class="cls-2" d="M322.79,207.64c-2.28,2.28-5.03,4.09-8.03,5.27"/>
    <path class="cls-2" d="M314.77,212.91c-2.77,1.1-5.74,1.67-8.72,1.67"/>
    <path class="cls-2" d="M306.05,214.57c-2.97,0-5.95-.57-8.72-1.67"/>
    <path class="cls-2" d="M297.33,212.91c-3-1.19-5.75-2.99-8.03-5.27"/>
    <path class="cls-2" d="M289.3,207.64c-2.28-2.28-4.09-5.03-5.27-8.03"/>
    <path class="cls-2" d="M284.03,199.61c-1.1-2.77-1.66-5.74-1.66-8.72"/>
    <path class="cls-2" d="M282.37,190.89c0-2.97.57-5.95,1.66-8.72"/>
    <path class="cls-2" d="M284.03,182.17c1.19-3,2.99-5.75,5.27-8.03"/>
    <path class="cls-2" d="M289.3,174.15c2.28-2.28,5.03-4.09,8.03-5.27"/>
    <path class="cls-2" d="M297.33,168.87c2.77-1.09,5.74-1.66,8.72-1.66"/>
    <line class="cls-2" x1="264.04" y1="326.48" x2="264.04" y2="177.52"/>
    <path class="cls-2" d="M264.04,177.52c0-2.05-.83-4.02-2.29-5.46"/>
    <line class="cls-2" x1="261.74" y1="172.07" x2="261.74" y2="331.83"/>
    <line class="cls-2" x1="261.74" y1="331.83" x2="261.84" y2="331.84"/>
    <path class="cls-2" d="M261.84,331.84c1.41-1.43,2.2-3.35,2.2-5.36"/>
    <line class="cls-2" x1="197.48" y1="331.84" x2="197.58" y2="331.83"/>
    <path class="cls-2" d="M202.93,334.12c-2.04,0-4.01-.82-5.44-2.28"/>
    <line class="cls-2" x1="256.4" y1="334.12" x2="202.93" y2="334.12"/>
    <path class="cls-2" d="M261.84,331.84c-1.44,1.46-3.4,2.28-5.44,2.28"/>
    <line class="cls-2" x1="197.58" y1="172.07" x2="197.58" y2="331.83"/>
    <path class="cls-2" d="M195.29,177.52c0-2.05.83-4.02,2.3-5.46"/>
    <line class="cls-2" x1="195.29" y1="326.48" x2="195.29" y2="177.52"/>
    <line class="cls-2" x1="197.58" y1="331.83" x2="261.74" y2="331.83"/>
    <path class="cls-2" d="M256.4,169.89c2,0,3.92.79,5.35,2.18"/>
    <line class="cls-2" x1="256.4" y1="169.89" x2="202.93" y2="169.89"/>
    <path class="cls-2" d="M197.58,172.07c1.41-1.38,3.37-2.18,5.35-2.18"/>
    <path class="cls-2" d="M214.38,208.08c7.17,0,12.99,5.82,12.99,12.99s-5.82,12.99-12.99,12.99"/>
    <path class="cls-2" d="M214.38,234.05c-7.17,0-12.99-5.81-12.99-12.99s5.82-12.99,12.99-12.99"/>
    <path class="cls-2" d="M214.38,299.74c7.17,0,12.99,5.82,12.99,12.99s-5.82,12.99-12.99,12.99"/>
    <path class="cls-2" d="M214.38,325.72c-7.17,0-12.99-5.82-12.99-12.99s5.82-12.99,12.99-12.99"/>
    <path class="cls-2" d="M244.94,325.72c-7.17,0-12.99-5.82-12.99-12.99s5.82-12.99,12.99-12.99"/>
    <path class="cls-2" d="M244.94,295.16c-7.17,0-12.99-5.82-12.99-12.99s5.82-12.99,12.99-12.99"/>
    <path class="cls-2" d="M214.38,264.61c-7.16,0-12.99-5.82-12.99-12.99s5.82-12.99,12.99-12.99"/>
    <path class="cls-2" d="M244.94,238.63c7.17,0,12.99,5.82,12.99,12.99s-5.81,12.99-12.99,12.99"/>
    <path class="cls-2" d="M244.94,264.61c-7.17,0-12.99-5.82-12.99-12.99s5.81-12.99,12.99-12.99"/>
    <path class="cls-2" d="M244.94,208.08c7.17,0,12.99,5.82,12.99,12.99s-5.81,12.99-12.99,12.99"/>
    <path class="cls-2" d="M244.94,234.05c-7.17,0-12.99-5.81-12.99-12.99s5.81-12.99,12.99-12.99"/>
    <path class="cls-2" d="M244.94,177.52c7.17,0,12.99,5.82,12.99,12.99s-5.82,12.99-12.99,12.99"/>
    <path class="cls-2" d="M281.6,334.12c-2.04,0-4.01-.82-5.44-2.28"/>
    <line class="cls-2" x1="306.05" y1="334.12" x2="281.6" y2="334.12"/>
    <path class="cls-2" d="M276.16,331.84c-1.41-1.43-2.2-3.35-2.2-5.36"/>
    <line class="cls-2" x1="276.16" y1="331.84" x2="276.26" y2="331.83"/>
    <line class="cls-2" x1="273.97" y1="255.82" x2="276.26" y2="258.11"/>
    <line class="cls-2" x1="273.97" y1="326.48" x2="273.97" y2="255.82"/>
    <line class="cls-2" x1="340.38" y1="255.82" x2="273.97" y2="255.82"/>
    <line class="cls-2" x1="342.33" y1="297.83" x2="342.33" y2="255.82"/>
    <line class="cls-2" x1="342.33" y1="255.82" x2="340.38" y2="255.82"/>
    <line class="cls-2" x1="340.04" y1="258.11" x2="340.38" y2="255.82"/>
    <path class="cls-2" d="M306.05,334.12c20.04,0,36.28-16.24,36.28-36.28"/>
    <line class="cls-2" x1="185.36" y1="326.48" x2="185.36" y2="255.82"/>
    <line class="cls-2" x1="185.36" y1="255.82" x2="183.07" y2="258.11"/>
    <line class="cls-2" x1="183.07" y1="331.83" x2="183.16" y2="331.84"/>
    <path class="cls-2" d="M183.16,331.84c1.41-1.43,2.2-3.35,2.2-5.36"/>
    <path class="cls-2" d="M183.16,331.84c-1.44,1.46-3.4,2.28-5.44,2.28"/>
    <line class="cls-2" x1="177.72" y1="334.12" x2="153.27" y2="334.12"/>
    <path class="cls-2" d="M116.99,297.83c0,20.04,16.24,36.28,36.28,36.28"/>
    <line class="cls-2" x1="118.94" y1="255.82" x2="119.28" y2="258.11"/>
    <line class="cls-2" x1="116.99" y1="255.82" x2="118.94" y2="255.82"/>
    <line class="cls-2" x1="116.99" y1="297.83" x2="116.99" y2="255.82"/>
    <line class="cls-2" x1="185.36" y1="255.82" x2="118.94" y2="255.82"/>
    <line class="cls-2" x1="177.72" y1="154.61" x2="153.27" y2="154.61"/>
    <line class="cls-2" x1="183.07" y1="156.9" x2="183.16" y2="156.89"/>
    <path class="cls-2" d="M183.16,156.89c-1.44-1.46-3.4-2.28-5.44-2.28"/>
    <line class="cls-2" x1="183.07" y1="230.61" x2="185.36" y2="232.91"/>
    <line class="cls-2" x1="185.36" y1="232.91" x2="118.94" y2="232.91"/>
    <line class="cls-2" x1="118.94" y1="232.91" x2="119.28" y2="230.61"/>
    <line class="cls-2" x1="116.99" y1="232.91" x2="116.99" y2="190.89"/>
    <line class="cls-2" x1="118.94" y1="232.91" x2="116.99" y2="232.91"/>
    <path class="cls-2" d="M153.27,154.61c-20.04,0-36.28,16.24-36.28,36.28"/>
    <path class="cls-2" d="M273.97,162.25c0-2.01.79-3.93,2.19-5.36"/>
    <line class="cls-2" x1="273.97" y1="232.91" x2="273.97" y2="162.25"/>
    <line class="cls-2" x1="276.26" y1="230.61" x2="273.97" y2="232.91"/>
    <line class="cls-2" x1="276.16" y1="156.89" x2="276.26" y2="156.9"/>
    <line class="cls-2" x1="306.05" y1="156.9" x2="276.26" y2="156.9"/>
    <path class="cls-2" d="M276.16,156.89c1.44-1.46,3.4-2.28,5.44-2.28"/>
    <path class="cls-2" d="M342.33,190.89c0-20.04-16.25-36.28-36.28-36.28"/>
    <line class="cls-2" x1="340.38" y1="232.91" x2="342.33" y2="232.91"/>
    <line class="cls-2" x1="342.33" y1="232.91" x2="342.33" y2="190.89"/>
    <line class="cls-2" x1="340.04" y1="230.61" x2="340.38" y2="232.91"/>
    <line class="cls-2" x1="90.58" y1="184.31" x2="90.58" y2="304.42"/>
    <line class="cls-2" x1="185.36" y1="232.91" x2="185.36" y2="162.25"/>
    <line class="cls-2" x1="306.05" y1="154.61" x2="281.6" y2="154.61"/>
    <line class="cls-2" x1="340.38" y1="232.91" x2="273.97" y2="232.91"/>
    <line class="cls-2" x1="368.74" y1="184.31" x2="368.74" y2="304.42"/>
    <line class="cls-2" x1="81.95" y1="181.64" x2="90.58" y2="184.31"/>
    <line class="cls-2" x1="368.74" y1="184.31" x2="377.38" y2="181.64"/>
    <line class="cls-2" x1="81.95" y1="307.09" x2="90.58" y2="304.42"/>
    <line class="cls-2" x1="368.74" y1="304.42" x2="377.38" y2="307.09"/>
    <line class="cls-2" x1="403.11" y1="231" x2="403.11" y2="257.73"/>
    <path class="cls-2" d="M403.11,257.73c0,7.71-2.33,15.24-6.69,21.6"/>
    <path class="cls-2" d="M353.2,342.35c-7.12,10.39-18.9,16.59-31.5,16.59"/>
    <line class="cls-2" x1="137.62" y1="358.94" x2="321.7" y2="358.94"/>
    <path class="cls-2" d="M137.62,358.94c-12.59,0-24.38-6.21-31.5-16.59"/>
    <line class="cls-2" x1="56.21" y1="231" x2="56.21" y2="257.73"/>
    <path class="cls-2" d="M56.21,231c0-7.71,2.33-15.24,6.7-21.6"/>
    <path class="cls-2" d="M106.12,146.38c7.12-10.39,18.91-16.6,31.5-16.6"/>
    <line class="cls-2" x1="137.62" y1="129.78" x2="321.7" y2="129.78"/>
    <path class="cls-2" d="M321.7,129.78c12.59,0,24.38,6.21,31.5,16.6"/>
    <path class="cls-2" d="M396.42,209.4c4.36,6.36,6.69,13.89,6.69,21.6"/>
    <line class="cls-2" x1="3.18" y1="286.77" x2="87.4" y2="409.6"/>
    <line class="cls-2" x1="456.15" y1="286.77" x2="371.92" y2="409.6"/>
    <line class="cls-2" x1="441.3" y1="231" x2="441.3" y2="257.73"/>
    <line class="cls-2" x1="137.62" y1="397.14" x2="321.7" y2="397.14"/>
    <path class="cls-2" d="M137.62,397.14c-25.19,0-48.76-12.42-63-33.19"/>
    <path class="cls-2" d="M62.91,279.33c-4.36-6.36-6.7-13.89-6.7-21.6"/>
    <line class="cls-2" x1="371.92" y1="79.13" x2="456.15" y2="201.96"/>
    <line class="cls-2" x1="87.4" y1="79.13" x2="3.18" y2="201.96"/>
    <path class="cls-2" d="M.5,210.6c0-3.08.93-6.1,2.68-8.64"/>
    <path class="cls-2" d="M3.18,286.77c-1.75-2.55-2.68-5.56-2.68-8.64"/>
    <line class="cls-2" x1="31.05" y1="416.23" x2="100" y2="416.23"/>
    <path class="cls-2" d="M.5,385.68c0,16.87,13.68,30.55,30.55,30.55"/>
    <path class="cls-2" d="M31.05,366.96c10.33,0,18.72,8.39,18.72,18.72s-8.39,18.71-18.72,18.71"/>
    <path class="cls-2" d="M31.05,404.39c-10.33,0-18.71-8.38-18.71-18.71s8.38-18.72,18.71-18.72"/>
    <path class="cls-2" d="M100,416.23c-5.04,0-9.75-2.48-12.6-6.63"/>
    <path class="cls-2" d="M371.92,409.6c-2.85,4.15-7.56,6.63-12.6,6.63"/>
    <path class="cls-2" d="M456.15,201.96c1.74,2.54,2.68,5.55,2.68,8.64"/>
    <line class="cls-2" x1="458.83" y1="385.68" x2="458.83" y2="278.13"/>
    <line class="cls-2" x1="359.32" y1="416.23" x2="428.27" y2="416.23"/>
    <path class="cls-2" d="M428.27,416.23c16.87,0,30.56-13.68,30.56-30.55"/>
    <path class="cls-2" d="M428.27,404.39c-10.34,0-18.71-8.38-18.71-18.71s8.38-18.72,18.71-18.72"/>
    <line class="cls-2" x1="100" y1="416.23" x2="359.32" y2="416.23"/>
    <path class="cls-2" d="M458.83,278.13c0,3.08-.94,6.1-2.68,8.64"/>
    <path class="cls-2" d="M371.92,79.13c-2.85-4.15-7.56-6.64-12.6-6.64"/>
    <line class="cls-2" x1="359.32" y1="72.49" x2="100" y2="72.49"/>
    <path class="cls-2" d="M87.4,79.13c2.85-4.15,7.56-6.64,12.6-6.64"/>
    <line class="cls-2" x1="384.7" y1="124.78" x2="427.92" y2="187.8"/>
    <path class="cls-2" d="M427.92,187.8c8.72,12.72,13.39,27.78,13.39,43.2"/>
    <path class="cls-2" d="M441.3,257.73c0,15.42-4.67,30.48-13.39,43.2"/>
    <line class="cls-2" x1="427.92" y1="300.93" x2="384.7" y2="363.95"/>
    <path class="cls-2" d="M384.7,363.95c-14.24,20.77-37.81,33.19-63,33.19"/>
    <line class="cls-2" x1="31.41" y1="300.93" x2="74.63" y2="363.95"/>
    <path class="cls-2" d="M31.41,300.93c-8.72-12.72-13.39-27.78-13.39-43.2"/>
    <line class="cls-2" x1="18.02" y1="231" x2="18.02" y2="257.73"/>
    <path class="cls-2" d="M18.02,231c0-15.42,4.67-30.48,13.39-43.2"/>
    <line class="cls-2" x1="74.63" y1="124.78" x2="31.41" y2="187.8"/>
    <path class="cls-2" d="M74.63,124.78c14.24-20.77,37.81-33.19,63-33.19"/>
    <line class="cls-2" x1="137.62" y1="91.59" x2="321.7" y2="91.59"/>
    <path class="cls-2" d="M321.7,91.59c25.19,0,48.75,12.42,63,33.19"/>
    <line class="cls-2" x1="458.83" y1="210.6" x2="458.83" y2="103.05"/>
    <path class="cls-2" d="M458.83,103.05c0-16.88-13.68-30.56-30.56-30.56"/>
    <path class="cls-2" d="M428.27,121.76c-10.34,0-18.71-8.38-18.71-18.71s8.38-18.72,18.71-18.72"/>
    <line class="cls-2" x1="100" y1="72.49" x2="31.05" y2="72.49"/>
    <path class="cls-2" d="M31.05,72.49c-16.87,0-30.55,13.68-30.55,30.56"/>
    <path class="cls-2" d="M31.05,121.76c-10.33,0-18.71-8.38-18.71-18.71s8.38-18.72,18.71-18.72"/>
    <path class="cls-2" d="M31.05,86.62c-9.06,0-16.42,7.36-16.42,16.43s7.36,16.42,16.42,16.42"/>
    <line class="cls-2" x1=".5" y1="278.13" x2=".5" y2="385.68"/>
    <line class="cls-2" x1=".5" y1="210.6" x2=".5" y2="278.13"/>
    <line class="cls-2" x1=".5" y1="103.05" x2=".5" y2="210.6"/>
    <line class="cls-2" x1="458.83" y1="278.13" x2="458.83" y2="210.6"/>
    <line class="cls-2" x1="428.27" y1="72.49" x2="359.32" y2="72.49"/>
    <path class="cls-2" d="M428.27,369.26c-9.07,0-16.42,7.36-16.42,16.43s7.35,16.42,16.42,16.42"/>
    <path class="cls-2" d="M31.05,369.26c-9.07,0-16.42,7.36-16.42,16.43s7.35,16.42,16.42,16.42"/>
    <path class="cls-2" d="M290.13,299.75c.72,0,1.35,0,1.92,0"/>
    <path class="cls-2" d="M304.14,281.91v1.92"/>
    <path class="cls-2" d="M307.96,313.76v-1.93"/>
    <path class="cls-2" d="M137.35,299.75c.72,0,1.35,0,1.92,0"/>
    <path class="cls-2" d="M151.36,281.91v1.92"/>
    <path class="cls-2" d="M155.18,313.76v-1.93"/>
    <path class="cls-2" d="M137.35,192.8h1.92"/>
    <path class="cls-2" d="M151.36,174.97v1.92"/>
    <path class="cls-2" d="M155.18,206.82v-1.93"/>
    <path class="cls-2" d="M290.12,192.8h1.93"/>
    <path class="cls-2" d="M304.14,174.96v1.93"/>
    <path class="cls-2" d="M321.99,188.98h-1.94"/>
    <path class="cls-2" d="M307.96,206.82v-1.93"/>
    <path class="cls-2" d="M291.77,198.2s0-.02-.01-.03"/>
    <path class="cls-2" d="M219.15,218.64h0"/>
    <path class="cls-2" d="M413.64,110.5c2.81,5.5,8.46,8.97,14.63,8.97"/>
    <path class="cls-2" d="M31.05,369.26c9.06,0,16.43,7.36,16.43,16.43s-7.36,16.42-16.43,16.42"/>
    <path class="cls-2" d="M214.38,226.41c2.96,0,5.35-2.39,5.35-5.35s-2.39-5.35-5.35-5.35"/>
    <path class="cls-2" d="M214.38,318.08c2.96,0,5.35-2.39,5.35-5.35s-2.39-5.35-5.35-5.35"/>
    <path class="cls-2" d="M244.94,318.08c2.95,0,5.35-2.39,5.35-5.35s-2.4-5.35-5.35-5.35"/>
    <path class="cls-2" d="M244.94,287.52c2.95,0,5.35-2.39,5.35-5.35s-2.4-5.35-5.35-5.35"/>
    <path class="cls-2" d="M214.38,287.52c2.96,0,5.35-2.39,5.35-5.35s-2.39-5.35-5.35-5.35"/>
    <path class="cls-2" d="M244.94,256.97c2.95,0,5.35-2.4,5.35-5.35s-2.4-5.35-5.35-5.35"/>
    <path class="cls-2" d="M244.94,226.41c2.95,0,5.35-2.39,5.35-5.35s-2.4-5.35-5.35-5.35"/>
    <path class="cls-2" d="M214.38,195.86c2.96,0,5.35-2.39,5.35-5.35s-2.39-5.35-5.35-5.35"/>
    <path class="cls-2" d="M320.05,192.8c-.86,6.29-5.8,11.23-12.09,12.09"/>
    <path class="cls-2" d="M307.96,176.89c6.29.86,11.24,5.8,12.09,12.09"/>
    <path class="cls-2" d="M167.28,192.8c-.86,6.29-5.8,11.23-12.09,12.09"/>
    <path class="cls-2" d="M155.18,176.89c6.29.86,11.23,5.8,12.09,12.09"/>
    <path class="cls-2" d="M167.28,299.74c-.86,6.29-5.8,11.24-12.09,12.09"/>
    <path class="cls-2" d="M155.18,283.83c6.29.86,11.23,5.8,12.09,12.09"/>
    <path class="cls-2" d="M320.05,299.74c-.86,6.29-5.8,11.24-12.09,12.09"/>
    <path class="cls-2" d="M307.96,283.83c6.29.86,11.24,5.8,12.09,12.09"/>
    <path class="cls-2" d="M292.05,299.74c.86,6.29,5.8,11.24,12.09,12.09"/>
    <path class="cls-2" d="M304.14,283.83c-6.29.86-11.24,5.8-12.09,12.09"/>
    <path class="cls-2" d="M151.36,283.83c-6.29.86-11.23,5.8-12.09,12.09"/>
    <path class="cls-2" d="M139.27,192.8c.22,1.6.68,3.07,1.41,4.51"/>
    <path class="cls-2" d="M140.69,197.33c2.11,4.12,6.09,6.94,10.67,7.56"/>
    <path class="cls-2" d="M151.36,176.89c-6.29.86-11.23,5.8-12.09,12.09"/>
    <path class="cls-2" d="M292.05,192.8c.86,6.29,5.8,11.23,12.09,12.09"/>
    <path class="cls-2" d="M304.14,176.89c-6.29.86-11.24,5.8-12.09,12.09"/>
    <path class="cls-2" d="M139.27,299.74c.86,6.29,5.8,11.24,12.09,12.09"/>
    <path class="cls-2" d="M214.38,195.86c-2.95,0-5.35-2.39-5.35-5.35s2.39-5.35,5.35-5.35"/>
    <path class="cls-2" d="M244.94,195.86c-2.95,0-5.35-2.39-5.35-5.35s2.4-5.35,5.35-5.35"/>
    <path class="cls-2" d="M244.94,226.41c-2.95,0-5.35-2.39-5.35-5.35s2.4-5.35,5.35-5.35"/>
    <path class="cls-2" d="M214.38,256.97c-2.95,0-5.35-2.4-5.35-5.35s2.4-5.35,5.35-5.35"/>
    <path class="cls-2" d="M214.38,287.52c-2.95,0-5.35-2.39-5.35-5.35s2.39-5.35,5.35-5.35"/>
    <path class="cls-2" d="M244.94,287.52c-2.95,0-5.35-2.39-5.35-5.35s2.4-5.35,5.35-5.35"/>
    <path class="cls-2" d="M244.94,318.08c-2.95,0-5.35-2.39-5.35-5.35s2.4-5.35,5.35-5.35"/>
    <path class="cls-2" d="M214.38,318.08c-2.95,0-5.35-2.39-5.35-5.35s2.39-5.35,5.35-5.35"/>
    <path class="cls-2" d="M169.2,188.98h-1.92"/>
    <path class="cls-2" d="M240.17,254.05c-1.81-3.56.77-7.78,4.76-7.78"/>
    <path class="cls-2" d="M209.62,223.49c-1.81-3.56.77-7.77,4.76-7.77"/>
    <path class="cls-2" d="M197.48,331.84c-1.4-1.43-2.2-3.36-2.2-5.36"/>
    <path class="cls-2" d="M183.16,156.89c1.41,1.43,2.2,3.35,2.2,5.36"/>
    <path class="cls-2" d="M428.27,86.62c-12.25,0-20.2,12.95-14.64,23.87"/>
    <line class="cls-2" x1="214.38" y1="234.05" x2="214.38" y2="226.41"/>
    <line class="cls-2" x1="214.38" y1="307.38" x2="214.38" y2="299.74"/>
    <line class="cls-2" x1="214.38" y1="325.72" x2="214.38" y2="318.08"/>
    <line class="cls-2" x1="244.94" y1="325.72" x2="244.94" y2="318.08"/>
    <line class="cls-2" x1="244.94" y1="276.83" x2="244.94" y2="269.19"/>
    <line class="cls-2" x1="244.94" y1="295.16" x2="244.94" y2="287.52"/>
    <line class="cls-2" x1="214.38" y1="295.16" x2="214.38" y2="287.52"/>
    <line class="cls-2" x1="214.38" y1="246.27" x2="214.38" y2="238.63"/>
    <line class="cls-2" x1="214.38" y1="264.61" x2="214.38" y2="256.97"/>
    <line class="cls-2" x1="244.94" y1="246.27" x2="244.94" y2="238.63"/>
    <line class="cls-2" x1="244.94" y1="234.05" x2="244.94" y2="226.41"/>
    <line class="cls-2" x1="244.94" y1="185.16" x2="244.94" y2="177.52"/>
    <line class="cls-2" x1="244.94" y1="203.5" x2="244.94" y2="195.86"/>
    <line class="cls-2" x1="214.38" y1="203.5" x2="214.38" y2="195.86"/>
    <line class="cls-2" x1="214.38" y1="185.16" x2="214.38" y2="177.52"/>
    <line class="cls-2" x1="244.94" y1="215.72" x2="244.94" y2="208.08"/>
    <line class="cls-2" x1="244.94" y1="264.61" x2="244.94" y2="256.97"/>
    <line class="cls-2" x1="214.38" y1="276.83" x2="214.38" y2="269.19"/>
    <line class="cls-2" x1="244.94" y1="307.38" x2="244.94" y2="299.74"/>
    <line class="cls-2" x1="214.38" y1="215.72" x2="214.38" y2="208.08"/>
    <line class="cls-2" x1="31.05" y1="369.26" x2="31.05" y2="366.96"/>
    <line class="cls-2" x1="428.27" y1="404.39" x2="428.27" y2="402.1"/>
    <line class="cls-2" x1="428.27" y1="86.62" x2="428.27" y2="84.33"/>
    <line class="cls-2" x1="31.05" y1="86.62" x2="31.05" y2="84.33"/>
    <line class="cls-2" x1="340.04" y1="190.89" x2="342.33" y2="190.89"/>
    <line class="cls-2" x1="306.05" y1="156.9" x2="306.05" y2="154.61"/>
    <line class="cls-2" x1="116.99" y1="190.89" x2="119.28" y2="190.89"/>
    <line class="cls-2" x1="153.27" y1="154.61" x2="153.27" y2="156.9"/>
    <line class="cls-2" x1="153.27" y1="334.12" x2="153.27" y2="331.83"/>
    <line class="cls-2" x1="119.28" y1="297.83" x2="116.99" y2="297.83"/>
    <line class="cls-2" x1="340.04" y1="297.83" x2="342.33" y2="297.83"/>
    <line class="cls-2" x1="306.05" y1="331.83" x2="306.05" y2="334.12"/>
    <line class="cls-2" x1="324.76" y1="222.34" x2="324.76" y2="223.14"/>
    <line class="cls-2" x1="336.29" y1="222.34" x2="324.76" y2="222.34"/>
    <line class="cls-2" x1="336.29" y1="223.68" x2="336.29" y2="222.34"/>
    <line class="cls-2" x1="327.04" y1="223.68" x2="336.29" y2="223.68"/>
    <path class="cls-2" d="M328.72,225.89c-.48-.8-1.01-1.54-1.68-2.21"/>
    <line class="cls-2" x1="327.44" y1="225.89" x2="328.72" y2="225.89"/>
    <path class="cls-2" d="M324.76,223.14c1.08.76,1.94,1.65,2.68,2.75"/>
    <line class="cls-2" x1="306.05" y1="174.85" x2="306.05" y2="167.21"/>
    <path class="cls-2" d="M124.65,215.95c.52-.81,1.67-.98,2.48-.54.84.46,1.12,1.57,1.18,2.39"/>
    <path class="cls-2" d="M126.36,219.21c-.72-.25-1.34-.47-1.76-1.19-.36-.63-.35-1.46.05-2.07"/>
    <line class="cls-2" x1="126.16" y1="220.42" x2="126.36" y2="219.21"/>
    <path class="cls-2" d="M124.64,219.69c.48.32.98.55,1.52.73"/>
    <path class="cls-2" d="M123.18,217.03c.04,1.21.43,1.98,1.45,2.66"/>
    <path class="cls-2" d="M124.39,214.26c-.94.64-1.25,1.72-1.21,2.77"/>
    <path class="cls-2" d="M128.71,215.46c-.85-1.51-2.8-2.23-4.31-1.2"/>
    <path class="cls-2" d="M131.51,213.64c-1.32-.03-2.29.6-2.81,1.82"/>
    <path class="cls-2" d="M131.85,220.55c4.24-.76,3.99-6.82-.34-6.91"/>
    <line class="cls-2" x1="131.65" y1="219.35" x2="131.85" y2="220.55"/>
    <path class="cls-2" d="M133.62,217.34c-.13,1.08-1.04,1.71-1.97,2.01"/>
    <path class="cls-2" d="M132.38,215.23c.89.36,1.35,1.16,1.24,2.11"/>
    <path class="cls-2" d="M131.02,215.09c.48-.09.9-.05,1.35.14"/>
    <path class="cls-2" d="M130,215.62c.3-.3.61-.45,1.02-.53"/>
    <path class="cls-2" d="M129.17,217.8c.11-.81.2-1.54.83-2.19"/>
    <line class="cls-2" x1="128.3" y1="217.8" x2="129.17" y2="217.8"/>
    <line class="cls-2" x1="123.21" y1="224.71" x2="123.21" y2="225.51"/>
    <line class="cls-2" x1="134.73" y1="224.71" x2="123.21" y2="224.71"/>
    <line class="cls-2" x1="134.73" y1="226.05" x2="134.73" y2="224.71"/>
    <line class="cls-2" x1="125.49" y1="226.05" x2="134.73" y2="226.05"/>
    <path class="cls-2" d="M127.16,228.26c-.48-.8-1.01-1.54-1.67-2.21"/>
    <line class="cls-2" x1="125.89" y1="228.26" x2="127.16" y2="228.26"/>
    <path class="cls-2" d="M123.21,225.51c1.08.75,1.94,1.65,2.68,2.75"/>
    <line class="cls-2" x1="153.27" y1="214.57" x2="153.27" y2="206.93"/>
    <line class="cls-2" x1="123.21" y1="266.05" x2="123.21" y2="267.05"/>
    <line class="cls-2" x1="131.05" y1="266.05" x2="123.21" y2="266.05"/>
    <line class="cls-2" x1="131.05" y1="264.44" x2="131.05" y2="266.05"/>
    <line class="cls-2" x1="132.19" y1="264.44" x2="131.05" y2="264.44"/>
    <line class="cls-2" x1="132.19" y1="266.05" x2="132.19" y2="264.44"/>
    <line class="cls-2" x1="134.73" y1="266.05" x2="132.19" y2="266.05"/>
    <line class="cls-2" x1="134.73" y1="267.32" x2="134.73" y2="266.05"/>
    <line class="cls-2" x1="132.19" y1="267.32" x2="134.73" y2="267.32"/>
    <line class="cls-2" x1="441.3" y1="257.73" x2="403.11" y2="257.73"/>
    <line class="cls-2" x1="403.11" y1="231" x2="441.3" y2="231"/>
    <line class="cls-2" x1="427.92" y1="300.93" x2="396.42" y2="279.33"/>
    <line class="cls-2" x1="384.7" y1="363.95" x2="353.2" y2="342.35"/>
    <line class="cls-2" x1="321.7" y1="397.14" x2="321.7" y2="358.94"/>
    <line class="cls-2" x1="137.62" y1="358.94" x2="137.62" y2="397.14"/>
    <line class="cls-2" x1="62.91" y1="279.33" x2="31.41" y2="300.93"/>
    <line class="cls-2" x1="74.63" y1="363.95" x2="106.12" y2="342.35"/>
    <line class="cls-2" x1="56.21" y1="231" x2="18.02" y2="231"/>
    <line class="cls-2" x1="18.02" y1="257.73" x2="56.21" y2="257.73"/>
    <line class="cls-2" x1="106.12" y1="146.38" x2="74.63" y2="124.78"/>
    <line class="cls-2" x1="31.41" y1="187.8" x2="62.91" y2="209.4"/>
    <line class="cls-2" x1="137.62" y1="91.59" x2="137.62" y2="129.78"/>
    <line class="cls-2" x1="321.7" y1="91.59" x2="321.7" y2="129.78"/>
    <line class="cls-2" x1="384.7" y1="124.78" x2="353.2" y2="146.38"/>
    <line class="cls-2" x1="427.92" y1="187.8" x2="396.42" y2="209.4"/>
    <line class="cls-2" x1="132.19" y1="272.48" x2="132.19" y2="267.32"/>
    <line class="cls-2" x1="131.05" y1="272.48" x2="132.19" y2="272.48"/>
    <line class="cls-2" x1="123.21" y1="267.05" x2="131.05" y2="272.48"/>
    <line class="cls-2" x1="123.21" y1="276.17" x2="123.21" y2="276.97"/>
    <line class="cls-2" x1="134.73" y1="276.17" x2="123.21" y2="276.17"/>
    <line class="cls-2" x1="134.73" y1="277.51" x2="134.73" y2="276.17"/>
    <line class="cls-2" x1="125.49" y1="277.51" x2="134.73" y2="277.51"/>
    <path class="cls-2" d="M127.16,279.72c-.48-.8-1.01-1.54-1.67-2.21"/>
    <line class="cls-2" x1="125.89" y1="279.72" x2="127.16" y2="279.72"/>
    <path class="cls-2" d="M123.21,276.97c1.08.76,1.94,1.65,2.68,2.75"/>
    <line class="cls-2" x1="153.27" y1="281.79" x2="153.27" y2="274.16"/>
    <line class="cls-2" x1="153.27" y1="321.51" x2="153.27" y2="313.88"/>
    <path class="cls-2" d="M325.43,266.12c-.71.8-.86,1.58-.74,2.61"/>
    <path class="cls-2" d="M329.91,265.86c-1.38-.77-3.27-1.12-4.48.26"/>
    <path class="cls-2" d="M331.53,266.93c-.52-.39-1.04-.76-1.61-1.07"/>
    <path class="cls-2" d="M335.08,269.87c-1.16-1.01-2.33-2.01-3.55-2.93"/>
    <line class="cls-2" x1="335.08" y1="265.04" x2="335.08" y2="269.87"/>
    <line class="cls-2" x1="336.29" y1="265.04" x2="335.08" y2="265.04"/>
    <line class="cls-2" x1="336.29" y1="271.81" x2="336.29" y2="265.04"/>
    <line class="cls-2" x1="336.02" y1="271.81" x2="336.29" y2="271.81"/>
    <path class="cls-2" d="M334.95,271.48c.34.2.68.29,1.07.33"/>
    <path class="cls-2" d="M334.08,270.73c.28.27.53.55.88.75"/>
    <path class="cls-2" d="M332.33,269.16c.61.5,1.19,1.02,1.75,1.57"/>
    <path class="cls-2" d="M330.49,267.76c.64.44,1.24.92,1.84,1.4"/>
    <path class="cls-2" d="M328.65,266.77c.68.23,1.26.59,1.84.99"/>
    <path class="cls-2" d="M326.29,269.5c-1-1.8.42-3.4,2.36-2.74"/>
    <path class="cls-2" d="M327.91,270.8c-.72-.25-1.23-.61-1.62-1.3"/>
    <line class="cls-2" x1="327.71" y1="272.08" x2="327.91" y2="270.8"/>
    <path class="cls-2" d="M326.56,271.58c.37.2.75.36,1.15.5"/>
    <path class="cls-2" d="M324.69,268.73c.12,1.38.66,2.18,1.87,2.85"/>
    <line class="cls-2" x1="306.05" y1="281.79" x2="306.05" y2="274.16"/>
    <line class="cls-2" x1="125.76" y1="267.32" x2="131.05" y2="271.08"/>
    <line class="cls-2" x1="131.05" y1="267.32" x2="125.76" y2="267.32"/>
    <line class="cls-2" x1="131.05" y1="271.08" x2="131.05" y2="267.32"/>
    <path class="cls-2" d="M216.27,223.68c-.58-.35-1.18-.68-1.79-.96"/>
    <path class="cls-2" d="M214.48,222.72c.19.98-.39,1.71-1.4,1.69"/>
    <path class="cls-2" d="M213.08,224.4c-.91-.02-1.6-.69-1.52-1.63"/>
    <path class="cls-2" d="M211.56,222.78c.09-1.01.99-1.47,1.91-1.18"/>
    <path class="cls-2" d="M213.47,221.59c.46.14.86.38,1.27.61"/>
    <path class="cls-2" d="M214.74,222.2c.51.29,1.02.58,1.53.89"/>
    <line class="cls-2" x1="216.27" y1="223.09" x2="216.27" y2="223.68"/>
    <line class="cls-2" x1="242.17" y1="310.88" x2="242.17" y2="314.7"/>
    <line class="cls-2" x1="242.77" y1="310.88" x2="242.17" y2="310.88"/>
    <path class="cls-2" d="M248.21,313.09c-1.98-.4-3.73-1.15-5.43-2.22"/>
    <line class="cls-2" x1="248.21" y1="313.88" x2="248.21" y2="313.09"/>
    <path class="cls-2" d="M242.81,311.63c1.7,1.03,3.46,1.78,5.4,2.25"/>
    <line class="cls-2" x1="242.81" y1="314.7" x2="242.81" y2="311.63"/>
    <line class="cls-2" x1="242.17" y1="314.7" x2="242.81" y2="314.7"/>
    <line class="cls-2" x1="244.42" y1="281.25" x2="242.06" y2="279.75"/>
    <path class="cls-2" d="M244.41,279.92c-.16.47-.13.87,0,1.33"/>
    <path class="cls-2" d="M248.25,281.3c.25-1.1-.16-2.11-1.29-2.46-1.01-.31-2.18-.03-2.56,1.08"/>
    <path class="cls-2" d="M247.52,282.38c.43-.27.62-.6.73-1.08"/>
    <path class="cls-2" d="M246.11,282.72c.52.02.96-.05,1.41-.33"/>
    <path class="cls-2" d="M244.34,282.04c.55.35,1.08.64,1.77.68"/>
    <line class="cls-2" x1="242.06" y1="280.57" x2="244.34" y2="282.04"/>
    <line class="cls-2" x1="242.06" y1="279.75" x2="242.06" y2="280.57"/>
    <path class="cls-2" d="M214.18,248.91c-.85-.04-2.34,0-2.6,1.13-.12.53.16,1.03.58,1.32.46.31.93.37,1.46.38"/>
    <path class="cls-2" d="M213.63,251.74c.88.06,2.28-.06,2.6-1.16.15-.53-.1-1.04-.56-1.32-.47-.29-.95-.35-1.48-.35"/>
    <line class="cls-2" x1="211.58" y1="253.37" x2="211.58" y2="253.7"/>
    <line class="cls-2" x1="216.19" y1="253.37" x2="211.58" y2="253.37"/>
    <line class="cls-2" x1="216.19" y1="253.91" x2="216.19" y2="253.37"/>
    <line class="cls-2" x1="212.49" y1="253.91" x2="216.19" y2="253.91"/>
    <path class="cls-2" d="M213.16,254.8c-.19-.32-.41-.62-.67-.88"/>
    <line class="cls-2" x1="212.66" y1="254.8" x2="213.16" y2="254.8"/>
    <path class="cls-2" d="M211.58,253.7c.43.3.78.66,1.07,1.1"/>
    <path class="cls-2" d="M242.81,254.09c.52.09,1.03.2,1.54.36"/>
    <path class="cls-2" d="M244.34,254.45c-.2-.45-.3-.86-.19-1.37"/>
    <path class="cls-2" d="M244.15,253.08c.08-.42.2-.76.55-1.04"/>
    <path class="cls-2" d="M244.71,252.04c.36-.3.74-.41,1.2-.46"/>
    <path class="cls-2" d="M245.91,251.58c.89-.09,1.79.24,2.2,1.11"/>
    <path class="cls-2" d="M248.11,252.69c.58,1.24-.03,2.56-1.41,2.8"/>
    <line class="cls-2" x1="246.7" y1="255.48" x2="246.52" y2="254.84"/>
    <path class="cls-2" d="M246.52,254.84c.91-.22,1.32-.64,1.05-1.61"/>
    <path class="cls-2" d="M247.58,253.23c-.19-.68-.99-.97-1.61-.91"/>
    <path class="cls-2" d="M245.97,252.33c-1.29.12-1.65,1.57-.66,2.37"/>
    <line class="cls-2" x1="245.31" y1="254.7" x2="245.24" y2="255.31"/>
    <path class="cls-2" d="M245.24,255.31c-1.02-.25-2.05-.46-3.07-.68"/>
    <line class="cls-2" x1="242.17" y1="254.63" x2="242.17" y2="251.8"/>
    <line class="cls-2" x1="242.17" y1="251.8" x2="242.81" y2="251.8"/>
    <line class="cls-2" x1="242.81" y1="251.8" x2="242.81" y2="254.09"/>
    <path class="cls-2" d="M213.43,222.18c-.61-.2-1.29.02-1.34.72"/>
    <path class="cls-2" d="M213.27,223.83c.96-.17,1.05-1.26.16-1.65"/>
    <path class="cls-2" d="M212.09,222.9c-.07.68.6.97,1.18.93"/>
    <path class="cls-2" d="M246.16,281.96c.45.04.78-.06,1.13-.35"/>
    <path class="cls-2" d="M244.91,280.59c-.08.83.47,1.31,1.26,1.37"/>
    <path class="cls-2" d="M245.24,279.81c-.21.23-.3.48-.33.78"/>
    <path class="cls-2" d="M245.67,279.56c-.17.05-.3.13-.43.25"/>
    <path class="cls-2" d="M247.29,281.61c.42-.42.55-1.21.1-1.67-.4-.42-1.2-.54-1.72-.38"/>
    <path class="cls-2" d="M212.15,249.95c-.23.36-.04.72.29.93s.66.27,1.04.3"/>
    <path class="cls-2" d="M213.03,249.5c-.36.06-.66.11-.88.46"/>
    <path class="cls-2" d="M214.34,249.44c-.44,0-.87-.02-1.3.06"/>
    <path class="cls-2" d="M213.47,251.18c.55.06,1.69.07,2.12-.48.27-.34.17-.74-.18-.97-.34-.23-.69-.27-1.08-.29"/>
    <line class="cls-2" x1="306.05" y1="321.51" x2="306.05" y2="313.88"/>
    <line class="cls-2" x1="153.27" y1="174.85" x2="153.27" y2="167.21"/>
    <line class="cls-2" x1="306.05" y1="214.57" x2="306.05" y2="206.93"/>
    <line class="cls-2" x1="31.05" y1="121.76" x2="31.05" y2="119.47"/>
    <line class="cls-2" x1="428.27" y1="121.76" x2="428.27" y2="119.47"/>
    <line class="cls-2" x1="428.27" y1="369.26" x2="428.27" y2="366.96"/>
    <line class="cls-2" x1="31.05" y1="404.39" x2="31.05" y2="402.1"/>
  </g>
  <g id="_图层_2" data-name="图层 2">
    <line class="cls-3" x1="306.18" y1="190.89" x2="306.18" y2="33.65"/>
    <line class="cls-3" x1="245.07" y1="191.76" x2="245.07" y2="33.65"/>
    <line class="cls-3" x1="214.51" y1="191.76" x2="214.51" y2="33.65"/>
    <polyline class="cls-3" points="188.19 33.65 188.19 191.76 188.19 220.55 214.74 220.55"/>
    <polyline class="cls-3" points="272.9 33.65 272.9 191.76 272.9 220.55 246.15 220.55"/>
    <line class="cls-3" x1="216.51" y1="450.23" x2="216.51" y2="312.88"/>
    <polyline class="cls-3" points="188.19 450.23 188.19 307.91 188.19 281.99 214.74 281.99"/>
    <line class="cls-3" x1="153.27" y1="450.23" x2="153.27" y2="301.19"/>
    <polyline class="cls-3" points="263.19 450.23 263.19 307.91 263.19 281.99 244.43 281.99"/>
    <path class="cls-1" d="M309.39,22.31h-3.57v-13.44c-1.3,1.22-2.84,2.12-4.61,2.7v-3.24c.93-.3,1.94-.88,3.03-1.73s1.84-1.84,2.25-2.98h2.89v18.69Z"/>
    <path class="cls-1" d="M238.14,17.37l3.45-.42c.11.88.41,1.55.89,2.02.48.47,1.07.7,1.75.7.74,0,1.36-.28,1.86-.84s.76-1.31.76-2.26c0-.9-.24-1.61-.72-2.13-.48-.52-1.07-.79-1.76-.79-.46,0-1,.09-1.64.27l.39-2.91c.96.03,1.7-.18,2.21-.63s.76-1.03.76-1.77c0-.63-.19-1.13-.56-1.5-.37-.37-.87-.56-1.49-.56s-1.13.21-1.56.63c-.43.42-.69,1.04-.79,1.85l-3.29-.56c.23-1.13.57-2.02,1.03-2.7s1.1-1.2,1.93-1.59c.83-.39,1.75-.58,2.77-.58,1.75,0,3.16.56,4.21,1.68.87.91,1.31,1.95,1.31,3.1,0,1.63-.89,2.94-2.68,3.91,1.07.23,1.92.74,2.56,1.54.64.8.96,1.76.96,2.88,0,1.63-.6,3.03-1.79,4.18-1.19,1.15-2.68,1.73-4.46,1.73-1.68,0-3.08-.48-4.19-1.45-1.11-.97-1.75-2.24-1.93-3.8Z"/>
    <path class="cls-1" d="M272.99,22.31v-3.75h-7.62v-3.12l8.07-11.82h3v11.81h2.31v3.14h-2.31v3.75h-3.45ZM272.99,15.42v-6.36l-4.28,6.36h4.28Z"/>
    <path class="cls-1" d="M271.19,466.71l-3.45.38c-.08-.71-.3-1.24-.66-1.57-.36-.34-.82-.51-1.38-.51-.75,0-1.39.34-1.91,1.02-.52.68-.85,2.09-.98,4.23.89-1.05,1.99-1.57,3.31-1.57,1.49,0,2.77.57,3.83,1.7,1.06,1.13,1.59,2.6,1.59,4.39,0,1.9-.56,3.43-1.68,4.58-1.12,1.15-2.55,1.73-4.3,1.73-1.88,0-3.42-.73-4.63-2.19s-1.82-3.85-1.82-7.18.63-5.87,1.89-7.38c1.26-1.51,2.9-2.26,4.91-2.26,1.41,0,2.58.4,3.51,1.19.93.79,1.52,1.94,1.77,3.45ZM263.1,474.49c0,1.16.27,2.05.8,2.69.53.63,1.14.95,1.83.95s1.21-.26,1.65-.77c.44-.52.66-1.36.66-2.54s-.24-2.1-.71-2.66c-.47-.56-1.07-.84-1.78-.84s-1.27.27-1.74.81c-.47.54-.71,1.33-.71,2.38Z"/>
    <path class="cls-1" d="M211.37,12.26c-.92-.39-1.59-.92-2.01-1.61-.42-.68-.63-1.43-.63-2.24,0-1.39.48-2.53,1.45-3.44.97-.91,2.35-1.36,4.13-1.36s3.14.45,4.12,1.36c.98.91,1.47,2.05,1.47,3.44,0,.86-.22,1.63-.67,2.3s-1.08,1.19-1.89,1.54c1.03.41,1.82,1.02,2.35,1.82.54.8.81,1.71.81,2.75,0,1.72-.55,3.11-1.64,4.19s-2.55,1.61-4.37,1.61c-1.69,0-3.1-.44-4.23-1.33-1.33-1.05-1.99-2.49-1.99-4.32,0-1.01.25-1.93.75-2.77.5-.84,1.29-1.49,2.36-1.95ZM211.77,16.64c0,.98.25,1.75.76,2.3.5.55,1.13.83,1.89.83s1.35-.26,1.83-.79.72-1.29.72-2.29c0-.87-.25-1.57-.74-2.1-.49-.53-1.11-.79-1.87-.79-.87,0-1.52.3-1.95.9-.43.6-.64,1.25-.64,1.96ZM212.1,8.67c0,.71.2,1.27.6,1.66.4.4.94.6,1.61.6s1.22-.2,1.62-.6c.41-.4.61-.96.61-1.67,0-.67-.2-1.2-.6-1.61-.4-.4-.93-.6-1.59-.6s-1.23.2-1.64.61-.61.94-.61,1.61Z"/>
    <path class="cls-1" d="M181.9,18l3.45-.38c.08.7.3,1.22.66,1.56.36.34.83.51,1.41.51.74,0,1.36-.34,1.88-1.02.52-.68.85-2.08.99-4.21-.9,1.04-2.02,1.56-3.36,1.56-1.46,0-2.73-.56-3.79-1.69s-1.59-2.6-1.59-4.41.56-3.41,1.68-4.56,2.55-1.73,4.28-1.73c1.89,0,3.44.73,4.65,2.19s1.82,3.86,1.82,7.2-.63,5.86-1.89,7.36c-1.26,1.51-2.9,2.26-4.93,2.26-1.46,0-2.63-.39-3.53-1.16s-1.47-1.93-1.73-3.47ZM189.97,10.21c0-1.15-.26-2.04-.79-2.68s-1.14-.95-1.83-.95-1.21.26-1.64.78-.65,1.37-.65,2.56.24,2.08.71,2.65c.47.56,1.07.84,1.78.84s1.26-.27,1.73-.81c.47-.54.7-1.34.7-2.39Z"/>
    <g>
      <path class="cls-1" d="M183.64,480.76h-3.57v-13.44c-1.3,1.22-2.84,2.12-4.61,2.7v-3.24c.93-.3,1.94-.88,3.03-1.73s1.84-1.84,2.25-2.98h2.89v18.69Z"/>
      <path class="cls-1" d="M196.66,480.76h-3.57v-13.44c-1.3,1.22-2.84,2.12-4.61,2.7v-3.24c.93-.3,1.94-.88,3.03-1.73s1.84-1.84,2.25-2.98h2.89v18.69Z"/>
    </g>
    <g>
      <path class="cls-1" d="M212.7,480.76h-3.57v-13.44c-1.3,1.22-2.84,2.12-4.61,2.7v-3.24c.93-.3,1.94-.88,3.03-1.73s1.84-1.84,2.25-2.98h2.89v18.69Z"/>
      <path class="cls-1" d="M230.08,477.45v3.31h-12.5c.14-1.25.54-2.44,1.22-3.56.68-1.12,2.01-2.61,4.01-4.46,1.61-1.5,2.59-2.51,2.96-3.05.49-.74.74-1.46.74-2.18,0-.8-.21-1.41-.64-1.83-.43-.43-1.02-.64-1.77-.64s-1.34.22-1.78.67c-.44.45-.69,1.19-.76,2.23l-3.55-.36c.21-1.96.88-3.37,1.99-4.23,1.12-.85,2.51-1.28,4.19-1.28,1.84,0,3.28.5,4.33,1.49s1.57,2.22,1.57,3.69c0,.84-.15,1.64-.45,2.39-.3.76-.78,1.55-1.43,2.38-.43.55-1.21,1.34-2.34,2.37-1.13,1.03-1.84,1.72-2.14,2.06-.3.34-.54.67-.73.99h7.08Z"/>
    </g>
    <g>
      <path class="cls-1" d="M147.86,480.76h-3.57v-13.44c-1.3,1.22-2.84,2.12-4.61,2.7v-3.24c.93-.3,1.94-.88,3.03-1.73s1.84-1.84,2.25-2.98h2.89v18.69Z"/>
      <path class="cls-1" d="M160.18,480.76v-3.75h-7.62v-3.12l8.07-11.82h3v11.81h2.31v3.14h-2.31v3.75h-3.45ZM160.18,473.88v-6.36l-4.28,6.36h4.28Z"/>
    </g>
  </g>
</svg>