<?xml version="1.0" encoding="UTF-8"?>
<svg xmlns="http://www.w3.org/2000/svg" viewBox="0 0 518.47 558.88">
  <defs>
    <style>
      .cls-1 {
        fill: #00ff30;
      }

      .cls-1, .cls-2 {
        stroke-width: 0px;
      }

      .cls-2 {
        fill: red;
      }

      .cls-3 {
        fill: none;
        stroke: #000;
        stroke-linecap: round;
        stroke-linejoin: round;
      }
    </style>
  </defs>
  <g id="_图层_3" data-name="图层 3">
    <polygon class="cls-1" points="310.7 361.27 312.02 359.92 314 359.83 315.3 360.82 315.6 361.6 315.54 362.1 312.54 362.43 311.08 361.92 310.7 361.27"/>
    <polygon class="cls-1" points="327.38 358.24 328.71 356.89 330.69 356.8 331.99 357.79 332.29 358.57 332.22 359.07 329.23 359.4 327.77 358.89 327.38 358.24"/>
    <polygon class="cls-1" points="343.8 354.93 345.13 353.58 347.11 353.48 348.4 354.47 348.71 355.26 348.64 355.76 345.65 356.09 344.18 355.58 343.8 354.93"/>
    <polygon class="cls-2" points="358.96 351.91 360.28 350.56 362.26 350.47 363.56 351.46 363.86 352.24 363.8 352.74 360.8 353.07 359.34 352.56 358.96 351.91"/>
  </g>
  <g id="Make2D::可见线::正切线">
    <path class="cls-3" d="M427.81,425.2c-.26-.33-.44-.71-.48-1.13"/>
    <path class="cls-3" d="M431.12,466.92c.07.92-.39,1.83-.98,2.47-.6.66-1.43,1.17-2.32,1.37"/>
    <path class="cls-3" d="M427.82,470.76c-.17-.21-.37-.43-.59-.59-.22-.16-.5-.28-.79-.22"/>
    <path class="cls-3" d="M317.84,493.72c.26.18.5.47.67.72"/>
    <path class="cls-3" d="M328.05,442.4c.05-1.89-.45-4.3-1.22-6.02"/>
    <path class="cls-3" d="M312.5,495.34c-.87.09-1.79.04-2.64-.12"/>
    <path class="cls-3" d="M317.28,493.58c.2-.04.4.04.55.14"/>
    <path class="cls-3" d="M427.32,424s0,0,0,0"/>
    <path class="cls-3" d="M427.4,424.08c.25.33.38.71.41,1.12"/>
    <line class="cls-3" x1="427.81" y1="425.2" x2="431.12" y2="466.92"/>
    <path class="cls-3" d="M317.84,493.72c-.69.15-1.46.13-2.12-.17"/>
    <line class="cls-3" x1="427.82" y1="470.76" x2="318.51" y2="494.44"/>
    <path class="cls-3" d="M318.51,494.44c.45.66.81,1.52,1.05,2.26.27.79.46,1.6.6,2.43.14.8.22,1.68.2,2.49-.01.41-.05.84-.15,1.24-.06.23-.15.49-.29.69-.1.13-.22.25-.39.29"/>
    <path class="cls-3" d="M327.13,444.81c.45-.09.66-.71.75-1.06.11-.43.15-.91.17-1.35"/>
    <path class="cls-3" d="M437.8,423.3c.04.52-.14,1-.44,1.41-.29.41-.69.74-1.11,1.01-.84.53-1.86.85-2.83.99-.98.14-2.03.12-3-.09-.92-.2-1.98-.63-2.61-1.41"/>
    <path class="cls-3" d="M322.96,448.59c-.13.79-.86,1.28-1.51,1.55-.68.29-1.47.41-2.2.45-1.46.07-3.07-.23-4.4-.84"/>
    <path class="cls-3" d="M428.7,480.02c.18-.04.32-.14.44-.27.16-.18.27-.41.35-.63.14-.39.2-.82.23-1.23.06-.81,0-1.69-.13-2.49-.13-.83-.34-1.63-.62-2.42-.27-.74-.65-1.58-1.14-2.21"/>
    <line class="cls-3" x1="273.1" y1="322.09" x2="273.12" y2="320.6"/>
    <line class="cls-3" x1="367.93" y1="302.86" x2="367.87" y2="304.33"/>
    <line class="cls-3" x1="261.98" y1="317.99" x2="261.97" y2="319.47"/>
    <line class="cls-3" x1="354.42" y1="288.9" x2="263.77" y2="305.62"/>
    <line class="cls-3" x1="295.99" y1="523.21" x2="295.13" y2="521.89"/>
    <line class="cls-3" x1="295.63" y1="521.36" x2="296.49" y2="522.68"/>
    <line class="cls-3" x1="294.01" y1="523.22" x2="293.28" y2="522.09"/>
    <line class="cls-3" x1="295.17" y1="519.74" x2="296.03" y2="521.06"/>
    <line class="cls-3" x1="297.54" y1="436.16" x2="296.65" y2="434.89"/>
    <line class="cls-3" x1="297.16" y1="434.34" x2="298.05" y2="435.61"/>
    <line class="cls-3" x1="295.51" y1="436.14" x2="294.67" y2="434.94"/>
    <line class="cls-3" x1="296.69" y1="432.62" x2="297.58" y2="433.89"/>
    <path class="cls-3" d="M345.5,271.16c-.17-.46-.25-.94-.23-1.42"/>
    <path class="cls-3" d="M340.69,269.92c.1-.44.14-.88.16-1.32"/>
    <path class="cls-3" d="M350.15,264.9c.79-.09,1.61,0,2.35.31.74.31,1.37.83,1.78,1.54"/>
    <path class="cls-3" d="M345.72,271.63c-.09-.15-.16-.3-.22-.47"/>
    <path class="cls-3" d="M232.3,287.55c.07.07.14.14.2.22"/>
    <path class="cls-3" d="M345.92,271.93c-.07-.1-.13-.2-.19-.3"/>
    <path class="cls-3" d="M233.29,288.51c.47-.45,1.23-.69,1.83-.8"/>
    <line class="cls-3" x1="345.27" y1="269.74" x2="358.43" y2="292.99"/>
    <line class="cls-3" x1="235.12" y1="287.71" x2="340.85" y2="268.6"/>
    <path class="cls-3" d="M359,292.83c.25-.94.79-1.77,1.49-2.43.7-.66,1.56-1.15,2.49-1.41.92-.26,1.92-.29,2.85-.02.93.27,1.75.85,2.24,1.7"/>
    <path class="cls-3" d="M340.85,268.6c.04-1.29-.18-2.74-.54-3.97-.18-.62-.43-1.29-.75-1.86-.16-.29-.35-.58-.58-.82-.13-.14-.28-.27-.46-.35-.13-.06-.27-.09-.42-.06"/>
    <path class="cls-3" d="M232.54,280.48c.14-.02.27.02.39.09.17.1.31.26.43.41.21.27.37.56.51.86.28.59.51,1.26.68,1.89.34,1.24.56,2.69.56,3.97"/>
    <line class="cls-3" x1="238.3" y1="323.46" x2="238.3" y2="325.47"/>
    <line class="cls-3" x1="237.63" y1="325.31" x2="237.63" y2="323.3"/>
    <line class="cls-3" x1="235.82" y1="324.79" x2="235.82" y2="323.92"/>
    <line class="cls-3" x1="238.53" y1="324.56" x2="238.53" y2="326.01"/>
    <line class="cls-3" x1="71.39" y1="61.14" x2="71.31" y2="59.64"/>
    <path class="cls-3" d="M226.91,287.68c.79-.56,1.73-.95,2.7-1.02.97-.07,1.97.19,2.69.89"/>
    <line class="cls-3" x1="264.85" y1="308.56" x2="261.93" y2="309.1"/>
    <path class="cls-3" d="M358.31,293.1c.18.05.34.16.47.27"/>
    <line class="cls-3" x1="266.17" y1="310.33" x2="266.18" y2="308.85"/>
    <line class="cls-3" x1="173.55" y1="40.3" x2="173.56" y2="40.79"/>
    <line class="cls-3" x1="176.23" y1="42.16" x2="176.24" y2="42.31"/>
    <line class="cls-3" x1="175.59" y1="41.49" x2="175.57" y2="40.67"/>
    <line class="cls-3" x1="62.97" y1="89.82" x2="63.04" y2="91.1"/>
    <line class="cls-3" x1="41.35" y1="60.3" x2="41.28" y2="59.05"/>
    <line class="cls-3" x1="190.32" y1="67.61" x2="190.29" y2="65.73"/>
    <line class="cls-3" x1="173.07" y1="38.63" x2="173.03" y2="38.49"/>
    <line class="cls-3" x1="175.47" y1="41.51" x2="175.44" y2="40.04"/>
    <line class="cls-3" x1="174.94" y1="39.95" x2="174.97" y2="41.46"/>
    <line class="cls-3" x1="195.44" y1="277.73" x2="195.46" y2="279.18"/>
    <line class="cls-3" x1="229.19" y1="325.59" x2="229.19" y2="327.08"/>
    <line class="cls-3" x1="240.3" y1="328.23" x2="240.3" y2="329.73"/>
    <line class="cls-3" x1="399.36" y1="298.43" x2="399.29" y2="299.9"/>
    <line class="cls-3" x1="377.67" y1="292.1" x2="377.78" y2="289.52"/>
    <line class="cls-3" x1="204.24" y1="275.77" x2="204.26" y2="277.72"/>
    <line class="cls-3" x1="203.63" y1="277.58" x2="203.6" y2="275.62"/>
    <line class="cls-3" x1="201.86" y1="276.98" x2="201.85" y2="276.19"/>
    <line class="cls-3" x1="204.43" y1="276.78" x2="204.45" y2="278.1"/>
    <line class="cls-3" x1="287.76" y1="435.97" x2="288.41" y2="436.92"/>
    <line class="cls-3" x1="287.11" y1="524.1" x2="286.48" y2="523.11"/>
    <line class="cls-3" x1="200.62" y1="69.41" x2="200.63" y2="70.95"/>
    <line class="cls-3" x1="201.15" y1="71.08" x2="201.13" y2="69.5"/>
    <line class="cls-3" x1="199.19" y1="69.79" x2="199.19" y2="70.31"/>
    <line class="cls-3" x1="460.37" y1="394.18" x2="459.61" y2="393.29"/>
    <line class="cls-3" x1="296.92" y1="427.7" x2="296.26" y2="426.76"/>
    <line class="cls-3" x1="442.88" y1="412.89" x2="446.68" y2="417.49"/>
    <line class="cls-3" x1="454.54" y1="488.25" x2="453.55" y2="487"/>
    <line class="cls-3" x1="454.04" y1="486.48" x2="455.03" y2="487.73"/>
    <line class="cls-3" x1="452.68" y1="488.25" x2="451.84" y2="487.18"/>
    <line class="cls-3" x1="453.7" y1="484.88" x2="454.69" y2="486.14"/>
    <line class="cls-3" x1="453.42" y1="492.55" x2="453.52" y2="492.91"/>
    <path class="cls-3" d="M361.22,350.9c.7-.14,1.5,0,1.99.61"/>
    <path class="cls-3" d="M361.22,350.9c-.95.19-1.83.86-2.26,1.73"/>
    <path class="cls-3" d="M346.25,353.82c.72-.14,1.53,0,2.02.62"/>
    <path class="cls-3" d="M346.25,353.82c-.96.19-1.84.87-2.27,1.74"/>
    <path class="cls-3" d="M329.84,357.01c.73-.14,1.56,0,2.05.64"/>
    <path class="cls-3" d="M329.84,357.01c-.96.19-1.85.87-2.28,1.76"/>
    <path class="cls-3" d="M313.33,360.23c.37-.07.77-.07,1.14.03.37.11.7.31.94.63"/>
    <path class="cls-3" d="M313.33,360.23c-.97.19-1.87.88-2.29,1.77"/>
    <line class="cls-3" x1="454.06" y1="481.91" x2="454.29" y2="481.78"/>
    <line class="cls-3" x1="454.06" y1="481.91" x2="454.26" y2="482.16"/>
    <line class="cls-3" x1="201.18" y1="273.51" x2="201.13" y2="273.28"/>
    <line class="cls-3" x1="205.33" y1="279.41" x2="205.33" y2="279.18"/>
    <path class="cls-3" d="M315.76,441.7c1.17-1.51,2.61-2.82,4.19-3.89"/>
    <line class="cls-3" x1="296.71" y1="429.36" x2="296.89" y2="429.61"/>
    <line class="cls-3" x1="265.81" y1="309.85" x2="261.92" y2="310.57"/>
    <line class="cls-3" x1="239.54" y1="327.43" x2="239.54" y2="327.17"/>
    <line class="cls-3" x1="161.54" y1="46.95" x2="161.49" y2="44.92"/>
    <line class="cls-3" x1="355.5" y1="268.86" x2="355.89" y2="257.5"/>
    <line class="cls-3" x1="235.04" y1="321.01" x2="234.97" y2="320.76"/>
    <line class="cls-3" x1="440.98" y1="466.41" x2="447.86" y2="475.11"/>
    <line class="cls-3" x1="295.07" y1="527.57" x2="295.16" y2="527.93"/>
    <line class="cls-3" x1="295.18" y1="516.77" x2="295.36" y2="516.65"/>
    <line class="cls-3" x1="296.59" y1="440.76" x2="296.69" y2="441.15"/>
    <line class="cls-3" x1="296.71" y1="429.36" x2="296.9" y2="429.2"/>
    <line class="cls-3" x1="435.28" y1="476.84" x2="440.43" y2="483.44"/>
    <path class="cls-3" d="M440.96,465.03c.04.52-.13.99-.42,1.41-.28.41-.67.75-1.08,1.02-.83.54-1.84.86-2.8,1-.98.14-2.02.12-2.98-.11-.91-.21-1.95-.66-2.57-1.44"/>
    <line class="cls-3" x1="78.35" y1="57.51" x2="78.41" y2="58.76"/>
    <line class="cls-3" x1="295.18" y1="516.77" x2="295.36" y2="517.03"/>
    <path class="cls-3" d="M235.12,287.71c0,.61-.05,1.63-.37,2.21"/>
    <path class="cls-3" d="M340.69,269.92c.83-.15,1.76-.14,2.59.03.43.09.84.21,1.24.4.36.17.78.45.99.82"/>
    <path class="cls-3" d="M345.27,269.74c.04-1.27.68-2.43,1.57-3.28.9-.85,2.08-1.42,3.31-1.56"/>
    <path class="cls-3" d="M339.83,271.19c.28-.05.47-.29.59-.51.13-.24.21-.49.27-.76"/>
    <line class="cls-3" x1="345.86" y1="261.61" x2="346.07" y2="255.13"/>
    <path class="cls-3" d="M155.79,56.16c-.03.25-.07.5-.14.75-.06.19-.19.53-.43.59"/>
    <path class="cls-3" d="M155.83,55c0,.39,0,.78-.04,1.17"/>
    <path class="cls-3" d="M155.79,56.16c.58-.08,1.22-.09,1.8-.02.51.06,1.27.22,1.7.57"/>
    <path class="cls-3" d="M159.05,55.5c.01.41.09.83.24,1.21"/>
    <path class="cls-3" d="M78,79.89c-.63.06-1.24.25-1.79.57"/>
    <path class="cls-3" d="M154.03,49.56c.2-.03.38.15.48.27"/>
    <path class="cls-3" d="M75.87,67.03c-.04-.3-.11-.58-.22-.85"/>
    <path class="cls-3" d="M75.93,66.88c.13-.23.42-.4.65-.5.26-.12.52-.19.79-.25"/>
    <line class="cls-3" x1="77.37" y1="66.12" x2="81.16" y2="65.58"/>
    <path class="cls-3" d="M154.52,49.84c.49.58.83,1.8.98,2.49.19.85.31,1.8.33,2.67"/>
    <path class="cls-3" d="M75.65,66.18c-.55-1.38-1.89-2.21-3.33-2.29-1.43-.08-2.85.58-3.7,1.75"/>
    <path class="cls-3" d="M182.5,65.8c-.74-.6-1.69-.76-2.59-.58"/>
    <path class="cls-3" d="M86.22,81.56c.19-.03.36.18.45.29.11.15.2.31.28.48.16.34.29.69.4,1.04"/>
    <line class="cls-3" x1="326.56" y1="450.81" x2="325.89" y2="449.87"/>
    <line class="cls-3" x1="328.73" y1="447.78" x2="331.55" y2="447.19"/>
    <line class="cls-3" x1="329.4" y1="448.72" x2="331.42" y2="448.3"/>
    <line class="cls-3" x1="428.04" y1="400.81" x2="428.78" y2="401.71"/>
    <line class="cls-3" x1="331.34" y1="421.71" x2="330.66" y2="420.78"/>
    <line class="cls-3" x1="322.83" y1="430.89" x2="322.15" y2="429.96"/>
    <line class="cls-3" x1="69.97" y1="88.36" x2="70.06" y2="90.08"/>
    <line class="cls-3" x1="332.39" y1="442.19" x2="331.72" y2="441.25"/>
    <path class="cls-3" d="M431.12,466.92c-.26-.33-.44-.72-.47-1.15"/>
    <line class="cls-3" x1="332.22" y1="448.08" x2="425.61" y2="428.51"/>
    <line class="cls-3" x1="46.61" y1="58.06" x2="46.64" y2="58.55"/>
    <line class="cls-3" x1="49.07" y1="59.99" x2="49.08" y2="60.14"/>
    <line class="cls-3" x1="48.67" y1="59.27" x2="48.62" y2="58.44"/>
    <line class="cls-3" x1="68.46" y1="88.76" x2="68.49" y2="89.29"/>
    <line class="cls-3" x1="71.06" y1="90.83" x2="71.06" y2="90.99"/>
    <line class="cls-3" x1="70.59" y1="90.06" x2="70.55" y2="89.17"/>
    <line class="cls-3" x1="70.57" y1="90.06" x2="70.49" y2="88.46"/>
    <line class="cls-3" x1="91.31" y1="75.83" x2="91.25" y2="74.59"/>
    <line class="cls-3" x1="152.24" y1="65.84" x2="152.27" y2="67.08"/>
    <line class="cls-3" x1="82.91" y1="72.98" x2="82.96" y2="74.23"/>
    <line class="cls-3" x1="156.05" y1="43.91" x2="156.08" y2="45.14"/>
    <line class="cls-3" x1="48.08" y1="57.69" x2="48.18" y2="59.34"/>
    <line class="cls-3" x1="48.61" y1="58.37" x2="48.58" y2="57.78"/>
    <line class="cls-3" x1="70.13" y1="57.19" x2="70.07" y2="55.95"/>
    <line class="cls-3" x1="67.38" y1="55.4" x2="67.32" y2="54.16"/>
    <line class="cls-3" x1="156.52" y1="62.46" x2="82.91" y2="72.98"/>
    <line class="cls-3" x1="81.61" y1="67.73" x2="155.2" y2="57.28"/>
    <line class="cls-3" x1="81.56" y1="66.49" x2="155.17" y2="56.04"/>
    <line class="cls-3" x1="153.42" y1="49.14" x2="79.83" y2="59.5"/>
    <line class="cls-3" x1="396.77" y1="293.9" x2="396.68" y2="295.87"/>
    <line class="cls-3" x1="396.02" y1="295.55" x2="396.11" y2="293.75"/>
    <line class="cls-3" x1="394.39" y1="295.19" x2="394.43" y2="294.34"/>
    <line class="cls-3" x1="397.15" y1="294.95" x2="397.08" y2="296.37"/>
    <line class="cls-3" x1="155.12" y1="55.1" x2="155.83" y2="55"/>
    <line class="cls-3" x1="385.26" y1="344.79" x2="385.2" y2="350.27"/>
    <path class="cls-3" d="M81.44,81.25c-.84-1.02-2.16-1.48-3.44-1.36"/>
    <line class="cls-3" x1="202.01" y1="71.78" x2="202.02" y2="71.93"/>
    <path class="cls-3" d="M165.12,51.66c-.58-.48-1.31-.68-2.05-.65-.74.04-1.45.31-2.05.73-1.19.83-2.01,2.27-1.97,3.75"/>
    <line class="cls-3" x1="201.3" y1="71.06" x2="201.29" y2="70.18"/>
    <line class="cls-3" x1="357.23" y1="248.54" x2="357.16" y2="250.47"/>
    <line class="cls-3" x1="356.53" y1="250.16" x2="356.59" y2="248.4"/>
    <path class="cls-3" d="M179.91,65.22c-.81.16-1.55.59-2.14,1.16-.59.57-1.03,1.3-1.26,2.08"/>
    <line class="cls-3" x1="354.93" y1="249.72" x2="354.96" y2="248.95"/>
    <line class="cls-3" x1="159.05" y1="55.5" x2="175.14" y2="68.72"/>
    <path class="cls-3" d="M159.29,56.71c.18.46.47.86.86,1.18"/>
    <line class="cls-3" x1="357.55" y1="249.51" x2="357.51" y2="250.81"/>
    <line class="cls-3" x1="460.51" y1="402.51" x2="459.48" y2="401.31"/>
    <line class="cls-3" x1="459.99" y1="400.77" x2="461.01" y2="401.98"/>
    <line class="cls-3" x1="458.6" y1="402.47" x2="457.64" y2="401.34"/>
    <line class="cls-3" x1="459.64" y1="399.07" x2="460.66" y2="400.28"/>
    <line class="cls-3" x1="329.38" y1="450.22" x2="326.56" y2="450.81"/>
    <line class="cls-3" x1="161.61" y1="49.96" x2="161.57" y2="48.43"/>
    <line class="cls-3" x1="68.18" y1="86.89" x2="68.14" y2="86.74"/>
    <line class="cls-3" x1="46.38" y1="56.31" x2="46.35" y2="56.17"/>
    <line class="cls-3" x1="393.24" y1="291.57" x2="393.18" y2="291.34"/>
    <line class="cls-3" x1="353.92" y1="246.4" x2="353.86" y2="246.18"/>
    <line class="cls-3" x1="459.34" y1="407.04" x2="459.45" y2="407.42"/>
    <line class="cls-3" x1="460.03" y1="395.82" x2="460.26" y2="395.66"/>
    <path class="cls-3" d="M431.47,414.77c1.56.5,2.97,1.38,4.02,2.67"/>
    <line class="cls-3" x1="198.64" y1="68" x2="198.6" y2="67.85"/>
    <path class="cls-3" d="M176.69,70.45c-.12-.36-.26-.71-.44-1.05-.09-.17-.19-.33-.32-.47-.11-.12-.29-.28-.49-.25"/>
    <line class="cls-3" x1="398.47" y1="297.68" x2="398.48" y2="297.42"/>
    <line class="cls-3" x1="358.74" y1="252.02" x2="358.75" y2="251.79"/>
    <line class="cls-3" x1="460.03" y1="395.82" x2="460.24" y2="396.06"/>
    <path class="cls-3" d="M315.73,493.31c-.11.71-.7,1.2-1.28,1.49-.6.31-1.3.47-1.96.54"/>
    <path class="cls-3" d="M248.85,311.72c.79-1.02,1.91-1.84,3.16-2.21.62-.18,1.29-.25,1.94-.15.65.1,1.26.38,1.74.84"/>
    <line class="cls-3" x1="168.82" y1="46.12" x2="169.01" y2="54.82"/>
    <line class="cls-3" x1="202.58" y1="72.43" x2="202.59" y2="73.69"/>
    <line class="cls-3" x1="71.6" y1="92.78" x2="71.54" y2="91.51"/>
    <line class="cls-3" x1="220.15" y1="280.28" x2="220.14" y2="277.64"/>
  </g>
  <g id="Make2D::可见线::曲线">
    <path class="cls-3" d="M353.86,246.18c1.95-.35,4.27-.22,6.15.43.87.3,2,.84,2.56,1.68.3.45.4.96.21,1.48-.18.49-.59.88-1,1.16"/>
    <path class="cls-3" d="M239.7,327.4c-1.33.25-2.75.28-4.08.11-1.28-.17-2.75-.56-3.85-1.31"/>
    <path class="cls-3" d="M398.67,297.64c-1.41.26-2.94.27-4.35.05-1.34-.2-2.93-.67-4.04-1.54"/>
    <path class="cls-3" d="M393.18,291.34c2.09-.39,4.62-.22,6.62.54.93.35,2.13.99,2.65,1.96.28.52.32,1.07.06,1.62-.24.51-.69.91-1.14,1.2"/>
    <line class="cls-3" x1="259.56" y1="315.26" x2="254.13" y2="316.27"/>
    <line class="cls-3" x1="373.62" y1="294.06" x2="370.09" y2="294.72"/>
    <path class="cls-3" d="M358.92,251.99c-1.35.24-2.81.25-4.17.05-1.27-.19-2.83-.62-3.88-1.45"/>
    <path class="cls-3" d="M52.67,58.83c-.44.41-1.11.7-1.66.88-.6.2-1.21.33-1.84.42"/>
    <path class="cls-3" d="M205.26,70.77c-.79.67-2.17,1-3.13,1.14"/>
    <path class="cls-3" d="M74.67,89.65c-.45.41-1.1.7-1.67.89-.61.21-1.22.34-1.85.43"/>
    <path class="cls-3" d="M42.94,59.24c-.4-.3-.7-.74-.47-1.27.19-.44.68-.77,1.07-.98.83-.44,1.9-.7,2.81-.82"/>
    <path class="cls-3" d="M195.48,70.86c-.35-.29-.66-.71-.5-1.21.14-.44.59-.77.95-.98.77-.44,1.8-.69,2.66-.82"/>
    <path class="cls-3" d="M64.72,90.04c-.41-.31-.75-.76-.57-1.32.16-.48.66-.85,1.06-1.08.86-.49,1.98-.77,2.93-.9"/>
    <path class="cls-3" d="M207.14,69.83c0,.49-.32.89-.66,1.18-.35.29-.79.53-1.2.71-.84.36-1.8.58-2.7.71"/>
    <path class="cls-3" d="M205.48,279.39c-1.28.23-2.65.26-3.94.1-1.22-.15-2.67-.53-3.71-1.26"/>
    <path class="cls-3" d="M378.19,290.83c-.04,1.06-.96,1.82-1.75,2.27-.85.48-1.87.79-2.82.96"/>
    <path class="cls-3" d="M71.16,90.97c-1.08.16-2.23.18-3.31.07-.96-.1-2.31-.38-3.13-1"/>
    <path class="cls-3" d="M68.14,86.74c1.42-.21,3.06-.19,4.47.13.67.15,1.5.42,2.05.88.72.59.69,1.3.01,1.91"/>
    <path class="cls-3" d="M202.14,71.92c-1.11.16-2.32.18-3.43.04-.57-.07-1.13-.18-1.68-.34-.51-.16-1.11-.4-1.54-.75"/>
    <path class="cls-3" d="M198.6,67.85c1.44-.21,3.1-.18,4.52.15.68.15,1.51.43,2.08.87.74.58.79,1.28.07,1.9"/>
    <path class="cls-3" d="M49.17,60.13c-1.04.15-2.16.17-3.2.06-.92-.1-2.24-.35-3.03-.95"/>
    <path class="cls-3" d="M46.35,56.17c1.35-.19,2.9-.18,4.24.1.64.13,1.42.37,1.97.78.7.52.78,1.18.12,1.78"/>
    <path class="cls-3" d="M176.35,42.3c-1.07.15-2.23.16-3.31.04-.55-.06-1.09-.16-1.63-.32-.49-.15-1.08-.38-1.49-.71"/>
    <path class="cls-3" d="M41.28,59.05c-.13-.18-.22-.39-.23-.62"/>
    <path class="cls-3" d="M71.54,91.51c-1.46.21-3.04.23-4.5.04-.73-.1-1.5-.26-2.2-.51-.63-.23-1.45-.62-1.87-1.21"/>
    <line class="cls-3" x1="71.54" y1="91.51" x2="202.58" y2="72.43"/>
    <path class="cls-3" d="M168.82,46.12c-.45-.41-1.12-.69-1.68-.86-.61-.19-1.23-.31-1.86-.38-1.23-.15-2.56-.13-3.79.04"/>
    <path class="cls-3" d="M361.78,250.94c-.82.56-1.9.89-2.85,1.06"/>
    <path class="cls-3" d="M186.66,69.01c.81-.12,1.68-.32,2.44-.64.38-.16.77-.37,1.09-.64.31-.26.61-.62.6-1.07"/>
    <line class="cls-3" x1="79.7" y1="84.49" x2="186.66" y2="69.01"/>
    <path class="cls-3" d="M71.92,82.81c.3.6,1.08.99,1.64,1.2.63.24,1.34.4,2.01.5,1.34.19,2.8.18,4.14-.02"/>
    <line class="cls-3" x1="173.93" y1="40.74" x2="172.01" y2="41.01"/>
    <line class="cls-3" x1="175.07" y1="41.56" x2="174.43" y2="40.83"/>
    <line class="cls-3" x1="176.21" y1="41.4" x2="175.07" y2="41.56"/>
    <line class="cls-3" x1="177.74" y1="40.21" x2="175.82" y2="40.48"/>
    <path class="cls-3" d="M173.15,38.62c-.65.09-1.35.25-1.97.5-.3.12-.63.29-.88.5-.25.2-.5.49-.49.85"/>
    <path class="cls-3" d="M364.51,351.87c-.28.59-1.05.92-1.61,1.07-.63.17-1.32.22-1.97.18-.64-.04-1.33-.19-1.92-.46-.29-.14-.59-.32-.82-.55-.23-.23-.41-.53-.4-.88"/>
    <path class="cls-3" d="M316.64,361.2c-.3.58-1.06.92-1.61,1.08-.63.18-1.32.24-1.97.2-.64-.04-1.34-.17-1.93-.45-.3-.13-.59-.31-.83-.55-.23-.23-.41-.53-.41-.88"/>
    <path class="cls-3" d="M333.14,357.99c-.29.59-1.06.92-1.61,1.07-.63.18-1.32.23-1.97.19-.64-.04-1.33-.18-1.93-.45-.3-.14-.59-.31-.82-.55-.23-.23-.41-.53-.4-.88"/>
    <path class="cls-3" d="M349.55,354.79c-.29.59-1.05.92-1.61,1.07-.63.17-1.32.23-1.97.19-.64-.04-1.33-.18-1.92-.46-.3-.14-.59-.32-.82-.55-.23-.23-.41-.53-.4-.88"/>
    <line class="cls-3" x1="152.63" y1="48.21" x2="168.62" y2="45.96"/>
    <line class="cls-3" x1="78.34" y1="84.62" x2="67.03" y2="62.52"/>
    <path class="cls-3" d="M220.14,280.26c-.37-.4-.64-.91-.65-1.48"/>
    <line class="cls-3" x1="250.23" y1="313.24" x2="220.14" y2="280.26"/>
    <path class="cls-3" d="M259.56,315.34c-1.6.25-3.33.24-4.92-.06-.8-.15-1.62-.37-2.37-.69-.73-.31-1.5-.75-2.04-1.36"/>
    <line class="cls-3" x1="168.85" y1="47.41" x2="153.7" y2="49.54"/>
    <path class="cls-3" d="M230.88,324.09c0-.49.21-.92.51-1.29.3-.36.69-.66,1.09-.89.8-.47,1.76-.76,2.65-.93"/>
    <line class="cls-3" x1="237.94" y1="326.12" x2="239.44" y2="325.84"/>
    <line class="cls-3" x1="238.84" y1="324.22" x2="241.34" y2="323.75"/>
    <path class="cls-3" d="M338.11,261.53c2.88-.52,6.08-.4,8.91.34,1.44.38,2.86.93,4.13,1.73,1.27.79,2.38,1.83,3.14,3.15"/>
    <line class="cls-3" x1="232.3" y1="287.55" x2="255.69" y2="310.21"/>
    <path class="cls-3" d="M358.21,293.04c.26-.05.51-.12.75-.2.12-.04.25-.09.37-.14.06-.03.12-.05.18-.08.04-.02.09-.05.13-.07.01,0,.02-.01.03-.02,0,0,0,0,0,0,0,0,0,0,0,0"/>
    <path class="cls-3" d="M255.7,310.22s0,0-.01-.01"/>
    <line class="cls-3" x1="261.03" y1="311.04" x2="266.01" y2="310.12"/>
    <path class="cls-3" d="M401.37,296.65c-.8.51-1.79.82-2.7.99"/>
    <path class="cls-3" d="M261.81,311.69c-.09-.15-.19-.29-.32-.42-.11-.11-.28-.25-.46-.23"/>
    <path class="cls-3" d="M296.89,429.61c.97-.2,2-.21,2.96.06.97.27,1.83.82,2.42,1.66"/>
    <line class="cls-3" x1="300.65" y1="433.71" x2="298.08" y2="434.24"/>
    <line class="cls-3" x1="295.53" y1="434.76" x2="292.95" y2="435.3"/>
    <path class="cls-3" d="M296.69,440.74c-.98.2-2.01.21-2.99-.06-.97-.28-1.84-.83-2.43-1.68"/>
    <path class="cls-3" d="M298.08,434.24c-.15.03-.34,0-.43-.14"/>
    <path class="cls-3" d="M289.8,525.85c-.56-.87-.7-1.89-.55-2.88.15-.99.6-1.93,1.18-2.73,1.17-1.59,2.99-2.79,4.92-3.21"/>
    <path class="cls-3" d="M295.36,517.03c.96-.21,1.99-.24,2.95.02.96.26,1.83.8,2.39,1.66"/>
    <line class="cls-3" x1="299.02" y1="520.83" x2="296.51" y2="521.38"/>
    <line class="cls-3" x1="294.04" y1="521.92" x2="291.53" y2="522.48"/>
    <path class="cls-3" d="M295.17,527.55c-.97.21-2,.24-2.97-.02-.97-.26-1.84-.81-2.4-1.68"/>
    <path class="cls-3" d="M266.73,310.4c0,.63-.28,1.2-.68,1.67-.39.47-.9.85-1.42,1.15-1.04.6-2.29.98-3.46,1.2"/>
    <path class="cls-3" d="M261.22,311.07c.08-.43.1-.87.11-1.31"/>
    <line class="cls-3" x1="266.62" y1="311.21" x2="266.57" y2="311.23"/>
    <line class="cls-3" x1="259.56" y1="314.71" x2="259.55" y2="316.19"/>
    <path class="cls-3" d="M261.33,308.3c0-.62.05-1.31.18-1.93.06-.31.16-.64.3-.92.13-.26.35-.58.68-.64"/>
    <path class="cls-3" d="M368.14,294.54c-1.89.35-3.98.33-5.86-.01-.95-.17-1.93-.44-2.82-.83-.86-.37-1.79-.92-2.41-1.66"/>
    <line class="cls-3" x1="369.7" y1="294.25" x2="368.14" y2="294.54"/>
    <line class="cls-3" x1="372.38" y1="297.41" x2="369.7" y2="294.25"/>
    <line class="cls-3" x1="266.17" y1="310.33" x2="263.76" y2="307.1"/>
    <path class="cls-3" d="M315.65,493.51s.04.02.06.03"/>
    <path class="cls-3" d="M315.73,493.31c-.01.08-.03.24,0,.32"/>
    <path class="cls-3" d="M440.96,465.03c.13,1.75-.16,3.51-.77,5.15-.61,1.64-1.54,3.16-2.67,4.49-2.26,2.64-5.41,4.6-8.82,5.35"/>
    <path class="cls-3" d="M350.88,250.59c-.45-.35-.89-.85-.97-1.46-.09-.64.25-1.18.68-1.58.85-.78,2.2-1.19,3.27-1.37"/>
    <line class="cls-3" x1="437.8" y1="423.3" x2="440.96" y2="465.03"/>
    <path class="cls-3" d="M427.42,424.1s0,0,0,0c0,0,0,0,0,0,0,0,0,0-.01,0-.02-.01-.05-.02-.07-.03-.03,0-.06-.02-.09-.02-.06-.01-.13-.02-.19-.03-.13-.01-.26-.01-.39,0"/>
    <path class="cls-3" d="M427.36,424.04s.03.04.05.05"/>
    <line class="cls-3" x1="426.79" y1="423.99" x2="425.87" y2="424.18"/>
    <path class="cls-3" d="M427.32,423.97s0,0,0,0c0,0,0,0,0,0,0,0,0,0,0,0,0,0,0,.01.01.02,0,.01.02.02.02.03"/>
    <path class="cls-3" d="M427.33,424.07s0-.06-.01-.09"/>
    <path class="cls-3" d="M390.28,296.16c-.48-.37-.95-.89-1.09-1.52-.15-.67.12-1.27.57-1.74.85-.89,2.3-1.35,3.42-1.56"/>
    <path class="cls-3" d="M317.32,438.35c-.85,1.12-1.49,2.48-1.64,3.9"/>
    <path class="cls-3" d="M202.58,72.43s.04,0,.05-.01"/>
    <line class="cls-3" x1="315.67" y1="442.25" x2="308.7" y2="505.76"/>
    <path class="cls-3" d="M52.79,58.71s0-.02,0-.02"/>
    <path class="cls-3" d="M308.7,505.76c-.13,1.15.08,2.31.74,3.29"/>
    <path class="cls-3" d="M68.28,64.97c.62-1.33,1.73-2.29,2.98-2.97,1.24-.67,2.67-1.1,4.04-1.35"/>
    <path class="cls-3" d="M74.19,84.22c-.03-.05-.05-.11-.07-.16"/>
    <path class="cls-3" d="M72.31,88.73s-.03-.01-.05-.01"/>
    <line class="cls-3" x1="204.74" y1="276.47" x2="207.15" y2="276.04"/>
    <line class="cls-3" x1="79.35" y1="60.01" x2="71.39" y2="61.14"/>
    <line class="cls-3" x1="331.64" y1="443.86" x2="327.13" y2="444.81"/>
    <line class="cls-3" x1="76.88" y1="69.27" x2="81.36" y2="68.63"/>
    <line class="cls-3" x1="155.25" y1="58.12" x2="159.05" y2="57.58"/>
    <line class="cls-3" x1="203.83" y1="278.22" x2="205.27" y2="277.96"/>
    <path class="cls-3" d="M427.9,417.83c.26,1.16.38,2.51.24,3.7"/>
    <path class="cls-3" d="M197.11,276.41c0-.47.21-.89.51-1.23.3-.34.69-.61,1.08-.83.78-.43,1.71-.7,2.58-.86"/>
    <path class="cls-3" d="M439.94,412.91c1.01-.21,2.07-.24,3.08,0,1.01.25,1.93.76,2.61,1.58"/>
    <line class="cls-3" x1="428.04" y1="400.81" x2="460.37" y2="394.18"/>
    <line class="cls-3" x1="440.43" y1="483.44" x2="310.02" y2="512.02"/>
    <line class="cls-3" x1="317" y1="438.42" x2="327" y2="436.34"/>
    <line class="cls-3" x1="431.79" y1="414.6" x2="439.94" y2="412.91"/>
    <path class="cls-3" d="M44.73,58.49s0,0,0,0"/>
    <path class="cls-3" d="M460.37,394.18c1.09-.22,2.25-.25,3.35.01,1.1.26,2.1.82,2.85,1.69"/>
    <line class="cls-3" x1="67.36" y1="52.7" x2="46" y2="55.68"/>
    <line class="cls-3" x1="74.36" y1="57.14" x2="65.34" y2="58.41"/>
    <path class="cls-3" d="M459.45,407.42c-.79.16-1.61.2-2.41.05-.8-.15-1.55-.47-2.17-1.01-.62-.54-1.03-1.25-1.24-2.04-.2-.79-.18-1.61-.02-2.4.34-1.58,1.28-3.02,2.43-4.11,1.16-1.09,2.64-1.93,4.22-2.25"/>
    <path class="cls-3" d="M343.91,354.7c-.23.1-.44.22-.64.39"/>
    <path class="cls-3" d="M327.49,357.9c-.23.11-.45.23-.65.4"/>
    <path class="cls-3" d="M310.99,361.12c-.24.11-.46.24-.65.41"/>
    <path class="cls-3" d="M358.87,351.78c-.23.1-.44.22-.63.38"/>
    <line class="cls-3" x1="199.94" y1="68.63" x2="200.62" y2="69.41"/>
    <path class="cls-3" d="M460.26,395.66c.79-.16,1.61-.2,2.4-.05.8.15,1.55.47,2.16,1.02.62.54,1.03,1.25,1.23,2.04.2.79.18,1.61.02,2.4-.34,1.58-1.27,3.02-2.42,4.11-1.16,1.09-2.64,1.93-4.21,2.26"/>
    <path class="cls-3" d="M418.97,432.79c-.49,1.86-1.64,3.54-3.04,4.81-1.41,1.28-3.18,2.24-5.06,2.64"/>
    <path class="cls-3" d="M76.72,68.66c.23-.05.37-.32.44-.5.08-.22.13-.44.16-.67.06-.44.07-.93.05-1.37"/>
    <line class="cls-3" x1="460.66" y1="400.28" x2="460.82" y2="398.01"/>
    <line class="cls-3" x1="456.15" y1="402.98" x2="458.6" y2="402.47"/>
    <path class="cls-3" d="M287.92,527.06c-.57-.89-.83-1.91-.81-2.96"/>
    <path class="cls-3" d="M458.6,402.47c.13-.03.28,0,.37.1"/>
    <path class="cls-3" d="M453.54,492.52c-.82.18-1.7.22-2.53.02-.83-.19-1.59-.62-2.13-1.31"/>
    <path class="cls-3" d="M464.62,397.08c-.07-.1-.14-.19-.21-.28"/>
    <line class="cls-3" x1="456.36" y1="401.6" x2="456.15" y2="402.98"/>
    <path class="cls-3" d="M464.86,397.33c.73.85.99,1.95.9,3.03-.08,1.08-.5,2.13-1.09,3.03-1.16,1.78-3.1,3.19-5.2,3.62"/>
    <line class="cls-3" x1="464.4" y1="396.8" x2="464.86" y2="397.33"/>
    <path class="cls-3" d="M454.37,405.19c.08.09.15.18.24.26"/>
    <line class="cls-3" x1="454.82" y1="405.73" x2="454.37" y2="405.19"/>
    <path class="cls-3" d="M460.74,400.52c-.06-.07-.08-.15-.07-.24"/>
    <line class="cls-3" x1="460.74" y1="400.52" x2="459.71" y2="399.31"/>
    <path class="cls-3" d="M458.98,402.58c.06.07.08.15.07.24"/>
    <line class="cls-3" x1="459.36" y1="398.31" x2="459.2" y2="400.58"/>
    <line class="cls-3" x1="458.89" y1="405.08" x2="460.35" y2="404.78"/>
    <line class="cls-3" x1="456.25" y1="401.63" x2="456.15" y2="402.98"/>
    <path class="cls-3" d="M459.2,400.58c-.02.26-.26.49-.51.54"/>
    <line class="cls-3" x1="452.77" y1="486.97" x2="450.39" y2="487.5"/>
    <path class="cls-3" d="M460.51,402.51c.02-.26.26-.49.51-.54"/>
    <line class="cls-3" x1="457.5" y1="485.93" x2="455.12" y2="486.45"/>
    <path class="cls-3" d="M355.26,248.74c0,.07-.06.12-.12.14-.06.03-.12.05-.18.06"/>
    <line class="cls-3" x1="358.53" y1="250.63" x2="357.55" y2="249.51"/>
    <line class="cls-3" x1="354.96" y1="248.95" x2="352.66" y2="249.36"/>
    <path class="cls-3" d="M454.75,486.35c-.05-.06-.07-.14-.06-.21"/>
    <line class="cls-3" x1="81.46" y1="81.34" x2="81.41" y2="81.21"/>
    <path class="cls-3" d="M160.15,57.89s.02.02.03.03c0,0,.01,0,.02.01,0,0,0,0,0,0,0,0,0,0,0,0,0,0,0,0,0,0"/>
    <line class="cls-3" x1="350.32" y1="249.75" x2="350.34" y2="248.9"/>
    <line class="cls-3" x1="362.43" y1="249.28" x2="362.4" y2="250.13"/>
    <path class="cls-3" d="M357.52,249.41c0-.07.06-.12.11-.14.06-.03.12-.05.18-.06"/>
    <line class="cls-3" x1="355.26" y1="248.74" x2="355.22" y2="249.67"/>
    <line class="cls-3" x1="352.66" y1="249.36" x2="353.24" y2="250.02"/>
    <line class="cls-3" x1="355.62" y1="247.29" x2="354.25" y2="247.53"/>
    <line class="cls-3" x1="360.11" y1="248.8" x2="359.53" y2="248.13"/>
    <path class="cls-3" d="M354.04,246.38c1.54-.27,3.29-.22,4.81.14.76.18,1.57.46,2.25.88.61.38,1.37,1.03,1.34,1.89"/>
    <path class="cls-3" d="M357.55,249.51s-.04-.06-.04-.1"/>
    <path class="cls-3" d="M355.22,248.65s.04.06.04.09"/>
    <path class="cls-3" d="M357.23,248.54c-.11.02-.22.02-.34,0-.1-.02-.23-.06-.3-.14"/>
    <path class="cls-3" d="M76.72,68.66l-.08.02"/>
    <line class="cls-3" x1="201.29" y1="70.18" x2="201.97" y2="70.96"/>
    <line class="cls-3" x1="201.28" y1="71.06" x2="201.27" y2="70.13"/>
    <line class="cls-3" x1="202.8" y1="69.79" x2="203.1" y2="69.22"/>
    <path class="cls-3" d="M154.03,49.56c1.87-.26,3.9-.26,5.76.02,1.82.28,3.84.87,5.32,2.08"/>
    <path class="cls-3" d="M205.41,69.84c0-.33-.2-.59-.42-.8-.23-.21-.51-.37-.78-.49-.55-.25-1.19-.42-1.78-.52-1.19-.2-2.51-.21-3.7-.04"/>
    <line class="cls-3" x1="205.41" y1="69.84" x2="205.42" y2="70.59"/>
    <line class="cls-3" x1="195.33" y1="70.68" x2="195.32" y2="69.93"/>
    <line class="cls-3" x1="199.46" y1="69.63" x2="199.47" y2="70.27"/>
    <path class="cls-3" d="M201.27,70.13c0-.06.07-.1.11-.11.05-.02.11-.03.16-.04"/>
    <line class="cls-3" x1="203.1" y1="69.22" x2="203.51" y2="69.69"/>
    <line class="cls-3" x1="201.13" y1="69.5" x2="203.1" y2="69.22"/>
    <line class="cls-3" x1="165.12" y1="51.66" x2="182.5" y2="65.8"/>
    <path class="cls-3" d="M201.13,69.5c-.09.01-.18.01-.27,0-.07,0-.19-.04-.25-.1"/>
    <path class="cls-3" d="M199.59,70.25c.09-.01.18-.01.27,0,.07,0,.19.04.25.1"/>
    <path class="cls-3" d="M201.29,70.18s-.02-.03-.02-.05"/>
    <path class="cls-3" d="M175.44,68.68c.34-.05.68-.11,1.01-.2.17-.04.33-.09.49-.15.12-.04.37-.14.47-.21"/>
    <path class="cls-3" d="M385.26,344.79c-.6.12-1.26.11-1.86,0-.54-.11-1.26-.35-1.65-.82"/>
    <path class="cls-3" d="M363.21,351.51c.26.32.44.7.53,1.11"/>
    <path class="cls-3" d="M348.27,354.44c.25.32.42.69.51,1.09"/>
    <path class="cls-3" d="M331.89,357.66c.24.31.41.67.49,1.06"/>
    <path class="cls-3" d="M315.41,360.89c.23.31.39.66.48,1.03"/>
    <path class="cls-3" d="M381.54,343.32c.04-.35.35-.62.62-.78.3-.17.64-.28.97-.34"/>
    <path class="cls-3" d="M386.63,343.02c.13.15.22.33.22.53"/>
    <path class="cls-3" d="M81.46,81.34s-.06-.06-.1-.09c-.02-.01-.03-.03-.05-.04,0,0-.02-.01-.03-.02,0,0-.01,0-.02-.01,0,0,0,0,0,0,0,0,0,0,0,0"/>
    <line class="cls-3" x1="153.73" y1="49.61" x2="154.03" y2="49.56"/>
    <path class="cls-3" d="M394.73,294.12c0,.07-.06.12-.12.15-.06.03-.12.05-.19.06"/>
    <line class="cls-3" x1="398.21" y1="296.16" x2="397.15" y2="294.95"/>
    <line class="cls-3" x1="394.43" y1="294.34" x2="392.04" y2="294.78"/>
    <path class="cls-3" d="M81.26,81.17s0,0,0,0h0s.02.01.03.02c.04.02.08.04.11.05.14.06.29.11.44.15.2.06.41.1.61.14.41.07.83.12,1.25.15.82.05,1.7.01,2.51-.11"/>
    <line class="cls-3" x1="331.72" y1="441.25" x2="331.55" y2="447.14"/>
    <path class="cls-3" d="M324.33,436.5c1.26-.26,2.6-.28,3.86.06,1.26.34,2.4,1.04,3.18,2.12"/>
    <line class="cls-3" x1="389.58" y1="295.08" x2="389.62" y2="294.21"/>
    <line class="cls-3" x1="402.21" y1="294.77" x2="402.17" y2="295.65"/>
    <path class="cls-3" d="M397.11,294.84c0-.07.06-.12.12-.15.06-.03.12-.05.19-.06"/>
    <line class="cls-3" x1="394.73" y1="294.12" x2="394.68" y2="295.13"/>
    <line class="cls-3" x1="392.04" y1="294.78" x2="392.67" y2="295.51"/>
    <line class="cls-3" x1="395.05" y1="292.54" x2="393.63" y2="292.8"/>
    <line class="cls-3" x1="399.79" y1="294.18" x2="399.15" y2="293.45"/>
    <path class="cls-3" d="M393.37,291.55c1.64-.31,3.5-.24,5.12.17.81.21,1.66.53,2.37.99.65.43,1.4,1.15,1.36,2.06"/>
    <path class="cls-3" d="M397.15,294.95s-.05-.06-.04-.11"/>
    <path class="cls-3" d="M394.68,294.01s.05.06.04.11"/>
    <path class="cls-3" d="M396.77,293.9c-.12.02-.23.02-.35,0-.1-.02-.24-.06-.32-.15"/>
    <line class="cls-3" x1="332.39" y1="442.19" x2="332.22" y2="448.08"/>
    <path class="cls-3" d="M67.32,54.16c-.14-.19-.24-.41-.25-.65"/>
    <line class="cls-3" x1="425.61" y1="428.51" x2="425.96" y2="422.67"/>
    <line class="cls-3" x1="157.3" y1="43.73" x2="156.05" y2="43.91"/>
    <path class="cls-3" d="M425.96,422.67c.13-2.21,1.31-4.29,2.79-5.81,1.51-1.55,3.51-2.74,5.65-3.18"/>
    <path class="cls-3" d="M327.54,454.2c-.71-1-1.01-2.18-.98-3.39"/>
    <line class="cls-3" x1="81.56" y1="66.49" x2="81.61" y2="67.73"/>
    <line class="cls-3" x1="424.16" y1="431.7" x2="331" y2="451.27"/>
    <path class="cls-3" d="M82.91,72.98c.42.57,1.22.94,1.83,1.15.68.24,1.42.39,2.14.49,1.42.19,2.96.17,4.38-.03"/>
    <path class="cls-3" d="M152.24,65.84c.9-.13,1.88-.35,2.72-.71.42-.18.86-.41,1.22-.7.34-.28.68-.69.67-1.19"/>
    <path class="cls-3" d="M67.14,54.75c.01.24.11.46.25.65"/>
    <line class="cls-3" x1="67.14" y1="54.75" x2="67.07" y2="53.51"/>
    <path class="cls-3" d="M156.85,63.24c0-.3-.14-.56-.32-.78"/>
    <line class="cls-3" x1="156.85" y1="63.24" x2="156.88" y2="64.47"/>
    <line class="cls-3" x1="68.78" y1="56.13" x2="67.32" y2="54.16"/>
    <path class="cls-3" d="M435.17,403.52c-.76-.92-1.79-1.5-2.93-1.79-1.13-.28-2.33-.25-3.46-.02"/>
    <line class="cls-3" x1="70.07" y1="55.95" x2="68.78" y2="56.13"/>
    <line class="cls-3" x1="68.78" y1="56.13" x2="68.84" y2="57.37"/>
    <path class="cls-3" d="M46.89,57.85s.01.02.01.04"/>
    <path class="cls-3" d="M46.45,56.31c-.72.1-1.5.28-2.18.56-.34.14-.69.32-.98.55-.27.22-.56.55-.53.94"/>
    <line class="cls-3" x1="155.68" y1="41.81" x2="157.3" y2="43.73"/>
    <line class="cls-3" x1="157.33" y1="44.96" x2="157.3" y2="43.73"/>
    <line class="cls-3" x1="71.93" y1="50.81" x2="147.41" y2="40.3"/>
    <line class="cls-3" x1="68.84" y1="57.37" x2="70.13" y2="57.19"/>
    <line class="cls-3" x1="156.08" y1="45.14" x2="157.33" y2="44.96"/>
    <line class="cls-3" x1="68.84" y1="57.37" x2="67.38" y2="55.4"/>
    <line class="cls-3" x1="155.2" y1="57.28" x2="155.17" y2="56.04"/>
    <line class="cls-3" x1="81.18" y1="65.99" x2="81.24" y2="67.23"/>
    <path class="cls-3" d="M82.96,74.23c.42.57,1.22.94,1.83,1.15.68.24,1.42.39,2.13.49,1.42.19,2.96.17,4.38-.03"/>
    <line class="cls-3" x1="50.9" y1="57.96" x2="48.9" y2="58.24"/>
    <path class="cls-3" d="M152.27,67.08c.9-.13,1.88-.35,2.72-.71.42-.18.86-.41,1.22-.71.34-.28.68-.69.67-1.19"/>
    <line class="cls-3" x1="49.17" y1="59.2" x2="47.97" y2="59.37"/>
    <line class="cls-3" x1="91.31" y1="75.83" x2="152.27" y2="67.08"/>
    <line class="cls-3" x1="47.97" y1="59.37" x2="47.43" y2="58.61"/>
    <line class="cls-3" x1="91.25" y1="74.59" x2="152.24" y2="65.84"/>
    <path class="cls-3" d="M68.76,88.58c0,.06-.08.11-.12.13-.06.03-.12.04-.18.05"/>
    <line class="cls-3" x1="70.55" y1="89.17" x2="71.13" y2="89.98"/>
    <line class="cls-3" x1="70.58" y1="90.06" x2="70.53" y2="89.12"/>
    <line class="cls-3" x1="66.75" y1="89.54" x2="66.48" y2="89.16"/>
    <line class="cls-3" x1="44.94" y1="58.79" x2="44.62" y2="58.33"/>
    <line class="cls-3" x1="44.94" y1="58.79" x2="44.62" y2="58.33"/>
    <path class="cls-3" d="M74.81,88.66c-.03-.63-.73-1.05-1.19-1.26-.54-.25-1.17-.4-1.75-.5-1.17-.19-2.46-.18-3.63-.01"/>
    <line class="cls-3" x1="74.81" y1="88.66" x2="74.85" y2="89.42"/>
    <line class="cls-3" x1="64.52" y1="89.82" x2="64.48" y2="89.06"/>
    <line class="cls-3" x1="68.76" y1="88.58" x2="68.8" y2="89.24"/>
    <path class="cls-3" d="M70.53,89.12c0-.06.08-.11.12-.13.06-.03.12-.04.18-.05"/>
    <line class="cls-3" x1="69.39" y1="87.55" x2="69.97" y2="88.36"/>
    <line class="cls-3" x1="72.54" y1="88.16" x2="72.89" y2="88.65"/>
    <line class="cls-3" x1="44.62" y1="58.33" x2="46.61" y2="58.06"/>
    <line class="cls-3" x1="46.89" y1="57.85" x2="46.35" y2="57.09"/>
    <path class="cls-3" d="M68.75,88.54s.01.03.02.04"/>
    <path class="cls-3" d="M68.81,89.24c.09-.01.18-.01.27,0,.07,0,.2.04.24.1"/>
    <path class="cls-3" d="M70.55,89.17s-.01-.03-.02-.04"/>
    <path class="cls-3" d="M46.91,57.89c0,.06-.08.1-.12.12-.06.02-.11.04-.18.05"/>
    <line class="cls-3" x1="47.54" y1="56.93" x2="48.08" y2="57.69"/>
    <line class="cls-3" x1="48.62" y1="58.44" x2="49.17" y2="59.2"/>
    <path class="cls-3" d="M48.62,58.44s-.01-.02-.01-.04"/>
    <line class="cls-3" x1="48.66" y1="59.27" x2="48.61" y2="58.4"/>
    <line class="cls-3" x1="50.3" y1="58.04" x2="50.57" y2="57.5"/>
    <line class="cls-3" x1="47.91" y1="58.99" x2="47.54" y2="56.93"/>
    <path class="cls-3" d="M52.75,57.94c-.03-.6-.73-.99-1.17-1.18-.52-.22-1.12-.37-1.67-.45-1.12-.17-2.35-.16-3.47,0"/>
    <line class="cls-3" x1="52.75" y1="57.94" x2="52.79" y2="58.68"/>
    <line class="cls-3" x1="42.8" y1="59.1" x2="42.76" y2="58.36"/>
    <line class="cls-3" x1="46.91" y1="57.89" x2="46.94" y2="58.51"/>
    <line class="cls-3" x1="50.57" y1="57.5" x2="50.9" y2="57.96"/>
    <line class="cls-3" x1="48.58" y1="57.78" x2="50.57" y2="57.5"/>
    <line class="cls-3" x1="46.35" y1="57.09" x2="47.54" y2="56.93"/>
    <path class="cls-3" d="M48.58,57.78c-.09.01-.17.01-.26,0-.06,0-.19-.03-.23-.1"/>
    <path class="cls-3" d="M49.07,59.99c.72-.1,1.5-.28,2.17-.56.33-.14.69-.32.97-.55.27-.22.56-.55.53-.94"/>
    <path class="cls-3" d="M330.63,449.53c-.27.06-.52-.09-.71-.24-.21-.17-.37-.36-.52-.57"/>
    <path class="cls-3" d="M48.61,58.4c0-.06.08-.1.12-.12.06-.02.11-.04.18-.04"/>
    <path class="cls-3" d="M332.22,448.08c-.02.58-.08,1.22-.22,1.79-.12.46-.4,1.27-1,1.4"/>
    <line class="cls-3" x1="322.83" y1="430.89" x2="322.67" y2="436.85"/>
    <path class="cls-3" d="M326.56,450.81c.01-.43.06-.91.16-1.33.09-.34.29-.95.74-1.05"/>
    <line class="cls-3" x1="328.69" y1="449.24" x2="329.36" y2="450.18"/>
    <line class="cls-3" x1="328.73" y1="447.78" x2="329.4" y2="448.72"/>
    <path class="cls-3" d="M434.78,403.09c-.11-.16-.22-.32-.35-.47"/>
    <path class="cls-3" d="M327.23,453.71c-.13-.14-.25-.29-.36-.45"/>
    <path class="cls-3" d="M42.76,58.36c.03.6.74.99,1.17,1.18.52.22,1.12.37,1.68.45,1.12.17,2.35.16,3.47,0"/>
    <line class="cls-3" x1="434.43" y1="402.62" x2="435.17" y2="403.52"/>
    <path class="cls-3" d="M424.16,431.7c.64-.13.98-.86,1.14-1.37.19-.58.28-1.23.31-1.83"/>
    <path class="cls-3" d="M331.37,438.69c.74,1.03,1.06,2.25,1.02,3.5"/>
    <line class="cls-3" x1="330.69" y1="437.75" x2="331.37" y2="438.69"/>
    <path class="cls-3" d="M327.1,446.7c-.6.13-.87.94-.99,1.39-.14.56-.2,1.2-.22,1.78"/>
    <line class="cls-3" x1="327.1" y1="446.7" x2="331.59" y2="445.76"/>
    <path class="cls-3" d="M327.47,448.43c.26-.06.52.09.71.24.2.17.36.36.51.57"/>
    <path class="cls-3" d="M326.87,453.26c-.71-1-1.01-2.18-.98-3.39"/>
    <line class="cls-3" x1="327.54" y1="454.2" x2="326.87" y2="453.26"/>
    <path class="cls-3" d="M436.36,407.45c.09-1.41-.26-2.82-1.18-3.93"/>
    <line class="cls-3" x1="436" y1="413.34" x2="436.36" y2="407.45"/>
    <line class="cls-3" x1="434.4" y1="413.67" x2="436" y2="413.34"/>
    <path class="cls-3" d="M70.49,88.46c-.09.01-.18.01-.27,0-.07,0-.2-.04-.24-.1"/>
    <line class="cls-3" x1="322.67" y1="436.85" x2="324.33" y2="436.5"/>
    <line class="cls-3" x1="322" y1="435.91" x2="322.67" y2="436.85"/>
    <path class="cls-3" d="M331.34,421.71c-2.18.45-4.23,1.63-5.77,3.22-.77.8-1.44,1.72-1.92,2.73-.48,1-.79,2.1-.82,3.23"/>
    <path class="cls-3" d="M68.24,86.89c-.74.11-1.54.3-2.24.6-.34.15-.71.34-.99.59-.28.24-.55.58-.53.99"/>
    <line class="cls-3" x1="70.49" y1="88.46" x2="72.54" y2="88.16"/>
    <line class="cls-3" x1="72.24" y1="88.74" x2="72.54" y2="88.16"/>
    <line class="cls-3" x1="428.78" y1="401.71" x2="331.34" y2="421.71"/>
    <path class="cls-3" d="M331.72,441.25c.03-1.05-.19-2.09-.71-3.01"/>
    <line class="cls-3" x1="322.15" y1="429.96" x2="322" y2="435.91"/>
    <path class="cls-3" d="M330.66,420.78c-2.18.45-4.23,1.63-5.77,3.22-.77.8-1.44,1.72-1.92,2.73-.48,1-.79,2.1-.82,3.22"/>
    <line class="cls-3" x1="428.04" y1="400.81" x2="330.66" y2="420.78"/>
    <path class="cls-3" d="M328.73,447.78c-.19-.27-.43-.55-.69-.76-.25-.2-.59-.39-.94-.32"/>
    <line class="cls-3" x1="72.89" y1="88.65" x2="70.83" y2="88.95"/>
    <line class="cls-3" x1="71.13" y1="89.98" x2="69.9" y2="90.16"/>
    <line class="cls-3" x1="69.9" y1="90.16" x2="69.32" y2="89.34"/>
    <path class="cls-3" d="M334.5,456.36c-1.25.26-2.58.29-3.82-.05-1.25-.34-2.37-1.03-3.14-2.11"/>
    <line class="cls-3" x1="410.87" y1="440.24" x2="334.5" y2="456.36"/>
    <line class="cls-3" x1="66.75" y1="89.54" x2="66.4" y2="89.05"/>
    <line class="cls-3" x1="66.4" y1="89.05" x2="68.46" y2="88.76"/>
    <line class="cls-3" x1="68.75" y1="88.54" x2="68.17" y2="87.73"/>
    <path class="cls-3" d="M77.37,66.12c-.04-.88-.21-1.85-.44-2.71-.19-.7-.59-1.91-1.11-2.49"/>
    <line class="cls-3" x1="69.77" y1="89.68" x2="69.39" y2="87.55"/>
    <line class="cls-3" x1="68.17" y1="87.73" x2="69.39" y2="87.55"/>
    <path class="cls-3" d="M71.06,90.83c.74-.11,1.54-.3,2.23-.6.34-.15.7-.34.99-.59.28-.24.55-.58.53-.98"/>
    <path class="cls-3" d="M64.48,89.06c.03.63.74,1.05,1.2,1.26.54.25,1.17.4,1.75.5,1.17.19,2.46.18,3.63.01"/>
    <path class="cls-3" d="M76.64,68.67s.04,0,.06,0"/>
    <path class="cls-3" d="M182.5,65.8c1.09.89,1.88,2.09,2.11,3.5"/>
    <path class="cls-3" d="M75.86,67.14c-.02-.34-.08-.65-.21-.97"/>
    <path class="cls-3" d="M82.91,72.98c-.45-.61-.78-1.85-.93-2.55-.19-.86-.32-1.82-.36-2.7"/>
    <path class="cls-3" d="M75.31,60.65s0,0-.01,0"/>
    <line class="cls-3" x1="75.31" y1="60.65" x2="79.39" y2="60.08"/>
    <path class="cls-3" d="M79.89,60.75c.45.6.78,1.85.93,2.54.19.86.32,1.82.36,2.7"/>
    <path class="cls-3" d="M75.82,60.93c-.11-.13-.31-.3-.51-.27"/>
    <path class="cls-3" d="M81.24,67.23c.05,1.18.23,2.45.48,3.6.13.59.28,1.18.48,1.75.17.51.44,1.2.77,1.64"/>
    <path class="cls-3" d="M156.08,45.14c-.79.11-1.63.29-2.39.57-.65.24-1.61.68-2.01,1.35"/>
    <line class="cls-3" x1="78.41" y1="58.76" x2="79.89" y2="60.75"/>
    <path class="cls-3" d="M78.41,58.76c-.42-.56-1.22-.92-1.82-1.13-.67-.23-1.41-.38-2.12-.47-1.41-.18-2.94-.16-4.34.03"/>
    <path class="cls-3" d="M295.36,516.65c1.52-.33,3.28-.24,4.64.69,1.42.98,1.96,2.58,1.7,4.23-.25,1.6-1.19,3.05-2.34,4.12-1.16,1.09-2.64,1.9-4.21,2.25"/>
    <path class="cls-3" d="M295.16,527.93c-1.52.34-3.29.25-4.65-.68-1.43-.98-1.96-2.58-1.71-4.23.25-1.6,1.19-3.06,2.34-4.13,1.16-1.09,2.65-1.9,4.22-2.24"/>
    <path class="cls-3" d="M296.9,429.2c1.6-.33,3.42-.18,4.8.85,1.43,1.06,1.97,2.74,1.73,4.44-.24,1.67-1.18,3.19-2.37,4.33-1.2,1.15-2.74,1.99-4.37,2.33"/>
    <path class="cls-3" d="M296.69,441.15c-1.6.33-3.42.18-4.81-.84-1.44-1.06-1.98-2.74-1.73-4.45.24-1.67,1.19-3.2,2.37-4.33,1.2-1.15,2.75-1.99,4.38-2.33"/>
    <line class="cls-3" x1="204.42" y1="278.11" x2="204.4" y2="276.7"/>
    <path class="cls-3" d="M231.77,326.19c-.57-.39-1.14-.95-1.31-1.67-.19-.76.13-1.44.64-1.97.49-.52,1.16-.91,1.8-1.18.67-.29,1.36-.48,2.08-.61"/>
    <path class="cls-3" d="M242.9,326.18c-.92.64-2.12,1.02-3.19,1.22"/>
    <path class="cls-3" d="M215.14,281.15c0-.57.26-1.07.61-1.48.36-.41.82-.74,1.29-1,.94-.52,2.05-.85,3.09-1.03"/>
    <line class="cls-3" x1="240.3" y1="329.73" x2="399.29" y2="299.9"/>
    <path class="cls-3" d="M234.97,320.76c2.08-.39,4.6-.27,6.6.52.92.36,2.11,1.03,2.53,2.06.22.54.19,1.1-.08,1.62-.26.5-.69.9-1.13,1.21"/>
    <path class="cls-3" d="M346.07,255.13c1.69-.3,3.55-.28,5.24.04.85.16,1.72.41,2.51.76.75.34,1.59.85,2.08,1.56"/>
    <line class="cls-3" x1="220.14" y1="277.64" x2="346.07" y2="255.13"/>
    <path class="cls-3" d="M147.41,40.3c1.4-.19,2.92-.21,4.31-.03.7.09,1.44.24,2.11.46.61.2,1.4.55,1.85,1.08"/>
    <line class="cls-3" x1="244.43" y1="314.22" x2="215.79" y2="282.63"/>
    <path class="cls-3" d="M71.6,92.78c-1.46.21-3.04.23-4.5.04-.73-.1-1.5-.26-2.2-.51-.63-.23-1.45-.62-1.87-1.21"/>
    <line class="cls-3" x1="202.59" y1="73.69" x2="71.6" y2="92.78"/>
    <line class="cls-3" x1="190.29" y1="65.73" x2="168.82" y2="46.12"/>
    <line class="cls-3" x1="71.31" y1="59.64" x2="78.33" y2="58.66"/>
    <line class="cls-3" x1="254.18" y1="397.29" x2="517.97" y2="344.84"/>
    <line class="cls-3" x1="254.18" y1="397.29" x2="254.11" y2="417.23"/>
    <line class="cls-3" x1=".5" y1="26.64" x2="254.18" y2="397.29"/>
    <path class="cls-3" d="M243.78,324.07c0,.49-.21.92-.51,1.28-.3.36-.69.65-1.09.89-.8.47-1.75.76-2.65.93"/>
    <path class="cls-3" d="M239.54,327.17c-1.6.3-3.41.27-5-.12-.79-.19-1.63-.5-2.32-.95-.65-.43-1.34-1.12-1.35-2.01"/>
    <line class="cls-3" x1="235.23" y1="322.31" x2="236.13" y2="323.58"/>
    <line class="cls-3" x1="236.72" y1="322.03" x2="235.23" y2="322.31"/>
    <line class="cls-3" x1="237.18" y1="324.68" x2="236.72" y2="322.03"/>
    <line class="cls-3" x1="237.63" y1="323.3" x2="236.72" y2="322.03"/>
    <line class="cls-3" x1="240.8" y1="322.99" x2="238.3" y2="323.46"/>
    <line class="cls-3" x1="240.25" y1="323.96" x2="240.8" y2="322.99"/>
    <path class="cls-3" d="M156.05,43.91c-.89.13-1.86.34-2.69.69-.42.17-.86.4-1.21.68-.34.27-.69.67-.67,1.16"/>
    <path class="cls-3" d="M155.17,56.04c-.03-1.17-.19-2.43-.45-3.57-.13-.59-.29-1.17-.49-1.73-.18-.5-.46-1.18-.82-1.6"/>
    <line class="cls-3" x1="151.79" y1="47.2" x2="153.42" y2="49.14"/>
    <path class="cls-3" d="M81.56,66.49c-.05-1.18-.23-2.45-.48-3.6-.13-.59-.28-1.18-.47-1.75-.17-.5-.44-1.2-.77-1.64"/>
    <path class="cls-3" d="M291.28,439c-.62-.9-.82-1.97-.7-3.03.12-1.06.55-2.06,1.15-2.93,1.19-1.72,3.11-3.01,5.16-3.43"/>
    <line class="cls-3" x1="297.62" y1="431.59" x2="296.08" y2="431.91"/>
    <line class="cls-3" x1="297.5" y1="438.46" x2="297.54" y2="436.16"/>
    <line class="cls-3" x1="296.63" y1="436.02" x2="297.5" y2="438.46"/>
    <line class="cls-3" x1="295.96" y1="438.78" x2="297.5" y2="438.46"/>
    <line class="cls-3" x1="296" y1="436.48" x2="295.96" y2="438.78"/>
    <line class="cls-3" x1="293.59" y1="522.04" x2="294.45" y2="523.36"/>
    <line class="cls-3" x1="296.07" y1="518.89" x2="294.57" y2="519.22"/>
    <line class="cls-3" x1="295.95" y1="525.38" x2="295.99" y2="523.21"/>
    <line class="cls-3" x1="295.11" y1="522.96" x2="295.95" y2="525.38"/>
    <line class="cls-3" x1="294.46" y1="525.71" x2="295.95" y2="525.38"/>
    <line class="cls-3" x1="294.5" y1="523.54" x2="294.46" y2="525.71"/>
    <line class="cls-3" x1="79.83" y1="59.5" x2="78.35" y2="57.51"/>
    <path class="cls-3" d="M296.51,521.38c-.15.03-.34,0-.43-.14"/>
    <line class="cls-3" x1="259.56" y1="314.71" x2="261.98" y2="317.99"/>
    <path class="cls-3" d="M78.35,57.51c-.42-.56-1.22-.92-1.83-1.13-.67-.23-1.41-.38-2.12-.47-1.41-.18-2.94-.16-4.34.03"/>
    <path class="cls-3" d="M199.51,69.56s-.05,0-.08,0"/>
    <path class="cls-3" d="M151.47,46.44c0,.29.14.54.32.76"/>
    <path class="cls-3" d="M67.07,53.51c-.03-.52.35-.95.71-1.24.38-.3.84-.54,1.29-.73.89-.37,1.91-.6,2.86-.73"/>
    <path class="cls-3" d="M395.06,295.06c.12-.02.23-.02.35,0,.1.02.24.06.32.15"/>
    <line class="cls-3" x1="397.41" y1="294.62" x2="399.79" y2="294.18"/>
    <line class="cls-3" x1="398.59" y1="294.4" x2="399.15" y2="293.45"/>
    <path class="cls-3" d="M290.16,520.65c.82-1.79,2.65-3.15,4.54-3.56"/>
    <line class="cls-3" x1="399.15" y1="293.45" x2="396.77" y2="293.9"/>
    <line class="cls-3" x1="440.39" y1="457.43" x2="439.37" y2="413.03"/>
    <path class="cls-3" d="M308.66,507.89c.13.19.27.38.43.55"/>
    <line class="cls-3" x1="2.33" y1="43.41" x2="1.66" y2="43.5"/>
    <line class="cls-3" x1="273.1" y1="322.09" x2="240.3" y2="328.23"/>
    <line class="cls-3" x1="396.11" y1="293.75" x2="395.05" y2="292.54"/>
    <line class="cls-3" x1="395.48" y1="295.08" x2="395.05" y2="292.54"/>
    <line class="cls-3" x1="393.63" y1="292.8" x2="394.68" y2="294.01"/>
    <path class="cls-3" d="M220.15,279.01c-.18.19-.32.4-.44.64"/>
    <line class="cls-3" x1="392.67" y1="295.51" x2="395.06" y2="295.06"/>
    <line class="cls-3" x1="395.73" y1="295.21" x2="396.78" y2="296.43"/>
    <line class="cls-3" x1="396.78" y1="296.43" x2="398.21" y2="296.16"/>
    <path class="cls-3" d="M398.48,297.42c-1.64.31-3.5.24-5.12-.17-.81-.21-1.66-.52-2.37-.99-.65-.43-1.41-1.14-1.37-2.06"/>
    <path class="cls-3" d="M209.48,276.27c0,.47-.22.89-.51,1.23-.3.34-.68.61-1.07.83-.78.43-1.7.7-2.57.86"/>
    <path class="cls-3" d="M205.33,279.18c-1.51.27-3.2.25-4.7-.09-.75-.17-1.54-.44-2.2-.84-.62-.38-1.31-1-1.32-1.84"/>
    <line class="cls-3" x1="201.33" y1="274.7" x2="202.16" y2="275.88"/>
    <line class="cls-3" x1="202.77" y1="274.45" x2="201.33" y2="274.7"/>
    <line class="cls-3" x1="203.21" y1="277" x2="202.77" y2="274.45"/>
    <line class="cls-3" x1="203.6" y1="275.62" x2="202.77" y2="274.45"/>
    <line class="cls-3" x1="206.65" y1="275.34" x2="204.24" y2="275.77"/>
    <line class="cls-3" x1="206.17" y1="276.21" x2="206.65" y2="275.34"/>
    <path class="cls-3" d="M197.83,278.23c-.52-.37-1.05-.91-1.16-1.6-.11-.72.29-1.33.77-1.78.96-.88,2.47-1.35,3.68-1.56"/>
    <path class="cls-3" d="M208.81,278.1c-.94.69-2.22,1.09-3.33,1.29"/>
    <path class="cls-3" d="M201.13,273.28c1.93-.34,4.24-.26,6.12.41.86.3,1.99.87,2.47,1.76.26.48.3.99.09,1.49-.2.48-.59.87-.99,1.17"/>
    <path class="cls-3" d="M402.21,294.77c-.04.86-.78,1.49-1.43,1.86-.7.4-1.53.65-2.3.79"/>
    <path class="cls-3" d="M389.62,294.21c.04-.87.78-1.49,1.43-1.86.7-.4,1.53-.65,2.31-.79"/>
    <line class="cls-3" x1="454.84" y1="483.99" x2="453.41" y2="484.31"/>
    <line class="cls-3" x1="302.86" y1="506.73" x2="309.41" y2="446.11"/>
    <path class="cls-3" d="M447.86,475.11c.02,1-.24,2-.65,2.9-.41.91-1,1.74-1.68,2.47-1.34,1.43-3.17,2.54-5.11,2.97"/>
    <path class="cls-3" d="M448.88,491.24c-.65-.83-.84-1.88-.72-2.9.13-1.02.56-1.99,1.14-2.81,1.14-1.64,2.99-2.93,4.96-3.37"/>
    <path class="cls-3" d="M454.26,482.16c.82-.18,1.69-.22,2.51-.02.83.19,1.58.61,2.12,1.29"/>
    <line class="cls-3" x1="457.41" y1="487.21" x2="457.5" y2="485.93"/>
    <line class="cls-3" x1="455.53" y1="486.36" x2="457.41" y2="487.21"/>
    <line class="cls-3" x1="455.03" y1="487.73" x2="457.41" y2="487.21"/>
    <line class="cls-3" x1="454.39" y1="490.39" x2="454.54" y2="488.25"/>
    <line class="cls-3" x1="453.48" y1="488.05" x2="454.39" y2="490.39"/>
    <line class="cls-3" x1="453.12" y1="488.57" x2="452.97" y2="490.7"/>
    <path class="cls-3" d="M381.76,343.96c-.15-.18-.25-.4-.22-.65"/>
    <line class="cls-3" x1="454.73" y1="486.33" x2="454.73" y2="486.33"/>
    <path class="cls-3" d="M454.29,481.78c.75-.17,1.54-.22,2.31-.1.77.12,1.51.4,2.12.9.61.5,1.03,1.17,1.23,1.93.2.76.18,1.55,0,2.3-.34,1.51-1.27,2.89-2.38,3.92-1.12,1.04-2.55,1.84-4.06,2.17"/>
    <path class="cls-3" d="M453.52,492.91c-.75.17-1.55.22-2.32.1-.77-.12-1.51-.4-2.12-.9-.61-.5-1.03-1.17-1.24-1.93-.2-.76-.18-1.55,0-2.31.34-1.52,1.27-2.89,2.39-3.92,1.12-1.04,2.55-1.84,4.06-2.17"/>
    <path class="cls-3" d="M383.13,342.2c.6-.12,1.26-.11,1.86,0,.54.11,1.26.35,1.65.81"/>
    <line class="cls-3" x1="380.88" y1="348.56" x2="381.54" y2="343.34"/>
    <line class="cls-3" x1="454.69" y1="486.14" x2="454.84" y2="483.99"/>
    <line class="cls-3" x1="450.3" y1="488.78" x2="452.68" y2="488.25"/>
    <line class="cls-3" x1="386.86" y1="343.55" x2="387.05" y2="348.83"/>
    <path class="cls-3" d="M452.68,488.25c.13-.03.28-.01.37.1"/>
    <path class="cls-3" d="M386.86,343.55c.01.39-.29.68-.58.86-.31.19-.67.3-1.02.37"/>
    <line class="cls-3" x1="450.49" y1="487.47" x2="450.3" y2="488.78"/>
    <path class="cls-3" d="M452.09,487.12s-.01-.02-.02-.02"/>
    <path class="cls-3" d="M458.9,483.43c.66.83.86,1.88.73,2.9-.12,1.02-.56,1.99-1.13,2.82-1.14,1.65-2.99,2.94-4.96,3.38"/>
    <line class="cls-3" x1="458.46" y1="482.88" x2="458.9" y2="483.43"/>
    <line class="cls-3" x1="448.88" y1="491.24" x2="448.45" y2="490.68"/>
    <path class="cls-3" d="M453.06,488.35c.05.06.07.14.06.21"/>
    <line class="cls-3" x1="453.41" y1="484.31" x2="453.27" y2="486.45"/>
    <line class="cls-3" x1="452.97" y1="490.7" x2="454.39" y2="490.39"/>
    <line class="cls-3" x1="450.39" y1="487.5" x2="450.3" y2="488.78"/>
    <path class="cls-3" d="M453.27,486.45c-.02.25-.26.47-.49.52"/>
    <path class="cls-3" d="M455.12,486.45c-.13.03-.28.01-.37-.1"/>
    <path class="cls-3" d="M310.7,361.81c.27-.99,1.07-1.73,2.07-1.93,1-.19,2.03.2,2.64,1.01"/>
    <path class="cls-3" d="M454.54,488.25c.02-.25.26-.47.49-.52"/>
    <path class="cls-3" d="M327.2,358.57c.27-.97,1.07-1.71,2.06-1.91.99-.19,2.01.19,2.63.99"/>
    <path class="cls-3" d="M466.15,395.46c-.11-.16-.23-.32-.35-.47"/>
    <path class="cls-3" d="M343.62,355.36c.27-.96,1.06-1.69,2.05-1.88s1.99.18,2.61.97"/>
    <path class="cls-3" d="M466.56,395.88c.97,1.13,1.32,2.59,1.22,4.03"/>
    <path class="cls-3" d="M465.8,394.99c-.75-.87-1.75-1.43-2.85-1.69-1.1-.26-2.25-.23-3.34-.01"/>
    <line class="cls-3" x1="465.8" y1="394.99" x2="466.56" y2="395.88"/>
    <path class="cls-3" d="M287.29,526.07c.11.16.22.32.35.47"/>
    <line class="cls-3" x1="287.92" y1="527.06" x2="287.29" y2="526.07"/>
    <path class="cls-3" d="M303.6,510.01c-.65-.98-.86-2.14-.74-3.28"/>
    <path class="cls-3" d="M445.62,414.5c.7.85,1.04,1.9,1.06,2.99"/>
    <path class="cls-3" d="M296.26,426.76c-2.19.45-4.25,1.63-5.79,3.23-.78.8-1.44,1.73-1.92,2.74-.48,1.01-.78,2.12-.79,3.24"/>
    <path class="cls-3" d="M358.58,352.42c.28-.95,1.06-1.67,2.03-1.86s1.97.17,2.59.94"/>
    <line class="cls-3" x1="459.61" y1="393.29" x2="296.26" y2="426.76"/>
    <path class="cls-3" d="M199.44,69.58s.02.03.02.05"/>
    <path class="cls-3" d="M286.48,523.11c-.02,1.05.24,2.07.81,2.96"/>
    <path class="cls-3" d="M198.72,67.99c-.67.1-1.39.26-2.01.53-.31.13-.64.31-.9.53-.25.21-.5.52-.49.88"/>
    <line class="cls-3" x1="287.76" y1="435.97" x2="286.48" y2="523.11"/>
    <line class="cls-3" x1="203.51" y1="69.69" x2="201.54" y2="69.97"/>
    <line class="cls-3" x1="467.78" y1="399.91" x2="461.62" y2="485.65"/>
    <path class="cls-3" d="M461.62,485.65c-.15,2.12-1.33,4.11-2.76,5.56-1.46,1.48-3.39,2.62-5.44,3.08"/>
    <line class="cls-3" x1="453.42" y1="494.29" x2="295.14" y2="529.34"/>
    <path class="cls-3" d="M295.14,529.34c-1.3.29-2.69.33-3.99-.03-1.3-.35-2.48-1.09-3.23-2.26"/>
    <line class="cls-3" x1="287.11" y1="524.1" x2="288.41" y2="436.92"/>
    <path class="cls-3" d="M288.41,436.92c.02-1.13.32-2.24.8-3.24.48-1.01,1.15-1.94,1.92-2.74,1.54-1.6,3.61-2.78,5.8-3.23"/>
    <line class="cls-3" x1="296.92" y1="427.7" x2="330.66" y2="420.78"/>
    <path class="cls-3" d="M309.41,446.11c.21-1.92,1.27-3.69,2.6-4.99,1.35-1.33,3.12-2.31,4.98-2.7"/>
    <path class="cls-3" d="M310.02,512.02c-1.15.25-2.39.28-3.54-.03-1.16-.31-2.2-.96-2.88-1.99"/>
    <line class="cls-3" x1="446.68" y1="417.49" x2="447.86" y2="475.11"/>
    <path class="cls-3" d="M202.19,275.96c0,.08-.07.13-.13.17-.07.04-.13.06-.21.07"/>
    <line class="cls-3" x1="205.27" y1="277.96" x2="204.43" y2="276.78"/>
    <line class="cls-3" x1="201.85" y1="276.19" x2="199.44" y2="276.62"/>
    <line class="cls-3" x1="201.97" y1="70.96" x2="200.79" y2="71.13"/>
    <line class="cls-3" x1="199.94" y1="277.32" x2="199.44" y2="276.62"/>
    <line class="cls-3" x1="200.79" y1="71.13" x2="200.11" y2="70.35"/>
    <line class="cls-3" x1="197.12" y1="277.27" x2="197.11" y2="276.41"/>
    <line class="cls-3" x1="209.48" y1="276.27" x2="209.49" y2="277.13"/>
    <path class="cls-3" d="M204.4,276.7c0-.08.07-.13.13-.17.07-.04.13-.06.21-.07"/>
    <line class="cls-3" x1="202.19" y1="275.96" x2="202.2" y2="276.92"/>
    <line class="cls-3" x1="202.99" y1="277.04" x2="203.83" y2="278.22"/>
    <line class="cls-3" x1="199.44" y1="276.62" x2="199.93" y2="277.32"/>
    <line class="cls-3" x1="207.15" y1="276.04" x2="206.65" y2="275.34"/>
    <path class="cls-3" d="M201.27,273.49c1.51-.27,3.2-.25,4.7.09.75.17,1.54.44,2.2.84.62.38,1.31,1.01,1.32,1.84"/>
    <path class="cls-3" d="M204.43,276.78s-.03-.05-.03-.08"/>
    <path class="cls-3" d="M202.16,275.88s.03.05.03.08"/>
    <line class="cls-3" x1="199.59" y1="70.25" x2="197.62" y2="70.54"/>
    <path class="cls-3" d="M204.24,275.77c-.11.02-.22.02-.34,0-.09-.02-.23-.06-.3-.15"/>
    <line class="cls-3" x1="197.62" y1="70.54" x2="197.21" y2="70.07"/>
    <path class="cls-3" d="M309.44,509.05c.46.69,1.1,1.22,1.83,1.58.73.36,1.55.55,2.36.59"/>
    <line class="cls-3" x1="309.44" y1="509.05" x2="308.66" y2="507.89"/>
    <line class="cls-3" x1="253.57" y1="558.38" x2="504.4" y2="502.05"/>
    <line class="cls-3" x1="504.4" y1="502.05" x2="516.16" y2="365.75"/>
    <line class="cls-3" x1="1.66" y1="43.5" x2="9.34" y2="154.94"/>
    <line class="cls-3" x1="9.34" y1="154.94" x2="253.57" y2="558.38"/>
    <line class="cls-3" x1="253.57" y1="558.38" x2="254.1" y2="418.76"/>
    <line class="cls-3" x1="1.66" y1="43.5" x2="254.1" y2="418.76"/>
    <line class="cls-3" x1="516.16" y1="365.75" x2="515.03" y2="364.52"/>
    <line class="cls-3" x1="254.1" y1="418.76" x2="516.16" y2="365.75"/>
    <line class="cls-3" x1="255.39" y1="417.21" x2="255.25" y2="417"/>
    <line class="cls-3" x1="513.33" y1="365.09" x2="255.39" y2="417.21"/>
    <line class="cls-3" x1="255.39" y1="417.21" x2="255.39" y2="416.97"/>
    <line class="cls-3" x1="513.33" y1="365.09" x2="513.35" y2="364.86"/>
    <path class="cls-3" d="M404.37,294.88c-.06,1.16-1.05,1.99-1.92,2.49-.94.53-2.05.87-3.09,1.06"/>
    <path class="cls-3" d="M195.44,277.73c-.27-.38-.44-.81-.45-1.29"/>
    <line class="cls-3" x1="399.36" y1="298.43" x2="367.87" y2="304.33"/>
    <line class="cls-3" x1="197.21" y1="70.07" x2="199.19" y2="69.79"/>
    <line class="cls-3" x1="370.78" y1="294.59" x2="367.54" y2="289.78"/>
    <line class="cls-3" x1="401.37" y1="296.65" x2="399.93" y2="297.57"/>
    <line class="cls-3" x1="242.9" y1="326.18" x2="242.3" y2="326.59"/>
    <line class="cls-3" x1="361.78" y1="250.94" x2="360.38" y2="251.9"/>
    <line class="cls-3" x1="404.37" y1="294.88" x2="404.3" y2="296.34"/>
    <path class="cls-3" d="M194.99,276.44c0-.64.29-1.2.69-1.65.4-.45.92-.82,1.44-1.11,1.05-.58,2.29-.94,3.46-1.15"/>
    <path class="cls-3" d="M195.01,277.89c0,.47.18.91.45,1.29"/>
    <line class="cls-3" x1="195.01" y1="277.89" x2="194.99" y2="276.44"/>
    <path class="cls-3" d="M399.29,299.9c1.04-.2,2.16-.53,3.09-1.06.87-.5,1.86-1.34,1.92-2.49"/>
    <line class="cls-3" x1="199.44" y1="69.58" x2="198.76" y2="68.8"/>
    <path class="cls-3" d="M229.19,327.08c.57.8,1.49,1.39,2.34,1.78.89.41,1.88.69,2.84.87,1.91.35,4.01.35,5.92,0"/>
    <line class="cls-3" x1="200.27" y1="70.53" x2="199.94" y2="68.63"/>
    <line class="cls-3" x1="198.76" y1="68.8" x2="199.94" y2="68.63"/>
    <line class="cls-3" x1="195.46" y1="279.18" x2="229.19" y2="327.08"/>
    <path class="cls-3" d="M202.01,71.78c.67-.1,1.39-.26,2.01-.53.31-.13.63-.31.9-.53.25-.21.5-.51.49-.88"/>
    <path class="cls-3" d="M240.3,328.23c-1.91.36-4.01.36-5.93,0-.96-.18-1.95-.46-2.84-.87-.86-.39-1.78-.98-2.35-1.78"/>
    <line class="cls-3" x1="229.19" y1="325.59" x2="195.44" y2="277.73"/>
    <line class="cls-3" x1="200.59" y1="272.53" x2="353.23" y2="245.46"/>
    <path class="cls-3" d="M353.23,245.46c1.8-.32,3.79-.31,5.59,0,.91.16,1.84.4,2.7.76.82.34,1.72.84,2.33,1.53"/>
    <line class="cls-3" x1="363.85" y1="247.75" x2="403.63" y2="293.04"/>
    <path class="cls-3" d="M403.63,293.04c.44.5.77,1.13.74,1.84"/>
    <path class="cls-3" d="M377.78,289.52c.26.39.43.83.41,1.31"/>
    <line class="cls-3" x1="355.89" y1="257.5" x2="377.78" y2="289.52"/>
    <path class="cls-3" d="M215.79,282.63c-.37-.4-.64-.91-.65-1.48"/>
    <path class="cls-3" d="M254.13,316.27c-1.65.31-3.45.32-5.11.04-.83-.14-1.68-.36-2.47-.69-.76-.31-1.56-.77-2.13-1.4"/>
    <path class="cls-3" d="M179.48,41.16c-.4.36-.99.61-1.49.77-.54.17-1.08.29-1.64.37"/>
    <path class="cls-3" d="M169.93,41.3c-.35-.29-.62-.69-.42-1.17.17-.41.61-.71.96-.89.75-.4,1.73-.63,2.56-.75"/>
    <path class="cls-3" d="M173.03,38.49c1.36-.19,2.93-.17,4.28.12.65.14,1.44.38,1.99.77.72.51.86,1.16.17,1.78"/>
    <line class="cls-3" x1="61.03" y1="61.28" x2="71.92" y2="82.81"/>
    <path class="cls-3" d="M169.8,40.46c0,.31.21.56.42.75.22.19.49.34.76.45.53.23,1.14.38,1.71.47,1.14.18,2.4.19,3.54.03"/>
    <path class="cls-3" d="M176.23,42.16c.65-.09,1.35-.25,1.96-.5.3-.12.62-.29.88-.5.25-.2.5-.49.49-.85"/>
    <line class="cls-3" x1="173.16" y1="39.38" x2="174.31" y2="39.22"/>
    <line class="cls-3" x1="174.63" y1="41.06" x2="174.31" y2="39.22"/>
    <line class="cls-3" x1="173.8" y1="40.11" x2="173.16" y2="39.38"/>
    <line class="cls-3" x1="171.63" y1="40.57" x2="173.55" y2="40.3"/>
    <line class="cls-3" x1="172.01" y1="41.01" x2="171.63" y2="40.57"/>
    <path class="cls-3" d="M199.46,69.63c0,.06-.07.1-.11.11-.05.02-.11.03-.16.04"/>
    <path class="cls-3" d="M195.32,69.93c0,.33.2.59.43.8.23.21.51.37.78.49.55.25,1.19.42,1.78.52,1.19.2,2.51.21,3.71.04"/>
    <path class="cls-3" d="M173.8,40.11s.02.03.02.05"/>
    <path class="cls-3" d="M355.54,249.61c.11-.02.22-.02.34,0,.1.02.23.06.3.14"/>
    <path class="cls-3" d="M206.96,70.46c.12.19.19.4.19.63"/>
    <line class="cls-3" x1="357.81" y1="249.21" x2="360.11" y2="248.8"/>
    <path class="cls-3" d="M41.05,58.44c-.03-.53.35-.97.72-1.27.38-.31.86-.56,1.31-.74.91-.38,1.95-.61,2.92-.75"/>
    <path class="cls-3" d="M41.12,59.68c-.01-.22.05-.44.16-.63"/>
    <line class="cls-3" x1="41.12" y1="59.68" x2="41.05" y2="58.44"/>
    <path class="cls-3" d="M207.15,71.08c0,.49-.32.9-.66,1.18-.35.3-.78.53-1.2.71-.84.36-1.8.58-2.7.71"/>
    <line class="cls-3" x1="207.14" y1="69.83" x2="207.15" y2="71.08"/>
    <path class="cls-3" d="M190.78,66.67c0-.38-.24-.7-.5-.94"/>
    <path class="cls-3" d="M60.92,60.88c0,.15.05.27.11.4"/>
    <path class="cls-3" d="M41.35,60.3c-.13-.18-.22-.39-.23-.62"/>
    <line class="cls-3" x1="359.03" y1="248.99" x2="359.53" y2="248.13"/>
    <line class="cls-3" x1="63.04" y1="91.1" x2="41.35" y2="60.3"/>
    <line class="cls-3" x1="359.53" y1="248.13" x2="357.23" y2="248.54"/>
    <path class="cls-3" d="M172.62,38.02c1.4-.19,2.92-.21,4.31-.02.7.09,1.44.24,2.11.46.61.2,1.4.55,1.86,1.06"/>
    <line class="cls-3" x1="172.62" y1="38.02" x2="153.61" y2="40.67"/>
    <line class="cls-3" x1="41.28" y1="59.05" x2="62.97" y2="89.82"/>
    <path class="cls-3" d="M206.76,68.95c.21.24.37.54.38.88"/>
    <line class="cls-3" x1="206.76" y1="68.95" x2="180.9" y2="39.52"/>
    <line class="cls-3" x1="161.49" y1="44.92" x2="152.72" y2="46.15"/>
    <path class="cls-3" d="M65.34,58.41c-.86.12-1.8.33-2.61.67-.4.17-.83.39-1.17.67-.32.26-.66.66-.64,1.13"/>
    <path class="cls-3" d="M173.82,40.15c0,.06-.07.09-.11.11-.05.02-.1.03-.16.04"/>
    <line class="cls-3" x1="174.31" y1="39.22" x2="174.94" y2="39.95"/>
    <line class="cls-3" x1="175.57" y1="40.67" x2="176.21" y2="41.4"/>
    <line class="cls-3" x1="175.57" y1="41.49" x2="175.55" y2="40.62"/>
    <line class="cls-3" x1="177.08" y1="40.3" x2="177.36" y2="39.77"/>
    <line class="cls-3" x1="356.59" y1="248.4" x2="355.62" y2="247.29"/>
    <path class="cls-3" d="M179.57,40.32c0-.31-.21-.56-.42-.75-.22-.19-.49-.34-.76-.45-.53-.23-1.14-.38-1.71-.47-1.14-.18-2.4-.19-3.54-.03"/>
    <line class="cls-3" x1="179.57" y1="40.32" x2="179.58" y2="41.06"/>
    <line class="cls-3" x1="169.82" y1="41.19" x2="169.8" y2="40.46"/>
    <line class="cls-3" x1="173.82" y1="40.15" x2="173.83" y2="40.75"/>
    <path class="cls-3" d="M175.55,40.62c0-.06.07-.09.11-.11.05-.02.1-.03.16-.04"/>
    <line class="cls-3" x1="177.36" y1="39.77" x2="177.74" y2="40.21"/>
    <line class="cls-3" x1="175.44" y1="40.04" x2="177.36" y2="39.77"/>
    <line class="cls-3" x1="356.02" y1="249.65" x2="355.62" y2="247.29"/>
    <path class="cls-3" d="M175.44,40.04c-.09.01-.17.01-.26,0-.07,0-.19-.03-.24-.09"/>
    <line class="cls-3" x1="354.25" y1="247.53" x2="355.22" y2="248.65"/>
    <path class="cls-3" d="M173.93,40.74c.09-.01.17-.01.26,0,.07,0,.19.03.24.09"/>
    <path class="cls-3" d="M175.57,40.67s-.02-.03-.02-.05"/>
    <path class="cls-3" d="M262.73,314.02c-.2-.73-.51-1.68-.92-2.33"/>
    <line class="cls-3" x1="297.78" y1="434.21" x2="297.78" y2="434.21"/>
    <path class="cls-3" d="M266.18,308.85c.33.45.56.97.55,1.55"/>
    <line class="cls-3" x1="353.24" y1="250.02" x2="355.54" y2="249.61"/>
    <path class="cls-3" d="M426.79,423.99s-.08.01-.13.02"/>
    <line class="cls-3" x1="356.18" y1="249.75" x2="357.15" y2="250.87"/>
    <line class="cls-3" x1="357.15" y1="250.87" x2="358.53" y2="250.63"/>
    <line class="cls-3" x1="293.32" y1="435.22" x2="292.93" y2="436.67"/>
    <path class="cls-3" d="M259.14,311.1c-.11-.28-.17-.56-.17-.86"/>
    <line class="cls-3" x1="258.97" y1="311.09" x2="258.98" y2="310.24"/>
    <path class="cls-3" d="M224.38,284.91c.95-1.29,2.24-2.26,3.65-2.97,1.41-.71,2.96-1.18,4.5-1.46"/>
    <path class="cls-3" d="M358.75,251.79c-1.54.28-3.29.23-4.81-.13-.76-.18-1.57-.46-2.25-.88-.62-.38-1.37-1.03-1.34-1.89"/>
    <path class="cls-3" d="M236.37,324.68c.12-.02.23-.02.35,0,.1.02.24.06.31.16"/>
    <path class="cls-3" d="M357.79,351.23c.02-.52.45-.89.84-1.11.42-.24.91-.38,1.38-.46.93-.15,1.99-.09,2.89.21"/>
    <path class="cls-3" d="M309.89,360.61c.01-.53.45-.92.85-1.15.42-.25.93-.4,1.41-.49.95-.17,2.04-.11,2.96.2"/>
    <path class="cls-3" d="M326.4,357.38c.01-.53.45-.91.85-1.14.42-.24.92-.39,1.4-.48.94-.16,2.02-.1,2.93.2"/>
    <path class="cls-3" d="M342.82,354.16c.02-.52.45-.9.85-1.13.42-.24.92-.39,1.39-.47.93-.16,2-.09,2.91.2"/>
    <path class="cls-3" d="M66.92,62.11c-.02-.47.31-.87.64-1.13.34-.28.76-.5,1.16-.67.81-.34,1.74-.55,2.6-.67"/>
    <line class="cls-3" x1="362.91" y1="349.87" x2="364.51" y2="351.87"/>
    <line class="cls-3" x1="362.91" y1="349.87" x2="362.86" y2="351.15"/>
    <line class="cls-3" x1="315.1" y1="359.17" x2="316.64" y2="361.2"/>
    <line class="cls-3" x1="315.1" y1="359.17" x2="315.07" y2="360.51"/>
    <line class="cls-3" x1="331.58" y1="355.96" x2="333.14" y2="357.99"/>
    <line class="cls-3" x1="331.58" y1="355.96" x2="331.54" y2="357.29"/>
    <line class="cls-3" x1="347.97" y1="352.77" x2="349.55" y2="354.79"/>
    <line class="cls-3" x1="347.97" y1="352.77" x2="347.92" y2="354.07"/>
    <line class="cls-3" x1="357.47" y1="250.82" x2="357.52" y2="249.41"/>
    <path class="cls-3" d="M67.03,62.52c-.07-.13-.11-.26-.11-.41"/>
    <line class="cls-3" x1="195.51" y1=".5" x2=".5" y2="26.64"/>
    <line class="cls-3" x1="517.97" y1="344.84" x2="195.51" y2=".5"/>
    <line class="cls-3" x1="517.97" y1="344.84" x2="516.29" y2="364.27"/>
    <line class="cls-3" x1="1.58" y1="42.3" x2=".5" y2="26.64"/>
    <path class="cls-3" d="M71.39,61.14c-.75.11-1.53.28-2.24.53-.63.23-1.5.63-1.92,1.23"/>
    <path class="cls-3" d="M236.16,323.67c0,.08-.07.14-.13.17-.07.04-.14.06-.21.07"/>
    <line class="cls-3" x1="239.44" y1="325.84" x2="238.53" y2="324.56"/>
    <line class="cls-3" x1="235.82" y1="323.92" x2="233.32" y2="324.39"/>
    <path class="cls-3" d="M362.43,249.28c-.03.84-.8,1.44-1.43,1.77-.69.37-1.5.6-2.25.74"/>
    <line class="cls-3" x1="233.86" y1="325.15" x2="233.32" y2="324.39"/>
    <path class="cls-3" d="M350.34,248.9c.03-.84.8-1.44,1.43-1.78.69-.37,1.5-.6,2.26-.74"/>
    <line class="cls-3" x1="230.89" y1="324.98" x2="230.88" y2="324.09"/>
    <line class="cls-3" x1="243.78" y1="324.07" x2="243.78" y2="324.96"/>
    <path class="cls-3" d="M238.5,324.47c0-.08.07-.14.13-.17.07-.04.14-.06.21-.07"/>
    <line class="cls-3" x1="236.16" y1="323.67" x2="236.17" y2="324.72"/>
    <line class="cls-3" x1="237.03" y1="324.84" x2="237.94" y2="326.12"/>
    <line class="cls-3" x1="233.32" y1="324.39" x2="233.86" y2="325.15"/>
    <line class="cls-3" x1="241.34" y1="323.75" x2="240.8" y2="322.99"/>
    <path class="cls-3" d="M235.13,320.99c1.6-.3,3.4-.27,4.99.12.79.19,1.62.5,2.31.95.65.43,1.34,1.12,1.34,2.01"/>
    <path class="cls-3" d="M238.53,324.56s-.03-.06-.03-.09"/>
    <path class="cls-3" d="M236.13,323.58s.03.05.03.09"/>
    <path class="cls-3" d="M461.11,400.62c-.13.03-.28,0-.37-.1"/>
    <path class="cls-3" d="M238.3,323.46c-.12.02-.23.02-.35,0-.1-.02-.24-.06-.31-.16"/>
    <path class="cls-3" d="M459.48,407.02c-.82.17-1.69.19-2.52,0-.83-.2-1.58-.62-2.14-1.28"/>
    <line class="cls-3" x1="458.69" y1="401.12" x2="456.25" y2="401.63"/>
    <line class="cls-3" x1="459.05" y1="402.82" x2="458.89" y2="405.08"/>
    <line class="cls-3" x1="459.41" y1="402.42" x2="460.35" y2="404.78"/>
    <line class="cls-3" x1="460.35" y1="404.78" x2="460.51" y2="402.51"/>
    <line class="cls-3" x1="461.01" y1="401.98" x2="463.46" y2="401.47"/>
    <path class="cls-3" d="M232.53,287.85c-.06-.09-.15-.22-.23-.3"/>
    <line class="cls-3" x1="461.33" y1="400.58" x2="463.46" y2="401.47"/>
    <line class="cls-3" x1="463.46" y1="401.47" x2="463.55" y2="400.12"/>
    <line class="cls-3" x1="232.54" y1="280.48" x2="338.11" y2="261.53"/>
    <line class="cls-3" x1="463.55" y1="400.12" x2="461.11" y2="400.62"/>
    <path class="cls-3" d="M368.06,290.67c.65,1.13,1,2.39,1,3.69"/>
    <line class="cls-3" x1="339.83" y1="271.19" x2="235.01" y2="290.18"/>
    <path class="cls-3" d="M345.72,271.63c.04.06.08.13.12.19.02.03.04.06.07.09.01.01.02.03.04.04,0,.01.02.02.03.03,0,0,0,0,0,0,0,0,0,0,0,0"/>
    <line class="cls-3" x1="460.82" y1="398.01" x2="459.36" y2="398.31"/>
    <path class="cls-3" d="M460.24,396.06c.82-.17,1.68-.19,2.5,0,.82.2,1.57.61,2.13,1.26"/>
    <path class="cls-3" d="M454.82,405.73c-.72-.86-.97-1.95-.88-3.04.09-1.08.51-2.13,1.1-3.02,1.16-1.77,3.1-3.18,5.2-3.61"/>
    <path class="cls-3" d="M431.82,414.59c1.42.66,2.68,1.62,3.67,2.84"/>
    <line class="cls-3" x1="297.58" y1="433.89" x2="297.62" y2="431.59"/>
    <line class="cls-3" x1="292.93" y1="436.67" x2="295.51" y2="436.14"/>
    <path class="cls-3" d="M315.7,493.54c.22.1.55.13.79.13.27,0,.53-.04.79-.09"/>
    <path class="cls-3" d="M295.51,436.14c.15-.03.34,0,.43.14"/>
    <path class="cls-3" d="M315.73,493.63s0,0,0,0c0,0,0,0,0,0,0,0,0,0,0-.01,0,0,0-.01,0-.02,0-.01-.01-.02-.02-.03-.01-.02-.03-.04-.05-.05"/>
    <path class="cls-3" d="M302.06,431.06c-.06-.1-.12-.2-.19-.29"/>
    <line class="cls-3" x1="298.57" y1="434.14" x2="300.63" y2="435.08"/>
    <path class="cls-3" d="M302.27,431.33c.63.89.84,1.96.72,3.02-.11,1.06-.54,2.07-1.14,2.93-1.18,1.73-3.11,3.03-5.16,3.45"/>
    <line class="cls-3" x1="301.88" y1="430.77" x2="302.27" y2="431.33"/>
    <line class="cls-3" x1="291.28" y1="439" x2="290.89" y2="438.44"/>
    <path class="cls-3" d="M297.64,434.1c-.05-.06-.06-.13-.06-.21"/>
    <line class="cls-3" x1="297.64" y1="434.1" x2="296.75" y2="432.83"/>
    <path class="cls-3" d="M295.94,436.28c.04.06.06.13.06.2"/>
    <line class="cls-3" x1="296.08" y1="431.91" x2="296.04" y2="434.21"/>
    <line class="cls-3" x1="300.63" y1="435.08" x2="300.65" y2="433.71"/>
    <line class="cls-3" x1="298.05" y1="435.61" x2="300.63" y2="435.08"/>
    <line class="cls-3" x1="292.95" y1="435.3" x2="292.93" y2="436.67"/>
    <path class="cls-3" d="M296.04,434.21c0,.27-.26.5-.51.55"/>
    <path class="cls-3" d="M266.62,311.21c-.1-.33-.25-.61-.46-.88"/>
    <path class="cls-3" d="M297.54,436.16c0-.27.26-.5.51-.55"/>
    <line class="cls-3" x1="295.06" y1="435" x2="295.94" y2="436.28"/>
    <line class="cls-3" x1="296.03" y1="521.06" x2="296.07" y2="518.89"/>
    <line class="cls-3" x1="291.51" y1="523.77" x2="294.01" y2="523.22"/>
    <line class="cls-3" x1="357.55" y1="292.54" x2="345.72" y2="271.63"/>
    <path class="cls-3" d="M294.01,523.22c.15-.03.34,0,.43.14"/>
    <path class="cls-3" d="M345.99,271.98s0,0,0,0c0,0,0,0,0,0-.01,0-.02-.02-.03-.02-.04-.03-.09-.06-.13-.08-.17-.1-.35-.18-.53-.25-.25-.1-.5-.18-.75-.25-.51-.14-1.03-.23-1.55-.28-1.02-.11-2.14-.09-3.15.1"/>
    <path class="cls-3" d="M300.49,518.43c-.05-.1-.11-.2-.18-.3"/>
    <line class="cls-3" x1="297.17" y1="521.23" x2="298.99" y2="522.12"/>
    <line class="cls-3" x1="291.86" y1="522.4" x2="291.51" y2="523.77"/>
    <path class="cls-3" d="M300.7,518.71c.57.86.72,1.88.57,2.88-.15.99-.59,1.93-1.18,2.73-1.16,1.6-2.99,2.8-4.92,3.22"/>
    <line class="cls-3" x1="300.32" y1="518.13" x2="300.7" y2="518.71"/>
    <path class="cls-3" d="M289.42,525.26c.06.1.13.19.2.28"/>
    <line class="cls-3" x1="289.8" y1="525.85" x2="289.42" y2="525.26"/>
    <path class="cls-3" d="M296.08,521.24c-.04-.06-.05-.11-.05-.18"/>
    <line class="cls-3" x1="296.08" y1="521.24" x2="295.22" y2="519.92"/>
    <path class="cls-3" d="M294.45,523.36c.04.06.05.11.05.18"/>
    <path class="cls-3" d="M293.59,522.04s0,0,0-.01"/>
    <line class="cls-3" x1="294.57" y1="519.22" x2="294.53" y2="521.39"/>
    <line class="cls-3" x1="298.99" y1="522.12" x2="299.02" y2="520.83"/>
    <line class="cls-3" x1="296.49" y1="522.68" x2="298.99" y2="522.12"/>
    <line class="cls-3" x1="291.53" y1="522.48" x2="291.51" y2="523.77"/>
    <path class="cls-3" d="M294.53,521.39c0,.13-.07.25-.16.34-.09.09-.21.16-.34.19"/>
    <path class="cls-3" d="M255.68,310.21s0,0,0,0c0,0,0,0,0,0,0,0,.02.01.03.02.04.03.07.05.11.07.15.09.3.16.46.22.21.09.43.16.65.22.44.13.89.21,1.35.27.9.12,1.84.12,2.74.02"/>
    <path class="cls-3" d="M295.99,523.21c0-.13.07-.25.16-.34.09-.09.21-.16.33-.19"/>
    <line class="cls-3" x1="354.28" y1="266.74" x2="368.06" y2="290.67"/>
    <path class="cls-3" d="M262.8,306.49c-.25.05-.41.28-.51.48-.11.22-.17.45-.22.69-.1.46-.13.98-.13,1.44"/>
    <line class="cls-3" x1="263.77" y1="305.62" x2="266.18" y2="308.85"/>
    <line class="cls-3" x1="233.86" y1="325.15" x2="236.37" y2="324.68"/>
    <path class="cls-3" d="M367.93,302.86c1.07-.2,2.22-.55,3.18-1.1.48-.27.95-.62,1.31-1.05.37-.43.63-.94.65-1.52"/>
    <path class="cls-3" d="M261.92,310.57c0,.1,0,.21,0,.31"/>
    <path class="cls-3" d="M263.76,307.1c-.19-.25-.56-.68-.96-.61"/>
    <line class="cls-3" x1="261.33" y1="308.3" x2="261.32" y2="309.76"/>
    <line class="cls-3" x1="261.93" y1="309.1" x2="261.92" y2="310.57"/>
    <line class="cls-3" x1="264.36" y1="313.36" x2="264.36" y2="313.36"/>
    <path class="cls-3" d="M262.49,304.81c.53-.1,1.03.48,1.27.81"/>
    <line class="cls-3" x1="262.49" y1="304.81" x2="353.01" y2="288.13"/>
    <path class="cls-3" d="M373.08,299.19c.03-.68-.28-1.29-.69-1.78"/>
    <line class="cls-3" x1="373.08" y1="299.19" x2="373.02" y2="300.66"/>
    <path class="cls-3" d="M258.98,310.24c0-.69.34-1.3.79-1.78.45-.48,1.03-.87,1.61-1.17"/>
    <path class="cls-3" d="M261.98,317.99c.58.79,1.51,1.37,2.37,1.75.9.41,1.88.68,2.84.86,1.91.35,4.01.35,5.92,0"/>
    <line class="cls-3" x1="238.5" y1="326.02" x2="238.5" y2="324.47"/>
    <line class="cls-3" x1="261.17" y1="314.41" x2="259.56" y2="314.71"/>
    <line class="cls-3" x1="357.05" y1="292.04" x2="354.42" y2="288.9"/>
    <path class="cls-3" d="M354.42,288.9c-.3-.36-.84-.87-1.41-.77"/>
    <line class="cls-3" x1="1.58" y1="42.3" x2="254.11" y2="417.23"/>
    <line class="cls-3" x1="254.11" y1="417.23" x2="516.29" y2="364.27"/>
    <line class="cls-3" x1="273.12" y1="320.6" x2="367.93" y2="302.86"/>
    <line class="cls-3" x1="259.55" y1="316.19" x2="261.97" y2="319.47"/>
    <path class="cls-3" d="M367.87,304.33c1.07-.2,2.22-.55,3.18-1.1.48-.27.95-.62,1.31-1.05.37-.43.63-.94.65-1.52"/>
    <line class="cls-3" x1="273.1" y1="322.09" x2="367.87" y2="304.33"/>
    <path class="cls-3" d="M261.97,319.47c.58.79,1.51,1.37,2.37,1.76.89.41,1.88.69,2.84.86,1.91.35,4.01.36,5.92,0"/>
    <path class="cls-3" d="M202.35,276.89c.11-.02.22-.02.34,0,.09.02.23.06.3.15"/>
    <line class="cls-3" x1="199.93" y1="277.32" x2="202.35" y2="276.89"/>
    <line class="cls-3" x1="452.07" y1="487.1" x2="453.06" y2="488.35"/>
    <path class="cls-3" d="M435.49,417.43c1.37,1.68,2.14,3.72,2.31,5.86"/>
    <line class="cls-3" x1="454.75" y1="486.35" x2="453.76" y2="485.1"/>
    <line class="cls-3" x1="81.29" y1="68.01" x2="76.72" y2="68.66"/>
    <path class="cls-3" d="M428.14,421.53c-.06.47-.16.99-.35,1.44-.17.41-.49.92-1,1.03"/>
    <path class="cls-3" d="M160.21,57.94c-.05-.03-.11-.06-.17-.08-.14-.06-.28-.1-.43-.15-.2-.06-.41-.11-.62-.15-.42-.08-.84-.13-1.26-.16-.83-.05-1.72-.02-2.54.09"/>
    <line class="cls-3" x1="173.58" y1="68.95" x2="160.15" y2="57.89"/>
    <line class="cls-3" x1="75.65" y1="66.18" x2="81.66" y2="81.33"/>
    <line class="cls-3" x1="86.22" y1="81.56" x2="175.44" y2="68.68"/>
    <path class="cls-3" d="M331.55,447.14c-.01.44-.06.92-.17,1.34-.09.35-.3.96-.75,1.05"/>
    <line class="cls-3" x1="428.7" y1="480.02" x2="319.53" y2="503.83"/>
    <path class="cls-3" d="M319.53,503.83c-1.78.39-3.64.46-5.44.12-1.8-.34-3.51-1.07-4.95-2.21"/>
    <line class="cls-3" x1="322.96" y1="448.59" x2="315.73" y2="493.31"/>
    <path class="cls-3" d="M327.13,444.81c-.95.2-1.88.7-2.6,1.34-.38.33-.7.68-.98,1.1-.26.38-.51.88-.58,1.35"/>
    <line class="cls-3" x1="317.28" y1="493.58" x2="426.45" y2="469.95"/>
    <path class="cls-3" d="M331,451.27c-.35.07-.7-.12-.95-.32-.26-.21-.5-.5-.69-.77"/>
    <path class="cls-3" d="M426.45,469.95c.5-.11,1.01-.32,1.46-.57.46-.26.88-.56,1.27-.93.39-.36.72-.76.99-1.21.14-.23.25-.46.34-.71.06-.16.11-.33.13-.5.01-.09.02-.18.01-.27"/>
    <line class="cls-3" x1="430.65" y1="465.77" x2="427.33" y2="424.07"/>
    <path class="cls-3" d="M46.93,58.51c.09-.01.17-.01.26,0,.06,0,.19.03.23.1"/>
    <line class="cls-3" x1="46.93" y1="58.51" x2="44.94" y2="58.79"/>
    <line class="cls-3" x1="68.81" y1="89.24" x2="66.75" y2="89.54"/>
    <path class="cls-3" d="M156.52,62.46c-.49-.59-.83-1.8-.98-2.5-.19-.86-.31-1.8-.34-2.68"/>
    <line class="cls-3" x1="397.03" y1="296.38" x2="397.11" y2="294.84"/>
    <path class="cls-3" d="M434.43,402.62c-.76-.92-1.79-1.5-2.93-1.79-1.13-.28-2.33-.25-3.46-.02"/>
    <line class="cls-3" x1="457.95" y1="401.37" x2="458.98" y2="402.58"/>
    <path class="cls-3" d="M380.61,348.56s1.3,2.78,4.52,2.29,1.72-2.68,1.72-2.68"/>
  </g>
  <g id="_图层_4" data-name="图层 4">
    <polygon class="cls-2" points="319.72 387.24 346.44 360.51 373.17 387.24 319.72 387.24"/>
    <rect class="cls-2" x="334.63" y="383.38" width="23.63" height="40.96"/>
  </g>
</svg>