<?xml version="1.0" encoding="UTF-8"?>
<svg id="_图层_1" data-name="图层 1" xmlns="http://www.w3.org/2000/svg" viewBox="0 0 529.96 567.02">
  <defs>
    <style>
      .cls-1 {
        fill: #1573b3;
      }

      .cls-1, .cls-2, .cls-3 {
        stroke-width: 0px;
      }

      .cls-2 {
        fill: none;
      }

      .cls-3 {
        fill: #fff;
      }
    </style>
  </defs>
  <path class="cls-1" d="M59.2,555.87c-15.68,0-30.42-6.05-41.59-17.09-11.35-11.21-17.61-26.18-17.61-42.14V59.22C0,26.57,26.57,0,59.22,0h343.14c32.66,0,59.22,26.57,59.22,59.22v84.3c0,9.35-7.58,16.92-16.92,16.92s-16.92-7.58-16.92-16.92V59.22c0-14-11.39-25.38-25.38-25.38H59.22c-14,0-25.38,11.39-25.38,25.38v437.42c0,6.84,2.68,13.25,7.55,18.06,4.87,4.81,11.34,7.38,18.15,7.32.07,0,.14,0,.21,0h92.44c9.34,0,16.92,7.58,16.92,16.93,0,9.34-7.58,16.92-16.92,16.92H59.84c-.21,0-.43,0-.64,0Z"/>
  <path class="cls-1" d="M356.91,555.87c-9.33,0-16.9-7.55-16.92-16.89-.02-9.34,7.54-16.94,16.89-16.95l42.8-.08c13.86-.03,25.22-11.32,25.33-25.18l.35-43.19c.08-9.3,7.64-16.78,16.92-16.78.05,0,.09,0,.14,0,9.35.08,16.86,7.71,16.78,17.06l-.35,43.19c-.26,32.33-26.77,58.68-59.1,58.75l-42.8.08h-.03Z"/>
  <path class="cls-1" d="M193.95,567.02c-4.09,0-8.08-1.48-11.21-4.24-4.06-3.59-6.15-8.9-5.64-14.29l8.33-87.23c.34-3.56,1.8-6.92,4.17-9.6l229.37-259.4c6.42-7.26,15.66-11.43,25.36-11.43,8.04,0,15.83,2.87,21.95,8.09l26.58,22.66c.15.13.31.27.46.4l25.75,23.6c13.51,12.38,14.63,33.63,2.49,47.36l-229.37,259.4c-2.37,2.68-5.53,4.54-9.02,5.31l-85.55,18.95c-1.21.27-2.44.4-3.66.4Z"/>
  <path class="cls-3" d="M193.94,550.1l85.55-18.95,229.37-259.4c6.11-6.91,5.56-17.45-1.24-23.68l-25.75-23.6-26.58-22.66c-7.02-5.99-17.54-5.25-23.66,1.67l-229.37,259.4-8.33,87.23Z"/>
  <path class="cls-1" d="M108.01,128.83h-29.16c-7.01,0-12.69-5.68-12.69-12.69s5.68-12.69,12.69-12.69h29.16c7.01,0,12.69,5.68,12.69,12.69s-5.68,12.69-12.69,12.69Z"/>
  <path class="cls-1" d="M108.01,213.44h-29.16c-7.01,0-12.69-5.68-12.69-12.69s5.68-12.69,12.69-12.69h29.16c7.01,0,12.69,5.68,12.69,12.69s-5.68,12.69-12.69,12.69Z"/>
  <path class="cls-1" d="M108.01,298.89h-29.16c-7.01,0-12.69-5.68-12.69-12.69s5.68-12.69,12.69-12.69h29.16c7.01,0,12.69,5.68,12.69,12.69s-5.68,12.69-12.69,12.69Z"/>
  <path class="cls-1" d="M108.01,384.34h-29.16c-7.01,0-12.69-5.68-12.69-12.69s5.68-12.69,12.69-12.69h29.16c7.01,0,12.69,5.68,12.69,12.69s-5.68,12.69-12.69,12.69Z"/>
  <path class="cls-1" d="M166.97,129.56c-6.97,0-12.64-5.62-12.69-12.6-.05-7.01,5.59-12.73,12.6-12.78l203.92-1.46s.06,0,.09,0c6.97,0,12.64,5.62,12.69,12.6.05,7.01-5.59,12.73-12.6,12.78l-203.92,1.46s-.06,0-.09,0Z"/>
  <path class="cls-1" d="M166.97,214.17c-6.96,0-12.63-5.61-12.69-12.58-.06-7.01,5.58-12.74,12.58-12.8l174.49-1.46s.07,0,.11,0c6.96,0,12.63,5.61,12.69,12.58.06,7.01-5.58,12.74-12.58,12.8l-174.49,1.46s-.07,0-.11,0Z"/>
  <path class="cls-1" d="M166.97,298.89c-6.94,0-12.61-5.59-12.69-12.55-.08-7.01,5.54-12.75,12.55-12.83l133.92-1.46s.09,0,.14,0c6.94,0,12.61,5.59,12.69,12.55.08,7.01-5.54,12.75-12.55,12.83l-133.92,1.46s-.09,0-.14,0Z"/>
  <path class="cls-1" d="M166.45,384.49c-6.87,0-12.52-5.49-12.68-12.39-.17-7.01,5.38-12.82,12.39-12.99l61.9-1.46c7.03-.17,12.82,5.38,12.99,12.39.17,7.01-5.38,12.82-12.39,12.99l-61.9,1.46c-.1,0-.2,0-.3,0Z"/>
  <path class="cls-2" d="M202.28,462.88s15.09,59.31,77.22,68.28"/>
  <path class="cls-1" d="M323.34,462.88c-1.67,0-3.28-.62-4.52-1.74-1.35-1.21-2.14-2.87-2.23-4.67s.52-3.54,1.73-4.88l89.54-99.61c1.35-1.47,3.12-2.24,5.04-2.24,1.67,0,3.28.62,4.52,1.74,2.78,2.49,3,6.78.51,9.56l-89.54,99.6c-1.35,1.47-3.12,2.24-5.04,2.24Z"/>
  <path class="cls-1" d="M409.42,238.85c-7.51-6.6-11.58-14.41-9.11-17.57,2.5-3.21,10.79-.42,18.51,6.24l68.18,58.79c7.74,6.67,11.95,14.65,9.44,17.86-2.5,3.21-10.79.42-18.51-6.24l-68.18-58.79c-.11-.1-.22-.19-.33-.29Z"/>
  <path class="cls-1" d="M276.2,538.7c.91-2.62,3.16-4.72,6.77-4.72.38,0,.75.03,1.1.08-1.52-1.72-3.27-3.46-5.21-5.14l-75.35-65.09c-1.02-.88-2.05-1.7-3.07-2.45-.24,1.04-.67,2.02-1.3,2.86-.25,1.75-1.01,3.4-2.33,4.58-.11,2.34-1.17,4.61-3.16,5.93.17.15.32.3.49.45.12.11.25.22.37.32l75.35,65.09c.53.46,1.06.9,1.6,1.33.95-1.62,2.54-2.86,4.74-3.23Z"/>
</svg>