<?xml version="1.0" encoding="UTF-8"?>
<svg xmlns="http://www.w3.org/2000/svg" viewBox="0 0 379.99 159.98">
  <defs>
    <style>
      .cls-1 {
        fill: #f30;
        stroke-width: 0px;
      }

      .cls-2 {
        fill: none;
        stroke: #000;
        stroke-linecap: round;
        stroke-linejoin: round;
      }
    </style>
  </defs>
  <g id="Make2D::可见线::曲线">
    <path class="cls-2" d="M189.99,29.61c-2.81,0-5.09-2.27-5.09-5.07s2.28-5.09,5.09-5.09"/>
    <path class="cls-2" d="M189.99,66.58c-2.81,0-5.09-2.27-5.09-5.07s2.28-5.09,5.09-5.09"/>
    <path class="cls-2" d="M44.8,123.41c.52.54.83,1.31.8,2.06-.03.75-.39,1.5-.96,1.99"/>
    <path class="cls-2" d="M335.33,127.45c-.57-.49-.93-1.24-.96-1.99-.02-.75.28-1.52.82-2.06"/>
    <path class="cls-2" d="M189.99,56.41c2.81,0,5.07,2.28,5.07,5.09s-2.27,5.07-5.07,5.07"/>
    <path class="cls-2" d="M189.99,19.44c2.81,0,5.07,2.28,5.07,5.09s-2.27,5.07-5.07,5.07"/>
    <path class="cls-2" d="M114.65,79.99c0-6.98-2.77-13.69-7.7-18.63-4.94-4.94-11.65-7.72-18.63-7.72s-13.69,2.77-18.63,7.72c-4.94,4.94-7.72,11.65-7.72,18.63"/>
    <path class="cls-2" d="M318.01,79.99c0-6.98-2.77-13.69-7.72-18.63-4.94-4.94-11.63-7.72-18.63-7.72s-13.67,2.77-18.62,7.72c-4.94,4.94-7.72,11.65-7.72,18.63"/>
    <path class="cls-2" d="M193.53,55.76c3.17,1.96,4.14,6.1,2.2,9.28-1.96,3.17-6.12,4.16-9.28,2.2"/>
    <path class="cls-2" d="M186.45,67.25c-3.18-1.96-4.16-6.12-2.2-9.28"/>
    <path class="cls-2" d="M20.14,158.32v-.24"/>
    <path class="cls-2" d="M265.32,79.99c0,6.98,2.77,13.69,7.72,18.63,4.94,4.93,11.63,7.72,18.62,7.72s13.69-2.79,18.63-7.72c4.94-4.94,7.72-11.65,7.72-18.63"/>
    <path class="cls-2" d="M61.96,79.99c0,6.98,2.77,13.69,7.72,18.63,4.94,4.93,11.65,7.72,18.63,7.72s13.69-2.79,18.63-7.72c4.93-4.94,7.7-11.65,7.7-18.63"/>
    <path class="cls-2" d="M189.99,93.39c2.81,0,5.07,2.28,5.07,5.09s-2.27,5.09-5.07,5.09"/>
    <path class="cls-2" d="M338.65,35.79c-.11.1-.26.21-.41.39-.11.13-.23.28-.34.46-.18.31-.31.69-.34,1.08-.05.39,0,.78.1,1.13.07.2.15.38.23.52.11.2.23.36.33.47"/>
    <path class="cls-2" d="M44.8,123.41c.51.51,1.03,1.01,1.57,1.52"/>
    <path class="cls-2" d="M185.59,64.07c.34-.02.67-.03.82-.05"/>
    <path class="cls-2" d="M20.14,158.32s.02-.1.02-.24"/>
    <path class="cls-2" d="M345.08,116.16c-.11-.1-.26-.21-.47-.33-.15-.08-.33-.16-.52-.23-.34-.1-.73-.15-1.13-.1-.39.03-.77.18-1.08.34-.16.11-.33.23-.46.34-.16.15-.29.29-.39.41"/>
    <path class="cls-2" d="M20.14,158.32c-2.41,0-4.83-.49-7.06-1.4-2.24-.93-4.29-2.3-6-4.01-1.71-1.71-3.08-3.77-4.01-6-.91-2.24-1.4-4.65-1.4-7.06"/>
    <path class="cls-2" d="M184.9,135.45c0-2.81,2.28-5.07,5.09-5.07s5.07,2.27,5.07,5.07"/>
    <path class="cls-2" d="M353.14,79.99c0,2.48-.15,4.93-.44,7.39"/>
    <line class="cls-2" x1="185.46" y1="26.83" x2="185.46" y2="26.83"/>
    <path class="cls-2" d="M36.43,47.03c-.39.62-.77,1.24-1.14,1.86"/>
    <path class="cls-2" d="M335.19,123.41c-.52.51-1.04,1.01-1.58,1.52"/>
    <path class="cls-2" d="M27.27,87.32c.02.11.03.21.05.33"/>
    <line class="cls-2" x1="183.24" y1="61.51" x2="183.97" y2="61.51"/>
    <path class="cls-2" d="M193.84,18.77c1.93,1.27,3.08,3.44,3.08,5.76"/>
    <path class="cls-2" d="M185.51,96.08c.88-1.65,2.61-2.69,4.49-2.69"/>
    <line class="cls-2" x1="20.19" y1="150.26" x2="20.27" y2="150.26"/>
    <path class="cls-2" d="M169.32,99.44c-.42-.82-1.11-1.48-1.91-1.93-.82-.44-1.76-.62-2.66-.52-.91.08-1.81.47-2.51,1.06-.69.6-1.21,1.39-1.45,2.28"/>
    <path class="cls-2" d="M136.85,137.52c-.73.62-1.26,1.44-1.5,2.35s-.2,1.89.13,2.77c.31.88.93,1.66,1.7,2.2.77.54,1.7.83,2.64.83"/>
    <path class="cls-2" d="M165.73,145.68c1.4,0,2.76-.67,3.61-1.75.86-1.08,1.21-2.56.9-3.92"/>
    <path class="cls-2" d="M176.4,120.41c.75-.69,1.26-1.62,1.44-2.61.18-1.01.03-2.06-.44-2.97"/>
    <path class="cls-2" d="M139.82,14.3c-.95,0-1.88.29-2.64.83-.78.54-1.37,1.32-1.7,2.2-.33.88-.36,1.86-.13,2.77.24.9.77,1.73,1.5,2.33"/>
    <path class="cls-2" d="M160.79,59.65c.24.88.77,1.68,1.47,2.28.69.59,1.58.96,2.5,1.06.9.1,1.86-.1,2.66-.52.82-.44,1.48-1.11,1.91-1.93"/>
    <path class="cls-2" d="M177.4,45.14c.47-.9.62-1.94.44-2.95-.16-1-.69-1.93-1.44-2.61"/>
    <path class="cls-2" d="M170.23,19.96c.31-1.37-.03-2.84-.88-3.92-.86-1.08-2.22-1.75-3.62-1.75"/>
    <path class="cls-2" d="M240.15,145.68c.95,0,1.88-.29,2.66-.83.77-.54,1.37-1.32,1.7-2.2s.36-1.86.11-2.77c-.24-.9-.77-1.73-1.48-2.35"/>
    <path class="cls-2" d="M219.2,100.34c-.26-.9-.77-1.68-1.47-2.28-.7-.59-1.6-.96-2.5-1.06-.91-.1-1.86.08-2.68.52-.8.44-1.47,1.11-1.91,1.93"/>
    <path class="cls-2" d="M202.59,114.83c-.47.91-.64,1.96-.46,2.95.18,1.01.69,1.94,1.45,2.63"/>
    <path class="cls-2" d="M209.75,140.02c-.33,1.35.02,2.84.88,3.92.85,1.08,2.22,1.75,3.61,1.75"/>
    <path class="cls-2" d="M210.65,60.54c.44.82,1.11,1.48,1.91,1.93.82.44,1.76.62,2.68.52.91-.08,1.79-.47,2.5-1.06.7-.6,1.21-1.4,1.47-2.28"/>
    <path class="cls-2" d="M243.13,22.44c.72-.6,1.24-1.42,1.48-2.33.24-.91.2-1.89-.11-2.77-.33-.88-.93-1.66-1.7-2.2-.77-.54-1.71-.83-2.66-.83"/>
    <path class="cls-2" d="M214.24,14.3c-1.39,0-2.74.67-3.61,1.75-.86,1.08-1.21,2.55-.88,3.92"/>
    <path class="cls-2" d="M203.58,39.58c-.77.69-1.27,1.62-1.45,2.61-.18,1.01-.02,2.06.46,2.95"/>
    <path class="cls-2" d="M351.78,135.5c.28,0,.47-.11.6-.34"/>
    <path class="cls-2" d="M352.38,135.16c.67-1.16,1.39-1.75,2.17-1.75"/>
    <path class="cls-2" d="M52.52,5.35h.11"/>
    <line class="cls-2" x1="52.5" y1="1.9" x2="52.52" y2="5.35"/>
    <line class="cls-2" x1="5.35" y1="139.71" x2="1.9" y2="139.71"/>
    <path class="cls-2" d="M5.35,139.81v-.1"/>
    <line class="cls-2" x1="378.07" y1="52.5" x2="374.64" y2="52.52"/>
    <path class="cls-2" d="M327.41,1.9c.03-.07.05-.11.05-.15"/>
    <path class="cls-2" d="M52.5,1.66v.24"/>
    <line class="cls-2" x1="327.41" y1="1.9" x2="52.63" y2="1.9"/>
    <path class="cls-2" d="M1.9,52.56c-.07-.03-.11-.05-.15-.05"/>
    <path class="cls-2" d="M1.66,139.71h.24"/>
    <path class="cls-2" d="M1.76,52.52h-.03"/>
    <path class="cls-2" d="M1.72,52.52s-.07-.02-.07-.02"/>
    <path class="cls-2" d="M1.9,139.84c.02,4.08,1.44,8.19,3.98,11.37,3.41,4.24,8.81,6.85,14.26,6.87"/>
    <line class="cls-2" x1="5.35" y1="139.81" x2="1.9" y2="139.82"/>
    <path class="cls-2" d="M327.47,1.66s0,.03-.02.1"/>
    <line class="cls-2" x1="52.5" y1="1.66" x2="51.34" y2=".5"/>
    <line class="cls-2" x1="328.65" y1=".5" x2="327.47" y2="1.66"/>
    <path class="cls-2" d="M1.66,52.5s.03,0,.1.02"/>
    <line class="cls-2" x1="1.66" y1="139.71" x2="1.66" y2="139.84"/>
    <line class="cls-2" x1="1.66" y1="139.84" x2=".5" y2="141"/>
    <line class="cls-2" x1=".5" y1="51.34" x2="1.66" y2="52.5"/>
    <path class="cls-2" d="M24.42,146.05c0,.46.23.69.7.69"/>
    <line class="cls-2" x1="24.42" y1="135.25" x2="24.42" y2="146.05"/>
    <line class="cls-2" x1="22.82" y1="136.84" x2="24.42" y2="135.25"/>
    <path class="cls-2" d="M22.33,137.03c.2,0,.36-.07.49-.2"/>
    <path class="cls-2" d="M21.65,136.35c0,.46.23.69.69.69"/>
    <path class="cls-2" d="M21.84,135.87c-.13.11-.2.28-.2.47"/>
    <line class="cls-2" x1="24.57" y1="133.15" x2="21.84" y2="135.87"/>
    <path class="cls-2" d="M25.12,132.89c-.2,0-.38.08-.55.26"/>
    <path class="cls-2" d="M25.81,133.57c0-.46-.23-.69-.69-.69"/>
    <line class="cls-2" x1="25.81" y1="146.05" x2="25.81" y2="133.57"/>
    <path class="cls-2" d="M25.12,146.74c.46,0,.69-.23.69-.69"/>
    <path class="cls-2" d="M351.16,134.52c-.05.08-.07.18-.07.28"/>
    <path class="cls-2" d="M354.55,132.02c-1.4,0-2.55.83-3.39,2.5"/>
    <path class="cls-2" d="M358.03,135.48c0-.95-.34-1.76-1.03-2.45-.67-.67-1.48-1.01-2.45-1.01"/>
    <path class="cls-2" d="M357.39,137.49c.42-.67.64-1.34.64-2.01"/>
    <line class="cls-2" x1="353.02" y1="144.5" x2="357.39" y2="137.49"/>
    <line class="cls-2" x1="357.33" y1="144.5" x2="353.02" y2="144.5"/>
    <path class="cls-2" d="M358.03,145.19c0-.46-.23-.69-.7-.69"/>
    <path class="cls-2" d="M357.33,145.89c.47,0,.7-.23.7-.7"/>
    <line class="cls-2" x1="351.78" y1="145.89" x2="357.33" y2="145.89"/>
    <path class="cls-2" d="M351.1,145.19c0,.47.23.7.69.7"/>
    <path class="cls-2" d="M351.21,144.8c-.08.13-.11.26-.11.39"/>
    <line class="cls-2" x1="356.28" y1="136.64" x2="351.21" y2="144.8"/>
    <path class="cls-2" d="M356.64,135.5c0,.39-.13.77-.36,1.14"/>
    <path class="cls-2" d="M354.55,133.41c.57,0,1.06.21,1.47.62.41.41.62.9.62,1.47"/>
    <path class="cls-2" d="M351.1,134.8c0,.47.23.7.69.7"/>
    <path class="cls-2" d="M338.65,35.79s.1.08.28.23c.1.07.21.16.34.26.07.07.15.11.23.18.03.03.08.07.11.1.02.02.05.03.07.05s.07.05.07.05c.18.15.41.33.73.57.31.26.7.57,1.17.95"/>
    <path class="cls-2" d="M341.65,38.17c-.54.26-1.01.47-1.37.65-.18.08-.34.16-.47.23-.07.03-.13.07-.2.08-.03.02-.05.03-.08.05-.02,0-.02.02-.03.02s-.02,0-.05.02c-.82.41-1.22.6-1.24.62"/>
    <path class="cls-2" d="M343.56,47.03s.08-.1.23-.26c.08-.08.18-.2.29-.31.07-.07.13-.13.2-.21.03-.03.07-.08.11-.11.02-.02.03-.03.05-.07l.07-.07c.15-.16.34-.39.62-.69.28-.29.62-.67,1.01-1.11"/>
    <path class="cls-2" d="M338.21,39.84c1.96,2.27,3.74,4.65,5.35,7.2"/>
    <path class="cls-2" d="M346.14,44.21c.21.54.41,1.01.55,1.39.07.18.13.36.2.51.03.07.05.13.08.2.02.03.02.07.03.1,0,.02.02.02.02.03s0,.02.02.05c.34.85.51,1.27.51,1.29"/>
    <path class="cls-2" d="M356.43,72.75c-.65-.02-1.19-.05-1.62-.07-.2,0-.38-.02-.52-.02h-.21s-.05-.02-.08-.02h-.08c-.83-.03-1.21-.05-1.22-.05"/>
    <path class="cls-2" d="M358.16,126.54h-.16c-.6-.03-1.19-.28-1.65-.67"/>
    <path class="cls-2" d="M360.93,123.77c0,.31-.05.6-.15.9-.2.57-.59,1.08-1.08,1.4-.46.31-1.01.47-1.55.47"/>
    <path class="cls-2" d="M345.08,116.16s-.05.11-.15.31c-.05.11-.11.24-.2.39-.03.08-.08.16-.11.26-.03.05-.05.1-.08.15,0,.02-.02.05-.03.07-.02.03-.03.07-.03.08-.1.2-.23.49-.41.85s-.41.82-.65,1.34"/>
    <path class="cls-2" d="M343.41,119.61c-.36-.47-.67-.86-.93-1.17-.11-.16-.23-.31-.33-.42-.05-.07-.1-.11-.13-.16-.02-.03-.05-.07-.07-.08,0-.02-.02-.02-.03-.03t-.02-.03c-.57-.72-.86-1.08-.88-1.09"/>
    <path class="cls-2" d="M335.19,123.41s.1.05.29.16c.11.07.23.15.38.23.08.05.16.08.24.15.05.02.1.05.15.07.02.02.03.03.07.05.02.02.07.03.07.03.2.11.47.28.82.47.36.2.78.46,1.31.73"/>
    <path class="cls-2" d="M341.03,116.6c-1.78,2.41-3.72,4.67-5.84,6.8"/>
    <path class="cls-2" d="M338.5,125.3c-.47.33-.9.62-1.22.85-.16.11-.33.21-.46.29-.07.05-.11.1-.18.13-.02.02-.05.03-.08.05,0,.02-.02.02-.03.03t-.03.02c-.77.52-1.14.78-1.16.78"/>
    <path class="cls-2" d="M299.86,140.93s.03.42.03,1.11c.02.69.02,1.63.03,2.59"/>
    <path class="cls-2" d="M299.93,144.63c-.11-.96-.23-1.93-.31-2.59-.07-.69-.11-1.08-.1-1.08"/>
    <path class="cls-2" d="M299.93,15.35c-.02.96-.02,1.91-.03,2.59,0,.69-.02,1.09-.03,1.11"/>
    <path class="cls-2" d="M189.99,110.13c-3.1,0-6.07-1.22-8.24-3.41-2.19-2.19-3.43-5.14-3.43-8.24s1.24-6.05,3.41-8.24c2.19-2.19,5.16-3.41,8.26-3.41"/>
    <path class="cls-2" d="M189.99,109.57c-2.95,0-5.78-1.17-7.85-3.25-2.09-2.09-3.25-4.91-3.25-7.85s1.16-5.76,3.25-7.85c2.07-2.07,4.89-3.25,7.85-3.25"/>
    <path class="cls-2" d="M189.99,73.15c-3.1,0-6.07-1.22-8.24-3.41-2.19-2.19-3.43-5.16-3.43-8.24s1.24-6.05,3.41-8.24c2.19-2.19,5.16-3.43,8.26-3.43"/>
    <path class="cls-2" d="M189.99,72.6c-2.95,0-5.78-1.17-7.85-3.25-2.09-2.09-3.25-4.91-3.25-7.85s1.16-5.76,3.25-7.85c2.07-2.07,4.89-3.25,7.85-3.25"/>
    <path class="cls-2" d="M189.99,147.11c-3.1,0-6.07-1.24-8.24-3.43-2.19-2.19-3.43-5.14-3.43-8.24s1.24-6.05,3.41-8.24c2.19-2.19,5.16-3.41,8.26-3.41"/>
    <path class="cls-2" d="M189.99,124.35c-2.95,0-5.78,1.17-7.85,3.25-2.09,2.09-3.25,4.91-3.25,7.85s1.16,5.76,3.25,7.85c2.07,2.07,4.89,3.25,7.85,3.25"/>
    <path class="cls-2" d="M189.99,36.18c-3.1,0-6.07-1.22-8.24-3.41-2.19-2.19-3.43-5.16-3.43-8.24s1.24-6.05,3.41-8.24c2.19-2.19,5.16-3.43,8.26-3.43"/>
    <path class="cls-2" d="M189.99,35.63c-2.95,0-5.78-1.17-7.85-3.25-2.09-2.09-3.25-4.91-3.25-7.85s1.16-5.76,3.25-7.85c2.07-2.07,4.89-3.25,7.85-3.25"/>
    <line class="cls-2" x1="209.82" y1="48.86" x2="208.3" y2="45.97"/>
    <line class="cls-2" x1="210.65" y1="60.54" x2="202.59" y2="45.14"/>
    <path class="cls-2" d="M209.75,19.96c1.65,7.16-.7,14.68-6.17,19.61"/>
    <path class="cls-2" d="M208.9,40.82c4.08-4.73,6.23-10.82,6.04-17.07"/>
    <line class="cls-2" x1="219.56" y1="18.99" x2="228.63" y2="18.99"/>
    <line class="cls-2" x1="214.24" y1="14.3" x2="240.15" y2="14.3"/>
    <path class="cls-2" d="M232.07,26.69c-5.79,6.48-10.49,13.85-13.92,21.85"/>
    <path class="cls-2" d="M219.2,59.65c4.06-14.52,12.42-27.48,23.94-37.2"/>
    <line class="cls-2" x1="219.56" y1="141" x2="228.63" y2="141"/>
    <line class="cls-2" x1="214.24" y1="145.68" x2="240.15" y2="145.68"/>
    <path class="cls-2" d="M214.94,135.45v.78"/>
    <path class="cls-2" d="M209.75,140.02c1.66-1.08,3.41-2.33,5.19-3.79"/>
    <path class="cls-2" d="M210.26,135.45c0,1.55-.16,3.05-.51,4.57"/>
    <line class="cls-2" x1="209.82" y1="111.12" x2="208.3" y2="114.01"/>
    <line class="cls-2" x1="210.65" y1="99.44" x2="202.59" y2="114.83"/>
    <path class="cls-2" d="M243.13,137.52c-11.52-9.71-19.87-22.66-23.94-37.18"/>
    <path class="cls-2" d="M243.13,137.52c-3.69-1.26-7.37-2.66-11.06-4.23"/>
    <path class="cls-2" d="M232.07,133.3c-5.79-6.48-10.49-13.85-13.92-21.85"/>
    <path class="cls-2" d="M219.2,100.34c-.46,3.64-.82,7.34-1.04,11.11"/>
    <line class="cls-2" x1="160.43" y1="18.99" x2="151.34" y2="18.99"/>
    <line class="cls-2" x1="165.73" y1="14.3" x2="139.82" y2="14.3"/>
    <path class="cls-2" d="M176.4,39.58c-5.47-4.93-7.83-12.45-6.17-19.61"/>
    <path class="cls-2" d="M171.08,40.82c-4.08-4.73-6.23-10.82-6.04-17.07"/>
    <line class="cls-2" x1="169.32" y1="60.54" x2="177.4" y2="45.14"/>
    <line class="cls-2" x1="170.15" y1="48.86" x2="171.67" y2="45.97"/>
    <path class="cls-2" d="M136.85,22.44c11.52,9.72,19.86,22.68,23.94,37.2"/>
    <path class="cls-2" d="M147.9,26.69c5.79,6.48,10.51,13.85,13.92,21.85"/>
    <line class="cls-2" x1="169.32" y1="99.44" x2="177.4" y2="114.83"/>
    <line class="cls-2" x1="170.15" y1="111.12" x2="171.67" y2="114.01"/>
    <path class="cls-2" d="M176.4,120.41c-1.63-.46-3.41-.88-5.32-1.24"/>
    <path class="cls-2" d="M170.23,140.02c-1.66-7.16.7-14.68,6.17-19.61"/>
    <path class="cls-2" d="M170.23,140.02c-1.68-1.08-3.41-2.33-5.19-3.79"/>
    <path class="cls-2" d="M171.08,119.17c-4.08,4.73-6.23,10.82-6.04,17.07"/>
    <line class="cls-2" x1="160.43" y1="141" x2="151.34" y2="141"/>
    <line class="cls-2" x1="165.73" y1="145.68" x2="139.82" y2="145.68"/>
    <path class="cls-2" d="M147.9,133.3c5.79-6.48,10.51-13.85,13.92-21.85"/>
    <path class="cls-2" d="M136.85,137.52c3.67-1.26,7.36-2.66,11.05-4.23"/>
    <path class="cls-2" d="M160.79,100.34c-4.08,14.52-12.42,27.48-23.94,37.18"/>
    <path class="cls-2" d="M160.79,100.34c.46,3.64.8,7.34,1.03,11.11"/>
    <path class="cls-2" d="M44.63,127.45l-.29-.2c-.1-.07-.21-.15-.36-.24-.07-.05-.15-.1-.23-.15-.05-.03-.08-.07-.13-.1-.02-.02-.05-.03-.07-.05-.03-.02-.07-.03-.07-.05-.2-.13-.46-.29-.78-.52-.34-.23-.75-.52-1.24-.85"/>
    <path class="cls-2" d="M38.94,116.6s-.08.1-.23.28c-.07.1-.16.21-.26.34-.07.07-.11.13-.18.21-.03.05-.07.08-.1.13-.02.02-.03.03-.05.07-.02.02-.05.05-.05.07-.15.18-.34.41-.59.73-.24.31-.55.7-.91,1.17"/>
    <path class="cls-2" d="M44.8,123.41c-2.12-2.14-4.06-4.39-5.86-6.8"/>
    <path class="cls-2" d="M41.47,125.3c.52-.28.96-.54,1.31-.73.18-.1.33-.2.47-.26.07-.05.13-.08.18-.11.03-.02.07-.03.08-.05.02,0,.03-.02.05-.02t.03-.03c.8-.46,1.19-.69,1.21-.69"/>
    <path class="cls-2" d="M36.57,119.61c-.26-.52-.49-.98-.65-1.34-.1-.18-.18-.34-.24-.49l-.1-.2s-.02-.07-.03-.08-.02-.03-.02-.05l-.03-.03c-.39-.83-.59-1.24-.6-1.26"/>
    <path class="cls-2" d="M21.82,126.54c-.26,0-.51-.03-.73-.1-.59-.15-1.11-.51-1.47-.98-.38-.49-.57-1.09-.57-1.7"/>
    <path class="cls-2" d="M23.64,125.87c-.23.2-.49.36-.77.47-.34.13-.7.2-1.04.2"/>
    <path class="cls-2" d="M27.27,87.32c-.29-2.45-.44-4.89-.44-7.36"/>
    <path class="cls-2" d="M23.54,87.17c.65.02,1.21.05,1.62.07.21,0,.39.02.54.02.08,0,.15.02.21.02h.16c.83.03,1.21.05,1.21.05"/>
    <path class="cls-2" d="M32.43,47.77s.05-.11.13-.33c.03-.11.1-.24.16-.41.03-.08.07-.16.1-.26.02-.05.03-.1.07-.15,0-.02.02-.05.03-.07,0-.03.02-.08.02-.08.08-.21.2-.49.34-.86.15-.38.34-.85.57-1.4"/>
    <path class="cls-2" d="M41.78,39.84s-.11-.05-.33-.16c-.1-.05-.23-.11-.39-.18-.07-.05-.16-.08-.24-.13-.05-.02-.1-.05-.15-.07-.02-.02-.05-.03-.07-.03-.03-.02-.07-.03-.08-.05-.2-.1-.47-.23-.85-.39-.36-.18-.82-.41-1.34-.65"/>
    <path class="cls-2" d="M36.43,47.03c1.62-2.55,3.38-4.93,5.35-7.2"/>
    <path class="cls-2" d="M33.85,44.21c.39.46.73.83,1.01,1.13.13.15.24.28.36.39.05.05.1.11.13.15s.05.05.07.08c.02,0,.02.02.03.03.02,0,0,0,.03.02.62.69.93,1.01.95,1.03"/>
    <path class="cls-2" d="M38.34,38.17c.44-.36.83-.67,1.16-.93.15-.13.29-.23.42-.33.05-.05.11-.1.16-.15.03-.02.05-.03.08-.05l.03-.03.03-.03c.72-.57,1.08-.85,1.09-.86"/>
    <path class="cls-2" d="M80.11,19.05s-.02-.42-.03-1.11c0-.69-.02-1.63-.03-2.59"/>
    <path class="cls-2" d="M80.04,15.35c.11.96.23,1.93.31,2.59.08.69.11,1.08.11,1.08"/>
    <path class="cls-2" d="M80.04,144.63c.02-.96.03-1.91.03-2.59.02-.69.02-1.09.03-1.11"/>
    <path class="cls-2" d="M20.19,150.26v2.69c-.02.78-.02,1.37-.02,1.68"/>
    <path class="cls-2" d="M20.27,150.26v4.37"/>
    <path class="cls-2" d="M374.64,52.52v.11"/>
    <path class="cls-2" d="M378.31,52.5h-.24"/>
    <path class="cls-2" d="M378.31,52.63h-.24"/>
    <line class="cls-2" x1="378.07" y1="52.63" x2="374.64" y2="52.63"/>
    <path class="cls-2" d="M327.47,1.66c7.02,0,13.82,1.47,19.95,4.08,6.12,2.61,11.55,6.36,16.01,10.82,4.44,4.44,8.19,9.87,10.8,15.99,2.61,6.12,4.08,12.94,4.08,19.95"/>
    <path class="cls-2" d="M1.66,52.5c0-7,1.47-13.82,4.08-19.94,2.61-6.12,6.36-11.57,10.82-16.01,4.44-4.45,9.87-8.21,15.99-10.82,6.12-2.61,12.94-4.08,19.95-4.08"/>
    <path class="cls-2" d="M1.9,139.82v.02"/>
    <line class="cls-2" x1="192.37" y1="29.02" x2="191.82" y2="28.01"/>
    <path class="cls-2" d="M191.82,28.01c-.41.23-.82.44-1.11.6s-.49.28-.49.29"/>
    <line class="cls-2" x1="190.22" y1="28.91" x2="190.58" y2="29.57"/>
    <line class="cls-2" x1="187.43" y1="57.1" x2="188.02" y2="58.1"/>
    <path class="cls-2" d="M188.02,58.1c.41-.24.82-.47,1.09-.65.29-.18.47-.29.49-.31"/>
    <line class="cls-2" x1="189.6" y1="57.13" x2="189.21" y2="56.48"/>
    <line class="cls-2" x1="186.4" y1="64.02" x2="186.03" y2="64.69"/>
    <line class="cls-2" x1="192.13" y1="101.77" x2="192.05" y2="101.82"/>
    <path class="cls-2" d="M193.71,100.81c.13,0,.47,0,.8-.02"/>
    <path class="cls-2" d="M193.71,100.81s-.21.11-.51.28c-.28.18-.67.42-1.08.69"/>
    <path class="cls-2" d="M192.05,101.82c-.41.26-.8.51-1.08.69-.28.18-.46.31-.47.33"/>
    <path class="cls-2" d="M190.16,103.55c.15-.29.29-.6.34-.72"/>
    <line class="cls-2" x1="185.96" y1="96.75" x2="185.2" y2="96.78"/>
    <path class="cls-2" d="M185.51,96.08c.18.28.38.55.46.67"/>
    <path class="cls-2" d="M195.07,135.45c0,2.81-2.27,5.09-5.07,5.09s-5.09-2.28-5.09-5.09"/>
    <path class="cls-2" d="M185.2,96.78s.03-.07.05-.11c.02-.08.07-.16.1-.28.05-.1.1-.2.16-.31"/>
    <path class="cls-2" d="M196,24.53c0,3.31-2.69,6-6,6s-6.02-2.69-6.02-6"/>
    <path class="cls-2" d="M196,135.45c0,3.33-2.69,6-6,6s-6.02-2.68-6.02-6"/>
    <path class="cls-2" d="M189.99,104.48c-3.33,0-6.02-2.69-6.02-6s2.69-6,6.02-6"/>
    <path class="cls-2" d="M354.6,42.53c-.38,1.22-.78,2.48-1.26,3.77"/>
    <line class="cls-2" x1="32.43" y1="47.77" x2="25.37" y2="42.53"/>
    <line class="cls-2" x1="31.24" y1="49.73" x2="26.62" y2="46.3"/>
    <path class="cls-2" d="M25.37,42.53c.39,1.29.82,2.55,1.26,3.77"/>
    <path class="cls-2" d="M19.05,55.96c0-4.13.69-8.22,2.04-12.12"/>
    <path class="cls-2" d="M184.25,57.96c.44-.73,1.01-1.35,1.7-1.86.18-.13.39-.28.59-.39.2-.11.39-.23.6-.33.41-.2.85-.34,1.29-.44.91-.21,1.83-.24,2.74-.08.23.03.41.08.62.15.21.05.41.11.6.2.39.15.77.33,1.14.55"/>
    <line class="cls-2" x1="347.54" y1="47.77" x2="354.6" y2="42.53"/>
    <line class="cls-2" x1="348.73" y1="49.73" x2="353.35" y2="46.3"/>
    <path class="cls-2" d="M347.54,47.77c.41.65.82,1.29,1.19,1.96"/>
    <path class="cls-2" d="M358.88,43.84c1.35,3.9,2.06,7.99,2.06,12.12"/>
    <line class="cls-2" x1="19.05" y1="55.96" x2="19.05" y2="57.9"/>
    <line class="cls-2" x1="21.32" y1="55.96" x2="19.05" y2="55.96"/>
    <path class="cls-2" d="M198.09,61.51c0-2.81-1.45-5.42-3.85-6.9"/>
    <path class="cls-2" d="M347.54,47.77c-.6.46-1.4.64-2.15.51-.75-.15-1.42-.6-1.83-1.24"/>
    <path class="cls-2" d="M343.56,47.03c.39.62.77,1.24,1.13,1.86"/>
    <line class="cls-2" x1="358.65" y1="55.96" x2="360.93" y2="55.96"/>
    <path class="cls-2" d="M43.23,38.21c-.51.54-.98,1.08-1.45,1.63"/>
    <path class="cls-2" d="M25.94,69.88c.21-.82.44-1.6.69-2.38"/>
    <path class="cls-2" d="M21.32,56.59c-.75.38-1.52.82-2.27,1.31"/>
    <path class="cls-2" d="M37.67,114.83c.41.6.83,1.19,1.27,1.78"/>
    <path class="cls-2" d="M198.44,24.53c0-4.67-3.79-8.45-8.45-8.45"/>
    <path class="cls-2" d="M198.44,135.45c0-4.67-3.79-8.45-8.45-8.45s-8.45,3.79-8.45,8.45"/>
    <path class="cls-2" d="M342.3,114.83c-.41.6-.83,1.19-1.27,1.78"/>
    <path class="cls-2" d="M338.21,39.84c-.47-.55-.96-1.09-1.45-1.63"/>
    <path class="cls-2" d="M353.36,67.49c.24.78.47,1.57.69,2.38"/>
    <path class="cls-2" d="M189.99,90.03c4.67,0,8.45,3.79,8.45,8.45"/>
    <line class="cls-2" x1="25.9" y1="120.91" x2="33.57" y2="114.3"/>
    <line class="cls-2" x1="23.64" y1="125.87" x2="34.89" y2="116.16"/>
    <line class="cls-2" x1="38.24" y1="30.67" x2="42.86" y2="34.09"/>
    <path class="cls-2" d="M27.63,70.1c-.13.83-.24,1.66-.34,2.5"/>
    <path class="cls-2" d="M60.58,79.99c0-11.36,6.93-21.57,17.49-25.76,10.56-4.21,22.61-1.53,30.41,6.72"/>
    <line class="cls-2" x1="46.28" y1="129.05" x2="40.78" y2="133.78"/>
    <line class="cls-2" x1="354.07" y1="120.91" x2="346.4" y2="114.3"/>
    <line class="cls-2" x1="356.35" y1="125.87" x2="345.08" y2="116.16"/>
    <path class="cls-2" d="M352.69,87.38c-.11.83-.23,1.66-.36,2.48"/>
    <line class="cls-2" x1="333.69" y1="129.05" x2="339.19" y2="133.78"/>
    <path class="cls-2" d="M333.69,129.05c.57-.52,1.11-1.06,1.65-1.6"/>
    <path class="cls-2" d="M338.65,35.79c-.49-.57-1-1.14-1.52-1.7"/>
    <line class="cls-2" x1="341.73" y1="30.67" x2="337.13" y2="34.09"/>
    <path class="cls-2" d="M352.34,70.1c.13.83.24,1.66.36,2.5"/>
    <path class="cls-2" d="M352.69,72.6c.29,2.46.44,4.91.44,7.39"/>
    <path class="cls-2" d="M286.24,52.79c8.14-1.62,16.59.49,23.01,5.76,6.43,5.27,10.15,13.13,10.15,21.44"/>
    <line class="cls-2" x1="25.9" y1="120.91" x2="23.64" y2="125.87"/>
    <path class="cls-2" d="M70.36,21.2c3.3-1.01,6.67-1.75,10.1-2.19"/>
    <path class="cls-2" d="M70.36,21.2s-.08.02-.11.03c-.03,0-.07.02-.1.02-.03.02-.07.02-.1.02-.03.02-.07.02-.1.02-.03.02-.08.02-.11.02s-.07.02-.1.02h-.2"/>
    <path class="cls-2" d="M69.55,138.66h.2s.08,0,.11.02c.03,0,.07,0,.1.02.03,0,.07,0,.1.02.03,0,.08,0,.11.02l.2.05"/>
    <path class="cls-2" d="M26.62,67.49c.78.6,1.17,1.63,1.01,2.61"/>
    <path class="cls-2" d="M21.32,56.59c0,2.09.49,4.16,1.39,6.04.91,1.88,2.25,3.56,3.92,4.86"/>
    <line class="cls-2" x1="21.32" y1="55.96" x2="21.32" y2="56.59"/>
    <path class="cls-2" d="M26.62,46.3c-.73-.55-1.73-.69-2.59-.38-.86.31-1.53,1.06-1.75,1.96"/>
    <path class="cls-2" d="M35.29,48.89c-.39.69-1.08,1.16-1.84,1.32-.75.15-1.57-.03-2.2-.49"/>
    <path class="cls-2" d="M42.86,34.09c.62.47,1.03,1.21,1.09,1.97.08.77-.2,1.57-.72,2.14"/>
    <path class="cls-2" d="M38.5,26.05c-.8.46-1.32,1.32-1.37,2.24-.05.91.38,1.83,1.11,2.38"/>
    <path class="cls-2" d="M40.78,133.78c-.88.75-1.19,1.97-.78,3.07.39,1.09,1.44,1.81,2.59,1.81"/>
    <path class="cls-2" d="M46.36,124.93c.57.54.9,1.31.88,2.07-.02.78-.38,1.53-.96,2.06"/>
    <path class="cls-2" d="M33.57,114.3c.59-.52,1.4-.75,2.17-.65.77.1,1.48.54,1.93,1.17"/>
    <path class="cls-2" d="M24.09,121.58c.67,0,1.31-.24,1.81-.67"/>
    <path class="cls-2" d="M21.32,118.81c0,1.53,1.24,2.77,2.77,2.77"/>
    <path class="cls-2" d="M21.32,100.79c0-2.04.46-4.06,1.32-5.89.85-1.81,2.12-3.48,3.7-4.78"/>
    <path class="cls-2" d="M27.32,87.64c.11.93-.26,1.89-.98,2.48"/>
    <line class="cls-2" x1="42.6" y1="138.66" x2="36.46" y2="140.93"/>
    <line class="cls-2" x1="360.93" y1="123.77" x2="358.65" y2="118.81"/>
    <path class="cls-2" d="M309.62,138.78c-3.3,1.01-6.69,1.75-10.1,2.19"/>
    <path class="cls-2" d="M310.44,138.66h-.21s-.07,0-.1.02c-.05,0-.08,0-.11.02-.03,0-.07,0-.1.02-.03,0-.07,0-.1.02l-.2.05"/>
    <path class="cls-2" d="M309.62,21.2s.07.02.1.03c.03,0,.07.02.1.02.03.02.07.02.1.02.05.02.08.02.11.02.03.02.07.02.1.02s.07.02.1.02h.21"/>
    <path class="cls-2" d="M299.52,19.02c3.41.44,6.8,1.17,10.1,2.19"/>
    <path class="cls-2" d="M345.7,26.08c-1.35-.05-2.76-.07-4.21-.03"/>
    <path class="cls-2" d="M354.07,120.91c.51.42,1.14.67,1.81.67"/>
    <path class="cls-2" d="M346.4,114.3c-.59-.52-1.4-.75-2.15-.65-.77.1-1.48.54-1.94,1.17"/>
    <path class="cls-2" d="M333.61,124.93c-.57.54-.88,1.31-.86,2.07,0,.78.36,1.53.95,2.06"/>
    <path class="cls-2" d="M339.19,133.78c.62.52.96,1.29.96,2.1"/>
    <path class="cls-2" d="M337.37,138.66c1.53,0,2.77-1.24,2.77-2.77"/>
    <path class="cls-2" d="M341.49,26.05c.78.46,1.32,1.32,1.37,2.24.05.91-.38,1.83-1.13,2.38"/>
    <path class="cls-2" d="M337.13,34.09c-.64.47-1.04,1.21-1.11,1.97-.07.77.2,1.57.73,2.14"/>
    <path class="cls-2" d="M344.68,48.89c.41.69,1.09,1.16,1.84,1.32.75.15,1.58-.03,2.2-.49"/>
    <path class="cls-2" d="M353.35,46.3c.73-.55,1.73-.7,2.59-.38.86.31,1.53,1.06,1.75,1.96"/>
    <line class="cls-2" x1="358.65" y1="55.96" x2="358.65" y2="56.59"/>
    <path class="cls-2" d="M358.65,56.59c0,2.09-.49,4.18-1.39,6.04-.9,1.88-2.25,3.56-3.9,4.86"/>
    <path class="cls-2" d="M353.36,67.49c-.78.6-1.19,1.63-1.03,2.61"/>
    <path class="cls-2" d="M352.34,89.86c-.16,1,.24,2.02,1.03,2.63"/>
    <path class="cls-2" d="M353.36,92.49c1.65,1.31,2.99,2.99,3.9,4.86.91,1.88,1.39,3.95,1.39,6.04"/>
    <path class="cls-2" d="M358.65,118.81c0,1.53-1.24,2.77-2.77,2.77"/>
    <line class="cls-2" x1="21.32" y1="118.81" x2="21.32" y2="100.79"/>
    <path class="cls-2" d="M26.34,90.12c-.15,0-.28-.03-.42-.08"/>
    <path class="cls-2" d="M25.92,90.04s-.39-.52-.95-1.19c-.42-.51-.93-1.11-1.44-1.68"/>
    <path class="cls-2" d="M27.27,87.32c.13,1.06-.42,2.19-1.35,2.72"/>
    <path class="cls-2" d="M25.94,69.88c.52.31.95.8,1.17,1.37.16.42.23.9.18,1.35"/>
    <path class="cls-2" d="M23.55,72.75c.67-.77,1.32-1.57,1.79-2.14.34-.42.57-.72.59-.73"/>
    <path class="cls-2" d="M36.43,47.03c-.41.64-1.09,1.09-1.84,1.24-.73.13-1.55-.05-2.15-.51"/>
    <path class="cls-2" d="M41.32,35.79c.62.46,1.03,1.17,1.11,1.93.08.75-.16,1.53-.65,2.12"/>
    <path class="cls-2" d="M34.29,26.08c6.3-4.57,13.88-7.03,21.67-7.03"/>
    <path class="cls-2" d="M55.96,21.32c-6.13,0-12.16,1.63-17.46,4.73"/>
    <line class="cls-2" x1="55.96" y1="19.05" x2="55.96" y2="21.32"/>
    <line class="cls-2" x1="80.11" y1="19.05" x2="55.96" y2="19.05"/>
    <line class="cls-2" x1="55.96" y1="21.32" x2="69.55" y2="21.32"/>
    <path class="cls-2" d="M80.46,19.02c-.13.02-.24.03-.36.03"/>
    <path class="cls-2" d="M80.46,19.02c17.52-2.25,35.18,3.15,48.44,14.81,13.26,11.67,20.87,28.49,20.87,46.16"/>
    <path class="cls-2" d="M80.11,140.93c.11,0,.23.02.36.03"/>
    <line class="cls-2" x1="36.46" y1="140.93" x2="80.11" y2="140.93"/>
    <line class="cls-2" x1="69.55" y1="138.66" x2="42.6" y2="138.66"/>
    <path class="cls-2" d="M34.89,116.16c.59-.51,1.37-.73,2.12-.65.75.08,1.47.49,1.93,1.09"/>
    <path class="cls-2" d="M151.34,141c-.9,0-1.76-.26-2.51-.73-.73-.49-1.35-1.19-1.7-1.99-.36-.82-.49-1.73-.36-2.59.15-.88.54-1.71,1.13-2.38"/>
    <path class="cls-2" d="M161.82,111.45c.34-.82.91-1.5,1.63-1.99.7-.49,1.57-.78,2.43-.82.86-.03,1.75.18,2.5.62.75.44,1.37,1.08,1.78,1.86"/>
    <path class="cls-2" d="M171.67,114.01c.42.82.6,1.75.51,2.66-.11.91-.49,1.79-1.09,2.5"/>
    <path class="cls-2" d="M165.05,136.23c.03,1.24-.44,2.48-1.31,3.36-.85.88-2.07,1.4-3.31,1.4"/>
    <path class="cls-2" d="M171.67,45.97c.42-.82.6-1.75.51-2.66-.11-.91-.49-1.79-1.09-2.5"/>
    <path class="cls-2" d="M161.82,48.53c.34.8.91,1.5,1.63,1.99.7.49,1.57.78,2.43.82.86.03,1.73-.18,2.5-.62.75-.44,1.37-1.08,1.78-1.86"/>
    <path class="cls-2" d="M151.34,18.99c-.9,0-1.76.26-2.51.73-.75.49-1.34,1.19-1.71,1.99-.36.82-.47,1.73-.34,2.61.15.86.54,1.7,1.13,2.37"/>
    <path class="cls-2" d="M165.05,23.75c.03-1.24-.46-2.48-1.31-3.36-.85-.88-2.07-1.4-3.31-1.4"/>
    <path class="cls-2" d="M208.3,114.01c-.42.82-.59,1.75-.49,2.66.1.91.49,1.79,1.09,2.5"/>
    <path class="cls-2" d="M218.15,111.45c-.34-.82-.91-1.5-1.62-1.99-.72-.49-1.58-.78-2.45-.82-.86-.03-1.73.18-2.5.62-.75.44-1.37,1.08-1.78,1.86"/>
    <path class="cls-2" d="M228.63,141c.9,0,1.78-.26,2.51-.73.75-.49,1.35-1.19,1.71-1.99.36-.82.47-1.73.34-2.61-.13-.86-.52-1.7-1.13-2.37"/>
    <path class="cls-2" d="M214.94,136.23c-.05,1.24.44,2.48,1.29,3.36.86.88,2.07,1.4,3.33,1.4"/>
    <path class="cls-2" d="M228.63,18.99c.9,0,1.78.26,2.51.73.75.49,1.35,1.19,1.71,1.99.36.82.49,1.73.34,2.59-.13.88-.52,1.71-1.13,2.38"/>
    <path class="cls-2" d="M218.15,48.53c-.34.8-.91,1.5-1.62,1.99-.72.49-1.58.78-2.45.82-.86.03-1.73-.18-2.5-.62-.75-.44-1.37-1.08-1.78-1.86"/>
    <path class="cls-2" d="M208.3,45.97c-.42-.82-.59-1.75-.49-2.66s.49-1.79,1.09-2.5"/>
    <path class="cls-2" d="M214.94,23.75c-.05-1.24.44-2.48,1.29-3.36.86-.88,2.07-1.4,3.33-1.4"/>
    <path class="cls-2" d="M354.05,69.88s.41.54.96,1.21c.41.51.91,1.09,1.42,1.66"/>
    <path class="cls-2" d="M354.05,69.88c-.93.54-1.48,1.66-1.35,2.72"/>
    <path class="cls-2" d="M354.05,90.11c-.54-.31-.96-.8-1.19-1.37-.16-.42-.23-.9-.16-1.35"/>
    <path class="cls-2" d="M356.43,87.22c-.67.78-1.34,1.58-1.79,2.15-.34.42-.59.72-.59.73"/>
    <line class="cls-2" x1="358.65" y1="118.81" x2="358.65" y2="103.39"/>
    <path class="cls-2" d="M341.03,116.6c.91-1.21,2.89-1.44,4.05-.44"/>
    <line class="cls-2" x1="343.51" y1="140.93" x2="299.86" y2="140.93"/>
    <line class="cls-2" x1="310.44" y1="138.66" x2="337.37" y2="138.66"/>
    <path class="cls-2" d="M299.52,140.96c.11-.02.23-.03.34-.03"/>
    <path class="cls-2" d="M299.86,19.05c-.11,0-.23-.02-.34-.03"/>
    <line class="cls-2" x1="299.86" y1="19.05" x2="324.01" y2="19.05"/>
    <line class="cls-2" x1="324.01" y1="21.32" x2="310.44" y2="21.32"/>
    <path class="cls-2" d="M324.01,19.05c7.78,0,15.37,2.46,21.68,7.03"/>
    <path class="cls-2" d="M341.49,26.05c-5.3-3.1-11.34-4.73-17.47-4.73"/>
    <line class="cls-2" x1="324.01" y1="21.32" x2="324.01" y2="19.05"/>
    <path class="cls-2" d="M347.54,47.77c-1.21.91-3.17.54-3.98-.73"/>
    <path class="cls-2" d="M338.21,39.84c-1-1.16-.78-3.13.44-4.05"/>
    <path class="cls-2" d="M20.27,154.64h-.1"/>
    <line class="cls-2" x1="20.16" y1="158.08" x2="20.27" y2="158.08"/>
    <line class="cls-2" x1="359.69" y1="154.64" x2="359.69" y2="158.08"/>
    <path class="cls-2" d="M359.79,154.64h-.1"/>
    <line class="cls-2" x1="359.82" y1="158.08" x2="359.82" y2="158.08"/>
    <line class="cls-2" x1="359.79" y1="154.64" x2="359.82" y2="158.08"/>
    <line class="cls-2" x1="378.07" y1="139.82" x2="378.07" y2="139.71"/>
    <path class="cls-2" d="M20.27,158.08v.24"/>
    <path class="cls-2" d="M359.69,158.32v-.24"/>
    <path class="cls-2" d="M378.31,139.84h-.24"/>
    <path class="cls-2" d="M359.82,158.32v-.24"/>
    <path class="cls-2" d="M378.07,139.84v-.02"/>
    <path class="cls-2" d="M378.07,139.71h.24"/>
    <line class="cls-2" x1="359.82" y1="158.32" x2="360.98" y2="159.48"/>
    <line class="cls-2" x1="18.99" y1="159.48" x2="20.14" y2="158.32"/>
    <line class="cls-2" x1="20.27" y1="158.32" x2="359.69" y2="158.32"/>
    <path class="cls-2" d="M378.31,139.84c0,2.41-.47,4.83-1.4,7.06-.93,2.24-2.3,4.29-4.01,6-1.71,1.71-3.75,3.08-5.99,4.01-2.24.91-4.65,1.4-7.08,1.4"/>
    <line class="cls-2" x1="378.31" y1="52.5" x2="379.49" y2="51.34"/>
    <line class="cls-2" x1="379.49" y1="141" x2="378.31" y2="139.84"/>
    <line class="cls-2" x1="378.31" y1="139.71" x2="378.31" y2="52.63"/>
    <line class="cls-2" x1="52.63" y1="1.9" x2="52.63" y2="5.35"/>
    <line class="cls-2" x1=".5" y1="51.34" x2=".5" y2="141"/>
    <path class="cls-2" d="M.5,141c0,4.91,1.94,9.61,5.42,13.07,3.46,3.48,8.16,5.42,13.07,5.42"/>
    <line class="cls-2" x1="18.99" y1="159.48" x2="360.98" y2="159.48"/>
    <path class="cls-2" d="M360.98,159.48c4.91,0,9.61-1.94,13.09-5.42,3.46-3.46,5.42-8.16,5.42-13.07"/>
    <line class="cls-2" x1="379.49" y1="141" x2="379.49" y2="51.34"/>
    <path class="cls-2" d="M379.49,51.34c0-13.49-5.37-26.42-14.9-35.96-9.53-9.53-22.47-14.88-35.94-14.88"/>
    <line class="cls-2" x1="328.65" y1=".5" x2="51.34" y2=".5"/>
    <path class="cls-2" d="M51.34.5c-13.49,0-26.42,5.35-35.96,14.88C5.85,24.92.5,37.85.5,51.34"/>
    <path class="cls-2" d="M299.52,140.96c-17.52,2.25-35.18-3.15-48.46-14.81-13.26-11.67-20.87-28.49-20.87-46.16"/>
    <path class="cls-2" d="M70.36,138.78c3.31,1.01,6.66,1.73,10.1,2.19"/>
    <line class="cls-2" x1="343.51" y1="140.93" x2="337.37" y2="138.66"/>
    <line class="cls-2" x1="356.35" y1="125.87" x2="354.07" y2="120.91"/>
    <line class="cls-2" x1="19.05" y1="123.77" x2="21.32" y2="118.81"/>
    <path class="cls-2" d="M319.39,79.99c0,6.41-2.22,12.63-6.3,17.59-4.06,4.96-9.72,8.35-16.01,9.61"/>
    <path class="cls-2" d="M68.15,99.03c-4.86-5.16-7.57-11.96-7.57-19.04"/>
    <path class="cls-2" d="M198.44,98.48c0,4.67-3.79,8.45-8.45,8.45"/>
    <path class="cls-2" d="M198.44,24.53c0,4.67-3.79,8.45-8.45,8.45"/>
    <path class="cls-2" d="M181.54,98.48c0,4.67,3.79,8.45,8.45,8.45"/>
    <path class="cls-2" d="M189.99,90.03c-4.67,0-8.45,3.79-8.45,8.45"/>
    <line class="cls-2" x1="198.44" y1="61.51" x2="198.09" y2="61.51"/>
    <path class="cls-2" d="M181.54,61.51c0,4.67,3.79,8.45,8.45,8.45s8.45-3.79,8.45-8.45"/>
    <line class="cls-2" x1="181.88" y1="61.51" x2="181.54" y2="61.51"/>
    <line class="cls-2" x1="198.44" y1="135.45" x2="198.09" y2="135.45"/>
    <line class="cls-2" x1="181.88" y1="135.45" x2="181.54" y2="135.45"/>
    <path class="cls-2" d="M187.92,143.28c-3.56-.95-6.04-4.16-6.04-7.83"/>
    <line class="cls-2" x1="189.99" y1="32.98" x2="189.99" y2="32.63"/>
    <line class="cls-2" x1="189.99" y1="16.42" x2="189.99" y2="16.08"/>
    <path class="cls-2" d="M185.49,31.26c-2.97-1.97-4.29-5.66-3.25-9.07,1.03-3.41,4.18-5.76,7.75-5.76"/>
    <path class="cls-2" d="M189.99,92.47c3.31,0,6,2.69,6,6s-2.69,6-6,6"/>
    <line class="cls-2" x1="196" y1="61.51" x2="196.73" y2="61.51"/>
    <path class="cls-2" d="M183.97,61.51c0-3.31,2.69-6,6.02-6s6,2.69,6,6"/>
    <path class="cls-2" d="M183.97,135.45c0-3.31,2.69-6,6.02-6s6,2.69,6,6"/>
    <path class="cls-2" d="M183.97,24.53c0-3.33,2.69-6,6.02-6s6,2.68,6,6"/>
    <path class="cls-2" d="M184.9,98.48c0-.59.1-1.14.29-1.7"/>
    <line class="cls-2" x1="189.99" y1="98.48" x2="184.9" y2="98.48"/>
    <line class="cls-2" x1="189.99" y1="98.48" x2="195.07" y2="98.48"/>
    <line class="cls-2" x1="195.07" y1="61.51" x2="189.99" y2="61.51"/>
    <line class="cls-2" x1="189.99" y1="61.51" x2="184.9" y2="61.51"/>
    <line class="cls-2" x1="195.07" y1="24.53" x2="189.99" y2="24.53"/>
    <line class="cls-2" x1="189.99" y1="24.53" x2="184.9" y2="24.53"/>
    <path class="cls-2" d="M214.94,135.45c0-5.97-2.14-11.76-6.04-16.28"/>
    <line class="cls-2" x1="210.26" y1="135.45" x2="214.94" y2="135.45"/>
    <path class="cls-2" d="M203.58,120.41c4.26,3.85,6.67,9.32,6.67,15.04"/>
    <path class="cls-2" d="M189.99,12.87c3.08,0,6.05,1.24,8.24,3.43,2.19,2.19,3.41,5.14,3.41,8.24s-1.22,6.05-3.41,8.24c-2.19,2.19-5.16,3.41-8.24,3.41"/>
    <path class="cls-2" d="M189.99,35.63c2.94,0,5.76-1.17,7.83-3.25,2.09-2.09,3.26-4.91,3.26-7.85s-1.17-5.76-3.26-7.85-4.89-3.25-7.83-3.25"/>
    <path class="cls-2" d="M189.99,123.8c3.08,0,6.05,1.22,8.24,3.41,2.19,2.19,3.41,5.16,3.41,8.24s-1.22,6.05-3.41,8.24c-2.19,2.19-5.16,3.43-8.24,3.43"/>
    <path class="cls-2" d="M189.99,146.54c2.94,0,5.76-1.17,7.83-3.25,2.09-2.09,3.26-4.91,3.26-7.85s-1.17-5.76-3.26-7.85c-2.07-2.07-4.89-3.25-7.83-3.25"/>
    <path class="cls-2" d="M189.99,49.84c3.08,0,6.05,1.24,8.24,3.43,2.19,2.19,3.41,5.14,3.41,8.24s-1.22,6.05-3.41,8.24c-2.19,2.19-5.16,3.41-8.24,3.41"/>
    <path class="cls-2" d="M189.99,72.6c2.94,0,5.76-1.17,7.83-3.25,2.09-2.09,3.26-4.91,3.26-7.85s-1.17-5.76-3.26-7.85c-2.07-2.07-4.89-3.25-7.83-3.25"/>
    <path class="cls-2" d="M189.99,86.83c3.08,0,6.05,1.22,8.24,3.41,2.19,2.19,3.41,5.16,3.41,8.24s-1.22,6.05-3.41,8.24c-2.19,2.19-5.16,3.41-8.24,3.41"/>
    <path class="cls-2" d="M189.99,109.57c2.94,0,5.76-1.17,7.83-3.25,2.09-2.09,3.26-4.91,3.26-7.85s-1.17-5.76-3.26-7.85c-2.07-2.07-4.89-3.25-7.83-3.25"/>
    <path class="cls-2" d="M286.24,52.79c-6.28,1.26-11.94,4.65-16.01,9.61-4.08,4.96-6.3,11.18-6.3,17.59"/>
    <path class="cls-2" d="M263.94,79.99c0,8.3,3.72,16.17,10.15,21.44,6.41,5.27,14.85,7.37,23.01,5.76"/>
    <path class="cls-2" d="M68.15,99.03c7.8,8.26,19.86,10.93,30.41,6.72,10.56-4.19,17.47-14.41,17.47-25.76"/>
    <path class="cls-2" d="M116.03,79.99c0-7.08-2.71-13.88-7.55-19.04"/>
    <path class="cls-2" d="M194.23,54.6c-2.5-1.53-5.63-1.6-8.19-.16-2.56,1.42-4.16,4.13-4.16,7.06"/>
    <path class="cls-2" d="M187.92,143.28c2.43.64,5.03.11,7.02-1.42,1.99-1.53,3.15-3.9,3.15-6.41"/>
    <path class="cls-2" d="M185.49,31.26c1.34.9,2.89,1.37,4.5,1.37"/>
    <path class="cls-2" d="M80.46,140.96s-.03.39-.11,1.08c-.08.67-.2,1.63-.31,2.59"/>
    <path class="cls-2" d="M149.77,79.99c0,17.67-7.6,34.49-20.87,46.16-13.26,11.67-30.92,17.07-48.44,14.81"/>
    <path class="cls-2" d="M27.29,72.6s-.11.02-.31.02c-.1,0-.23.02-.39.02h-.24s-.1.02-.15.02h-.15c-.2.02-.49.02-.91.03-.41.02-.95.05-1.58.07"/>
    <path class="cls-2" d="M26.83,79.96c.02-2.46.16-4.91.46-7.36"/>
    <path class="cls-2" d="M299.52,19.02s.03-.39.1-1.08c.08-.67.2-1.63.31-2.59"/>
    <path class="cls-2" d="M230.2,79.99c0-17.67,7.6-34.49,20.87-46.16,13.28-11.67,30.93-17.07,48.46-14.81"/>
    <path class="cls-2" d="M352.69,87.38s.1-.02.31-.02c.1,0,.23-.02.38-.02.08,0,.16,0,.24-.02h.29c.21-.02.51-.02.91-.05.41-.02.96-.03,1.6-.07"/>
  </g>
  <g id="Make2D::可见线::正切线">
    <path class="cls-2" d="M356.84,79.99h-3.7"/>
    <path class="cls-2" d="M226.49,79.99h3.7"/>
    <path class="cls-2" d="M23.15,79.96h3.69s.02,0,0,0"/>
    <path class="cls-2" d="M153.48,79.99h-3.7"/>
    <path class="cls-2" d="M79.19,87.53c-2.01-2.41-2.95-5.53-2.66-8.65.29-3.13,1.81-6,4.24-8.01"/>
    <path class="cls-2" d="M80.77,70.87c-1.79-2.15-3.57-4.31-5.35-6.46"/>
    <path class="cls-2" d="M75.42,64.41c-4.63,3.85-7.33,9.56-7.33,15.58"/>
    <path class="cls-2" d="M68.1,79.99c0,7.83,4.52,14.96,11.6,18.29,7.1,3.33,15.47,2.27,21.49-2.72"/>
    <path class="cls-2" d="M101.19,95.56c-1.78-2.14-3.56-4.29-5.34-6.44"/>
    <path class="cls-2" d="M281.38,85.83c-1.55-2.72-1.96-5.96-1.13-8.99.83-3.02,2.84-5.6,5.56-7.15"/>
    <path class="cls-2" d="M285.82,69.7c-1.37-2.43-2.76-4.85-4.13-7.28"/>
    <path class="cls-2" d="M281.69,62.42c-6.33,3.59-10.23,10.3-10.23,17.57"/>
    <path class="cls-2" d="M271.46,79.99c0,7.2,3.82,13.85,10.03,17.47,6.22,3.61,13.9,3.65,20.15.1"/>
    <path class="cls-2" d="M301.64,97.56c-1.37-2.43-2.76-4.85-4.13-7.28"/>
    <path class="cls-2" d="M189.99,32.63c3.56,0,6.71-2.33,7.75-5.74,1.03-3.41-.29-7.1-3.26-9.09"/>
    <path class="cls-2" d="M198.09,135.45c0-3.67-2.48-6.89-6.04-7.83"/>
    <path class="cls-2" d="M181.88,61.51c0,2.81,1.47,5.42,3.85,6.89"/>
    <path class="cls-2" d="M198.09,98.48c0-4.47-3.62-8.09-8.09-8.09"/>
    <path class="cls-2" d="M189.99,90.38c-4.47,0-8.11,3.62-8.11,8.09"/>
    <path class="cls-2" d="M108.48,60.95h-.02s-.02.02-.02.03c-.03.03-.07.05-.1.08l-.13.13c-.08.07-.16.15-.24.23-.18.16-.34.33-.51.47"/>
    <path class="cls-2" d="M297.09,107.19v-.02s-.02-.02-.02-.03c0-.03-.02-.08-.02-.13-.02-.05-.03-.11-.03-.16-.03-.11-.05-.23-.08-.34-.03-.23-.08-.46-.13-.69"/>
    <line class="cls-2" x1="189.99" y1="135.45" x2="195.07" y2="135.45"/>
    <line class="cls-2" x1="189.99" y1="135.45" x2="184.9" y2="135.45"/>
    <path class="cls-2" d="M108.53,79.99c0,6.02-2.69,11.73-7.34,15.57"/>
    <line class="cls-2" x1="68.1" y1="79.99" x2="65.44" y2="79.99"/>
    <path class="cls-2" d="M65.44,79.99c0,6.07,2.4,11.89,6.69,16.19,4.29,4.29,10.12,6.69,16.19,6.69s11.88-2.4,16.17-6.69c4.29-4.29,6.71-10.12,6.71-16.19"/>
    <line class="cls-2" x1="111.19" y1="79.99" x2="108.53" y2="79.99"/>
    <path class="cls-2" d="M311.87,79.99c0,7.28-3.9,13.98-10.23,17.57"/>
    <line class="cls-2" x1="271.46" y1="79.99" x2="268.78" y2="79.99"/>
    <path class="cls-2" d="M268.78,79.99c0,6.07,2.41,11.89,6.71,16.19,4.29,4.29,10.12,6.69,16.17,6.69s11.89-2.4,16.19-6.69c4.29-4.29,6.71-10.12,6.71-16.19"/>
    <line class="cls-2" x1="314.55" y1="79.99" x2="311.87" y2="79.99"/>
    <path class="cls-2" d="M198.09,61.51c0,2.94-1.58,5.65-4.14,7.06-2.56,1.44-5.71,1.37-8.21-.18"/>
    <path class="cls-2" d="M189.99,106.57c-4.47,0-8.11-3.62-8.11-8.09"/>
    <line class="cls-2" x1="189.99" y1="90.38" x2="189.99" y2="90.03"/>
    <line class="cls-2" x1="189.99" y1="106.93" x2="189.99" y2="106.57"/>
    <path class="cls-2" d="M327.41,5.35c.07-1.14.07-2.3,0-3.44"/>
    <line class="cls-2" x1="359.69" y1="158.08" x2="20.27" y2="158.08"/>
    <path class="cls-2" d="M20.14,158.08h.02"/>
    <line class="cls-2" x1="378.07" y1="139.71" x2="374.64" y2="139.71"/>
    <path class="cls-2" d="M374.64,139.71v.1"/>
    <line class="cls-2" x1="374.64" y1="139.81" x2="378.07" y2="139.82"/>
    <path class="cls-2" d="M359.82,158.08c5.45-.02,10.87-2.63,14.26-6.87,2.55-3.18,3.98-7.29,3.98-11.37"/>
    <line class="cls-2" x1="359.69" y1="154.64" x2="20.27" y2="154.64"/>
    <line class="cls-2" x1="20.27" y1="154.64" x2="20.27" y2="158.08"/>
    <line class="cls-2" x1="20.18" y1="154.64" x2="20.16" y2="158.08"/>
    <line class="cls-2" x1="360.93" y1="102.08" x2="360.93" y2="123.77"/>
    <path class="cls-2" d="M25.92,90.04c-2.56,1.5-4.36,3.65-5.42,5.81-1.08,2.15-1.45,4.32-1.45,6.17"/>
    <path class="cls-2" d="M19.05,102.02c.75-.33,1.52-.72,2.27-1.22"/>
    <line class="cls-2" x1="19.05" y1="102.02" x2="19.05" y2="123.77"/>
    <path class="cls-2" d="M341.73,30.67c1.39-.08,2.71-.11,3.98-.11"/>
    <line class="cls-2" x1="340.15" y1="135.89" x2="346.28" y2="138.16"/>
    <line class="cls-2" x1="339.19" y1="133.78" x2="345.32" y2="136.05"/>
    <path class="cls-2" d="M358.65,103.39c.77-.38,1.52-.82,2.28-1.31"/>
    <path class="cls-2" d="M360.93,102.08c0-2.43-.67-4.85-1.86-6.93-1.21-2.09-2.97-3.83-5.03-5.04"/>
    <path class="cls-2" d="M354.05,90.11c-.21.8-.44,1.6-.69,2.38"/>
    <line class="cls-2" x1="34.65" y1="136.05" x2="40.78" y2="133.78"/>
    <path class="cls-2" d="M38.5,26.05c-1.47-.03-2.86-.02-4.21.03"/>
    <path class="cls-2" d="M34.26,30.55c1.29,0,2.61.03,3.98.11"/>
    <line class="cls-2" x1="345.71" y1="30.55" x2="338.65" y2="35.79"/>
    <line class="cls-2" x1="335.33" y1="127.45" x2="345.32" y2="136.05"/>
    <path class="cls-2" d="M46.28,129.05c-.55-.52-1.11-1.06-1.65-1.6"/>
    <line class="cls-2" x1="44.63" y1="127.45" x2="34.65" y2="136.05"/>
    <line class="cls-2" x1="34.26" y1="30.55" x2="41.32" y2="35.79"/>
    <path class="cls-2" d="M41.32,35.79c.51-.57,1.01-1.14,1.53-1.7"/>
    <path class="cls-2" d="M360.93,57.9c-.77-.49-1.52-.93-2.28-1.31"/>
    <path class="cls-2" d="M354.05,69.88c2.06-1.21,3.82-2.95,5.03-5.04,1.19-2.09,1.86-4.5,1.86-6.93"/>
    <path class="cls-2" d="M198.09,98.48c0,4.47-3.62,8.09-8.09,8.09"/>
    <path class="cls-2" d="M181.88,135.45c0-2.51,1.17-4.88,3.17-6.41,1.99-1.53,4.58-2.06,7-1.42"/>
    <path class="cls-2" d="M19.05,57.9c0,2.43.65,4.85,1.86,6.93,1.21,2.09,2.95,3.83,5.03,5.04"/>
    <line class="cls-2" x1="360.93" y1="55.96" x2="360.93" y2="57.9"/>
    <path class="cls-2" d="M181.88,98.48h1.35"/>
    <path class="cls-2" d="M194.48,17.79c-1.32-.88-2.89-1.37-4.49-1.37"/>
    <path class="cls-2" d="M189.99,91.74c.85,0,1.68.15,2.48.47.2.08.42.18.64.28.2.11.39.23.59.36.38.24.73.54,1.06.86.65.65,1.16,1.42,1.5,2.28.08.21.15.39.21.6.05.2.1.41.15.62.08.41.11.83.11,1.26"/>
    <path class="cls-2" d="M183.24,98.48c0-3.72,3.02-6.74,6.75-6.74"/>
    <path class="cls-2" d="M196.5,137.18c-.21.83-.57,1.58-1.09,2.27-.11.18-.28.38-.42.54-.16.18-.33.34-.49.49-.34.31-.72.57-1.11.8-.82.47-1.68.77-2.59.88-.23.02-.42.03-.64.03-.21.02-.42,0-.64,0-.42-.03-.83-.11-1.26-.21"/>
    <path class="cls-2" d="M191.71,128.92c3.61.96,5.76,4.65,4.8,8.26"/>
    <path class="cls-2" d="M188.26,141.98c-3.61-.96-5.74-4.65-4.8-8.24.95-3.61,4.63-5.76,8.24-4.81"/>
    <path class="cls-2" d="M195.59,28.27c-.47.72-1.06,1.32-1.76,1.81-.18.11-.39.24-.6.36-.2.11-.39.21-.6.31-.42.16-.86.31-1.32.39-.91.18-1.83.18-2.72-.02-.23-.05-.42-.1-.62-.16-.21-.07-.41-.15-.6-.23-.38-.16-.75-.36-1.11-.6"/>
    <path class="cls-2" d="M357.69,47.88c.46-1.4.85-2.74,1.19-4.05"/>
    <path class="cls-2" d="M21.09,43.84c.36,1.31.75,2.64,1.19,4.05"/>
    <path class="cls-2" d="M314.55,79.99c0-6.07-2.41-11.89-6.71-16.19-4.29-4.29-10.12-6.69-16.19-6.69s-11.88,2.4-16.17,6.69c-4.29,4.29-6.71,10.12-6.71,16.19"/>
    <path class="cls-2" d="M75.42,64.41c6.04-4.98,14.41-6.04,21.49-2.71,7.1,3.33,11.62,10.46,11.62,18.29"/>
    <path class="cls-2" d="M111.19,79.99c0-6.07-2.41-11.89-6.71-16.19-4.29-4.29-10.1-6.69-16.17-6.69s-11.89,2.4-16.19,6.69c-4.29,4.29-6.69,10.12-6.69,16.19"/>
    <path class="cls-2" d="M311.87,79.99c0-7.2-3.82-13.85-10.03-17.47-6.22-3.62-13.9-3.65-20.15-.1"/>
    <path class="cls-2" d="M285.82,69.7c2.74-1.55,5.97-1.94,8.99-1.11,3.03.83,5.6,2.82,7.15,5.56,1.55,2.72,1.96,5.96,1.13,8.99-.83,3.02-2.84,5.6-5.56,7.15"/>
    <path class="cls-2" d="M297.51,90.29c-2.74,1.55-5.97,1.94-8.99,1.11-3.03-.83-5.6-2.84-7.15-5.56"/>
    <path class="cls-2" d="M80.77,70.87c2.41-2.01,5.53-2.95,8.65-2.66,3.13.29,6,1.81,8.01,4.24,1.99,2.41,2.95,5.53,2.66,8.65-.29,3.13-1.83,6-4.24,8.01"/>
    <path class="cls-2" d="M95.85,89.11c-2.41,1.99-5.53,2.95-8.65,2.66-3.13-.29-6-1.81-8.01-4.24"/>
    <line class="cls-2" x1="378.07" y1="52.63" x2="378.07" y2="139.71"/>
    <line class="cls-2" x1="374.64" y1="52.63" x2="374.64" y2="139.71"/>
    <path class="cls-2" d="M20.18,154.64c-3.88-.02-7.72-1.65-10.46-4.37-2.76-2.71-4.36-6.58-4.37-10.46"/>
    <path class="cls-2" d="M374.64,52.63h-4.37"/>
    <line class="cls-2" x1="370.27" y1="52.63" x2="370.27" y2="139.71"/>
    <path class="cls-2" d="M370.27,139.71h4.37"/>
    <path class="cls-2" d="M374.64,139.81c-.31,0-.91,0-1.7-.02h-2.68"/>
    <path class="cls-2" d="M374.64,139.81c-.03,3.88-1.63,7.75-4.37,10.46-2.76,2.72-6.59,4.36-10.47,4.37"/>
    <path class="cls-2" d="M359.79,154.64v-1.68c0-.78-.02-1.73-.02-2.69"/>
    <path class="cls-2" d="M359.69,154.64v-4.37"/>
    <line class="cls-2" x1="359.69" y1="150.26" x2="20.27" y2="150.26"/>
    <path class="cls-2" d="M36.46,140.93v3.7"/>
    <path class="cls-2" d="M36.46,140.93c-.64,0-1.29-.23-1.78-.64s-.83-1-.95-1.63c-.1-.47-.05-.96.11-1.42s.44-.86.8-1.19"/>
    <path class="cls-2" d="M32.23,133.26c.64.72,1.26,1.44,1.7,1.96s.72.83.72.83"/>
    <line class="cls-2" x1="36.46" y1="144.63" x2="80.04" y2="144.63"/>
    <path class="cls-2" d="M55.96,15.35v3.7"/>
    <line class="cls-2" x1="80.04" y1="15.35" x2="55.96" y2="15.35"/>
    <path class="cls-2" d="M32.12,23.08c.72,1,1.44,2.01,2.17,3"/>
    <path class="cls-2" d="M34.29,26.08c-.7.51-1.14,1.35-1.14,2.22-.02.86.42,1.73,1.11,2.25"/>
    <path class="cls-2" d="M34.26,30.55s-.24.34-.65.88c-.41.55-.98,1.32-1.55,2.09"/>
    <line class="cls-2" x1="32.05" y1="33.52" x2="38.34" y2="38.17"/>
    <line class="cls-2" x1="33.85" y1="44.21" x2="27.57" y2="39.56"/>
    <path class="cls-2" d="M25.37,42.53c-.7-.52-1.65-.69-2.46-.42-.83.24-1.52.91-1.81,1.73"/>
    <path class="cls-2" d="M27.57,39.56c-.57.77-1.14,1.53-1.55,2.07-.39.55-.64.88-.65.9"/>
    <path class="cls-2" d="M21.09,43.84c-1.16-.41-2.32-.8-3.49-1.21"/>
    <path class="cls-2" d="M15.35,55.96h3.7"/>
    <line class="cls-2" x1="15.35" y1="55.96" x2="15.35" y2="57.9"/>
    <path class="cls-2" d="M15.35,57.9h3.7"/>
    <path class="cls-2" d="M19.05,102.02h-3.7"/>
    <line class="cls-2" x1="15.35" y1="102.02" x2="15.35" y2="123.77"/>
    <path class="cls-2" d="M23.64,125.87s.28.33.72.83c.44.52,1.06,1.24,1.7,1.97"/>
    <path class="cls-2" d="M15.35,123.77h3.7"/>
    <line class="cls-2" x1="26.05" y1="128.68" x2="36.57" y2="119.61"/>
    <line class="cls-2" x1="41.47" y1="125.3" x2="32.23" y2="133.26"/>
    <path class="cls-2" d="M170.15,111.12c-.15-3.64-.39-7.47-.83-11.68"/>
    <path class="cls-2" d="M139.82,145.68c4.27-1.57,8.03-3.12,11.52-4.68"/>
    <path class="cls-2" d="M160.43,141c1.62,1.57,3.34,3.12,5.3,4.68"/>
    <path class="cls-2" d="M177.4,114.83c-1.96-.34-3.85-.6-5.73-.82"/>
    <path class="cls-2" d="M160.79,59.65c.46-3.64.8-7.34,1.03-11.11"/>
    <path class="cls-2" d="M136.85,22.44c3.67,1.27,7.36,2.68,11.05,4.24"/>
    <path class="cls-2" d="M177.4,45.14c-1.83.33-3.74.6-5.73.83"/>
    <path class="cls-2" d="M169.32,60.54c.41-3.83.69-7.72.83-11.68"/>
    <path class="cls-2" d="M176.4,39.58c-1.63.46-3.41.86-5.32,1.24"/>
    <path class="cls-2" d="M170.23,19.96c-1.68,1.08-3.41,2.33-5.19,3.79"/>
    <path class="cls-2" d="M165.73,14.3c-1.76,1.4-3.54,2.97-5.3,4.68"/>
    <path class="cls-2" d="M151.34,18.99c-3.83-1.71-7.67-3.28-11.52-4.68"/>
    <path class="cls-2" d="M210.65,99.44c-.39,3.83-.67,7.72-.83,11.68"/>
    <path class="cls-2" d="M202.59,114.83c1.81-.31,3.72-.59,5.71-.82"/>
    <path class="cls-2" d="M208.9,119.17c-1.93.36-3.7.78-5.32,1.24"/>
    <path class="cls-2" d="M214.24,145.68c1.78-1.4,3.54-2.97,5.32-4.68"/>
    <path class="cls-2" d="M228.63,141c3.85,1.71,7.68,3.28,11.52,4.68"/>
    <path class="cls-2" d="M209.82,48.86c.15,3.64.39,7.47.83,11.68"/>
    <path class="cls-2" d="M219.2,59.65c-.46-3.64-.82-7.34-1.04-11.11"/>
    <path class="cls-2" d="M243.13,22.44c-3.69,1.27-7.37,2.68-11.06,4.24"/>
    <path class="cls-2" d="M240.15,14.3c-4.26,1.57-8.03,3.12-11.52,4.68"/>
    <path class="cls-2" d="M219.56,18.99c-1.62-1.57-3.34-3.12-5.32-4.68"/>
    <path class="cls-2" d="M209.75,19.96c1.66,1.08,3.41,2.33,5.19,3.79"/>
    <path class="cls-2" d="M202.59,45.14c1.94.36,3.85.62,5.71.83"/>
    <path class="cls-2" d="M203.58,39.58c1.62.46,3.39.86,5.32,1.24"/>
    <path class="cls-2" d="M345.71,30.55c.7-.52,1.13-1.39,1.13-2.25s-.44-1.71-1.14-2.22"/>
    <path class="cls-2" d="M347.91,33.52c-.57-.77-1.14-1.53-1.53-2.09-.41-.54-.65-.86-.67-.88"/>
    <path class="cls-2" d="M324.01,15.35v3.7"/>
    <path class="cls-2" d="M345.7,26.08c.72-1,1.44-2.01,2.17-3"/>
    <line class="cls-2" x1="324.01" y1="15.35" x2="299.93" y2="15.35"/>
    <line class="cls-2" x1="299.93" y1="144.63" x2="343.51" y2="144.63"/>
    <path class="cls-2" d="M345.32,136.05s.28-.31.72-.83c.46-.52,1.08-1.24,1.7-1.96"/>
    <path class="cls-2" d="M345.32,136.05c.36.33.65.73.82,1.19.1.29.15.6.15.91"/>
    <path class="cls-2" d="M346.28,138.16c0,.18,0,.34-.03.51-.11.64-.47,1.22-.96,1.63-.49.41-1.13.64-1.78.64"/>
    <path class="cls-2" d="M343.51,144.63v-3.7"/>
    <line class="cls-2" x1="347.73" y1="133.26" x2="338.5" y2="125.3"/>
    <line class="cls-2" x1="343.41" y1="119.61" x2="353.93" y2="128.68"/>
    <path class="cls-2" d="M360.93,123.77h3.69"/>
    <path class="cls-2" d="M353.93,128.68c.62-.73,1.24-1.45,1.68-1.97.46-.51.72-.82.73-.83"/>
    <line class="cls-2" x1="364.62" y1="123.77" x2="364.62" y2="102.08"/>
    <path class="cls-2" d="M364.62,102.08h-3.69"/>
    <path class="cls-2" d="M360.93,57.9h3.69"/>
    <path class="cls-2" d="M364.62,55.96h-3.69"/>
    <line class="cls-2" x1="364.62" y1="57.9" x2="364.62" y2="55.96"/>
    <path class="cls-2" d="M362.37,42.63c-1.16.41-2.33.8-3.49,1.21"/>
    <path class="cls-2" d="M358.88,43.84c-.28-.82-.98-1.48-1.79-1.73-.83-.26-1.78-.1-2.48.42"/>
    <path class="cls-2" d="M354.6,42.53s-.24-.34-.65-.9c-.41-.54-.98-1.31-1.55-2.07"/>
    <line class="cls-2" x1="352.4" y1="39.56" x2="346.14" y2="44.21"/>
    <line class="cls-2" x1="341.65" y1="38.17" x2="347.91" y2="33.52"/>
    <line class="cls-2" x1="1.66" y1="52.63" x2="1.66" y2="139.71"/>
    <line class="cls-2" x1="1.66" y1="52.5" x2="1.66" y2="52.63"/>
    <path class="cls-2" d="M1.9,52.56c-.15.07-.24.07-.24.07"/>
    <line class="cls-2" x1="1.9" y1="139.71" x2="1.9" y2="52.56"/>
    <path class="cls-2" d="M52.5,1.9v-.24"/>
    <path class="cls-2" d="M5.35,139.81c.31,0,.9,0,1.68-.02h2.69"/>
    <path class="cls-2" d="M5.35,139.71h4.37"/>
    <path class="cls-2" d="M52.52,5.35v4.37"/>
    <path class="cls-2" d="M5.35,52.56c0-6.23,1.27-12.38,3.64-18.09,1.19-2.84,2.64-5.58,4.36-8.16.21-.31.42-.64.65-.95.11-.16.21-.33.33-.47.03-.05.07-.1.08-.1,0-.02.02-.03.03-.05.02-.03.03-.05.07-.08.18-.24.42-.59.73-1,.64-.82,1.55-1.94,2.82-3.31.64-.69,1.37-1.44,2.22-2.22.42-.39.86-.8,1.34-1.21.47-.41.82-.69,1.19-1,1.48-1.21,2.9-2.2,4.19-3.03,1.31-.85,2.48-1.52,3.51-2.06.52-.28,1-.52,1.55-.78.55-.26,1.14-.54,1.79-.82,1.27-.55,2.76-1.13,4.44-1.66.83-.28,1.71-.52,2.66-.77.47-.11.98-.24,1.48-.36.49-.1.98-.2,1.45-.29,3.77-.72,6.67-.82,8.63-.82"/>
    <path class="cls-2" d="M52.5,1.9c-7.57,0-15.12,1.73-21.93,5.03-6.82,3.28-12.91,8.11-17.62,14.03C5.88,29.84,1.92,41.16,1.9,52.56"/>
    <path class="cls-2" d="M52.63,5.35v4.37"/>
    <path class="cls-2" d="M327.41,5.35c6.23,0,12.38,1.27,18.09,3.64,2.86,1.19,5.6,2.64,8.16,4.36.33.21.64.42.96.65.15.11.31.21.46.33.05.03.1.07.11.08.02,0,.02.02.03.03.03.02.07.03.1.07.24.18.57.42.98.73.82.64,1.96,1.55,3.31,2.82.69.64,1.44,1.37,2.22,2.22.39.41.8.86,1.21,1.34s.7.82,1,1.19c1.21,1.48,2.2,2.9,3.05,4.19.83,1.31,1.5,2.48,2.06,3.51.26.52.51,1,.78,1.55.26.55.54,1.14.82,1.79.55,1.27,1.13,2.76,1.65,4.44.28.83.54,1.71.77,2.66.13.47.24.98.36,1.48.11.49.21.98.29,1.45.72,3.77.82,6.67.83,8.63"/>
    <path class="cls-2" d="M378.07,52.5c0-7.57-1.73-15.12-5.01-21.93-3.28-6.82-8.13-12.91-14.05-17.62-8.88-7.06-20.18-11.03-31.6-11.05"/>
    <path class="cls-2" d="M370.27,52.52h4.37"/>
    <path class="cls-2" d="M9.72,52.52h-2.69c-.78,0-1.37,0-1.68.05"/>
    <path class="cls-2" d="M9.72,52.63h-2.69c-.78,0-1.37,0-1.68-.07"/>
    <line class="cls-2" x1="9.72" y1="139.71" x2="9.72" y2="52.63"/>
    <line class="cls-2" x1="5.35" y1="52.56" x2="5.35" y2="139.71"/>
    <path class="cls-2" d="M346.14,44.21c-1.39-2.09-2.87-4.11-4.49-6.04"/>
    <path class="cls-2" d="M352.4,39.56c.82-.6,1.75-1,2.77-1.17,1.01-.18,2.01-.11,2.99.18,1,.31,1.84.82,2.59,1.53.73.72,1.27,1.55,1.62,2.53"/>
    <path class="cls-2" d="M364.62,55.96c0-4.57-.75-9.02-2.25-13.33"/>
    <path class="cls-2" d="M364.62,57.9c0,2.95-.77,5.91-2.19,8.48-.7,1.29-1.58,2.48-2.59,3.56-1.03,1.09-2.17,2.02-3.41,2.81"/>
    <path class="cls-2" d="M356.84,79.99c0-2.41-.15-4.83-.41-7.24"/>
    <path class="cls-2" d="M356.43,87.22c.26-2.4.41-4.81.41-7.23"/>
    <path class="cls-2" d="M356.43,87.22c2.5,1.58,4.58,3.8,6,6.38,1.42,2.58,2.19,5.53,2.19,8.48"/>
    <path class="cls-2" d="M364.62,123.77c0,1.27-.34,2.43-1.03,3.49-.67,1.08-1.6,1.86-2.74,2.4-1.14.52-2.35.7-3.61.52-1.26-.18-2.35-.69-3.31-1.5"/>
    <path class="cls-2" d="M338.5,125.3c1.75-1.79,3.38-3.7,4.91-5.69"/>
    <path class="cls-2" d="M347.73,133.26c1.03.88,1.7,1.97,2.04,3.28.34,1.31.28,2.61-.2,3.87-.47,1.27-1.27,2.3-2.37,3.07-.28.2-.57.36-.86.51-.31.15-.64.28-.95.36-.62.2-1.24.29-1.89.29"/>
    <path class="cls-2" d="M226.49,79.99c0,4.73.52,9.41,1.53,14.05.13.57.26,1.13.41,1.68.13.57.28,1.13.44,1.68.29,1.11.64,2.2,1,3.3.73,2.19,1.58,4.32,2.55,6.43.13.26.23.51.36.75.11.26.23.51.36.75.24.51.49,1,.75,1.48.51,1,1.04,1.96,1.62,2.92,1.11,1.91,2.33,3.75,3.65,5.55.33.44.69.91,1.03,1.37.34.44.7.88,1.06,1.32.72.88,1.47,1.75,2.24,2.59,1.53,1.68,3.15,3.28,4.85,4.8.42.38.88.77,1.34,1.14.44.39.9.77,1.35,1.13.93.73,1.86,1.44,2.81,2.12,1.91,1.35,3.9,2.61,5.94,3.77,1.03.57,2.09,1.13,3.15,1.65,1.06.52,2.14,1.01,3.23,1.48,2.17.91,4.39,1.73,6.66,2.41,1.14.34,2.25.65,3.38.93,1.14.28,2.27.52,3.41.73,2.28.42,4.6.73,6.92.91.29.03.57.05.85.07s.55.03.83.05c.57.03,1.13.07,1.68.07,1.13.03,2.25.05,3.36.02,2.24-.05,4.47-.23,6.71-.51"/>
    <path class="cls-2" d="M299.93,15.35c-4.47-.57-8.94-.67-13.43-.33-.28.03-.57.05-.86.08s-.59.07-.88.08c-.57.07-1.16.13-1.73.21-1.16.16-2.3.34-3.44.55-2.28.44-4.55.98-6.79,1.66-1.11.34-2.25.72-3.36,1.13-1.13.39-2.22.83-3.31,1.29-2.17.93-4.29,1.97-6.36,3.13-2.06,1.16-4.03,2.41-5.94,3.77-1.91,1.37-3.74,2.82-5.5,4.39-.44.39-.85.77-1.26,1.16-.42.39-.83.78-1.24,1.19-.8.8-1.58,1.62-2.35,2.46-1.53,1.68-2.97,3.43-4.32,5.27-.34.46-.65.9-.98,1.35-.31.46-.62.91-.93,1.39-.6.91-1.19,1.86-1.76,2.82-1.11,1.91-2.14,3.87-3.07,5.89-.11.24-.23.52-.36.78-.11.28-.23.54-.34.8-.23.54-.44,1.06-.65,1.6-.42,1.08-.82,2.15-1.19,3.25-.72,2.19-1.34,4.41-1.84,6.66-.11.57-.24,1.16-.36,1.75-.11.57-.21,1.16-.31,1.75-.18,1.16-.34,2.32-.47,3.49-.26,2.35-.39,4.7-.39,7.06"/>
    <path class="cls-2" d="M347.87,23.08c-3.48-2.51-7.24-4.42-11.32-5.74-4.06-1.32-8.24-1.99-12.53-1.99"/>
    <path class="cls-2" d="M347.87,23.08c.82.6,1.48,1.37,1.94,2.28.24.46.42.93.54,1.42.11.47.18,1,.18,1.5.02,1.01-.21,1.99-.69,2.92-.47.93-1.11,1.7-1.93,2.32"/>
    <path class="cls-2" d="M36.57,119.61c1.52,1.99,3.15,3.9,4.89,5.69"/>
    <path class="cls-2" d="M26.05,128.68c-.96.82-2.07,1.32-3.33,1.5-1.24.18-2.45,0-3.61-.52-1.14-.52-2.06-1.32-2.74-2.4-.69-1.06-1.03-2.22-1.03-3.49"/>
    <path class="cls-2" d="M15.35,102.02c0-2.95.77-5.91,2.19-8.48.72-1.29,1.58-2.48,2.61-3.56,1.01-1.09,2.15-2.02,3.39-2.81"/>
    <path class="cls-2" d="M23.15,79.96c0,2.4.13,4.8.39,7.21"/>
    <path class="cls-2" d="M23.55,72.75c-.28,2.41-.41,4.81-.41,7.21"/>
    <path class="cls-2" d="M23.55,72.75c-2.5-1.57-4.6-3.79-6.02-6.36-1.42-2.58-2.19-5.53-2.19-8.48"/>
    <path class="cls-2" d="M17.6,42.63c-1.5,4.31-2.25,8.76-2.25,13.33"/>
    <path class="cls-2" d="M17.6,42.63c.34-.96.88-1.83,1.62-2.53.38-.36.77-.67,1.21-.91.42-.26.9-.47,1.39-.62.98-.29,1.97-.36,3-.18,1.03.18,1.94.57,2.76,1.17"/>
    <path class="cls-2" d="M38.34,38.17c-1.62,1.93-3.12,3.95-4.49,6.04"/>
    <path class="cls-2" d="M32.05,33.52c-.82-.62-1.47-1.39-1.93-2.3-.23-.47-.41-.93-.52-1.42-.1-.49-.16-1.01-.16-1.52,0-1.01.24-1.99.72-2.92.49-.91,1.13-1.68,1.96-2.28"/>
    <path class="cls-2" d="M55.96,15.35c-4.29,0-8.47.67-12.53,1.99-4.08,1.32-7.85,3.23-11.31,5.74"/>
    <path class="cls-2" d="M153.48,79.99c0-4.73-.51-9.43-1.53-14.05-.13-.57-.26-1.13-.39-1.68-.15-.57-.29-1.13-.44-1.68-.31-1.11-.65-2.2-1.01-3.3-.73-2.19-1.58-4.32-2.55-6.43-.11-.26-.23-.51-.34-.75-.13-.26-.24-.51-.38-.77-.24-.49-.49-.98-.75-1.48-.51-.98-1.04-1.94-1.6-2.9-1.13-1.91-2.35-3.75-3.65-5.55-.34-.44-.69-.91-1.04-1.37-.34-.44-.7-.88-1.06-1.32-.72-.88-1.47-1.75-2.22-2.59-1.53-1.68-3.15-3.28-4.86-4.8-.42-.38-.88-.77-1.34-1.16-.44-.38-.9-.75-1.35-1.11-.91-.73-1.86-1.44-2.81-2.12-1.91-1.35-3.88-2.61-5.94-3.77-1.03-.57-2.09-1.13-3.15-1.65-1.06-.52-2.14-1.03-3.21-1.48-2.19-.93-4.41-1.73-6.67-2.41-1.14-.34-2.25-.65-3.38-.93-1.13-.28-2.27-.52-3.41-.73-2.28-.42-4.58-.73-6.92-.93-.29-.02-.55-.03-.83-.05-.29-.02-.57-.03-.85-.05-.55-.03-1.13-.07-1.68-.08-1.13-.02-2.24-.03-3.36,0-2.24.05-4.47.23-6.71.51"/>
    <path class="cls-2" d="M80.04,144.63c4.47.57,8.94.67,13.43.31.28-.02.59-.05.88-.07.28-.03.57-.07.86-.08.59-.07,1.16-.15,1.73-.21,1.16-.16,2.3-.34,3.44-.55,2.28-.44,4.55-1,6.79-1.66,1.13-.34,2.27-.72,3.38-1.13,1.11-.39,2.2-.83,3.3-1.29,2.17-.93,4.29-1.97,6.36-3.13,2.07-1.16,4.03-2.41,5.94-3.77,1.91-1.37,3.74-2.82,5.5-4.39.44-.39.85-.77,1.27-1.16.41-.39.82-.78,1.22-1.19.82-.8,1.6-1.62,2.37-2.46,1.52-1.68,2.97-3.43,4.32-5.27.33-.46.65-.9.96-1.35.31-.46.64-.91.93-1.39.62-.93,1.21-1.86,1.76-2.82,1.13-1.91,2.14-3.87,3.07-5.89.11-.24.24-.52.36-.78.11-.28.23-.54.34-.8.23-.54.44-1.06.65-1.6.42-1.08.83-2.15,1.19-3.25.73-2.19,1.34-4.41,1.84-6.66.13-.57.24-1.16.36-1.75.11-.57.21-1.16.31-1.75.2-1.16.36-2.32.47-3.49.26-2.35.39-4.7.39-7.06"/>
    <path class="cls-2" d="M36.46,144.63c-1.35,0-2.58-.39-3.69-1.16s-1.91-1.79-2.38-3.07c-.46-1.26-.52-2.56-.2-3.87.08-.33.2-.64.33-.95.13-.31.29-.62.47-.88.34-.55.75-1.03,1.24-1.45"/>
    <line class="cls-2" x1="359.69" y1="150.26" x2="359.78" y2="150.26"/>
    <path class="cls-2" d="M359.78,150.26c1.37,0,2.71-.29,4-.83s2.43-1.29,3.39-2.25c.98-.96,1.75-2.09,2.28-3.39.54-1.29.8-2.63.82-4"/>
    <line class="cls-2" x1="370.27" y1="139.79" x2="370.27" y2="139.71"/>
    <line class="cls-2" x1="370.27" y1="52.63" x2="370.27" y2="52.52"/>
    <path class="cls-2" d="M370.27,52.52c-.02-1.39-.08-2.77-.23-4.16-.07-.69-.16-1.39-.28-2.09-.1-.69-.23-1.4-.38-2.07-.55-2.74-1.39-5.42-2.48-8.01-1.08-2.59-2.38-5.04-3.95-7.39-1.55-2.37-3.3-4.52-5.27-6.51-1.97-1.99-4.11-3.77-6.41-5.3-1.16-.78-2.35-1.5-3.59-2.15-.62-.33-1.26-.65-1.89-.95-.64-.31-1.31-.6-1.96-.86-2.59-1.08-5.25-1.89-8.03-2.45-2.77-.57-5.56-.85-8.35-.85"/>
    <line class="cls-2" x1="327.45" y1="9.72" x2="327.36" y2="9.72"/>
    <line class="cls-2" x1="327.36" y1="9.72" x2="52.63" y2="9.72"/>
    <line class="cls-2" x1="52.63" y1="9.72" x2="52.52" y2="9.72"/>
    <path class="cls-2" d="M52.52,9.72c-1.39,0-2.77.07-4.16.21-.69.08-1.39.16-2.09.28-.69.1-1.4.23-2.07.38-2.74.57-5.42,1.4-8.01,2.48-2.59,1.09-5.04,2.4-7.39,3.95-2.37,1.57-4.52,3.31-6.51,5.27-1.99,1.97-3.77,4.11-5.3,6.43-.78,1.14-1.5,2.35-2.15,3.59-.33.62-.65,1.24-.95,1.88-.31.65-.6,1.31-.86,1.96-1.08,2.59-1.89,5.25-2.45,8.04-.57,2.77-.85,5.55-.85,8.34"/>
    <line class="cls-2" x1="9.72" y1="52.52" x2="9.72" y2="52.63"/>
    <line class="cls-2" x1="9.72" y1="139.71" x2="9.72" y2="139.79"/>
    <path class="cls-2" d="M9.72,139.79c0,1.37.28,2.71.82,4,.54,1.29,1.29,2.43,2.27,3.39.98.96,2.1,1.71,3.39,2.25,1.31.55,2.64.83,4,.83"/>
    <path class="cls-2" d="M327.45,9.72v-2.69c0-.78,0-1.37-.05-1.68"/>
    <path class="cls-2" d="M327.36,9.72v-2.69c0-.78,0-1.37.05-1.68"/>
    <line class="cls-2" x1="52.63" y1="5.35" x2="327.41" y2="5.35"/>
    <path class="cls-2" d="M1.9,52.56c1.14-.07,2.3-.05,3.44,0"/>
    <path class="cls-2" d="M69.16,98.09c-.16.15-.34.31-.51.47-.08.08-.16.15-.24.23-.05.05-.1.08-.13.13-.03.02-.07.05-.1.08,0,.02-.02.02-.02.02,0,.02-.02.02-.02.02h0"/>
    <path class="cls-2" d="M286.52,54.15c-.05-.21-.1-.44-.13-.67-.03-.11-.05-.23-.08-.34,0-.05-.02-.11-.03-.16,0-.05-.02-.1-.02-.13,0-.02,0-.03-.02-.03,0,0,.02-.02,0-.02"/>
    <path class="cls-2" d="M186.24,30.13c-.24.38-.51.75-.75,1.13"/>
    <path class="cls-2" d="M188.26,141.98c-.11.44-.23.86-.34,1.31"/>
    <path class="cls-2" d="M193.53,55.76c.23-.39.47-.77.7-1.16"/>
    <path class="cls-2" d="M196.73,98.48h1.35"/>
    <path class="cls-2" d="M114.65,79.99s0,0,0,0h-3.46"/>
    <path class="cls-2" d="M65.44,79.99h-3.48"/>
    <path class="cls-2" d="M318.01,79.99h-3.46"/>
    <path class="cls-2" d="M268.78,79.99h-3.46"/>
    <path class="cls-2" d="M185.73,68.39c.24-.38.47-.77.72-1.14"/>
    <path class="cls-2" d="M192.05,127.62c-.11.44-.23.88-.34,1.31"/>
    <path class="cls-2" d="M196.73,98.48c0,3.72-3.02,6.74-6.74,6.74s-6.75-3.02-6.75-6.74"/>
    <path class="cls-2" d="M193.73,18.92c3.1,2.07,3.93,6.27,1.86,9.35"/>
    <path class="cls-2" d="M186.24,30.13c-3.1-2.06-3.93-6.25-1.86-9.35s6.27-3.93,9.35-1.86"/>
    <path class="cls-2" d="M194.48,17.79c-.24.38-.49.75-.75,1.13"/>
  </g>
  <g id="_图层_3" data-name="图层 3">
    <path class="cls-1" d="M51.64,86.25h-2.74v-10.34c-1,.94-2.18,1.63-3.54,2.08v-2.49c.72-.23,1.49-.68,2.33-1.33s1.42-1.42,1.73-2.29h2.23v14.38Z"/>
    <path class="cls-1" d="M334.84,83.7v2.55h-9.62c.1-.96.42-1.88.94-2.74.52-.86,1.55-2.01,3.09-3.43,1.24-1.15,2-1.93,2.28-2.34.38-.57.57-1.13.57-1.68,0-.61-.17-1.08-.49-1.41-.33-.33-.78-.49-1.36-.49s-1.03.17-1.37.52c-.34.34-.53.92-.59,1.72l-2.73-.27c.16-1.51.67-2.59,1.53-3.25s1.93-.99,3.22-.99c1.41,0,2.52.38,3.33,1.14.81.76,1.21,1.71,1.21,2.84,0,.64-.12,1.26-.35,1.84-.23.58-.6,1.19-1.1,1.83-.33.42-.93,1.03-1.8,1.83-.87.79-1.42,1.32-1.65,1.58-.23.26-.42.51-.56.76h5.45Z"/>
    <path class="cls-1" d="M201.83,19.01l1.99-.24c.06.51.23.9.51,1.17s.62.4,1.01.4c.42,0,.78-.16,1.07-.48.29-.32.44-.76.44-1.3,0-.52-.14-.93-.42-1.23s-.62-.45-1.02-.45c-.26,0-.58.05-.94.15l.23-1.68c.56.01.98-.11,1.27-.36.29-.26.44-.6.44-1.02,0-.36-.11-.65-.32-.87-.21-.21-.5-.32-.86-.32s-.65.12-.9.37-.4.6-.45,1.07l-1.9-.32c.13-.65.33-1.17.6-1.56.27-.39.64-.69,1.11-.92.48-.22,1.01-.33,1.6-.33,1.01,0,1.82.32,2.43.97.5.53.75,1.12.75,1.79,0,.94-.51,1.69-1.54,2.26.62.13,1.11.43,1.48.89.37.46.55,1.01.55,1.66,0,.94-.34,1.75-1.03,2.41s-1.55,1-2.57,1c-.97,0-1.78-.28-2.42-.84-.64-.56-1.01-1.29-1.11-2.19Z"/>
    <path class="cls-1" d="M205.94,73.46v-2.16h-4.39v-1.8l4.66-6.82h1.73v6.81h1.33v1.81h-1.33v2.16h-1.99ZM205.94,69.49v-3.67l-2.47,3.67h2.47Z"/>
    <path class="cls-1" d="M201.94,91.35l2.05-.21c.06.46.23.83.52,1.1.29.27.62.41,1,.41.43,0,.79-.17,1.09-.52.3-.35.45-.88.45-1.58,0-.66-.15-1.15-.44-1.48-.29-.33-.68-.5-1.15-.5-.59,0-1.12.26-1.59.78l-1.67-.24,1.05-5.59h5.44v1.93h-3.88l-.32,1.82c.46-.23.93-.34,1.41-.34.91,0,1.69.33,2.32,1,.63.67.95,1.53.95,2.59,0,.88-.26,1.67-.77,2.37-.7.95-1.67,1.42-2.91,1.42-.99,0-1.8-.27-2.42-.8s-1-1.25-1.12-2.15Z"/>
    <path class="cls-1" d="M208.88,140.68l-1.99.22c-.05-.41-.18-.71-.38-.91-.21-.19-.47-.29-.8-.29-.43,0-.8.2-1.1.59-.3.39-.49,1.2-.57,2.44.51-.61,1.15-.91,1.91-.91.86,0,1.59.33,2.21.98.61.65.92,1.5.92,2.53,0,1.1-.32,1.98-.97,2.64s-1.47,1-2.48,1c-1.08,0-1.98-.42-2.67-1.26-.7-.84-1.05-2.22-1.05-4.14s.36-3.39,1.09-4.25,1.67-1.3,2.83-1.3c.82,0,1.49.23,2.02.68.54.46.88,1.12,1.02,1.99ZM204.21,145.16c0,.67.15,1.19.46,1.55.31.36.66.55,1.05.55s.7-.15.95-.45c.25-.3.38-.79.38-1.46s-.14-1.21-.41-1.53c-.27-.32-.62-.49-1.03-.49s-.73.16-1,.47c-.27.31-.41.77-.41,1.37Z"/>
  </g>
</svg>